<?xml version="1.0" encoding="UTF-8"?>
<svg id="Capa_1" data-name="Capa 1" xmlns="http://www.w3.org/2000/svg" viewBox="0 0 56 38">
  <defs>
    <style>
      .cls-1 {
        stroke-width: .18px;
      }

      .cls-1, .cls-2 {
        fill: #fab612;
        stroke: #cc6d28;
      }

      .cls-2 {
        stroke-width: .14px;
      }

      .cls-3 {
        fill: #fff;
      }

      .cls-4 {
        fill: #cc6d28;
      }

      .cls-5 {
        fill: #5ba3da;
      }
    </style>
  </defs>
  <rect class="cls-5" x="-.5" y="-.72" width="57" height="39.44"/>
  <rect class="cls-3" x="-.5" y="12.67" width="57" height="12.67"/>
  <g id="rays">
    <path class="cls-2" d="M28.59,20.91l1.33,2.9s.04.09.1.06.02-.12.02-.12l-1.8-4.86-.48.2.75,1.64h.09c0,.06,0,.12,0,.18h0Z"/>
    <path class="cls-2" d="M28.51,20.74h-.32c-.02.71.41,1.11.35,1.75s.3,1,.37,1.25c.08.25-.09.39-.01.43.07.03.23-.16.18-.52-.05-.35-.32-.46-.26-1.24.06-.71-.25-.93-.24-1.5l-.08-.18Z"/>
    <path class="cls-2" d="M28.6,20.74h-.09l.08.18c0-.06,0-.11,0-.18Z"/>
    <path class="cls-2" d="M27.81,20.99l.12,3.19s0,.1.06.1.06-.1.06-.1l.2-5.18h-.52l.07,1.8.08.03c-.03.05-.05.1-.08.15Z"/>
    <path class="cls-2" d="M27.89,20.84l-.08-.03v.19s.05-.1.08-.15Z"/>
    <path class="cls-2" d="M26.86,24.12c.05.06.28-.06.36-.4.09-.35-.12-.55.24-1.25.33-.64.12-.96.35-1.48v-.19l-.31-.12c-.3.65-.04,1.18-.34,1.75-.3.57-.11,1.04-.13,1.3s-.23.34-.18.39h0Z"/>
    <path class="cls-2" d="M26.91,20.36c-.53.49-.49,1.08-.99,1.49-.49.41-.5.92-.62,1.15-.12.23-.34.22-.32.3.02.08.28.05.49-.24.21-.29.1-.55.69-1.06.55-.46.48-.84.9-1.23l.06-.18-.23-.23h0Z"/>
    <path class="cls-2" d="M27.13,20.59l-.06.18s.08-.07.13-.11l-.06-.06Z"/>
    <path class="cls-2" d="M25.98,23.88c.06.02.1-.06.1-.06l2.16-4.71-.48-.2-.63,1.69.06.06s-.09.07-.13.11l-1.11,3s-.04.09.02.12h0Z"/>
    <path class="cls-2" d="M26.59,20.14l-.13.14s.1-.03.16-.05c0,0-.03-.08-.03-.08Z"/>
    <path class="cls-2" d="M26.47,19.84c-.67.25-.87.81-1.48,1s-.81.66-1.01.83c-.2.17-.4.07-.41.15,0,.08.24.15.55-.03.31-.18.3-.47,1.04-.71.68-.22.76-.59,1.3-.8l.13-.14-.12-.3Z"/>
    <path class="cls-2" d="M24.27,22.73s.11-.02.11-.02l3.8-3.52-.37-.36-1.22,1.32.03.08c-.06.01-.11.03-.16.05l-2.17,2.34s-.07.07-.02.11h0Z"/>
    <path class="cls-4" d="M28.46,20.87h-.13c.03.68.42.99.35,1.61.17-.5-.24-.88-.21-1.61h0Z"/>
    <polygon class="cls-4" points="28.12 18.96 27.88 19.06 29.36 22.29 28.12 18.96"/>
    <path class="cls-4" d="M27.3,22.47c.34-.39.12-.91.42-1.57l-.12-.06c-.23.65.01,1.08-.3,1.63Z"/>
    <polygon class="cls-4" points="27.87 19.01 28 22.57 28.13 19.01 27.87 19.01"/>
    <path class="cls-4" d="M26.02,21.93c.47-.23.46-.79.99-1.29l-.09-.1c-.46.51-.4,1-.9,1.39Z"/>
    <polygon class="cls-4" points="27.88 18.96 26.63 22.29 28.12 19.06 27.88 18.96"/>
    <path class="cls-4" d="M25.05,20.95c.52-.03.72-.56,1.41-.81l-.04-.13c-.62.3-.75.77-1.37.94Z"/>
    <polygon class="cls-4" points="27.9 18.91 25.48 21.52 28.08 19.1 27.9 18.91"/>
  </g>
  <g id="rays-2">
    <path class="cls-2" d="M26.09,19.59l-2.9,1.33s-.09.03-.07.1c.02.06.12.02.12.02l4.86-1.8-.2-.48-1.64.75v.09c-.06,0-.12,0-.18,0h0Z"/>
    <path class="cls-2" d="M24.52,19.54c-.64-.06-1,.3-1.25.37-.25.08-.4-.09-.43-.01s.16.23.51.18c.35-.05.46-.32,1.24-.26.71.06.93-.25,1.5-.24l.18-.08v-.32c-.71-.02-1.11.41-1.75.35h0Z"/>
    <path class="cls-2" d="M26.27,19.6v-.09l-.18.08c.06,0,.11,0,.18,0Z"/>
    <path class="cls-2" d="M26.32,18.51c-.65-.3-1.18-.04-1.75-.34-.57-.3-1.04-.11-1.3-.13-.26-.02-.34-.23-.39-.18-.06.05.06.28.4.36.34.09.55-.12,1.24.24.64.33.96.12,1.48.35h.19l.12-.31h0Z"/>
    <path class="cls-2" d="M22.82,19.07l5.18.19v-.52l-1.8.07-.04.08s-.1-.05-.15-.08l-3.19.12s-.1,0-.1.06.1.06.1.06h0Z"/>
    <path class="cls-2" d="M26.2,18.81h-.19s.1.05.15.08l.04-.08h0Z"/>
    <path class="cls-2" d="M23.12,16.98c-.02.06.07.1.07.1l4.71,2.16.2-.48-1.69-.63-.06.06s-.07-.09-.11-.13l-3-1.11s-.09-.04-.12.02h0Z"/>
    <path class="cls-2" d="M26.64,17.91c-.49-.52-1.08-.49-1.49-.99-.41-.49-.92-.5-1.15-.62-.23-.12-.22-.34-.3-.32-.08.02-.05.28.24.49.29.21.55.1,1.06.69.46.55.84.48,1.23.9l.18.06.23-.23h0Z"/>
    <path class="cls-2" d="M26.41,18.14l-.18-.06s.07.08.11.13l.06-.06Z"/>
    <path class="cls-2" d="M27.16,17.47c-.25-.67-.81-.87-1-1.48-.19-.62-.66-.81-.83-1.01-.17-.2-.07-.4-.15-.41-.08,0-.15.24.03.55.19.31.47.3.71,1.04.22.68.59.76.8,1.3l.14.13.3-.12Z"/>
    <path class="cls-2" d="M24.27,15.27s.02.11.02.11l3.53,3.8.37-.36-1.32-1.22-.08.03c-.01-.06-.03-.11-.05-.16l-2.35-2.17s-.07-.07-.11-.02h0Z"/>
    <path class="cls-2" d="M26.86,17.59l-.14-.13s.04.1.05.16l.08-.03Z"/>
    <polygon class="cls-4" points="28.04 19.12 27.95 18.88 24.71 20.36 28.04 19.12"/>
    <path class="cls-4" d="M24.53,19.68c.5.17.88-.24,1.61-.22v-.13c-.68.03-.99.42-1.61.35Z"/>
    <path class="cls-4" d="M24.53,18.3c.39.34.91.12,1.57.42l.06-.12c-.65-.23-1.08.01-1.63-.3Z"/>
    <polygon class="cls-4" points="28 19.13 28 18.87 24.44 19 28 19.13"/>
    <polygon class="cls-4" points="27.95 19.12 28.04 18.87 24.71 17.64 27.95 19.12"/>
    <path class="cls-4" d="M26.46,17.92c-.51-.46-1-.4-1.39-.9.23.47.79.45,1.29.99,0,0,.1-.09.1-.09Z"/>
    <polygon class="cls-4" points="27.91 19.09 28.09 18.9 25.48 16.48 27.91 19.09"/>
    <path class="cls-4" d="M26.05,16.05c.03.52.56.72.81,1.41l.13-.04c-.3-.62-.77-.75-.94-1.37Z"/>
  </g>
  <g id="rays-3">
    <path class="cls-2" d="M27.41,17.09l-1.33-2.9s-.04-.09-.1-.06c-.06.02-.02.11-.02.11l1.8,4.86.48-.2-.75-1.64h-.09c0-.06,0-.12,0-.18Z"/>
    <path class="cls-2" d="M27.49,17.27h.33c.02-.71-.41-1.11-.36-1.75.06-.64-.3-1-.37-1.25-.08-.25.09-.4.01-.43s-.23.16-.18.51c.05.35.32.46.26,1.24-.06.71.25.93.24,1.5l.08.18h0Z"/>
    <path class="cls-2" d="M27.4,17.27h.09l-.08-.18c0,.06,0,.11,0,.18Z"/>
    <path class="cls-2" d="M28.19,17.01l-.12-3.19s0-.1-.06-.1-.06.1-.06.1l-.19,5.18h.52l-.07-1.8-.08-.03c.03-.05.05-.1.08-.15h0Z"/>
    <path class="cls-2" d="M28.11,17.17l.08.03v-.19s-.05.1-.08.15Z"/>
    <path class="cls-2" d="M28.19,17.01v.19l.31.12c.3-.65.04-1.18.34-1.75s.11-1.03.13-1.3c.02-.26.23-.34.18-.39-.05-.06-.28.06-.36.41-.09.34.12.55-.24,1.24-.33.64-.12.96-.35,1.48h0Z"/>
    <path class="cls-2" d="M29.09,17.64c.53-.49.49-1.08.99-1.49.49-.41.5-.92.62-1.15.12-.23.34-.22.32-.3-.02-.08-.28-.05-.49.24s-.1.55-.69,1.06c-.55.46-.48.84-.9,1.23l-.06.18.23.23Z"/>
    <path class="cls-2" d="M28.87,17.41l.06-.18s-.08.07-.13.11l.06.06Z"/>
    <path class="cls-2" d="M30.02,14.12c-.06-.02-.1.06-.1.06l-2.16,4.71.48.2.63-1.69-.06-.06s.09-.07.13-.11l1.11-3s.04-.09-.02-.11Z"/>
    <path class="cls-2" d="M29.53,18.16c.67-.25.87-.81,1.48-1s.81-.66,1.01-.82c.2-.17.4-.07.41-.15,0-.08-.24-.15-.55.03-.31.18-.3.47-1.04.71-.68.22-.76.59-1.3.8l-.13.14.12.3h0Z"/>
    <path class="cls-2" d="M31.73,15.27s-.11.02-.11.02l-3.8,3.53.37.36,1.22-1.32-.03-.08c.06-.01.11-.03.16-.05l2.17-2.34s.07-.07.02-.11h0Z"/>
    <path class="cls-2" d="M29.41,17.86l.13-.14s-.1.04-.16.05c0,0,.03.08.03.08Z"/>
    <path class="cls-4" d="M27.54,17.14h.13c-.03-.68-.42-.98-.35-1.61-.17.5.24.88.21,1.61h0Z"/>
    <polygon class="cls-4" points="27.88 19.05 28.12 18.94 26.64 15.71 27.88 19.05"/>
    <polygon class="cls-4" points="27.87 19 28.13 19 28 15.44 27.87 19"/>
    <path class="cls-4" d="M28.29,17.11l.12.06c.23-.65-.01-1.08.3-1.63-.34.39-.12.91-.42,1.57Z"/>
    <polygon class="cls-4" points="28.12 19.05 29.37 15.71 27.89 18.95 28.12 19.05"/>
    <path class="cls-4" d="M29.98,16.07c-.47.23-.45.79-.99,1.29l.09.1c.46-.51.4-1,.9-1.39Z"/>
    <polygon class="cls-4" points="28.1 19.09 30.52 16.48 27.92 18.9 28.1 19.09"/>
    <path class="cls-4" d="M30.95,17.05c-.52.03-.72.56-1.41.81l.04.13c.62-.3.75-.77,1.37-.94Z"/>
  </g>
  <g id="rays-4">
    <path class="cls-2" d="M29.73,18.81c.72.02,1.11-.41,1.75-.35.64.06,1-.3,1.25-.37s.4.09.43.01-.16-.23-.52-.18c-.35.05-.46.32-1.24.26-.71-.06-.93.25-1.5.24l-.18.08s0,.32,0,.32Z"/>
    <path class="cls-2" d="M29.73,18.49l.18-.08c-.05,0-.11,0-.18,0v.09Z"/>
    <path class="cls-2" d="M32.88,16.98c-.02-.06-.12-.02-.12-.02l-4.86,1.8.2.48,1.64-.75v-.09c.06,0,.12,0,.18,0l2.9-1.33s.09-.03.07-.1h0Z"/>
    <path class="cls-2" d="M29.8,19.19h.19s-.1-.05-.15-.08l-.04.08h0Z"/>
    <path class="cls-2" d="M29.68,19.49c.65.3,1.19.04,1.75.34.57.3,1.04.11,1.3.13s.34.23.39.18c.06-.05-.06-.28-.4-.36s-.55.12-1.24-.24c-.64-.33-.96-.12-1.48-.35h-.19l-.12.31h0Z"/>
    <path class="cls-2" d="M33.28,19c0-.06-.1-.06-.1-.06l-5.18-.2v.52l1.8-.07.04-.08s.1.05.15.08l3.19-.12s.1,0,.1-.06h0Z"/>
    <path class="cls-2" d="M32.88,21.02c.02-.06-.07-.1-.07-.1l-4.71-2.16-.2.48,1.69.63.06-.06s.07.09.11.13l3,1.11s.09.03.12-.02h0Z"/>
    <path class="cls-2" d="M29.36,20.09c.49.53,1.08.49,1.49.99.41.49.92.5,1.15.62.23.12.22.34.3.32.07-.02.05-.28-.24-.49-.29-.21-.55-.1-1.06-.69-.46-.55-.84-.48-1.23-.89l-.18-.06-.23.23h0Z"/>
    <path class="cls-2" d="M29.59,19.87l.18.06s-.07-.08-.11-.13l-.06.06Z"/>
    <path class="cls-2" d="M28.84,20.53c.25.67.81.87,1,1.48.19.61.65.81.82,1.01.17.2.07.4.15.4.08,0,.15-.24-.03-.55-.18-.31-.47-.3-.71-1.04-.22-.68-.59-.76-.8-1.3l-.14-.13-.3.12h0Z"/>
    <path class="cls-2" d="M29.14,20.41l.14.13s-.04-.1-.05-.16l-.08.03Z"/>
    <path class="cls-2" d="M31.73,22.73s-.02-.11-.02-.11l-3.53-3.8-.37.36,1.32,1.22.08-.03c.01.06.03.11.05.16l2.35,2.17s.07.07.11.02h0Z"/>
    <polygon class="cls-4" points="28.05 19.12 31.29 17.64 27.96 18.88 28.05 19.12"/>
    <path class="cls-4" d="M31.47,18.33c-.5-.17-.88.24-1.61.21v.13c.68-.03.99-.42,1.61-.35h0Z"/>
    <polygon class="cls-4" points="28 18.87 28 19.14 31.56 19 28 18.87"/>
    <path class="cls-4" d="M31.47,19.71c-.39-.34-.91-.12-1.57-.42l-.06.12c.65.23,1.08,0,1.63.3h0Z"/>
    <polygon class="cls-4" points="28.05 18.88 27.96 19.13 31.29 20.37 28.05 18.88"/>
    <path class="cls-4" d="M29.54,20.08c.51.46,1,.4,1.39.9-.23-.47-.79-.45-1.29-.99l-.1.09Z"/>
    <polygon class="cls-4" points="28.09 18.92 27.91 19.1 30.52 21.52 28.09 18.92"/>
    <path class="cls-4" d="M29.95,21.95c-.03-.52-.56-.72-.81-1.41l-.12.04c.3.62.77.75.94,1.37h0Z"/>
  </g>
  <path class="cls-1" d="M28,16.89c1.16,0,2.11.95,2.11,2.11s-.95,2.11-2.11,2.11-2.11-.95-2.11-2.11.95-2.11,2.11-2.11Z"/>
  <path id="loweyecontour" class="cls-4" d="M28.72,18.55c-.14,0-.28.06-.36.19.16.15.52.16.76-.01-.1-.11-.26-.18-.4-.18h0ZM28.72,18.58c.14,0,.27.06.29.13-.16.18-.42.16-.58.03.07-.11.19-.16.3-.16h0Z"/>
  <path id="uppalpebra" class="cls-4" d="M28.74,18.45c-.21,0-.26.05-.35.13-.1.08-.15.06-.16.08-.01.01,0,.06.03.05.03-.01.09-.05.19-.13s.2-.08.29-.08c.29,0,.45.24.49.23.03-.01-.16-.28-.49-.28h0Z"/>
  <path id="eyebrow_nose" data-name="eyebrow nose" class="cls-4" d="M29.33,18.55c-.37-.33-.84-.37-1.1-.13-.06.08-.1.18-.12.27-.03.19.02.38.17.59-.01,0-.05.01-.06.03-.13-.25-.18-.5-.13-.74,0-.06.03-.12.05-.19.36-.29.84-.33,1.2.16h0Z"/>
  <path id="pupil" class="cls-4" d="M28.71,18.56c.08,0,.15.06.15.15s-.07.15-.15.15-.15-.06-.15-.15.06-.15.15-.15Z"/>
  <path id="lowpalpebra" class="cls-4" d="M29.14,18.81c-.28.21-.55.2-.71.1s-.16-.13-.13-.13c.03,0,.06.03.2.1.13.06.33.06.65-.06h0Z"/>
  <path class="cls-4" d="M27.67,19.29c-.07.01-.12.07-.12.14,0,.08.07.14.15.14.04,0,.09-.02.12-.06.05.04.13.04.18.04h.02s.12,0,.18-.04c.02.04.07.06.12.06.08,0,.15-.06.15-.14,0-.07-.05-.13-.12-.14.04.01.06.05.06.09,0,.05-.04.1-.09.1s-.09-.04-.1-.09c-.01.03-.08.13-.2.13s-.19-.1-.2-.13c0,.05-.04.09-.1.09s-.1-.04-.1-.1c0-.04.02-.08.06-.09h0Z"/>
  <path class="cls-4" d="M27.84,19.73c-.16,0-.23.15-.37.25.08-.03.14-.09.26-.16.11-.06.21.01.28.01h0c.06,0,.16-.08.28-.01s.18.13.26.16c-.15-.1-.21-.25-.37-.25-.03,0-.09.02-.16.05h0c-.06-.03-.13-.05-.16-.05h0Z"/>
  <path class="cls-4" d="M27.78,19.92c-.06,0-.15.01-.27.05.3-.06.35.03.49.03h0c.13,0,.19-.1.49-.03-.33-.1-.39-.03-.49-.03h0c-.06,0-.11-.02-.22-.02h0Z"/>
  <path class="cls-4" d="M27.53,19.97h-.06c.34.03.18.23.54.23h0c.35,0,.2-.2.54-.23-.36-.03-.25.18-.54.18h0c-.28,0-.19-.18-.47-.18h0Z"/>
  <path class="cls-4" d="M28.29,20.5c0-.16-.13-.29-.29-.29s-.29.13-.29.29c.03-.14.15-.23.29-.23s.26.09.29.23h0Z"/>
  <path id="eyebrow_nose-2" data-name="eyebrow nose-2" class="cls-4" d="M26.69,18.55c.37-.33.84-.37,1.1-.13.06.08.1.18.12.27.03.19-.02.38-.17.59.02,0,.05.01.07.03.13-.25.17-.5.13-.74,0-.06-.03-.12-.05-.19-.35-.29-.84-.33-1.2.16h0Z"/>
  <path id="uppalpebra-2" class="cls-4" d="M27.27,18.45c.21,0,.26.05.36.13.09.08.14.06.16.08.01.01,0,.06-.03.05-.03-.01-.1-.05-.2-.13-.09-.08-.19-.08-.29-.08-.29,0-.45.24-.49.23-.03-.01.16-.28.49-.28h0Z"/>
  <path id="loweyecontour-2" class="cls-4" d="M27.26,18.55c-.14,0-.28.06-.36.19.16.15.52.16.76-.01-.11-.11-.26-.18-.4-.18h0ZM27.26,18.58c.14,0,.27.06.29.13-.16.18-.42.16-.59.03.07-.11.19-.16.3-.16h0Z"/>
  <path id="pupil-2" class="cls-4" d="M27.28,18.56c.08,0,.15.06.15.15s-.06.15-.15.15-.14-.06-.14-.15.06-.15.14-.15Z"/>
  <path id="lowpalpebra-2" class="cls-4" d="M26.88,18.81c.28.21.55.2.71.1s.16-.13.13-.13c-.03,0-.06.03-.19.1-.13.06-.33.06-.65-.06h0Z"/>
</svg>