<?xml version="1.0" encoding="UTF-8"?>
<svg id="Capa_1" data-name="Capa 1" xmlns="http://www.w3.org/2000/svg" viewBox="0 0 56 38">
  <defs>
    <style>
      .cls-1, .cls-2, .cls-3, .cls-4, .cls-5, .cls-6, .cls-7, .cls-8, .cls-9, .cls-10, .cls-11, .cls-12, .cls-13, .cls-14, .cls-15, .cls-16, .cls-17, .cls-18, .cls-19, .cls-20, .cls-21, .cls-22, .cls-23, .cls-24, .cls-25, .cls-26, .cls-27, .cls-28, .cls-29, .cls-30, .cls-31, .cls-32, .cls-33, .cls-34, .cls-35, .cls-36, .cls-37, .cls-38, .cls-39, .cls-40, .cls-41, .cls-42 {
        stroke: #7f2210;
      }

      .cls-1, .cls-5, .cls-6, .cls-19 {
        fill: #e41c25;
      }

      .cls-1, .cls-8, .cls-9, .cls-10, .cls-13, .cls-15, .cls-17, .cls-19, .cls-29, .cls-35 {
        stroke-width: .03px;
      }

      .cls-2, .cls-3, .cls-5, .cls-7, .cls-14, .cls-18, .cls-27, .cls-31 {
        stroke-width: .05px;
      }

      .cls-2, .cls-43 {
        fill: #3962ac;
      }

      .cls-3 {
        fill: #df86b7;
        stroke-miterlimit: 10;
      }

      .cls-4, .cls-6, .cls-11 {
        stroke-width: .06px;
      }

      .cls-4, .cls-7, .cls-8, .cls-44 {
        fill: #008f6f;
      }

      .cls-45 {
        fill: #ffd504;
      }

      .cls-9, .cls-12, .cls-18, .cls-20, .cls-21, .cls-22, .cls-24, .cls-25, .cls-26, .cls-27, .cls-28, .cls-29, .cls-30, .cls-33, .cls-34, .cls-36, .cls-37, .cls-38, .cls-39, .cls-40, .cls-41, .cls-42 {
        fill: none;
      }

      .cls-9, .cls-17, .cls-18 {
        stroke-linecap: round;
      }

      .cls-10, .cls-46 {
        fill: #7f2210;
      }

      .cls-11 {
        fill: #fed692;
      }

      .cls-12 {
        stroke-width: 0px;
      }

      .cls-47 {
        fill: #e30615;
      }

      .cls-13, .cls-48, .cls-17, .cls-23, .cls-31, .cls-32, .cls-35 {
        fill: #e5ad00;
      }

      .cls-13, .cls-17, .cls-18, .cls-19 {
        stroke-linejoin: round;
      }

      .cls-14, .cls-15, .cls-16 {
        fill: #fff;
      }

      .cls-16 {
        stroke-width: .03px;
      }

      .cls-20 {
        stroke-width: .01px;
      }

      .cls-21 {
        stroke-width: .02px;
      }

      .cls-22 {
        stroke-width: .02px;
      }

      .cls-23, .cls-38 {
        stroke-width: .06px;
      }

      .cls-24 {
        stroke-width: .05px;
      }

      .cls-25 {
        stroke-width: .04px;
      }

      .cls-26 {
        stroke-width: .05px;
      }

      .cls-28 {
        stroke-width: .03px;
      }

      .cls-30 {
        stroke-width: .03px;
      }

      .cls-32 {
        stroke-width: .04px;
      }

      .cls-33 {
        stroke-width: .09px;
      }

      .cls-34 {
        stroke-width: .09px;
      }

      .cls-36 {
        stroke-width: .07px;
      }

      .cls-37 {
        stroke-width: .06px;
      }

      .cls-39 {
        stroke-width: .08px;
      }

      .cls-40 {
        stroke-width: .07px;
      }

      .cls-41 {
        stroke-width: .08px;
      }

      .cls-42 {
        stroke-width: .11px;
      }
    </style>
  </defs>
  <g>
    <rect class="cls-47" x="-.5" y="-.76" width="57" height="39.53"/>
    <rect class="cls-45" x="-.5" y="9.12" width="57" height="19.76"/>
  </g>
  <g>
    <path class="cls-5" d="M22.3,14.68l-.19.42-.27.46-.86.59h-5l-.64-.51-.49-.53-.03-.31-.12-.11c.33-.3.88-.6,1.49-.58,1.1.05.85-.4,2.31-.4s1.2.45,2.3.4c.61-.03,1.17.27,1.49.58Z"/>
    <path class="cls-31" d="M18.51,15.89c-1.02,0-1.93.13-2.59.33-.04.01-.09,0-.1-.05-.02-.04,0-.09.05-.11.66-.21,1.6-.34,2.64-.35,1.04,0,1.99.13,2.65.35.04.01.07.06.05.11-.01.04-.06.06-.1.05-.66-.2-1.57-.33-2.59-.33"/>
    <path class="cls-31" d="M18.52,15.06l.09.02s-.02.08-.02.13c0,.2.17.37.37.37.16,0,.31-.11.35-.25,0,0,.04-.13.05-.13.01,0,.01.14.02.14.02.19.18.31.37.31.2,0,.37-.16.37-.37,0-.01,0-.03,0-.04l.12-.12.06.15s-.04.1-.04.16c0,.19.16.35.35.35.12,0,.23-.06.3-.16l.08-.1v.12c0,.12.05.23.16.25,0,0,.13,0,.31-.13.17-.14.27-.26.27-.26l.02.14s-.14.23-.3.32c-.08.05-.22.11-.32.09-.11-.02-.19-.11-.23-.22-.08.05-.17.08-.27.08-.22,0-.41-.12-.48-.31-.1.11-.24.18-.39.18-.17,0-.33-.08-.42-.2-.1.09-.23.15-.37.15-.19,0-.35-.1-.45-.24-.09.14-.26.24-.45.24-.14,0-.27-.06-.37-.15-.1.12-.25.2-.42.2-.16,0-.3-.07-.39-.18-.08.18-.27.31-.48.31-.1,0-.19-.03-.27-.08-.04.11-.12.2-.23.22-.1.02-.23-.04-.32-.09-.16-.09-.3-.32-.3-.32l.02-.14s.1.12.27.26c.17.14.31.13.31.13.11-.02.16-.13.16-.25v-.12l.08.1c.06.1.17.16.29.16.2,0,.36-.16.36-.35,0-.06-.01-.11-.04-.16l.06-.15.12.12s0,.03,0,.04c0,.2.17.37.37.37.18,0,.35-.12.37-.31,0,0,0-.14.02-.14.02,0,.05.13.05.13.05.15.19.25.35.25.21,0,.37-.16.37-.37,0-.05,0-.09-.02-.13l.1-.02"/>
    <path class="cls-31" d="M20.38,14.4l-.11.09-.16-.27c.17-.11.29-.3.29-.51,0-.03,0-.05,0-.07-.02-.34-.42-.63-.92-.63-.26,0-.5.08-.67.19,0-.05,0-.1-.02-.14.19-.11.42-.18.69-.18.58,0,1.04.35,1.06.75,0,.03,0,.05,0,.07,0,.22-.1.41-.25.55l.08.14Z"/>
    <path class="cls-31" d="M16.72,14.26c-.15-.14-.25-.33-.25-.55,0-.03,0-.05,0-.07.02-.41.48-.75,1.06-.75.26,0,.5.07.69.18,0,.05-.01.09-.02.14-.17-.12-.41-.19-.67-.19-.51,0-.91.28-.92.63,0,.02,0,.05,0,.07,0,.21.12.4.29.51l-.16.27-.1-.09.08-.14Z"/>
    <path class="cls-31" d="M18.51,12.81c.13,0,.25.09.28.22.02.11.03.23.03.36,0,.02,0,.07,0,.09,0,.28.04.52.1.67l-.41.41-.41-.41c.06-.15.09-.4.1-.67,0-.02,0-.07,0-.09,0-.13.01-.25.03-.36.03-.12.15-.22.28-.22"/>
    <path class="cls-31" d="M18.51,12.94c.07,0,.13.05.14.11.02.1.03.22.03.34,0,.01,0,.07,0,.08,0,.26.04.49.09.64l-.27.26-.27-.26c.05-.14.09-.37.09-.64,0-.02,0-.07,0-.08,0-.12.01-.24.03-.34.01-.06.08-.11.15-.11"/>
    <path class="cls-31" d="M20.38,14.4c.2-.16.32-.36.32-.6,0-.27-.17-.5-.42-.66.16.13.25.3.27.49,0,.03,0,.05,0,.07,0,.22-.1.41-.25.55l.08.14Z"/>
    <path class="cls-31" d="M22.13,14.67c.11-.13.18-.3.18-.48,0-.11-.02-.22-.07-.31-.16-.35-.67-.6-1.27-.6-.16,0-.32.02-.47.05.03.03.06.08.08.12.12-.02.25-.04.38-.04.55,0,1.01.22,1.15.52.04.08.06.16.06.25,0,.18-.08.35-.21.46l.2.34.1-.11-.12-.2"/>
    <path class="cls-31" d="M21.92,13.54c.14.1.25.21.31.34.04.1.07.2.07.31,0,.18-.07.35-.18.48l.12.2c.12-.16.18-.34.18-.53,0-.33-.2-.62-.51-.81"/>
    <path class="cls-31" d="M16.72,14.26c-.15-.14-.25-.33-.25-.55,0-.03,0-.05,0-.07.01-.19.11-.36.27-.49-.26.16-.42.4-.42.66,0,.23.12.44.32.6l.08-.14Z"/>
    <path class="cls-31" d="M14.89,14.67l-.12.2.09.11.2-.34c-.13-.11-.21-.28-.21-.46,0-.09.02-.18.05-.25.13-.3.59-.52,1.15-.52.13,0,.27.01.39.04.02-.04.05-.08.08-.12-.15-.03-.3-.05-.47-.05-.6,0-1.11.25-1.27.6-.04.1-.07.2-.07.31,0,.18.07.35.18.48"/>
    <path class="cls-31" d="M15.09,13.54c-.31.19-.51.48-.51.81,0,.19.06.37.18.53l.12-.2c-.11-.13-.18-.3-.18-.48,0-.11.02-.22.07-.31.06-.13.17-.25.32-.34"/>
    <path class="cls-14" d="M14.55,14.97s.04-.08.08-.08c.05,0,.08.04.08.08s-.04.08-.08.08-.08-.04-.08-.08Z"/>
    <path class="cls-14" d="M14.44,14.76s.04-.08.08-.08.08.04.08.08c0,.05-.04.08-.08.08-.05,0-.08-.04-.08-.08Z"/>
    <path class="cls-14" d="M14.36,14.52s.04-.08.08-.08.08.04.08.08-.04.08-.08.08c-.05,0-.08-.04-.08-.08Z"/>
    <path class="cls-14" d="M14.35,14.26s.04-.08.08-.08.08.04.08.08c0,.05-.04.08-.08.08s-.08-.04-.08-.08Z"/>
    <path class="cls-14" d="M14.41,14s.04-.08.08-.08.08.03.08.08-.04.08-.08.08-.08-.04-.08-.08Z"/>
    <path class="cls-14" d="M14.54,13.77s.04-.08.08-.08.08.04.08.08-.04.08-.08.08-.08-.04-.08-.08Z"/>
    <path class="cls-14" d="M14.71,13.58s.04-.08.08-.08.08.04.08.08-.04.08-.08.08-.08-.04-.08-.08Z"/>
    <path class="cls-14" d="M14.91,13.42s.04-.08.08-.08.08.04.08.08-.04.08-.08.08c-.05,0-.08-.04-.08-.08Z"/>
    <path class="cls-14" d="M15.15,13.29s.04-.08.08-.08.08.03.08.08-.04.08-.08.08c-.05,0-.08-.04-.08-.08Z"/>
    <path class="cls-14" d="M15.39,13.2s.04-.08.08-.08.08.04.08.08-.04.08-.08.08-.08-.04-.08-.08Z"/>
    <path class="cls-14" d="M15.67,13.15s.04-.08.08-.08.08.04.08.08-.04.08-.08.08c-.05,0-.08-.04-.08-.08Z"/>
    <path class="cls-14" d="M15.93,13.13s.04-.08.08-.08.08.03.08.08c0,.04-.04.08-.08.08s-.08-.04-.08-.08Z"/>
    <path class="cls-14" d="M16.18,13.14s.04-.08.08-.08.08.04.08.08-.04.08-.08.08-.08-.04-.08-.08Z"/>
    <path class="cls-14" d="M16.44,13.14s.04-.08.08-.08c.05,0,.08.04.08.08s-.04.08-.08.08c-.04,0-.08-.04-.08-.08Z"/>
    <path class="cls-14" d="M16.31,13.37s.04-.08.08-.08.08.03.08.08-.04.08-.08.08-.08-.04-.08-.08"/>
    <path class="cls-14" d="M16.26,13.62s.04-.08.08-.08.08.04.08.08-.04.08-.08.08-.08-.04-.08-.08"/>
    <path class="cls-14" d="M16.25,13.87s.04-.08.08-.08.08.04.08.08-.04.08-.08.08c-.05,0-.08-.04-.08-.08"/>
    <path class="cls-14" d="M16.32,14.1s.04-.08.08-.08.08.04.08.08c0,.05-.04.08-.08.08s-.08-.04-.08-.08"/>
    <path class="cls-14" d="M16.47,14.31s.04-.08.08-.08.08.04.08.08-.04.08-.08.08-.08-.03-.08-.08"/>
    <path class="cls-14" d="M16.63,12.98s.04-.08.08-.08.08.04.08.08c0,.05-.04.08-.08.08s-.08-.04-.08-.08Z"/>
    <path class="cls-14" d="M16.86,12.85s.04-.08.08-.08.08.04.08.08-.04.08-.08.08-.08-.04-.08-.08Z"/>
    <path class="cls-14" d="M17.11,12.78s.04-.08.08-.08.08.04.08.08-.04.08-.08.08-.08-.03-.08-.08Z"/>
    <path class="cls-14" d="M17.37,12.73s.04-.08.08-.08.08.04.08.08c0,.05-.04.08-.08.08s-.08-.03-.08-.08Z"/>
    <path class="cls-14" d="M17.62,12.73s.04-.08.08-.08c.04,0,.08.04.08.08s-.04.08-.08.08c-.05,0-.08-.03-.08-.08Z"/>
    <path class="cls-14" d="M17.89,12.78s.04-.08.08-.08.08.04.08.08c0,.05-.04.08-.08.08s-.08-.03-.08-.08Z"/>
    <path class="cls-14" d="M18.13,12.87s.04-.08.08-.08.08.04.08.08-.04.08-.08.08-.08-.04-.08-.08Z"/>
    <path class="cls-14" d="M18.36,14.2c0-.08.06-.14.14-.14s.14.06.14.14-.06.14-.14.14-.14-.06-.14-.14Z"/>
    <path class="cls-14" d="M18.36,13.92c0-.08.06-.14.14-.14s.14.06.14.14-.06.14-.14.14-.14-.06-.14-.14"/>
    <path class="cls-14" d="M18.39,13.62c0-.06.05-.11.12-.11s.11.05.11.11-.05.11-.11.11-.12-.05-.12-.11"/>
    <path class="cls-14" d="M18.42,13.35s.04-.08.08-.08.08.04.08.08c0,.05-.04.08-.08.08s-.08-.04-.08-.08"/>
    <path class="cls-14" d="M18.44,13.11s.03-.07.07-.07c.04,0,.06.03.06.07,0,.03-.03.06-.06.06-.04,0-.07-.03-.07-.06"/>
    <path class="cls-14" d="M22.38,15.05s-.08-.04-.08-.08.04-.08.08-.08.08.04.08.08-.04.08-.08.08Z"/>
    <path class="cls-14" d="M22.49,14.85s-.08-.04-.08-.08.04-.08.08-.08c.05,0,.08.04.08.08,0,.05-.04.08-.08.08Z"/>
    <path class="cls-14" d="M22.57,14.6s-.08-.04-.08-.08.04-.08.08-.08.08.04.08.08-.04.08-.08.08Z"/>
    <path class="cls-14" d="M22.58,14.34s-.08-.04-.08-.08c0-.04.04-.08.08-.08s.08.04.08.08c0,.05-.04.08-.08.08Z"/>
    <path class="cls-14" d="M22.51,14.09s-.08-.04-.08-.08.04-.08.08-.08.08.03.08.08-.04.08-.08.08Z"/>
    <path class="cls-14" d="M22.39,13.85s-.08-.04-.08-.08.04-.08.08-.08c.04,0,.08.04.08.08s-.04.08-.08.08Z"/>
    <path class="cls-14" d="M22.22,13.66s-.08-.04-.08-.08.04-.08.08-.08.08.04.08.08-.04.08-.08.08Z"/>
    <path class="cls-14" d="M22.02,13.5s-.08-.04-.08-.08.04-.08.08-.08.08.04.08.08-.04.08-.08.08Z"/>
    <path class="cls-14" d="M21.78,13.37s-.08-.04-.08-.08.04-.08.08-.08c.05,0,.08.03.08.08s-.04.08-.08.08Z"/>
    <path class="cls-14" d="M21.54,13.28s-.08-.04-.08-.08c0-.05.04-.08.08-.08.05,0,.08.04.08.08s-.04.08-.08.08Z"/>
    <path class="cls-14" d="M21.26,13.23s-.08-.04-.08-.08.04-.08.08-.08c.05,0,.08.04.08.08s-.04.08-.08.08Z"/>
    <path class="cls-14" d="M21,13.22s-.08-.04-.08-.08c0-.05.04-.08.08-.08s.08.03.08.08c0,.04-.04.08-.08.08Z"/>
    <path class="cls-14" d="M20.75,13.23s-.08-.04-.08-.08c0-.05.04-.08.08-.08s.08.04.08.08-.04.08-.08.08Z"/>
    <path class="cls-14" d="M20.49,13.23s-.08-.04-.08-.08c0-.05.04-.08.08-.08s.08.04.08.08-.04.08-.08.08Z"/>
    <path class="cls-14" d="M20.7,13.37s-.04.08-.08.08-.08-.04-.08-.08.04-.08.08-.08c.05,0,.08.03.08.08"/>
    <path class="cls-14" d="M20.75,13.62s-.04.08-.08.08-.08-.04-.08-.08c0-.05.04-.08.08-.08.05,0,.08.04.08.08"/>
    <path class="cls-14" d="M20.76,13.87s-.04.08-.08.08c-.05,0-.08-.04-.08-.08s.04-.08.08-.08.08.04.08.08"/>
    <path class="cls-14" d="M20.69,14.1s-.04.08-.08.08-.08-.04-.08-.08c0-.04.04-.08.08-.08s.08.04.08.08"/>
    <path class="cls-14" d="M20.55,14.31s-.04.08-.08.08-.08-.03-.08-.08.04-.08.08-.08.08.04.08.08"/>
    <path class="cls-14" d="M20.3,13.07s-.08-.04-.08-.08c0-.04.04-.08.08-.08s.08.04.08.08c0,.05-.04.08-.08.08Z"/>
    <path class="cls-14" d="M20.07,12.94s-.08-.04-.08-.08c0-.05.04-.08.08-.08s.08.04.08.08-.04.08-.08.08Z"/>
    <path class="cls-14" d="M19.82,12.86s-.08-.03-.08-.08.04-.08.08-.08.08.04.08.08-.04.08-.08.08Z"/>
    <path class="cls-14" d="M19.56,12.81s-.08-.03-.08-.08.04-.08.08-.08.08.04.08.08c0,.05-.04.08-.08.08Z"/>
    <path class="cls-14" d="M19.3,12.81s-.08-.03-.08-.08.04-.08.08-.08c.05,0,.08.04.08.08s-.04.08-.08.08Z"/>
    <path class="cls-14" d="M19.04,12.86s-.08-.03-.08-.08c0-.04.04-.08.08-.08s.08.04.08.08c0,.05-.04.08-.08.08Z"/>
    <path class="cls-14" d="M18.79,12.95s-.08-.04-.08-.08.04-.08.08-.08.08.04.08.08-.04.08-.08.08Z"/>
    <path class="cls-2" d="M18.17,12.5c0-.18.15-.33.34-.33s.34.15.34.33-.15.33-.34.33-.34-.15-.34-.33"/>
    <g id="Layer_4" data-name="Layer 4">
      <path class="cls-31" d="M18.84,12.43h-.24v-.52h.18v-.18h-.18v-.18h-.18v.18h-.18v.18h.18v.52h-.24s0,.03,0,.05c0,.05.01.09.03.13h.61s.03-.09.03-.13c0-.02,0-.03,0-.05Z"/>
    </g>
    <path class="cls-31" d="M16.69,15.22s-.04-.05-.05-.09c0-.03,0-.07.02-.1,0,0-.07-.03-.14-.05-.06-.02-.15-.02-.18-.02-.03,0-.09,0-.09,0,0,0,0,.01.02.04.02.03.04.06.04.06-.1.02-.18.09-.23.16.07.05.17.09.27.08,0,0,0,.03-.01.07,0,.03,0,.05,0,.05,0,0,.06-.02.08-.03.03,0,.12-.04.16-.07.06-.04.11-.1.11-.1Z"/>
    <path class="cls-31" d="M18.64,15.06s.04-.06.04-.11c0-.04-.01-.07-.04-.1,0,0,.07-.05.14-.09.06-.03.16-.05.2-.05.03,0,.1-.02.1-.02,0,0,0,.01-.01.05-.02.05-.03.07-.03.07.11,0,.22.06.29.14-.07.07-.18.13-.29.14,0,0,.02.03.03.07.01.04.01.05.01.05l-.1-.02s-.14-.03-.2-.05c-.08-.03-.15-.09-.15-.09h0Z"/>
    <path class="cls-31" d="M15.88,15.28c-.09-.04-.2-.05-.29-.04,0,0,0-.02,0-.07,0-.03,0-.05,0-.05,0,0-.05.04-.1.06-.05.03-.15.08-.19.13-.04.05-.06.13-.06.13,0,0,.05-.18,0-.3-.05-.12-.15-.14-.15-.14l-.02.08c-.04-.05-.11-.09-.19-.09-.13,0-.23.1-.23.23,0,0,.17-.02.27.04.1.05.18.22.18.22,0,0,0-.02.01-.02.04-.04.12-.03.18.02.03.02.05.05.05.08.03,0,.09.01.13.02.06,0,.17-.01.2-.02.03,0,.1-.02.1-.02,0,0,0-.01-.03-.04-.03-.03-.06-.06-.06-.06.09-.04.16-.11.2-.18Z"/>
    <path class="cls-31" d="M16.91,15.18s.02-.06.02-.1c0-.03-.02-.06-.05-.08,0,0,.05-.06.11-.1.05-.03.14-.06.16-.07.03,0,.08-.03.08-.03,0,0,0,.01,0,.05,0,.04-.01.07-.01.07.1-.01.2.02.27.08-.05.08-.13.14-.23.16,0,0,.02.02.04.06.02.03.02.04.02.04,0,0-.06,0-.09,0s-.12,0-.18-.01c-.07-.02-.14-.06-.14-.06h0Z"/>
    <path class="cls-31" d="M18.39,15.06s-.04-.06-.04-.11c0-.04.01-.07.04-.1,0,0-.07-.05-.14-.09-.06-.03-.16-.05-.2-.05-.03,0-.1-.02-.1-.02,0,0,0,.01.02.05.02.05.03.07.03.07-.11,0-.22.06-.29.14.07.07.18.13.29.14,0,0-.02.03-.03.07-.01.04-.02.05-.02.05,0,0,.07-.01.1-.02.03,0,.14-.03.2-.05.08-.03.14-.09.14-.09h0Z"/>
    <path class="cls-31" d="M18.73,14.42c-.05.02-.07.04-.07.04,0-.12-.07-.23-.15-.3-.08.08-.13.19-.14.3,0,0-.02-.02-.07-.04-.06-.02-.1-.01-.1-.01,0,0,.03.08.04.11.01.03.03.12.06.2.03.08.08.14.08.14.03-.03.08-.06.13-.06s.1.02.13.06c0,0,.05-.06.08-.14.03-.08.05-.17.06-.2.01-.03.04-.11.04-.11,0,0-.04,0-.1.01Z"/>
    <path class="cls-31" d="M16.89,14.61s-.05.05-.05.05c-.02-.1-.09-.19-.17-.24-.06.08-.09.18-.08.28,0,0-.02-.02-.07-.02-.05-.01-.09,0-.09,0,0,0,.04.06.06.09.01.02.04.1.08.16.04.06.09.11.09.11.02-.03.06-.06.1-.07.05,0,.09,0,.12.03,0,0,.03-.06.05-.13.02-.07.02-.16.02-.18,0-.03.02-.1.02-.1,0,0-.04,0-.08.03Z"/>
    <path class="cls-31" d="M20.1,15.09s.02-.06.05-.08c0,0-.05-.06-.11-.1-.05-.03-.14-.06-.16-.07-.03,0-.08-.03-.08-.03,0,0,0,.01,0,.05,0,.04.01.07.01.07-.1-.01-.2.02-.27.08.05.08.14.14.23.16,0,0-.02.02-.04.06-.02.03-.02.04-.02.04h.09s.13,0,.18-.02c.07-.02.14-.06.14-.06h0s-.02-.06-.02-.1Z"/>
    <path class="cls-31" d="M20.52,14.68s-.07.02-.07.02c.01-.1-.02-.21-.08-.28-.08.05-.15.14-.18.24,0,0,0-.02-.05-.05-.04-.03-.08-.03-.08-.03,0,0,.01.08.02.1,0,.03,0,.11.02.18.02.07.05.13.05.13.03-.03.07-.04.12-.03.04,0,.08.04.1.07,0,0,.05-.05.09-.11.04-.06.07-.14.08-.16.02-.03.05-.09.05-.09,0,0-.04-.02-.09,0Z"/>
    <path class="cls-31" d="M20.68,15.31c.1.01.2-.02.27-.08-.05-.08-.13-.14-.23-.16,0,0,.02-.02.04-.06.02-.03.02-.04.02-.04,0,0-.06,0-.09,0s-.12,0-.18.02c-.07.02-.14.05-.14.05.02.03.02.06.02.1,0,.03-.02.06-.05.09,0,0,.05.06.11.1.05.03.14.06.16.07.03,0,.08.03.08.03,0,0,0-.01,0-.05,0-.04-.01-.07-.01-.07Z"/>
    <path class="cls-31" d="M22.15,15c-.08,0-.15.03-.19.09l-.02-.08s-.1.02-.15.14c-.05.12,0,.3,0,.3,0,0-.02-.08-.06-.13-.04-.05-.14-.11-.19-.13-.05-.02-.1-.06-.1-.06,0,0,0,.02,0,.05,0,.04,0,.07,0,.07-.09-.02-.2,0-.29.04.04.07.11.14.2.18,0,0-.04.03-.06.06-.02.03-.03.04-.03.04,0,0,.07.01.1.02.03,0,.14.02.2.02.05,0,.1-.01.13-.02,0-.03.03-.06.05-.08.06-.06.14-.06.18-.02,0,0,0,.01.01.02,0,0,.08-.17.18-.22.1-.06.27-.04.27-.04,0-.13-.1-.23-.23-.23Z"/>
    <path class="cls-5" d="M16.62,15.11c0-.09.07-.16.16-.16s.16.07.16.16-.07.16-.16.16-.16-.07-.16-.16"/>
    <path class="cls-5" d="M20.08,15.11c0-.09.07-.16.16-.16s.16.07.16.16-.07.16-.16.16-.16-.07-.16-.16"/>
    <path class="cls-5" d="M21.92,15.47s-.12-.03-.18.02c-.06.05-.08.13-.04.17.04.04.12.03.18-.02.06-.05.08-.13.04-.17"/>
    <path class="cls-5" d="M15.12,15.47s.12-.03.18.02c.06.05.08.13.04.17-.04.04-.12.03-.18-.02-.06-.05-.08-.13-.04-.17"/>
    <path class="cls-5" d="M18.35,14.96c0-.09.07-.16.16-.16s.16.07.16.16-.07.16-.16.16-.16-.07-.16-.16"/>
    <path class="cls-31" d="M18.51,17.14c-.93,0-1.76-.12-2.35-.3-.04-.01-.06-.06-.06-.1,0-.04.02-.08.06-.09.59-.19,1.43-.3,2.35-.3.93,0,1.76.12,2.36.3.04.01.06.05.06.09,0,.04-.02.08-.06.1-.59.19-1.43.3-2.36.3"/>
    <path class="cls-31" d="M18.51,16.34c-1.11,0-1.92.16-2.35.3.05-.03.02-.08-.04-.24-.08-.2-.19-.19-.19-.19.65-.2,1.57-.33,2.59-.33,1.02,0,1.94.13,2.6.33,0,0-.12,0-.19.19-.06.16-.07.23-.02.25-.59-.19-1.45-.31-2.39-.32"/>
    <path class="cls-14" d="M21.08,15.54c.02-.07,0-.13-.04-.15-.04-.01-.1.03-.12.09-.02.06,0,.13.04.15.04.01.1-.03.12-.09"/>
    <path class="cls-14" d="M19.45,15.22c0-.07-.02-.13-.07-.13-.05,0-.09.04-.1.11,0,.07.02.13.07.13.05,0,.1-.05.1-.11"/>
    <path class="cls-14" d="M17.57,15.22c0-.07.02-.13.07-.13.05,0,.1.04.1.11,0,.07-.02.13-.07.13-.05,0-.09-.05-.1-.11"/>
    <path class="cls-14" d="M15.95,15.54c-.02-.07,0-.13.04-.15.04-.01.1.03.12.09.02.06,0,.13-.04.15-.05.01-.1-.03-.12-.09"/>
    <path class="cls-14" d="M17.79,16.13s.04-.08.08-.08.08.04.08.08-.04.08-.08.08-.08-.04-.08-.08"/>
    <path class="cls-5" d="M18.27,16.19s-.08-.04-.08-.08.04-.08.08-.08h.5s.08.04.08.08-.04.08-.08.08h-.5Z"/>
    <path class="cls-7" d="M17.43,16.08l-.36.04s-.08.05-.07.09c0,.04.05.08.1.07l.36-.04s.08-.05.07-.09c0-.04-.05-.08-.09-.07Z"/>
    <path class="cls-14" d="M16.53,16.28s.04-.08.08-.08c.05,0,.08.04.08.08s-.04.08-.08.08c-.04,0-.08-.04-.08-.08"/>
    <path class="cls-5" d="M15.98,16.43l.09-.13.26.03-.2.16-.14-.06Z"/>
    <path class="cls-7" d="M19.94,16.28s.09-.03.09-.07c0-.05-.03-.09-.07-.09l-.36-.05s-.09.03-.09.07c0,.05.03.09.07.09l.36.04Z"/>
    <path class="cls-14" d="M19.08,16.13s.04-.08.08-.08.08.04.08.08-.04.08-.08.08-.08-.04-.08-.08"/>
    <path class="cls-14" d="M20.33,16.28s.04-.08.08-.08.08.04.08.08-.04.08-.08.08-.08-.04-.08-.08"/>
    <path class="cls-5" d="M21.05,16.43l-.09-.13-.26.03.2.16.14-.06Z"/>
    <path class="cls-5" d="M18.51,17.01c-.84,0-1.6-.1-2.17-.26.58-.16,1.33-.25,2.17-.25.84,0,1.6.1,2.18.25-.58.16-1.34.26-2.18.26"/>
    <path class="cls-18" d="M16.24,16.78c.59-.17,1.39-.28,2.27-.28.89,0,1.69.11,2.28.28"/>
    <path class="cls-20" d="M18.57,17.01v-.51"/>
    <path class="cls-22" d="M18.44,17.01v-.51"/>
    <path class="cls-21" d="M18.31,17.01v-.51"/>
    <path class="cls-30" d="M18.19,17.01v-.51"/>
    <path class="cls-28" d="M18.07,17.01v-.51"/>
    <path class="cls-25" d="M17.86,16.98v-.46M17.96,16.99v-.48"/>
    <path class="cls-24" d="M17.66,16.96v-.42M17.76,16.98v-.45"/>
    <path class="cls-26" d="M17.39,16.94v-.37M17.48,16.95v-.39M17.57,16.96v-.4"/>
    <path class="cls-38" d="M17.3,16.94v-.36"/>
    <path class="cls-37" d="M17.21,16.92v-.33"/>
    <path class="cls-36" d="M17.12,16.91v-.31"/>
    <path class="cls-40" d="M16.93,16.88v-.25M17.03,16.89v-.28"/>
    <path class="cls-41" d="M16.83,16.86v-.22"/>
    <path class="cls-39" d="M16.74,16.84v-.18"/>
    <path class="cls-33" d="M16.64,16.82v-.14"/>
    <path class="cls-34" d="M16.54,16.81v-.11"/>
    <path class="cls-42" d="M16.44,16.78v-.05"/>
    <path class="cls-12" d="M19.11,16.98v-.46M18.88,17v-.49M18.72,17.01v-.5"/>
    <g>
      <g>
        <path class="cls-1" d="M24.17,16.67s-.06.06-.1.07c-.04,0-.09-.04-.09-.04,0,0-.04.04-.08.05-.04.01-.11-.05-.11-.05,0,0-.04.06-.08.08-.04.01-.09-.02-.09-.02,0,0-.02.03-.05.05-.01,0-.04,0-.04,0l-.05-.03-.05-.06-.05-.02s-.02-.07-.02-.08c0-.01,0-.05,0-.05-.01-.05.06-.11.17-.13.06-.01.12-.01.16,0,.04-.04.13-.06.24-.06.1,0,.18.02.23.05.05-.03.13-.05.23-.05.11,0,.2.03.24.06.04-.01.09-.01.16,0,.11.03.18.09.17.13,0,0,0,.03,0,.05,0,.01-.02.08-.02.08l-.05.02-.05.06-.04.03s-.02.01-.04,0c-.03-.02-.05-.05-.05-.05,0,0-.05.03-.08.02-.04-.01-.08-.08-.08-.08,0,0-.06.06-.11.05-.04-.01-.08-.05-.08-.05,0,0-.05.05-.09.04-.04,0-.1-.07-.1-.07"/>
        <path class="cls-48" d="M24.77,16.8l-.05-.04s-.04.03-.1.02c-.05,0-.07-.08-.07-.08,0,0-.06.05-.11.05-.05,0-.08-.05-.08-.05,0,0-.05.04-.1.04-.05,0-.09-.06-.09-.06,0,0-.05.06-.09.07-.05,0-.09-.04-.09-.04,0,0-.02.05-.08.06-.06,0-.11-.05-.11-.05,0,0-.03.06-.07.07-.04.01-.1-.02-.1-.02,0,0,0,.02-.01.03,0,.01-.02.02-.02.02v.04c.16-.04.36-.07.58-.07s.43.03.58.07l.02-.04"/>
        <path class="cls-35" d="M24.2,16.6s0,.02,0,.03c0,.05.04.08.08.08.04,0,.07-.02.08-.06,0,0,0-.03.01-.03,0,0,0,.03,0,.03,0,.04.04.07.08.07.04,0,.08-.04.08-.08,0,0,.02-.02.03,0,0,0,0,.03,0,.04,0,.04.04.08.08.08.03,0,.05-.01.07-.04l.02-.02v.03s0,.05.04.06c0,0,.03,0,.07-.03.04-.03.06-.06.06-.06v.03s-.04.07-.07.09c-.02.01-.05.03-.07.02-.02,0-.04-.02-.05-.05-.02.01-.04.02-.06.02-.05,0-.09-.03-.11-.07-.02.02-.05.04-.09.04-.04,0-.07-.02-.09-.05-.02.02-.05.03-.08.03-.04,0-.08-.02-.1-.06-.02.03-.06.06-.1.06-.03,0-.06-.01-.08-.03-.02.03-.06.05-.09.05-.04,0-.07-.02-.09-.04-.02.04-.06.07-.11.07-.02,0-.04,0-.06-.02,0,.02-.03.04-.05.05-.02,0-.05,0-.07-.02-.04-.02-.08-.09-.08-.09v-.03s.03.03.06.06c.04.03.07.03.07.03.03,0,.04-.03.04-.06v-.03l.02.02s.04.04.07.04c.04,0,.08-.04.08-.08,0-.02,0-.03,0-.04,0,0,.04,0,.04,0,0,.05.04.08.08.08s.08-.03.08-.07c0,0,0-.03,0-.03,0,0,0,.03.01.03.01.03.04.06.08.06.05,0,.08-.04.08-.08,0,0,0-.02,0-.03"/>
        <path class="cls-35" d="M24.07,16.33c0-.09.04-.16.1-.16s.1.07.1.16-.05.16-.1.16-.1-.07-.1-.16"/>
        <path class="cls-35" d="M24.13,16.33c0-.08.02-.14.05-.14s.05.06.05.14-.02.14-.05.14-.05-.06-.05-.14"/>
        <path class="cls-35" d="M24.1,16.16s.03-.07.07-.07.07.03.07.07c0,.04-.03.07-.07.07s-.07-.03-.07-.07"/>
        <polygon class="cls-35" points="24.2 16.13 24.2 16.03 24.24 16.03 24.24 15.98 24.2 15.98 24.2 15.94 24.15 15.94 24.15 15.98 24.1 15.98 24.1 16.03 24.15 16.03 24.15 16.13 24.08 16.13 24.08 16.18 24.27 16.18 24.27 16.13 24.2 16.13"/>
        <path class="cls-35" d="M23.64,16.97s-.04-.08-.04-.08c.15-.05.35-.07.58-.07s.43.03.58.07c0,0-.02.03-.04.07-.01.02-.03.06-.03.06-.13-.04-.31-.06-.52-.06s-.41.03-.52.07c0,0,0-.03-.02-.06h0"/>
        <path class="cls-35" d="M24.17,17.16c.18,0,.39-.03.46-.05.05-.02.08-.04.07-.07,0-.01-.01-.02-.03-.03-.11-.04-.31-.06-.51-.06s-.4.03-.51.06c-.01,0-.02.02-.03.03,0,.03.02.05.07.07.07.02.28.05.46.05"/>
        <path class="cls-35" d="M24.17,16.81c-.23,0-.43.03-.58.07-.01,0-.02,0-.02-.01,0-.01,0-.02.01-.03.15-.05.36-.08.59-.08s.44.03.59.08c.01,0,.02.02.01.03,0,0-.02.02-.02.01-.15-.05-.35-.07-.58-.07"/>
        <path class="cls-1" d="M24.17,17.01c-.18,0-.35.02-.48.05.13.03.29.05.48.05s.35-.02.48-.05c-.13-.03-.29-.05-.48-.05Z"/>
        <path class="cls-15" d="M23.95,16.89s.01-.03.03-.03c.02,0,.04.01.04.03,0,.02-.02.03-.04.03-.02,0-.03-.01-.03-.03"/>
        <path class="cls-1" d="M24.25,16.86h-.15s-.03.01-.03.02.01.03.03.03h.15s.02-.01.02-.03-.01-.02-.02-.02Z"/>
        <path class="cls-8" d="M23.86,16.88l-.11.02s-.02.01-.02.03c0,.01.02.02.03.02l.11-.02s.02-.01.02-.03c0-.01-.02-.02-.03-.02Z"/>
        <polygon class="cls-1" points="23.62 16.93 23.6 16.97 23.64 16.99 23.67 16.94 23.62 16.93"/>
        <path class="cls-15" d="M24.33,16.89s.02-.03.03-.03.03.01.03.03c0,.02-.02.03-.03.03s-.03-.01-.03-.03"/>
        <path class="cls-8" d="M24.6,16.89l-.11-.02s-.02,0-.03.02c0,.01,0,.03.02.03l.11.02s.02,0,.03-.02c0-.01,0-.03-.02-.03Z"/>
        <polygon class="cls-1" points="24.73 16.93 24.68 16.94 24.7 16.98 24.75 16.97 24.73 16.93"/>
        <g>
          <g>
            <polygon class="cls-48" points="24.72 16.73 24.74 16.66 24.73 16.73 24.72 16.73"/>
            <path class="cls-46" d="M24.74,16.67s0,0,0,0c.01,0,.01.02.01.03,0,.01-.01.02-.02.02,0,0,0,0,0,0,0,0-.01-.02,0-.03,0-.01.02-.02.02-.02M24.74,16.65s-.04.02-.04.04c0,.01,0,.03,0,.04,0,0,.01.01.02.02,0,0,0,0,.01,0,.02,0,.03-.01.04-.03,0-.03,0-.05-.02-.06h0s0,0,0,0h0Z"/>
          </g>
          <g>
            <polygon class="cls-48" points="24.36 16.66 24.37 16.61 24.37 16.66 24.36 16.66"/>
            <path class="cls-46" d="M24.37,16.6s0,0,0,0c0,0,.02.02.02.03,0,.01-.01.02-.02.02,0,0,0,0,0,0-.01,0-.02-.01-.02-.03,0-.02.01-.03.02-.03M24.37,16.58s-.04.02-.04.04c0,.01,0,.03,0,.04,0,.01.02.02.03.02h0s.04-.02.04-.04c0-.01,0-.03,0-.04,0,0-.01-.01-.02-.01h0Z"/>
          </g>
          <g>
            <polygon class="cls-48" points="23.97 16.66 23.95 16.63 23.98 16.66 23.97 16.66"/>
            <path class="cls-46" d="M23.98,16.6s.02.01.02.03c0,.01,0,.03-.02.03,0,0,0,0,0,0,0,0-.02-.01-.02-.02,0-.02,0-.03.02-.03,0,0,0,0,0,0M23.98,16.58h0s-.02,0-.02.01c0,.01-.01.02,0,.04,0,.02.02.04.04.04h0s0,0,0,0c.01,0,.03-.01.03-.05,0-.03-.02-.05-.04-.05h0Z"/>
          </g>
          <g>
            <polygon class="cls-48" points="23.61 16.73 23.59 16.7 23.62 16.73 23.61 16.73"/>
            <path class="cls-46" d="M23.61,16.67s.02,0,.02.02c0,.01,0,.03,0,.03,0,0,0,0,0,0,0,0-.02,0-.02-.02,0-.01,0-.03,0-.03,0,0,0,0,0,0M23.61,16.65h0s-.02.01-.02.02c0,.01,0,.03,0,.04,0,.02.02.03.04.03,0,0,0,0,.01,0,0,0,.02,0,.02-.02,0-.01,0-.03,0-.04,0-.02-.02-.03-.04-.03h0Z"/>
          </g>
        </g>
        <path class="cls-16" d="M24.62,16.4s.02-.03.03-.03.03.02.03.03-.02.03-.03.03-.03-.01-.03-.03Z"/>
        <path class="cls-16" d="M24.6,16.28s.02-.03.03-.03c.02,0,.03.01.03.03,0,.02-.01.03-.03.03-.02,0-.03-.01-.03-.03ZM24.51,16.21s.02-.03.03-.03c.02,0,.04.02.04.03,0,.02-.02.03-.04.03-.02,0-.03-.02-.03-.03ZM24.41,16.18s.02-.03.03-.03c.02,0,.04.02.04.03,0,.02-.02.03-.04.03-.02,0-.03-.02-.03-.03ZM24.3,16.18s.02-.03.03-.03c.02,0,.04.02.04.03s-.02.03-.04.03c-.02,0-.03-.02-.03-.03Z"/>
        <path class="cls-9" d="M24.96,16.63s.02-.06.02-.09c0-.13-.1-.23-.21-.23-.04,0-.07.01-.1.03"/>
        <path class="cls-29" d="M24.58,16.47s.02-.05.02-.07c0-.09-.09-.16-.2-.16-.05,0-.09.01-.12.03"/>
        <path class="cls-16" d="M24.99,16.53s.02-.03.03-.03.03.01.03.03c0,.02-.02.03-.03.03s-.03-.02-.03-.03ZM24.98,16.41s.02-.03.03-.03c.02,0,.03.02.03.03,0,.02-.01.03-.03.03-.02,0-.03-.02-.03-.03ZM24.9,16.31s.02-.03.04-.03c.02,0,.03.02.03.03,0,.02-.02.03-.03.03-.02,0-.04-.01-.04-.03ZM24.8,16.26s.02-.03.04-.03c.02,0,.03.02.03.03,0,.02-.02.04-.03.04-.02,0-.04-.02-.04-.04ZM24.69,16.26s.02-.03.03-.03c.02,0,.04.02.04.03,0,.02-.02.03-.04.03-.02,0-.03-.02-.03-.03Z"/>
        <path class="cls-16" d="M23.65,16.4s.02-.03.03-.03.03.02.03.03-.02.03-.03.03-.03-.01-.03-.03Z"/>
        <path class="cls-16" d="M23.67,16.28s.02-.03.03-.03c.02,0,.04.01.04.03,0,.02-.02.03-.04.03-.02,0-.03-.01-.03-.03ZM23.76,16.21s.02-.03.03-.03.03.02.03.03c0,.02-.02.03-.03.03s-.03-.02-.03-.03ZM23.86,16.18s.02-.03.04-.03c.02,0,.03.02.03.03,0,.02-.01.03-.03.03-.02,0-.04-.02-.04-.03ZM23.98,16.18s.01-.03.03-.03c.02,0,.04.02.04.03s-.02.03-.04.03c-.02,0-.03-.02-.03-.03Z"/>
        <path class="cls-9" d="M23.38,16.63s-.02-.06-.02-.09c0-.13.1-.23.21-.23.04,0,.07.01.1.03"/>
        <path class="cls-29" d="M23.77,16.47s-.02-.04-.02-.07c0-.09.09-.16.2-.16.05,0,.09.01.13.03"/>
        <path class="cls-16" d="M23.28,16.53s.02-.03.04-.03c.02,0,.03.01.03.03,0,.02-.02.03-.03.03-.02,0-.04-.02-.04-.03ZM23.3,16.41s.02-.03.03-.03c.02,0,.04.02.04.03,0,.02-.02.03-.04.03-.02,0-.03-.02-.03-.03ZM23.38,16.31s.01-.03.03-.03c.02,0,.03.02.03.03,0,.02-.02.03-.03.03-.02,0-.03-.01-.03-.03ZM23.48,16.26s.02-.03.04-.03.03.02.03.03c0,.02-.01.04-.03.04s-.04-.02-.04-.04ZM23.59,16.26s.01-.03.03-.03c.02,0,.03.02.03.03,0,.02-.02.03-.03.03-.02,0-.03-.02-.03-.03Z"/>
        <g>
          <polygon class="cls-35" points="23.88 16.54 23.79 16.58 23.82 16.48 23.75 16.46 23.7 16.51 23.76 16.59 23.66 16.58 23.64 16.64 23.68 16.67 23.77 16.62 23.8 16.62 23.9 16.63 23.92 16.58 23.88 16.54"/>
          <polygon class="cls-35" points="23.41 16.69 23.41 16.7 23.43 16.71 23.53 16.7 23.54 16.65 23.49 16.62 23.41 16.69"/>
          <g>
            <polygon class="cls-35" points="24.19 16.55 24.24 16.45 24.17 16.41 24.11 16.45 24.15 16.55 24.06 16.52 24.03 16.57 24.06 16.62 24.16 16.58 24.18 16.58 24.29 16.62 24.32 16.57 24.29 16.52 24.19 16.55"/>
            <polygon class="cls-35" points="24.69 16.58 24.59 16.59 24.65 16.51 24.6 16.46 24.53 16.48 24.55 16.58 24.46 16.54 24.43 16.58 24.45 16.63 24.55 16.62 24.57 16.62 24.67 16.67 24.7 16.64 24.69 16.58"/>
          </g>
          <polygon class="cls-35" points="24.84 16.62 24.79 16.65 24.8 16.7 24.91 16.71 24.92 16.7 24.92 16.69 24.84 16.62"/>
          <path class="cls-35" d="M23.38,16.61h0s-.02,0-.04,0c-.02,0-.04.01-.04.02,0,0,.04.01.05.03.02.02.05.06.05.06,0,0,.01-.02.01-.02,0,0,0-.03,0-.06,0-.02-.03-.02-.03-.02Z"/>
          <path class="cls-35" d="M24.99,16.61s-.02,0-.03.01h0s-.02-.01-.03.01c0,.02,0,.06,0,.06,0,0,0,.02,0,.02,0,0,.03-.04.05-.06.02-.01.05-.03.05-.03,0,0-.02-.02-.04-.02Z"/>
        </g>
        <path class="cls-35" d="M23.75,16.6s.02-.04.04-.04c.02,0,.04.02.04.04s-.02.04-.04.04c-.02,0-.04-.02-.04-.04"/>
        <path class="cls-35" d="M24.14,16.57s.02-.04.04-.04.04.02.04.04-.02.04-.04.04-.04-.02-.04-.04"/>
        <path class="cls-35" d="M24.53,16.6s.02-.04.04-.04.04.02.04.04-.02.04-.04.04-.04-.02-.04-.04"/>
        <g>
          <polygon class="cls-48" points="23.4 16.74 23.4 16.74 23.41 16.68 23.46 16.72 23.43 16.75 23.4 16.74"/>
          <path class="cls-46" d="M23.41,16.69s.02,0,.03.01c.02.01.02.03,0,.04,0,0,0,0-.01,0,0,0-.02,0-.03-.01-.01-.01-.02-.03,0-.04,0,0,0,0,.01,0M23.41,16.67s-.02,0-.03.01c0,0,0,.02,0,.03,0,.01,0,.03.02.04.01,0,.02.02.04.02.01,0,.02,0,.03-.01,0,0,.01-.02.01-.03,0-.01,0-.03-.02-.04-.01,0-.02-.01-.04-.01h0Z"/>
        </g>
        <g>
          <polygon class="cls-48" points="24.88 16.74 24.92 16.68 24.93 16.74 24.9 16.75 24.88 16.74"/>
          <path class="cls-46" d="M24.92,16.69s.01,0,.02,0c0,0,0,.03-.01.04,0,0-.02.01-.03.01,0,0-.01,0-.01,0,0,0,0-.03,0-.04,0,0,.02-.01.03-.01M24.92,16.67s-.03,0-.04.02c-.01.01-.02.03-.02.04,0,.01,0,.02.01.03,0,0,.02.01.03.01.01,0,.03,0,.04-.02.01-.01.02-.03.02-.04,0-.01,0-.02,0-.03,0,0-.02-.01-.03-.01h0Z"/>
        </g>
      </g>
      <g>
        <path class="cls-1" d="M13.46,16.82s.1-.05.16-.1c.31-.25-.07-.48-.22-.43-.1-.09-.32-.16-.53-.09-.2-.07-.42,0-.52.09-.14-.05-.53.17-.22.43.06.05.16.1.16.1h1.17Z"/>
        <path class="cls-35" d="M12.87,16.8h-.37l-.04-.31c-.1-.14-.19-.23-.22-.21,0-.02.02-.04.04-.06.09-.05.28.08.42.29.01.02.02.04.04.06h.29s.02-.04.04-.06c.14-.22.33-.35.42-.3.02.01.03.03.04.06-.03-.02-.12.07-.22.21l-.04.31h-.37Z"/>
        <path class="cls-29" d="M12.25,16.28c.07-.04.24.1.37.3"/>
        <path class="cls-29" d="M13.49,16.28c-.07-.04-.24.1-.37.3"/>
        <path class="cls-35" d="M12.76,16.3c0-.11.05-.19.1-.19s.1.09.1.19-.05.2-.1.2-.1-.09-.1-.2Z"/>
        <path class="cls-35" d="M12.82,16.3c0-.1.02-.18.05-.18s.05.08.05.18-.02.18-.05.18-.05-.08-.05-.18Z"/>
        <path class="cls-35" d="M12.8,16.09s.03-.07.07-.07.07.03.07.07-.03.07-.07.07c-.04,0-.07-.03-.07-.07"/>
        <path class="cls-32" d="M12.97,16.07v.05h-.19v-.05h.07v-.1h-.05v-.04h.05v-.04h.04v.04h.05v.04h-.05v.1h.08Z"/>
        <path class="cls-48" d="M13.46,16.8l-.59-.16-.58.16.02.04c.14-.05.35-.07.57-.07s.43.03.58.07v-.04"/>
        <g id="Layer_5" data-name="Layer 5">
          <path class="cls-35" d="M12.33,16.97s-.04-.09-.04-.09c.15-.04.35-.07.58-.07s.44.03.58.07c0,0-.02.03-.04.07-.01.02-.03.06-.03.06-.13-.04-.31-.06-.52-.07-.21,0-.41.03-.52.07,0,0,0-.02-.02-.05h0"/>
          <path class="cls-48" d="M12.87,17.17c.18,0,.39-.03.46-.05.05-.02.08-.04.07-.07,0-.01-.01-.02-.03-.03-.11-.04-.31-.06-.51-.06s-.4.03-.51.06c-.02,0-.03.02-.03.03,0,.03.02.05.07.07.08.02.28.05.46.05"/>
          <path class="cls-29" d="M12.87,17.17c.18,0,.39-.03.46-.05.05-.02.08-.04.07-.07,0-.01-.01-.02-.03-.03-.11-.04-.31-.06-.51-.06s-.4.03-.51.06c-.02,0-.03.02-.03.03,0,.03.02.05.07.07.08.02.28.05.46.05Z"/>
          <path class="cls-29" d="M13.46,16.8l-.04-.04s-.04.03-.1.02c-.05,0-.07-.08-.07-.08,0,0-.06.05-.11.05-.05,0-.08-.05-.08-.05,0,0-.06.04-.1.04-.05,0-.09-.07-.09-.07,0,0-.05.06-.1.07-.04,0-.08-.04-.08-.04,0,0-.02.05-.08.06-.06,0-.11-.05-.11-.05,0,0-.04.06-.08.07-.04.01-.09-.02-.09-.02,0,0,0,.02-.02.03,0,.01-.02.02-.02.02l.02.04c.14-.05.35-.07.57-.07s.43.03.58.07v-.04h.01Z"/>
          <path class="cls-35" d="M12.87,16.6h.02s0,.02,0,.03c0,.05.04.08.08.08.04,0,.07-.03.08-.06,0,0,.01-.03.01-.03s0,.03,0,.03c0,.04.04.07.08.07.05,0,.08-.04.08-.09,0,0,0,0,0,0l.03-.03.02.03s0,.02,0,.04c0,.04.04.08.08.08.03,0,.05-.02.07-.04l.02-.02v.03s.01.05.04.06c0,0,.03,0,.07-.03.04-.03.06-.06.06-.06v.03s-.04.07-.07.09c-.02.01-.05.03-.07.02-.02,0-.04-.02-.05-.05-.02.01-.04.02-.06.02-.05,0-.09-.03-.11-.07-.02.03-.05.04-.09.04-.04,0-.07-.02-.1-.05-.02.02-.05.03-.08.03-.04,0-.08-.02-.1-.06-.02.03-.06.06-.1.06-.03,0-.06-.01-.08-.03-.02.03-.06.05-.09.05-.04,0-.07-.01-.09-.04-.02.04-.06.07-.11.07-.02,0-.04,0-.06-.02,0,.02-.02.04-.05.05-.02,0-.05,0-.07-.02-.04-.02-.08-.09-.08-.09v-.03s.03.03.07.06c.04.03.07.03.07.03.03,0,.04-.03.04-.06h.02s.04.03.07.03c.04,0,.08-.04.08-.08,0-.01,0-.03,0-.04l.02-.03.03.03s0,0,0,0c0,.05.04.09.08.09.04,0,.08-.03.08-.07,0,0,0-.03,0-.03,0,0,.01.03.01.03.01.03.04.06.08.06.05,0,.08-.04.08-.08,0-.01,0-.02,0-.03h.02s0,0,0,0h0Z"/>
          <path class="cls-13" d="M12.87,16.81c-.23,0-.43.03-.58.07,0,0-.02,0-.02-.01,0,0,0-.02.01-.02.15-.05.36-.08.59-.08s.45.03.59.08c0,0,.02.02.01.02,0,0-.02.02-.03.01-.15-.04-.35-.07-.58-.07Z"/>
          <path class="cls-15" d="M12.65,16.9s.02-.03.03-.03.03.02.03.03c0,.02-.02.03-.03.03s-.03-.01-.03-.03Z"/>
          <path class="cls-1" d="M12.87,16.91h-.07s-.03-.01-.03-.02.01-.03.02-.03h.15s.02.01.02.03-.01.02-.02.02h-.08"/>
          <path class="cls-44" d="M12.5,16.94h-.05s-.03,0-.03-.01c0-.01,0-.02.02-.03h.05s.05-.02.05-.02c.01,0,.03,0,.03.02,0,.01,0,.03-.02.03h-.05"/>
          <path class="cls-29" d="M12.5,16.94h-.05s-.03,0-.03-.01c0-.01,0-.02.02-.03h.05s.05-.02.05-.02c.01,0,.03,0,.03.02,0,.01,0,.03-.02.03h-.05"/>
          <path class="cls-1" d="M12.29,16.98l.02-.04h.05s-.03.05-.03.05l-.04-.02Z"/>
          <path class="cls-15" d="M13.03,16.9s.01-.03.03-.03c.02,0,.03.02.03.03,0,.02-.02.03-.03.03-.02,0-.03-.01-.03-.03Z"/>
          <path class="cls-8" d="M13.29,16.95s.03,0,.03-.02c0-.01,0-.02-.02-.03l-.11-.02s-.03,0-.03.02c0,.01,0,.03.02.03l.1.02Z"/>
          <path class="cls-1" d="M13.44,16.98l-.02-.04h-.05s.02.05.02.05h.05Z"/>
          <path class="cls-19" d="M12.87,17.12c-.18,0-.35-.02-.48-.05.12-.03.29-.06.48-.06.18,0,.35.02.48.06-.13.03-.29.05-.48.05Z"/>
          <g>
            <g>
              <polygon class="cls-48" points="13.42 16.74 13.43 16.68 13.43 16.74 13.42 16.74"/>
              <path class="cls-46" d="M13.44,16.67s0,0,0,0c0,0,.01.02,0,.03,0,.01-.02.02-.02.02,0,0,0,0,0,0-.01,0-.02-.02-.01-.03,0-.01.02-.02.03-.02M13.44,16.65s-.04.01-.04.04c0,.01,0,.03,0,.04,0,0,.01.02.02.02h0s0,0,0,0c.02,0,.04-.02.04-.04,0-.02,0-.05-.02-.06h0s0,0,0,0h0s0,0,0,0h0Z"/>
            </g>
            <g>
              <polygon class="cls-48" points="13.06 16.67 13.06 16.61 13.06 16.67 13.06 16.67"/>
              <path class="cls-46" d="M13.06,16.6s0,0,0,0c.01,0,.02.02.02.03,0,.01-.01.02-.02.02,0,0,0,0,0,0-.01,0-.02-.01-.02-.03,0-.01,0-.03.02-.03M13.06,16.58s-.04.02-.04.04c0,.02,0,.03,0,.04,0,0,.02.01.03.01h0s.03-.01.04-.04c0-.03-.01-.05-.03-.06h0s0,0,0,0h0Z"/>
            </g>
            <g>
              <polygon class="cls-48" points="12.67 16.67 12.65 16.64 12.68 16.67 12.67 16.67"/>
              <path class="cls-46" d="M12.68,16.6s.02.01.02.03c0,.02,0,.03-.02.03,0,0,0,0,0,0,0,0-.02-.01-.02-.02,0-.02,0-.03.02-.03,0,0,0,0,0,0M12.68,16.58h0s-.03.03-.03.06c0,.02.02.04.04.04h0s0,0,0,0c0,0,.01,0,.02-.01,0-.01.01-.03.01-.04,0-.02-.02-.04-.04-.04h0Z"/>
            </g>
            <g>
              <polygon class="cls-48" points="12.31 16.74 12.28 16.71 12.31 16.74 12.31 16.74"/>
              <path class="cls-46" d="M12.3,16.67s.02,0,.02.02c0,.01,0,.03-.01.03,0,0,0,0,0,0,0,0-.02,0-.02-.02,0-.01,0-.03.01-.03,0,0,0,0,0,0M12.3,16.65h0s-.03.04-.03.06c0,.02.02.04.04.04h0s.02,0,.02-.02c0-.01,0-.03,0-.04,0-.02-.02-.04-.04-.04h0Z"/>
            </g>
          </g>
          <path class="cls-35" d="M12.87,16.41l-.06.04.05.11h.04l.05-.11-.06-.04Z"/>
          <path class="cls-35" d="M12.73,16.58l.03.04.1-.03v-.03l-.1-.03-.03.05Z"/>
          <path class="cls-35" d="M13.01,16.58l-.03.04-.1-.03v-.03l.1-.03.03.05Z"/>
          <path class="cls-35" d="M12.45,16.46l-.05.05.07.09h.03s.02-.11.02-.11l-.07-.03Z"/>
          <path class="cls-35" d="M12.34,16.64l.04.04.09-.05v-.03s-.11-.01-.11-.01l-.02.05Z"/>
          <path class="cls-35" d="M12.62,16.58l-.02.05h-.11s0-.04,0-.04l.09-.05.04.04Z"/>
          <path class="cls-35" d="M12.24,16.66v.05s-.11.01-.11.01v-.03s.07-.07.07-.07l.05.03Z"/>
          <path class="cls-48" d="M12.44,16.61s.02-.04.04-.04c.02,0,.04.02.04.04,0,.02-.02.04-.04.04-.02,0-.04-.02-.04-.04"/>
          <path class="cls-29" d="M12.44,16.61s.02-.04.04-.04c.02,0,.04.02.04.04,0,.02-.02.04-.04.04-.02,0-.04-.02-.04-.04Z"/>
          <path class="cls-35" d="M13.29,16.46l.05.05-.07.09h-.03s-.02-.11-.02-.11l.07-.03Z"/>
          <path class="cls-35" d="M13.4,16.64l-.04.04-.09-.05v-.03s.11-.01.11-.01l.02.05Z"/>
          <path class="cls-35" d="M13.12,16.58l.02.05h.11s0-.04,0-.04l-.09-.05-.04.04Z"/>
          <path class="cls-35" d="M13.49,16.66v.05s.12.01.12.01v-.03s-.07-.07-.07-.07l-.05.03Z"/>
          <path class="cls-35" d="M12.83,16.57s.02-.04.04-.04c.02,0,.04.02.04.04s-.02.04-.04.04c-.02,0-.04-.02-.04-.04Z"/>
          <path class="cls-35" d="M13.23,16.61s.02-.04.04-.04c.02,0,.04.02.04.04,0,.02-.02.04-.04.04-.02,0-.04-.02-.04-.04Z"/>
          <path class="cls-35" d="M12.09,16.72s-.03-.04-.05-.06c-.02-.01-.05-.03-.05-.03,0,0,.02-.02.04-.02.01,0,.03,0,.04.02v-.02s.02,0,.03.03c0,.02,0,.06,0,.06,0,0,0,.02-.01.02h0Z"/>
          <g>
            <polygon class="cls-48" points="12.1 16.74 12.1 16.74 12.11 16.68 12.16 16.72 12.13 16.76 12.1 16.74"/>
            <path class="cls-46" d="M12.11,16.69s.02,0,.02.01c.02.01.02.03.01.04,0,0-.01,0-.02,0,0,0-.02,0-.02-.01-.02-.01-.02-.03,0-.04,0,0,0,0,.01,0M12.11,16.67s-.02,0-.03.01c0,0-.01.02-.01.03,0,.02,0,.03.02.04,0,0,.02.01.04.01.01,0,.02,0,.03-.01,0-.01.01-.02.01-.03,0-.01-.01-.03-.02-.04,0,0-.02-.02-.04-.02h0Z"/>
          </g>
          <path class="cls-35" d="M13.63,16.72s.03-.04.05-.06c.01-.01.05-.03.05-.03.02,0-.02-.02-.04-.02-.01,0-.03,0-.03.02v-.02s-.02,0-.03.03c0,.02,0,.06,0,.06,0,0,0,.02,0,.02h0Z"/>
          <g>
            <polygon class="cls-48" points="13.58 16.75 13.62 16.68 13.63 16.69 13.63 16.74 13.6 16.76 13.58 16.75"/>
            <path class="cls-46" d="M13.62,16.69s.01,0,.01,0c0,0,0,.03,0,.04,0,0-.02.01-.03.01,0,0-.01,0-.01,0,0-.01,0-.03,0-.04,0,0,.02-.01.03-.01M13.62,16.67s-.03,0-.04.02c-.02.02-.03.05-.01.07,0,0,.02.01.03.01.01,0,.03,0,.04-.02.02-.02.03-.05.01-.07,0,0-.02-.01-.03-.01h0Z"/>
          </g>
        </g>
      </g>
      <path class="cls-14" d="M12.25,24.4h1.23v-6.28h-1.23v6.28Z"/>
      <path class="cls-27" d="M13.13,18.13v6.26M13.27,18.13v6.26"/>
      <path class="cls-5" d="M11.87,22.85c-.17.1-.29.21-.27.26,0,.05.06.08.14.14.12.09.2.25.14.32.1-.08.16-.21.16-.35s-.07-.28-.18-.37"/>
      <path class="cls-5" d="M14.74,20.48c-.27-.12-.72-.2-1.25-.22-.18,0-.38.02-.59.06-.74.13-1.3.43-1.25.68,0,0,0,.02,0,.02,0,0-.28-.65-.28-.67-.05-.28.57-.62,1.39-.76.26-.04.51-.06.72-.06.52,0,.98.07,1.25.18v.78"/>
      <path class="cls-5" d="M12.25,21.26c-.34-.03-.57-.12-.6-.27-.02-.12.09-.25.3-.37.09.01.2.02.3.02v.61"/>
      <path class="cls-5" d="M13.49,20.78c.21.03.37.09.45.16h0c.04.1-.15.27-.46.46v-.62"/>
      <path class="cls-5" d="M11.49,22.47c-.03-.1.3-.3.77-.48.22-.08.39-.16.61-.26.65-.3,1.14-.65,1.08-.77h0s.09.64.09.64c.06.11-.38.45-.98.75-.19.1-.6.25-.79.32-.34.12-.68.36-.65.45l-.11-.64"/>
      <path class="cls-48" d="M12.17,20.17c.15-.06.25-.13.2-.25-.03-.08-.11-.09-.23-.05l-.21.08.19.48s.04-.02.06-.03c.02,0,.04-.01.06-.02l-.08-.21h0ZM12.08,19.94l.05-.02s.09,0,.11.06c.02.04.01.09-.04.12-.02.01-.04.02-.05.03l-.07-.19"/>
      <path class="cls-48" d="M12.65,19.75s-.04.01-.06.02c-.02,0-.04,0-.07,0l.11.5.33-.07s0-.02-.01-.03c0-.01,0-.02,0-.03-.06.02-.12.04-.2.05l-.1-.44"/>
      <path class="cls-48" d="M13.32,20.17c.06-.18.14-.35.21-.53-.01,0-.03,0-.04,0-.01,0-.03,0-.04,0-.04.13-.09.25-.14.38-.06-.12-.13-.24-.18-.36-.02,0-.05,0-.08,0-.03,0-.05,0-.08,0,.1.16.19.32.28.49.01,0,.02,0,.04,0,.01,0,.02,0,.04,0"/>
      <path class="cls-48" d="M14.01,19.79s.02-.05.04-.07c-.02-.02-.07-.04-.14-.05-.14-.01-.21.05-.22.13-.02.18.25.16.24.28,0,.05-.06.07-.11.07-.06,0-.11-.04-.12-.1h-.02s-.02.06-.04.09c.04.03.09.04.14.05.14.02.24-.04.25-.14.02-.17-.25-.18-.24-.28,0-.04.03-.07.1-.06.05,0,.08.03.1.07h.01"/>
      <path class="cls-2" d="M14.05,25.38c-.12,0-.22-.03-.3-.07-.08-.04-.18-.06-.29-.06s-.22.03-.29.06c-.08.04-.18.07-.3.07s-.22-.03-.3-.07c-.08-.04-.18-.06-.29-.06-.12,0-.22.02-.29.06-.08.04-.18.07-.3.07v.19c.12,0,.22-.03.3-.07.08-.04.18-.06.29-.06.11,0,.21.02.29.06.08.04.18.07.3.07s.22-.03.3-.07c.08-.04.18-.07.29-.07s.22.03.29.07c.08.04.18.07.29.07v-.19"/>
      <path class="cls-14" d="M14.05,25.57c-.12,0-.22-.03-.3-.07-.08-.04-.18-.07-.29-.07s-.22.03-.29.07c-.08.04-.18.07-.3.07s-.22-.03-.3-.07c-.08-.04-.18-.06-.29-.06-.12,0-.22.02-.29.06-.08.04-.18.07-.3.07v.19c.12,0,.22-.03.3-.07.08-.04.18-.06.29-.06.11,0,.21.02.29.06.08.04.18.07.3.07s.22-.03.3-.07c.08-.04.18-.06.29-.06s.22.02.29.06c.08.04.18.07.29.07v-.19"/>
      <path class="cls-2" d="M14.05,25.76c-.12,0-.22-.03-.3-.07-.08-.04-.18-.06-.29-.06s-.22.02-.29.06c-.08.04-.18.07-.3.07s-.22-.03-.3-.07c-.08-.04-.18-.06-.29-.06-.12,0-.22.02-.29.06-.08.04-.18.07-.3.07v.19c.12,0,.22-.03.3-.07.08-.04.18-.06.29-.06.11,0,.21.02.29.06.08.04.18.07.3.07s.22-.03.3-.07c.08-.04.18-.06.29-.06s.22.02.29.06c.08.04.18.07.29.07v-.19"/>
      <path class="cls-14" d="M14.05,26.14c-.12,0-.22-.03-.29-.07-.08-.04-.18-.06-.29-.06s-.22.02-.29.06c-.08.04-.18.07-.3.07s-.22-.03-.3-.07c-.08-.04-.18-.06-.29-.06-.12,0-.22.02-.29.06-.08.04-.18.07-.3.07v-.19c.12,0,.22-.03.3-.07.08-.04.18-.06.29-.06.11,0,.21.02.29.06.08.04.18.07.3.07s.22-.03.3-.07c.08-.04.18-.06.29-.06s.22.02.29.06c.08.04.18.07.3.07v.19"/>
      <path class="cls-2" d="M14.05,26.33c-.12,0-.22-.03-.29-.07-.08-.04-.18-.07-.29-.07s-.22.02-.29.07c-.08.04-.18.07-.3.07s-.22-.03-.3-.07c-.08-.04-.18-.06-.29-.06-.12,0-.22.02-.29.06-.08.04-.18.07-.3.07v-.19c.12,0,.22-.03.3-.07.08-.04.18-.06.29-.06.11,0,.21.02.29.06.08.04.18.07.3.07s.22-.03.3-.07c.08-.04.18-.06.29-.06s.22.02.29.06c.08.04.18.07.3.07v.19"/>
      <path class="cls-31" d="M12.21,24.6s.01.03.01.05c0,.12-.1.21-.21.21h1.74c-.12,0-.21-.09-.21-.21,0-.02,0-.03,0-.05-.01,0-.02,0-.03,0h-1.27s-.02,0-.03,0"/>
      <path class="cls-31" d="M12.24,24.48h1.27s.08.03.08.06c0,.03-.03.06-.08.06h-1.27s-.08-.03-.08-.06c0-.03.04-.06.08-.06"/>
      <path class="cls-31" d="M12.01,25.32h1.73v-.46h-1.73v.46Z"/>
      <path class="cls-31" d="M12.03,17.63h1.69v-.46h-1.69v.46h0Z"/>
      <path class="cls-31" d="M12.21,17.93s.02,0,.03,0h1.26s.02,0,.04,0c-.04-.01-.08-.06-.08-.1s.04-.09.08-.1c-.01,0-.02,0-.04,0h-1.27s-.03,0-.04,0h0s.07.06.07.1-.03.09-.07.1"/>
      <path class="cls-31" d="M12.24,17.93h1.26s.08.03.08.06-.03.06-.08.06h-1.26s-.08-.03-.08-.06.03-.06.08-.06"/>
      <path class="cls-31" d="M12.24,17.63h1.27s.08.02.08.05-.04.05-.08.05h-1.27s-.08-.03-.08-.05.03-.05.08-.05"/>
      <path class="cls-31" d="M23.33,17.63h1.69v-.46h-1.69v.46Z"/>
      <path class="cls-31" d="M24.84,17.93s-.02,0-.03,0h-1.27s-.02,0-.03,0c.04-.01.07-.06.07-.1s-.03-.09-.08-.1c.01,0,.02,0,.04,0h1.27s.02,0,.04,0h0s-.07.06-.07.1.03.09.07.1"/>
      <path class="cls-31" d="M23.55,17.93h1.27s.08.03.08.06-.03.06-.08.06h-1.27s-.08-.03-.08-.06.04-.06.08-.06"/>
      <path class="cls-31" d="M23.55,17.63h1.27s.08.02.08.05-.03.05-.08.05h-1.27s-.08-.03-.08-.05.03-.05.08-.05"/>
      <path class="cls-2" d="M23,25.38c.12,0,.22-.03.3-.07.08-.04.18-.06.29-.06s.22.03.3.06c.08.04.18.07.3.07s.22-.03.3-.07c.08-.04.18-.06.29-.06.12,0,.22.02.29.06.08.04.18.07.3.07v.19c-.12,0-.22-.03-.3-.07-.08-.04-.18-.06-.29-.06-.11,0-.21.02-.29.06-.08.04-.18.07-.3.07s-.22-.03-.3-.07c-.08-.04-.18-.07-.3-.07s-.22.03-.29.07c-.08.04-.18.07-.3.07v-.19"/>
      <path class="cls-14" d="M23,25.57c.12,0,.22-.03.3-.07.08-.04.18-.07.29-.07s.22.03.3.07c.08.04.18.07.3.07s.22-.03.3-.07c.08-.04.18-.06.29-.06.12,0,.22.02.29.06.08.04.18.07.3.07v.19c-.12,0-.22-.03-.3-.07-.08-.04-.18-.06-.29-.06-.11,0-.21.02-.29.06-.08.04-.18.07-.3.07s-.22-.03-.3-.07c-.08-.04-.18-.06-.3-.06s-.22.02-.29.06c-.08.04-.18.07-.3.07v-.19"/>
      <path class="cls-2" d="M23,25.76c.12,0,.22-.03.3-.07.08-.04.18-.06.29-.06s.22.02.3.06c.08.04.18.07.3.07s.22-.03.3-.07c.08-.04.18-.06.29-.06.12,0,.22.02.29.06.08.04.18.07.3.07v.19c-.12,0-.22-.03-.3-.07-.08-.04-.18-.06-.29-.06-.11,0-.21.02-.29.06-.08.04-.18.07-.3.07s-.22-.03-.3-.07c-.08-.04-.18-.06-.3-.06s-.22.02-.29.06c-.08.04-.18.07-.3.07v-.19"/>
      <path class="cls-14" d="M23,26.14c.12,0,.22-.03.3-.07.08-.04.18-.06.29-.06s.22.02.3.06c.08.04.18.07.3.07s.22-.03.3-.07c.08-.04.18-.06.29-.06.12,0,.22.02.29.06.08.04.18.07.3.07v-.19c-.12,0-.22-.03-.3-.07-.08-.04-.18-.06-.29-.06-.11,0-.21.02-.29.06-.08.04-.18.07-.3.07s-.22-.03-.3-.07c-.08-.04-.18-.06-.3-.06s-.22.02-.29.06c-.08.04-.18.07-.3.07v.19"/>
      <path class="cls-2" d="M23,26.33c.12,0,.22-.03.3-.07.08-.04.18-.07.29-.07s.22.02.3.07c.08.04.18.07.3.07s.22-.03.3-.07c.08-.04.18-.06.29-.06.12,0,.22.02.29.06.08.04.18.07.3.07v-.19c-.12,0-.22-.03-.3-.07-.08-.04-.18-.06-.29-.06-.11,0-.21.02-.29.06-.08.04-.18.07-.3.07s-.22-.03-.3-.07c-.08-.04-.18-.06-.3-.06s-.22.02-.29.06c-.08.04-.18.07-.3.07v.19"/>
      <path class="cls-31" d="M24.84,24.6s-.01.03-.01.05c0,.11.1.21.21.21h-1.74c.12,0,.21-.09.21-.21,0-.02,0-.03,0-.05,0,0,.02,0,.03,0h1.27s.02,0,.03,0"/>
      <path class="cls-31" d="M23.55,24.48h1.27s.08.03.08.06c0,.03-.03.06-.08.06h-1.27s-.08-.03-.08-.06c0-.03.04-.06.08-.06"/>
      <path class="cls-31" d="M23.31,25.31h1.73v-.46h-1.73v.46Z"/>
      <path class="cls-5" d="M25.18,22.85c.17.1.29.21.27.26,0,.05-.06.08-.14.14-.12.09-.2.25-.14.32-.1-.08-.16-.21-.16-.35s.07-.28.18-.37"/>
      <path class="cls-14" d="M23.56,24.4h1.23v-6.28h-1.23v6.28Z"/>
      <path class="cls-27" d="M24.46,18.12v6.27M24.59,18.12v6.27"/>
      <path class="cls-5" d="M22.3,20.48c.27-.12.73-.2,1.25-.22.18,0,.38.02.59.06.74.13,1.3.43,1.25.68,0,0,0,.02,0,.02,0,0,.27-.65.28-.67.05-.28-.57-.62-1.39-.76-.26-.04-.51-.06-.73-.06-.52,0-.98.07-1.25.18v.78"/>
      <path class="cls-5" d="M24.8,21.26c.34-.03.57-.12.6-.27.02-.12-.1-.25-.3-.37-.09.01-.2.02-.31.02v.61"/>
      <path class="cls-5" d="M23.56,20.78c-.21.03-.37.09-.45.16h0c-.04.1.15.27.46.46v-.62"/>
      <path class="cls-5" d="M25.56,22.47c.03-.1-.3-.3-.77-.48-.22-.08-.39-.16-.61-.26-.66-.3-1.14-.65-1.08-.77h0s-.09.64-.09.64c-.06.11.38.45.98.75.2.1.6.25.79.32.35.12.68.36.65.45l.11-.64"/>
      <path class="cls-48" d="M23.07,20.2c.05-.19.1-.36.16-.54-.01,0-.03,0-.04,0-.01,0-.03,0-.04,0-.03.13-.07.26-.11.39-.07-.11-.15-.22-.21-.34-.02,0-.05.01-.08.02-.02,0-.05,0-.08,0,.11.15.22.31.32.47.01,0,.02,0,.04,0,.01,0,.03,0,.04,0"/>
      <path class="cls-48" d="M23.54,19.66s-.05,0-.07,0c-.02,0-.05,0-.07,0v.51s.33,0,.33,0c0,0,0-.02,0-.03,0-.01,0-.02,0-.03-.06,0-.13,0-.2,0v-.45"/>
      <path class="cls-48" d="M24.07,19.75c.05,0,.11.01.16.02v-.03s0-.02,0-.03l-.46-.04s0,.02,0,.03c0,0,0,.02,0,.03.05,0,.1,0,.17,0l-.04.45s.04,0,.07,0c.02,0,.04,0,.07,0l.04-.45"/>
      <path class="cls-48" d="M24.26,20.24s.04,0,.06.01c.02,0,.04.01.07.02l.05-.23h0s.03.07.04.1l.07.18s.05,0,.08.01c.03,0,.05.01.08.02l-.02-.05c-.04-.08-.07-.16-.11-.24.09,0,.15-.03.17-.1,0-.05,0-.09-.05-.12-.03-.02-.1-.04-.14-.05l-.18-.04-.12.5M24.5,19.81c.05.01.12.02.12.08,0,.02,0,.03,0,.04-.02.07-.07.1-.16.07l.05-.19"/>
      <path class="cls-48" d="M25.14,20.39c0,.06-.01.11-.02.17.02,0,.05.02.07.03.02.01.04.03.06.04l.05-.57s-.02,0-.03-.01c0,0-.02-.01-.03-.02l-.48.32s.03.01.04.02c.01,0,.02.02.04.02.04-.03.08-.06.13-.1l.18.1h0ZM25,20.26l.16-.11-.02.19-.14-.08"/>
    </g>
    <path class="cls-14" d="M18.54,26.45c-.99,0-1.97-.25-2.8-.67-.61-.31-1.01-.95-1.01-1.67v-2.62h7.61v2.62c0,.73-.4,1.36-1.01,1.67-.83.42-1.79.67-2.78.67"/>
    <path class="cls-11" d="M18.72,25.29s0-.04.01-.06c0-.02.02-.06.02-.06,0,0-.04,0-.06.02-.03.01-.06.04-.06.04,0,0,0-.02-.02-.05-.01-.02-.05-.05-.05-.05,0,0-.03.02-.05.04-.02.03-.04.06-.04.06,0,0-.02-.02-.06-.04-.03-.01-.09,0-.09,0,0,0,.03.03.05.05.01.03.02.04.02.04-.16,0-.23.17-.23.31,0,.19.18.33.41.33s.4-.14.4-.33c0-.14-.08-.27-.24-.32Z"/>
    <path class="cls-4" d="M18.1,25.9c-.17-.04-.36,0-.44-.01,0,0,.1.07.14.12.04.04.18.13.26.15.24.06.47-.02.47-.02,0,0-.3-.21-.43-.24Z"/>
    <path class="cls-4" d="M19.01,25.92c-.2.03-.39.24-.39.24,0,0,.04,0,.07-.01.03,0,.21.02.38.01.16,0,.27-.1.31-.13.04-.03.12-.07.12-.07-.09-.03-.25-.08-.49-.05Z"/>
    <path class="cls-6" d="M18.55,25.31c-.08.07-.12.18-.12.29s.05.22.12.29c.08-.07.12-.18.12-.29s-.05-.22-.12-.29Z"/>
    <path class="cls-4" d="M18.58,25.93h-.06s.01.09,0,.17c0,.1-.05.22-.05.22,0,0,.05-.02.06-.02.02,0,.06-.01.06-.01,0,0,.01-.11.01-.19s-.03-.17-.03-.17Z"/>
    <path class="cls-5" d="M18.53,17.09h-3.8v7.02c0,1.04.85,1.88,1.9,1.88s1.9-.84,1.9-1.88v-7.02Z"/>
    <g>
      <path class="cls-31" d="M18.53,21.48h-.43v3.81c.27-.32.43-.73.43-1.18v-2.63Z"/>
      <path class="cls-31" d="M15.57,21.48v4.19c.13.09.27.16.42.21v-4.4h-.42Z"/>
      <path class="cls-31" d="M14.72,21.48v2.63c0,.45.16.86.42,1.18v-3.81h-.42Z"/>
      <path class="cls-31" d="M17.26,21.48v4.4c.15-.05.29-.12.42-.21v-4.19h-.42Z"/>
      <path class="cls-31" d="M16.41,21.48v4.49c.07,0,.14.01.21.01s.14,0,.21-.01v-4.5h-.42Z"/>
    </g>
    <line class="cls-31" x1="18.1" y1="21.48" x2="15.15" y2="21.48"/>
    <path class="cls-14" d="M18.52,21.48h3.81v-4.39h-3.81v4.39Z"/>
    <path class="cls-5" d="M22.34,21.48v2.63c0,1.04-.85,1.88-1.91,1.88s-1.9-.84-1.9-1.88v-2.63h3.81"/>
    <path class="cls-35" d="M20.24,23.61s-.01-.02-.02-.04h-.33v-.13h.32s0-.02.01-.03l-.4-.46.1-.08.39.45s.01,0,.02,0v-.6h.13v.6s.01,0,.02,0l.38-.45.1.08-.39.45s.02.03.02.05h.31v.13h-.32s-.01.03-.02.04l.37.43-.1.08-.36-.43s-.01,0-.02,0v.71h-.13v-.72s-.01,0-.02,0l-.38.43-.1-.08.38-.44"/>
    <path class="cls-35" d="M20.9,25.19c-.09.04-.18.07-.29.09-.03-.05-.07-.09-.13-.11v-.55h-.13v.55c-.06.02-.1.06-.12.11-.11-.02-.21-.04-.31-.09l-.06.11c.11.05.23.08.36.1.02.09.1.16.2.16s.18-.07.2-.16c.12-.02.23-.05.34-.1l-.06-.11ZM20.42,25.45s-.09-.04-.09-.09.04-.09.09-.09.09.04.09.09-.04.09-.09.09Z"/>
    <path class="cls-35" d="M21.64,24.61c.05-.12.09-.26.1-.39h-.13c0,.12-.04.23-.08.34-.04,0-.08,0-.11.01l-.32-.37-.1.08.32.37c-.04.07-.04.16,0,.23-.07.08-.15.16-.25.22l.06.11c.11-.07.21-.16.29-.26.06.02.14,0,.2-.04.09-.07.1-.2.02-.29h-.01ZM21.55,24.83s-.09.03-.12,0c-.03-.04-.03-.09,0-.12.04-.03.1-.03.13,0,.03.04.03.09-.01.12Z"/>
    <path class="cls-35" d="M21.89,23.5c0-.09-.06-.17-.15-.2v-.43s-.13,0-.13,0v.43c-.06.02-.11.07-.13.13h-.35v.13h.35c.02.06.07.11.13.13v.32h.13v-.32c.08-.03.14-.1.14-.19ZM21.69,23.59s-.09-.04-.09-.09.04-.09.09-.09.09.04.09.09-.04.09-.09.09Z"/>
    <path class="cls-35" d="M21.69,21.85c-.09,0-.17.06-.2.14h-.35v.13h.35s0,.02.01.03l-.48.57.1.08.47-.56s.02,0,.03.01v.43h.13v-.43c.08-.03.14-.1.14-.19,0-.11-.09-.2-.2-.2ZM21.69,22.14c-.05,0-.09-.04-.09-.09s.04-.09.09-.09c.05,0,.09.04.09.09s-.04.09-.09.09Z"/>
    <path class="cls-35" d="M20.61,21.99c-.03-.08-.1-.14-.2-.14s-.17.06-.2.14h-.31v.13h.31c.02.06.07.11.14.13v.26s.13,0,.13,0v-.26c.06-.02.11-.07.13-.13h.32v-.13h-.32ZM20.41,22.14s-.09-.04-.09-.09.04-.09.09-.09.09.04.09.09-.04.09-.09.09Z"/>
    <path class="cls-35" d="M19.32,22.16s.02-.03.02-.05h.35v-.13h-.35c-.03-.08-.11-.14-.2-.14-.11,0-.21.09-.21.2,0,.09.06.16.14.19v.43s.13,0,.13,0v-.43s.02,0,.02,0l.48.56.1-.08-.48-.55ZM19.15,22.14s-.09-.04-.09-.09.04-.09.09-.09.09.04.09.09-.04.09-.09.09Z"/>
    <path class="cls-35" d="M19.34,23.44c-.02-.06-.07-.11-.13-.13v-.43h-.13v.43c-.08.03-.14.11-.14.2s.06.17.14.19v.32h.13s0-.32,0-.32c.06-.02.11-.07.13-.13h.35v-.13h-.35ZM19.14,23.59s-.09-.04-.09-.09.04-.09.09-.09.09.04.09.09-.04.09-.09.09Z"/>
    <path class="cls-35" d="M19.5,24.88c.05-.07.05-.16,0-.23l.32-.37-.1-.08-.33.37s-.07-.02-.11-.01c-.04-.11-.07-.22-.08-.34h-.13c.01.14.05.27.1.39h-.01c-.08.1-.06.23.02.3.06.05.13.06.2.04.08.1.18.19.29.26l.06-.11c-.09-.06-.17-.13-.25-.22ZM19.4,24.82s-.09.04-.12,0c-.04-.03-.04-.09-.01-.12.03-.04.09-.04.13,0,.04.03.04.09,0,.12Z"/>
    <path class="cls-35" d="M19.1,24.33l-.13-.03-.02-.35.13-.05v.2c0,.08,0,.15.02.23h0Z"/>
    <path class="cls-35" d="M19.21,23.9l.13.03s0,.22,0,.18c0-.06.01.18.01.18l-.13.04c-.01-.07-.02-.14-.02-.22v-.21h0Z"/>
    <polyline class="cls-35" points="19.08 22.56 18.94 22.6 18.94 22.95 19.08 22.99 19.08 22.56"/>
    <polyline class="cls-35" points="19.21 22.56 19.34 22.6 19.34 22.95 19.21 22.99 19.21 22.56"/>
    <polyline class="cls-35" points="20.01 22.11 19.97 22.24 19.62 22.24 19.58 22.11 20.01 22.11"/>
    <polyline class="cls-35" points="20.01 21.99 19.97 21.85 19.62 21.85 19.58 21.99 20.01 21.99"/>
    <path class="cls-35" d="M19.64,25.02c.11.09.24.16.38.21l.03-.13c-.11-.04-.22-.09-.31-.16l-.1.09"/>
    <path class="cls-35" d="M19.58,25.14c.11.09.24.16.38.21l-.1.09c-.11-.04-.22-.1-.31-.17l.03-.14"/>
    <polyline class="cls-35" points="19.76 24.36 19.88 24.42 20.11 24.15 20.04 24.04 19.76 24.36"/>
    <polyline class="cls-35" points="19.66 24.28 19.58 24.17 19.81 23.9 19.94 23.95 19.66 24.28"/>
    <path class="cls-35" d="M21.73,24.33l.13-.03.02-.35-.13-.05v.2c0,.08,0,.15-.02.23h0Z"/>
    <path class="cls-35" d="M21.62,23.9l-.13.03s0,.22,0,.18c0-.06-.01.18-.01.18l.13.04c.01-.07.02-.14.02-.22v-.21"/>
    <path class="cls-35" d="M21.18,25.02c-.11.09-.24.16-.38.21l-.03-.13c.12-.04.22-.09.32-.16l.1.09"/>
    <path class="cls-35" d="M21.24,25.14c-.11.09-.24.16-.38.21l.1.09c.11-.04.22-.1.31-.17l-.03-.14"/>
    <polyline class="cls-35" points="21.62 22.56 21.48 22.6 21.48 22.95 21.62 22.99 21.62 22.56"/>
    <polyline class="cls-35" points="21.75 22.56 21.88 22.6 21.88 22.95 21.75 22.99 21.75 22.56"/>
    <polyline class="cls-35" points="21.07 24.36 20.94 24.42 20.71 24.15 20.79 24.04 21.07 24.36"/>
    <polyline class="cls-35" points="21.17 24.28 21.25 24.17 21.01 23.9 20.89 23.95 21.17 24.28"/>
    <polyline class="cls-35" points="19.73 22.63 19.86 22.57 20.09 22.84 20.01 22.96 19.73 22.63"/>
    <polyline class="cls-35" points="19.63 22.71 19.56 22.83 19.79 23.09 19.91 23.04 19.63 22.71"/>
    <polyline class="cls-35" points="21.09 22.62 20.96 22.57 20.73 22.83 20.81 22.95 21.09 22.62"/>
    <polyline class="cls-35" points="21.19 22.7 21.26 22.82 21.03 23.09 20.91 23.03 21.19 22.7"/>
    <polyline class="cls-35" points="19.58 23.44 19.62 23.31 19.98 23.31 20.02 23.44 19.58 23.44"/>
    <polyline class="cls-35" points="19.58 23.57 19.62 23.7 19.98 23.7 20.02 23.57 19.58 23.57"/>
    <polyline class="cls-35" points="21.25 23.44 21.21 23.31 20.85 23.31 20.82 23.44 21.25 23.44"/>
    <polyline class="cls-35" points="21.25 23.57 21.21 23.7 20.85 23.7 20.82 23.57 21.25 23.57"/>
    <polyline class="cls-35" points="20.48 24.73 20.62 24.69 20.62 24.34 20.48 24.3 20.48 24.73"/>
    <polyline class="cls-35" points="20.36 24.73 20.22 24.69 20.22 24.34 20.36 24.3 20.36 24.73"/>
    <path class="cls-35" d="M20.35,22.39l-.13.04v.35l.13.04v-.43M20.48,22.39l.13.04v.35l-.13.04v-.43"/>
    <polyline class="cls-35" points="20.82 22.11 20.86 22.24 21.22 22.24 21.25 22.11 20.82 22.11"/>
    <polyline class="cls-35" points="20.82 21.99 20.86 21.85 21.22 21.85 21.25 21.99 20.82 21.99"/>
    <path class="cls-8" d="M20.21,23.51c0-.11.09-.21.21-.21s.21.09.21.21-.09.2-.21.2-.21-.09-.21-.2"/>
    <path class="cls-23" d="M16.03,18.1h-.07v-.07h-.12v.29h.12v.2h-.26v.58h.14v1.17h-.28v.6h2.15v-.6h-.28v-1.17h.14v-.58h-.27v-.2h.12v-.29h-.12v.07h-.07v-.07h-.12v.07h-.09v-.07h-.12v.29h.12v.2h-.26v-.64h.14v-.29h-.14v.07h-.07v-.07h-.12v.07h-.07v-.07h-.14v.29h.14v.64h-.26v-.2h.12v-.29h-.12v.07h-.07v-.07h-.14v.07h0ZM15.55,20.87h2.15M15.55,20.73h2.15M15.55,20.58h2.15M15.55,20.44h2.15M15.55,20.27h2.15M15.83,20.14h1.59M15.83,20h1.59M15.83,19.84h1.59M15.83,19.69h1.59M15.83,19.54h1.59M15.83,19.4h1.59M15.83,19.25h1.59M15.69,19.11h1.87M15.69,18.96h1.87M15.69,18.82h1.87M15.69,18.67h1.87M15.96,18.52h1.35M16.5,18.38h.26M16.5,18.23h.26M16.5,18.09h.26M16.5,17.94h.26M16.36,17.76h.54M15.96,18.38h.28M15.83,18.19h.53M15.83,20.87v-.15M15.83,20.58v-.15M15.69,20.58v.15M15.96,20.73v-.15M16.1,20.87v-.15M16.1,20.58v-.15M16.1,20.27v-.13M16.1,20v-.16M15.96,20.44v-.16M15.69,20.44v-.16M16.24,20.27v.16M16.36,20.27v-.13M15.96,20v.15M16.24,20v.15M16.5,20v.15M16.36,20v-.16M16.5,19.69v.15M16.5,19.4v.15M16.36,19.25v.15M16.5,19.11v.15M16.24,19.11v.15M15.96,19.11v.15M15.83,18.96v.15M16.1,18.96v.15M16.36,18.96v.15M16.5,18.82v.14M16.24,18.82v.14M15.96,18.82v.14M15.83,18.67v.15M16.36,18.67v.15M16.1,18.38v.15M17.31,18.38h-.28M17.43,18.19h-.52M17.43,20.87v-.15M17.43,20.58v-.15M17.57,20.58v.15M17.31,20.73v-.15M17.17,20.87v-.15M17.17,20.58v-.15M17.17,20.27v-.13M17.17,20v-.16M17.31,20.44v-.16M17.57,20.44v-.16M17.03,20.27v.16M16.9,20.27v-.13M17.31,20v.15M17.03,20v.15M16.76,20v.15M16.9,20v-.16M16.76,19.69v.15M16.76,19.4v.15M16.9,19.25v.15M16.76,19.11v.15M17.03,19.11v.15M17.31,19.11v.15M17.43,18.96v.15M17.17,18.96v.15M16.9,18.96v.15M16.76,18.82v.14M17.03,18.82v.14M17.31,18.82v.14M17.43,18.67v.15M16.9,18.67v.15M17.17,18.38v.15M16.62,20v-.16M16.62,19.4v-.15M16.62,19.69v-.15M16.62,19.11v-.15M16.62,18.82v-.15M16.62,18.38v-.15M16.62,18.09v-.15M15.96,18.32h.28M16.5,17.89h.26M17.03,18.32h.28"/>
    <path class="cls-23" d="M16.99,20.87v-.38c0-.07-.04-.29-.37-.29-.31,0-.35.22-.35.29v.38h.72Z"/>
    <path class="cls-23" d="M16.4,20.51l-.18-.02c0-.07.02-.18.07-.22l.16.13s-.05.07-.05.11Z"/>
    <path class="cls-23" d="M16.87,20.51l.18-.02c0-.07-.02-.18-.07-.22l-.16.13s.05.07.05.11Z"/>
    <path class="cls-23" d="M16.69,20.33l.09-.16s-.1-.03-.16-.03c-.04,0-.1.02-.14.03l.09.16h.12Z"/>
    <path class="cls-23" d="M16.36,19.87v-.4c0-.11-.07-.2-.19-.2s-.19.09-.19.2v.4h.39Z"/>
    <path class="cls-23" d="M16.9,19.87v-.4c0-.11.07-.2.19-.2s.19.09.19.2v.4h-.38Z"/>
    <path class="cls-23" d="M16.76,18.89l.03-.36h-.33l.02.36h.28Z"/>
    <path class="cls-23" d="M17.03,18.89l-.04-.36h.35l-.04.36h-.28Z"/>
    <path class="cls-23" d="M16.24,18.89l.02-.36h-.33l.04.36h.28Z"/>
    <path class="cls-43" d="M16.87,20.87v-.33c0-.05-.04-.22-.25-.22-.19,0-.23.16-.23.22v.33h.47Z"/>
    <path class="cls-43" d="M16.32,19.84v-.35c0-.09-.05-.18-.16-.18s-.16.09-.16.18v.35h.31Z"/>
    <path class="cls-43" d="M16.94,19.84v-.35c0-.09.05-.18.16-.18s.16.09.16.18v.35h-.32Z"/>
    <path class="cls-5" d="M17.3,21.46c0-.8.55-1.44,1.23-1.44s1.23.65,1.23,1.44-.55,1.44-1.23,1.44-1.23-.64-1.23-1.44"/>
    <path class="cls-2" d="M17.67,21.46c0-.58.39-1.06.87-1.06s.87.47.87,1.06-.39,1.06-.87,1.06-.87-.47-.87-1.06"/>
    <path class="cls-31" d="M18.29,21.08s-.09.03-.11.08c0,0,.04-.09.04-.2,0-.11-.1-.22-.1-.22,0,0-.1.12-.1.22s.04.2.04.2c-.02-.04-.06-.08-.11-.08-.06,0-.11.05-.11.11,0,.02.01.04.02.06l.04.08s.04-.04.07-.04c.04,0,.08.04.08.08,0,0-.01.1-.01.1l-.06.13.08-.03.06.07.06-.07.08.03-.06-.13s-.01-.1-.01-.1c0-.05.03-.08.08-.08.03,0,.06.02.07.04l.04-.08s.02-.04.02-.06c0-.06-.05-.11-.11-.11Z"/>
    <path class="cls-31" d="M17.96,21.47h.33v-.08h-.33v.08Z"/>
    <path class="cls-31" d="M19.1,21.08s-.09.03-.11.08c0,0,.04-.09.04-.2s-.1-.22-.1-.22c0,0-.1.12-.1.22s.04.2.04.2c-.02-.04-.06-.08-.11-.08-.06,0-.11.05-.11.11,0,.02.01.04.02.06l.04.08s.04-.04.08-.04c.04,0,.08.04.08.08,0,0-.01.1-.01.1l-.06.13.08-.03.06.07.06-.07.08.03-.06-.13s-.01-.1-.01-.1c0-.05.04-.08.08-.08.03,0,.06.02.08.04,0,0,.05-.12.05-.14,0-.06-.05-.11-.11-.11Z"/>
    <path class="cls-31" d="M18.77,21.47h.33v-.08h-.33v.08Z"/>
    <path class="cls-31" d="M18.7,21.8s-.09.03-.11.07c0,0,.04-.09.04-.2s-.1-.23-.1-.23c0,0-.1.12-.1.23s.04.2.04.2c-.02-.04-.06-.07-.11-.07-.06,0-.11.05-.11.11,0,.02.06.14.06.14.01-.03.04-.05.07-.05.04,0,.08.03.08.08,0,0-.01.1-.01.1l-.06.13.08-.03.06.07.06-.07.08.03-.06-.13s0-.1,0-.1c0-.05.03-.08.08-.08.03,0,.06.02.07.05,0,0,.06-.12.06-.14,0-.06-.05-.11-.11-.11Z"/>
    <path class="cls-31" d="M18.37,22.19h.33v-.08h-.33v.08Z"/>
    <path class="cls-5" d="M19.15,18.25s-.06,0-.09.05c-.03.04-.02.11-.02.11,0,0,.04-.04.07-.04.03,0,.09.01.09.01,0,0-.02-.04-.02-.06s-.03-.06-.03-.06"/>
    <g>
      <path class="cls-5" d="M20.47,18.17v-.05s0-.03,0-.03c0,0-.12.01-.18,0-.07-.02-.12-.05-.18-.1-.06-.05-.08-.09-.13-.09-.1-.02-.18.03-.18.03,0,0,.08.03.14.1.06.07.12.11.15.12.04.01.2,0,.25,0,.04,0,.14.01.14.01"/>
      <path class="cls-3" d="M21.84,17.66c-.1.12-.19.13-.26.29-.01-.08-.02-.17-.07-.23.01.18-.18.38-.12.66h0c0,.08-.04.21-.04.27,0,.06.02.23.07.38.05.15.14.48-.1.55-.24.06-.35-.13-.42-.24-.12-.18-.13-.35-.18-.46.01.02.04.03.07.06.03.02.06.08.06.08,0,0,.01-.13.01-.2s-.04-.15-.04-.15c0,0,.1.07.15.16.02-.03.03-.15-.04-.25.09.02.16.12.16.12,0,0,0-.08-.01-.11-.01-.03-.06-.08-.08-.1-.02-.03-.04-.07-.04-.1,0-.03,0-.08,0-.08,0,0,.02.01.05.03.03.02.06.04.06.04,0,0,0-.05-.02-.07,0-.02-.01-.04-.02-.07,0-.03.01-.07.01-.13,0-.05,0-.11,0-.11,0,0-.07-.12-.16-.19-.1-.08-.22-.12-.22-.12,0,0-.09.02-.12.03-.02.02-.03.06-.05.07-.02.01-.09.01-.15.02-.06,0-.09.01-.11.03-.02.02,0,.03.01.09.02.06.08.06.16.08.08.02.08.07.06.15-.02.08-.1.07-.15.07-.06,0-.09,0-.1.04,0,.03.08.07.1.11.02.04-.04.07-.08.09-.04.02-.16.01-.21.01-.05,0-.08.02-.08.02,0,0-.03-.02-.06-.03-.03,0-.13-.09-.17-.11-.04-.03-.1-.04-.14-.07-.03-.02-.07-.08-.09-.12-.01-.03,0-.09.02-.12.02-.03.04-.06.05-.08s-.05-.01-.08-.02c-.04,0-.05-.03-.07-.04-.02,0-.03.04-.02.07,0,.03,0,.08-.02.09-.02,0-.06-.08-.09-.09-.03-.02-.04.03-.06.05-.01.02-.04.03-.06.05-.02.02.02.05.05.06.03.01.07.05.06.06,0,.01-.07,0-.11,0-.03.01,0,.06.01.07,0,.02,0,0,0,.04,0,.03.02.05.04.05.02,0,.06-.03.09-.03.02,0,.03.03.04.05.01.02.03.06.05.08.02.03.09.05.09.05,0,0-.04,0-.08,0-.04,0-.1.05-.1.05,0,0,.19,0,.27.04-.03.02-.15.07-.15.07.2.12.23,0,.43.23,0,0-.1.08-.12.09-.02.01-.09.06-.11.08-.02.01-.12.03-.16.02-.04-.01-.04-.06-.08-.08-.04-.02-.04.02-.06.04-.01.02-.02.03-.04.05-.02.02,0,.05.04.06.04.01.07.03.06.05,0,.02-.08,0-.09.02-.02,0-.02.02-.02.05.01.02,0,.05,0,.08,0,.04.04.03.06.02.02,0,.06-.03.06-.02.01.02-.03.05-.04.07,0,.02.02.05.02.05,0,0,.02-.02.05-.01.03,0,.06.03.06.03,0,0,.03-.02.04-.04.01-.03,0-.07,0-.11,0-.04.09-.03.14-.05.06-.01.06-.04.09-.07,0,.04-.02.13-.02.15.11-.07.15-.16.19-.23.01.06,0,.12,0,.16.09-.12.23-.18.23-.18,0,0,.02.08.05.12.02.04.1.14.16.17.05.03.28.16.28.16,0,0-.12.02-.16.03-.04,0-.11,0-.21,0-.1,0-.15.11-.17.13-.02.02,0,.1,0,.16-.01.08.04.12.04.12,0,0,0-.07.01-.09,0-.02.03-.07.03-.07,0,0,.02.05.02.07,0,0,0,.05,0,.07,0,.04,0,.09,0,.09,0,0,.02-.04.03-.06.01-.02.05-.05.05-.05,0,0-.01.06-.01.08,0,.02,0,.06,0,.08,0,.02-.02.03-.1.04-.08,0-.11-.01-.16-.07s0-.09-.05-.11c-.02-.01-.04.04-.06.05-.01.01-.02.01-.06.04-.03.03,0,.04.02.06.02.02.03.03.02.06,0,.03-.07,0-.12,0-.05,0,0,.04,0,.09,0,.05.02.07.04.09.02.01.04-.02.06-.03.01-.01.03,0,.05,0,.02,0,.01.02,0,.04-.01.02-.02.03-.03.06,0,.03.04.03.06.03.03,0,.05.02.07.02.02,0,.05,0,.04-.06-.01-.03.03-.05.05-.06.02,0,.07.02.09.02.02,0,.05,0,.1,0s.08.01.1.02c.02,0,.06.01.07,0,.01,0,.05-.05.06-.07,0-.02,0-.07-.04-.17-.03-.11-.04-.19-.02-.23.02-.04.06-.02.12-.02,0,0,.07,0,.1,0-.05.09-.06.33.16.48-.03-.07-.02-.17-.02-.17l.1.17v-.18s.07.1.1.14c.03.03.03.09.02.12-.02.03-.04.04-.08.05-.04,0-.06-.04-.11-.01-.04.02,0,.05,0,.06,0,.01,0,.04,0,.07,0,.03.04.04.06.02.02-.02.04-.02.06,0,.02.02,0,.03-.04.04-.03,0-.06.05-.06.08,0,.02.05.03.06.04.02,0,.04.04.06.04.02,0,.02-.05.02-.07,0-.02.01-.03.03-.03.01,0,.01.02.01.06,0,.04,0,.06.03.06.01,0,.03-.02.08-.03.01,0,.04.03.07.01.04-.01-.02-.1-.02-.1-.02-.03-.02-.09-.02-.11s.04-.15.07-.19c.02-.05.08-.12.09-.14,0-.03,0-.05-.02-.07-.02-.02-.02-.03-.03-.06-.01-.03-.06,0-.1-.04-.04-.03-.09-.06-.09-.2s.06-.21.1-.23c.03-.02.18-.02.27-.1.14-.12.12-.3.12-.38,0-.08-.14-.42-.16-.46-.01-.04-.06-.33.05-.4.22-.13.08-.22.3-.41-.05,0-.1,0-.16.02.05-.08.16-.1.18-.38Z"/>
      <path class="cls-46" d="M20.58,17.83s0,.01,0,.02c0,0,.01.02.03.02.02,0,.03,0,.03,0,.02,0,.06.04.06.03,0,0-.02-.05-.07-.08-.03-.02-.08-.02-.08-.02v.03s.03,0,.03,0Z"/>
      <path class="cls-46" d="M20.25,17.93s-.02-.04-.02-.05c0,0,0-.02,0-.02,0,0,.07,0,.06.02,0,.02-.02.02-.03.03,0,0-.01.02-.01.02"/>
      <path class="cls-5" d="M19.4,17.92s.04.03.06.03c.03,0,.06,0,.06,0s.01-.04,0-.07c-.02-.1-.1-.12-.1-.12,0,0,.02.06.01.09-.02.04-.05.07-.05.07"/>
      <path class="cls-5" d="M19.23,18s-.03-.06-.1-.05c-.07,0-.11.06-.11.06,0,0,.08,0,.1,0,.03.02.04.07.04.07,0,0,.04-.02.05-.04.01-.02.03-.05.03-.05"/>
      <path class="cls-10" d="M20.25,18.24l.02-.04.03.04h-.05"/>
      <path class="cls-10" d="M20.31,18.24l.03-.04.03.04h-.06"/>
      <path class="cls-10" d="M20.29,17.98l.06.02-.05.03v-.05"/>
      <path class="cls-10" d="M20.36,18l.05.02-.04.03v-.05"/>
      <path class="cls-5" d="M19.34,19.05s-.03-.03-.09-.03c-.06.01-.09.08-.09.08,0,0,.05-.01.08,0,.03,0,.05.04.05.04,0,0,.02-.02.03-.04,0-.01.02-.04.02-.04"/>
      <path class="cls-5" d="M19.27,19.28s-.04,0-.09.03c-.04.03-.04.1-.04.1,0,0,.04-.03.07-.03.03,0,.07.02.07.02,0,0,0-.04,0-.05,0-.03-.01-.06-.01-.06"/>
      <path class="cls-5" d="M19.39,19.5s0,.06.03.1c.03.04.08.05.08.05,0,0-.02-.04-.02-.06,0-.03.03-.06.03-.06,0,0-.03-.03-.06-.03-.03,0-.06,0-.06,0"/>
      <path class="cls-5" d="M19.94,20.05s-.04-.05-.09-.05c-.06,0-.11.06-.11.06,0,0,.07,0,.08.02.02.02.03.05.03.05,0,0,.03-.02.04-.03.01,0,.04-.05.04-.05"/>
      <path class="cls-5" d="M19.78,20.27s-.07-.01-.1.03c-.04.04-.03.11-.03.11,0,0,.04-.05.08-.04.04,0,.08.03.08.03,0,0,0-.04-.01-.06,0-.02-.01-.05-.01-.05"/>
      <path class="cls-5" d="M19.93,20.51s-.04.05,0,.09c.03.04.08.06.08.06,0,0-.02-.03-.01-.06,0-.03.05-.06.05-.06l-.11-.02"/>
      <path class="cls-5" d="M20.87,20.6s-.06-.02-.1,0c-.04.02-.06.11-.06.11,0,0,.06-.05.1-.04.04,0,.07.02.07.02,0,0,0-.04,0-.06,0-.02-.01-.04-.01-.04"/>
      <path class="cls-5" d="M20.9,20.84s-.04.05-.03.09c.02.04.05.09.05.09,0,0,0-.06.02-.08.03-.02.08-.03.08-.03,0,0-.04-.04-.06-.04-.01,0-.06-.03-.06-.03"/>
      <path class="cls-5" d="M21.14,20.91s-.02.06.02.1c.04.04.08.05.08.05,0,0-.04-.06-.02-.1.01-.04.04-.06.04-.06,0,0-.06-.02-.06-.02,0,0-.06.03-.06.03"/>
      <path class="cls-17" d="M21.13,17.9s0-.01,0-.01c0,0-.02,0-.02,0-.01,0-.01-.03,0-.05h.01v-.04h-.02s0,0-.01.01c-.02.02-.05.02-.06,0-.01,0-.01-.02,0-.04-.01,0-.02,0-.03,0-.02-.01-.02-.04,0-.06,0-.01.02-.02.02-.03v-.02h-.03s-.01.02-.02.03c-.02.02-.05.02-.06,0,0,0-.01-.02-.01-.03-.01,0-.03,0-.04,0-.02-.01-.02-.04-.01-.06,0,0,0-.01,0-.01v-.03s-.03,0-.03,0h0s-.04.04-.05.03c0,0-.01-.02-.01-.02,0,0,0,0-.01,0-.04.01-.06-.08-.06-.1v.02s0,.06,0,.1c0,.05-.02.1-.02.1.06.01.14.06.23.13.08.07.15.14.18.19,0,0,.04-.03.09-.04.05-.02.1-.02.1-.02l.02-.02s-.12,0-.12-.03Z"/>
      <path class="cls-46" d="M20.82,17.71s.01,0,.02,0c0,0,0,.01,0,.02,0,0-.01,0-.02,0,0,0,0-.01,0-.02"/>
      <path class="cls-46" d="M20.9,17.77l-.03-.02s0,0,0-.01c0,0,0,0,.01,0l.03.02.02.02s0,0,0,.01c0,0,0,0-.01,0l-.02-.02"/>
      <path class="cls-46" d="M20.76,17.68h-.02s0-.02,0-.03,0,0,.01,0h.02s.02.03.02.03c0,0,0,0,0,.01,0,0,0,0-.01,0h-.02"/>
      <path class="cls-46" d="M20.68,17.62s.01,0,.02,0c0,0,0,.01,0,.02s-.01,0-.02,0c0,0,0-.01,0-.02"/>
      <path class="cls-46" d="M20.97,17.83s0-.01,0-.02c0,0-.02,0-.02,0,0,0,0,.01,0,.02,0,0,.02,0,.02,0"/>
      <path class="cls-46" d="M21.02,17.88l.02.02s.01,0,.01,0c0,0,0,0,0-.01l-.02-.02-.02-.02s0,0-.01,0c0,0,0,0,0,.01l.02.02"/>
      <path class="cls-46" d="M21.09,17.95s0-.01,0-.02c0,0-.01,0-.02,0,0,0,0,.01,0,.02,0,0,.01,0,.02,0"/>
      <polygon class="cls-35" points="20.88 17.47 20.84 17.47 20.83 17.54 20.83 17.55 20.85 17.55 20.9 17.51 20.88 17.47"/>
      <polygon class="cls-35" points="20.84 17.54 20.8 17.49 20.76 17.51 20.76 17.55 20.83 17.56 20.84 17.55 20.84 17.54"/>
      <polygon class="cls-35" points="20.84 17.54 20.83 17.55 20.83 17.56 20.87 17.61 20.91 17.59 20.91 17.55 20.84 17.54"/>
      <g>
        <polygon class="cls-48" points="20.83 17.58 20.82 17.58 20.83 17.58 20.83 17.58"/>
        <path class="cls-46" d="M20.83,17.53s0,0,0,0c.01,0,.02.02,0,.03,0,0-.01.01-.02.01,0,0,0,0-.01,0-.01,0-.02-.02,0-.03,0,0,.01,0,.02,0M20.83,17.51s-.03,0-.03.02c-.01.02,0,.05.01.06,0,0,.01,0,.02,0,.02,0,.03,0,.04-.02,0,0,0-.02,0-.03,0-.01,0-.02-.02-.03,0,0-.01,0-.02,0h0Z"/>
      </g>
      <path class="cls-35" d="M20.67,17.39s-.06-.01-.07,0c0,0,.02.02.03.03.01.02.02.06.02.06,0,0,.02-.01.02-.01,0,0,.03-.04,0-.07Z"/>
      <polygon class="cls-35" points="20.72 17.45 20.65 17.46 20.65 17.47 20.65 17.47 20.7 17.52 20.73 17.49 20.72 17.45"/>
      <g>
        <path class="cls-48" d="M20.65,17.5h0s0,0,0,0Z"/>
        <path class="cls-46" d="M20.66,17.45s0,0,0,0c0,0,.01.01,0,.03,0,.01-.01.02-.02.02,0,0,0,0,0,0,0,0-.01-.01,0-.03,0-.01.01-.02.02-.02M20.66,17.43s-.03.01-.04.03c0,.01,0,.02,0,.03,0,0,.01.01.02.02h0s0,0,0,0c.02,0,.03-.01.04-.03,0-.02,0-.04-.02-.05h0s0,0,0,0h0Z"/>
      </g>
      <polygon class="cls-35" points="21.05 17.58 21.01 17.58 20.99 17.64 20.99 17.65 21.01 17.65 21.07 17.62 21.05 17.58"/>
      <polygon class="cls-35" points="20.97 17.59 20.93 17.6 20.92 17.64 20.99 17.66 21 17.66 21 17.65 20.97 17.59"/>
      <polygon class="cls-35" points="21 17.65 20.99 17.65 20.99 17.66 21.02 17.72 21.06 17.71 21.07 17.66 21 17.65"/>
      <g>
        <polygon class="cls-48" points="20.97 17.68 21.01 17.63 20.99 17.69 20.97 17.68"/>
        <path class="cls-46" d="M20.99,17.63s.01,0,.02,0c0,0,.01.02,0,.03,0,0,0,0-.02,0,0,0-.01,0-.02,0,0,0-.01-.02,0-.03,0,0,0,0,.02,0M20.99,17.61s-.02,0-.03.01c0,0-.01.02-.01.03,0,.01,0,.02.02.03,0,0,.02,0,.03,0,.01,0,.02,0,.03-.02,0,0,.01-.02,0-.03,0-.01,0-.02-.02-.03,0,0-.02,0-.03,0h0Z"/>
      </g>
      <polygon class="cls-35" points="21.2 17.73 21.16 17.71 21.13 17.78 21.13 17.79 21.15 17.79 21.21 17.77 21.2 17.73"/>
      <polygon class="cls-35" points="21.14 17.78 21.13 17.78 21.13 17.8 21.15 17.86 21.19 17.85 21.21 17.81 21.14 17.78"/>
      <polygon class="cls-35" points="21.12 17.72 21.08 17.73 21.06 17.77 21.13 17.8 21.14 17.8 21.14 17.78 21.12 17.72"/>
      <g>
        <polygon class="cls-48" points="21.11 17.81 21.11 17.81 21.16 17.77 21.13 17.82 21.11 17.81"/>
        <path class="cls-46" d="M21.13,17.77s.01,0,.01,0c0,0,0,.02,0,.03,0,0,0,0-.02,0s-.01,0-.02,0c0,0,0-.02,0-.03,0,0,.01,0,.02,0M21.13,17.75s-.02,0-.03,0c-.02.02-.02.04,0,.06,0,.01.02.02.03.02s.02,0,.03-.01c0,0,.01-.01.01-.03,0-.01,0-.02-.01-.03,0,0-.02-.01-.03-.01h0Z"/>
      </g>
      <path class="cls-35" d="M21.33,17.91s-.07.02-.07.02c0,0-.01,0-.01.02,0,0,.04,0,.06,0,.02,0,.04.02.04.02,0,0,.01-.03-.02-.06Z"/>
      <polygon class="cls-35" points="21.25 17.88 21.21 17.88 21.19 17.91 21.25 17.95 21.25 17.95 21.26 17.95 21.25 17.88"/>
      <g>
        <polygon class="cls-48" points="21.24 17.97 21.22 17.96 21.23 17.96 21.28 17.93 21.24 17.97 21.24 17.97"/>
        <path class="cls-46" d="M21.26,17.93s.01,0,.01,0c0,0,0,.02-.01.02,0,0,0,0-.01,0,0,0,0,0-.01,0,0,0,0-.02,0-.02,0,0,.01,0,.02,0M21.26,17.91s-.02,0-.03,0c-.01.01-.02.02-.02.03,0,0,0,.01,0,.02,0,.01.02.02.03.02,0,0,.02,0,.03,0,0,0,.02-.01.02-.02,0,0,0-.02,0-.03,0,0-.02-.02-.03-.02h0Z"/>
      </g>
      <path class="cls-27" d="M19.95,18.5s-.06.02-.08.05c-.03.04-.03.08-.03.08,0,0,.05-.04.12-.03.06.02.07.03.1.02.03,0,.1-.03.1-.03,0,0-.06.07-.05.11,0,.05.01.07.01.09,0,.06-.06.14-.06.14,0,0,.04-.02.09-.04.06-.01.1-.04.13-.06.03-.02.07-.08.07-.08,0,0,0,.07,0,.11.01.03.02.13.02.13,0,0,.04-.03.06-.05.01,0,.06-.05.1-.16.02.11.08.26.08.26,0,0,.02-.07.05-.1.02-.03.05-.15.05-.15l.03.07M19.86,18.93c.06-.04.17-.17.24-.19M20.17,19.15s.08-.04.11-.06c.05-.03.09-.09.09-.09"/>
      <path class="cls-27" d="M20.65,19.6s.16.1.15.18c0,.08-.09.19-.09.19"/>
    </g>
  </g>
</svg>