<?xml version="1.0" encoding="UTF-8"?>
<svg id="Capa_1" data-name="Capa 1" xmlns="http://www.w3.org/2000/svg" viewBox="0 0 56 38">
  <defs>
    <style>
      .cls-1 {
        fill: #fff;
      }

      .cls-2 {
        fill: #087132;
      }
    </style>
  </defs>
  <rect class="cls-2" x="-1.25" y="-.5" width="58.5" height="39"/>
  <path class="cls-1" d="M23.97,8.71s-.08.02-.14.05c-.14.1-.43.39-.43.73,0,.19-.05.19.08.31.09.13.18.12.36.02.1-.08.14-.13.17-.26.04-.22-.23.1-.26-.14-.06-.23.11-.32.28-.53,0-.1,0-.19-.06-.19h0ZM26.62,8.72c-.05,0-.11.07-.2.23-.06.16-.33.41-.14.93.16.33.22.85.15,1.44-.11.17-.13.23-.28.39-.2.22-.42.16-.59.08-.16-.11-.28-.16-.35-.5.01-.53.04-1.41-.05-1.59-.14-.29-.38-.19-.48-.1-.49.45-.73,1.2-.87,1.8-.13.44-.28.31-.38.13-.25-.23-.26-2.03-.56-1.74-.48,1.36.27,2.85.79,2.71.38.16.61-.56.76-1.34.11-.22.19-.24.24-.13-.01,1.04.08,1.27.34,1.58.59.46,1.09.06,1.13.02.04-.04.46-.46.46-.46.1-.11.24-.12.39-.02.14.13.12.35.43.51.26.1.8.03.93-.2.17-.29.21-.39.29-.5.12-.16.33-.09.33-.04-.02.09-.14.18-.06.34.14.11.18.04.26.01.3-.14.53-.8.53-.8.01-.24-.13-.23-.21-.18-.12.07-.12.09-.24.17-.15.02-.43.12-.58-.1-.15-.26-.15-.63-.26-.9,0-.02-.19-.42-.01-.44.09.02.28.07.31-.09.09-.16-.2-.61-.41-.83-.18-.19-.42-.22-.66-.02-.16.15-.14.32-.17.48-.04.19-.03.41.15.66.16.32.47.74.37,1.33,0,0-.17.28-.48.24-.13-.03-.33-.08-.45-.9-.08-.62.02-1.48-.24-1.89-.06-.15-.11-.3-.19-.29h0ZM25.78,8.79c-.08,0-.17.1-.24.28-.06.14-.14.84-.12.84-.05.21.22.3.34.03.18-.5.19-.71.2-.92-.03-.16-.1-.24-.18-.23h0ZM28.89,8.85c-.08,0-.15.05-.17.17-.03.28-.02.44.03.67.04.16.27.42.38.57.54.72,1.06,1.45,1.55,2.2.08.56.14,1.1.17,1.65.08,1.19.11,2.68.03,3.93.22,0,.58-.36.71-.9.08-.75-.03-2.28-.04-2.72,0-.18-.02-.4-.03-.63.58.95,1.14,1.96,1.7,3.06.2-.1.16-1.23.04-1.39-.44-.95-1.06-1.89-1.25-2.26-.07-.13-.31-.5-.59-.92-.05-.6-.11-1.11-.15-1.26-.09-.63.26.07.21-.3-.11-.63-.46-1.06-.88-1.64-.13-.19-.13-.23-.34.05-.12.28-.12.51-.09.73-.05-.08-.12-.17-.22-.29-.36-.31-.38-.32-.67-.57-.09-.07-.27-.17-.41-.16h0ZM38.09,8.94s-.08.01-.13.08c-.09.08-.19.23-.19.42.02.33.08.68.11,1.01,0,.04.02.09.03.13-.04-.05-.07-.08-.09-.1-.65-.68.3-.11-.12-.64-.36-.39-.46-.52-.77-.76-.15-.1-.25-.29-.3.03-.02.28-.04.61-.02.85,0,.13.14.38.26.53.43.53.88,1.1,1.33,1.7.09,1.21.12,2.32.21,3.53-.01.52-.17,1.21-.32,1.27,0,0-.23.13-.39-.01-.11-.05-.56-.75-.56-.75-.23-.21-.38-.15-.55,0-.45.44-.65,1.25-.96,1.81-.08.13-.3.23-.55-.01-.63-.86-.26-2.08-.34-1.76-.56.63-.31,1.67-.19,1.9.19.37.33.61.69.79.33.24.58.09.72-.08.33-.34.33-1.21.49-1.38.11-.32.38-.26.51-.12.13.18.28.3.47.4.31.27.67.32,1.03.07.25-.14.41-.32.55-.67.16-.41.08-2.58.04-3.79.23.32.46.66.69,1,.1,1.06.14,2.1.11,3.11-.02.2.7-.59.69-.97,0-.33,0-.63,0-.9.35.56.68,1.12,1,1.69.2-.11.13-1.22,0-1.38-.33-.56-.76-1.17-1.09-1.63-.07-.59-.15-1.29-.2-1.5-.06-.33-.13-.83-.22-1.23-.03-.15-.11-.65-.08-.7.04-.11.19,0,.26-.12.11-.12-.38-1.37-.62-1.73-.09-.16-.25-.11-.45.16-.18.17-.12.56-.05.94.18.95.34,1.92.47,2.88-.24-.35-.53-.78-.81-1.19,0-.04-.04-.19-.04-.19,0-.02-.04-.78-.07-.96,0-.07-.02-.1.05-.09.08.07.09.07.14.09.08.01.15-.12.11-.25-.26-.47-.51-.94-.77-1.41-.03-.03-.07-.06-.11-.07h0ZM14.34,8.97c-.14,0-.3.08-.24.25-.04.09.28.41.33.58.05.12-.05.52.05.55.09.04.22-.27.27-.56.03-.16,0-.7-.36-.81-.02,0-.04,0-.06,0h0ZM41.4,8.97s-.07.05-.13.18c-.14.24-.19.66-.14,1.04.35,2.36.61,4.64.66,6.73-.03.2-.04.3-.13.55-.21.26-.43.59-.65.75-.21.16-.67.31-.82.43-.47.27-.47.59-.09.6.66-.08,1.43-.13,1.97-.94.14-.23.31-.84.32-1.22.05-2.2-.03-4.36-.36-5.95-.02-.16-.09-.51-.06-.56.04-.11.26.01.33-.12.11-.12-.56-.97-.79-1.34-.05-.09-.08-.17-.12-.16h0ZM34.51,9.01s-.07.05-.14.14c-.18.6-.25,1.09-.18,1.46.47,2.46.95,4.7.88,7.04.22,0,.48-.51.59-1.02.06-.7-.04-1.13-.06-1.54-.02-.41-.47-3.75-.56-4.06-.11-.59.43-.08.38-.42-.19-.43-.66-1.06-.8-1.43-.05-.1-.06-.19-.11-.19h0ZM17.74,9.05c-.06.01-.11.06-.13.14-.01.05.02.14-.02.16-.03.03-.13,0-.12-.13,0-.05-.03-.09-.05-.12-.02-.01-.03-.02-.07-.02-.04,0-.04.01-.07.05-.01.04-.03.07-.03.12,0,.05-.03.07-.06.08-.04,0-.03,0-.07-.02-.02-.02-.04-.03-.04-.07s-.01-.1-.02-.13c-.02-.02-.05-.04-.08-.04-.17,0-.19.2-.18.28-.01.01-.02.37.22.47.32.15.92.09.9-.43,0-.05,0-.2-.01-.24-.03-.08-.09-.11-.15-.1h0ZM22.04,9.06c-.11,0-.21.04-.29.08-.21.2-.26.53-.09.73.16.08.33.24.22.33-.46.49-1.66,1.32-1.72,1.47,0,0,0,0,0,0,0,0,0,0,0,0,0,0,0,0,0,0,0,0,0,0,0,0,0,0,0,0,0,0,0,0,0,0,0,0h0s0,0,0,0h0c.06.04.81.04.89,0h0s0,0,0,0h0c.26-.1,1.48-1.5,1.48-1.5-.06-.05-.12-.09-.19-.15-.07-.06-.06-.12,0-.17.3-.18.21-.56.05-.74-.13-.06-.26-.08-.37-.07h0ZM33.29,9.06s-.07.05-.13.18c-.15.24-.24.65-.23,1.04.31,2.17.41,4.07.61,6.24.02.21-.01.51-.15.64-.52.54-1.26,1.2-2.07,1.51-.09.1.22.52.61.51.66-.08,1.23-.44,1.77-1.42.14-.23.39-.71.4-1.09.05-2.2-.11-3.91-.44-5.51-.02-.16,0-.34.02-.39.04-.05.19,0,.26-.12.11-.12-.3-1.06-.53-1.43-.05-.09-.08-.16-.12-.16h0ZM15.86,9.13c-.09.01-.17.08-.21.18-.02.35-.02.7.02,1.02.16.56.21,1.06.29,1.63.02.77-.45.33-.42-.05.11-.5.08-1.28-.02-1.48-.08-.2-.16-.25-.35-.21-.15,0-.53.4-.63,1.09,0,0-.09.35-.13.66-.05.35-.29.6-.45-.05-.14-.47-.23-1.64-.46-1.37-.07.91-.15,2.51.63,2.68.94.09.42-1.58.76-1.89.06-.15.18-.15.19.04v1.42c0,.46.3.6.53.7.25-.02.41-.01.51.23.04.82.08,1.64.12,2.46,0,0,.57.16.59-1.38.03-.91-.18-1.67-.06-1.85,0-.17.23-.18.38-.1.24.17.35.39.73.3.58-.16.93-.44.94-.89-.03-.42-.08-.84-.27-1.27.03-.08-.11-.28-.08-.35.1.16.26.15.3,0-.1-.32-.25-.64-.5-.77-.2-.18-.5-.14-.61.23-.05.43.16.95.47,1.37.07.16.16.44.12.68-.17.1-.34.05-.48-.09,0,0-.46-.34-.46-.42.12-.78.03-.87-.04-1.09-.05-.3-.19-.39-.31-.6-.11-.12-.27-.12-.35,0-.2.35-.11,1.11.04,1.45.11.31.27.51.19.51-.06.18-.19.14-.29-.07-.13-.42-.16-1.05-.16-1.33-.04-.35-.09-1.1-.32-1.29-.06-.08-.13-.11-.21-.1h0ZM19.15,9.13s-.1.03-.16.05c-.2.06-.39.24-.33.57.24,1.43.39,2.52.62,3.95.04.17-.1.39-.28.37-.31-.21-.38-.63-.91-.61-.38,0-.81.42-.87.82-.06.32-.09.66,0,.94.27.32.59.29.87.21.23-.1.42-.32.5-.27,0,0,0,0,0,0h0c.05.09,0,.84-1.09,1.41-.67.3-1.19.37-1.48-.17-.18-.34.01-1.63-.42-1.33-1.29,3.31,3.01,3.77,3.49.14.03-.1.13-.21.19-.18.03.01.06.05.07.13-.1,3.3-3.32,3.52-3.87,2.48-.14-.24-.18-.79-.19-1.11-.03-.2-.07-.31-.13-.35-.13-.1-.31.16-.35.6-.05.36-.04.46-.04.8.17,2.6,4.32,1.48,5-.67.33-1.11,0-1.95.11-2.05,0,0,0,0,0,0h0s0,0,0,0c0,0,.01,0,.02,0,.41.44.99.06,1.12-.1.05-.08.19-.13.28-.03.32.23.89.12,1-.28.07-.4.12-.81.14-1.23-.21.07-.38.11-.45.19-.02.02-.03.04-.03.06-.02.12-.03.24-.05.35,0,0,0,.02,0,.03,0,.01-.02.03-.04.04-.07.04-.2.02-.21-.09-.1-.45-.51-.51-.76.19-.17.13-.47.16-.5-.04.04-.47-.15-.53-.53-.31-.12-.93-.24-1.82-.36-2.75.16,0,.3.11.45-.07-.16-.49-.49-1.48-.68-1.57,0,0,0,0,0,0,0,0-.02-.02-.03-.03,0,0,0,0-.01,0,0,0,0,0-.01,0,0,0-.02,0-.03,0-.02,0-.03,0-.05,0h0ZM31.97,9.14c-.16,0-.35.1-.28.3-.04.11.35.49.42.7.11.32-.09.63.03.67.11.05.26-.33.32-.68.07-.28-.14-.87-.43-.99-.02,0-.04,0-.07,0h0ZM21.98,9.49c.08,0,.17.06.21.16.05.1.02.2-.05.22-.08.02-.18-.05-.22-.15-.05-.1-.02-.21.05-.23,0,0,0,0,.01,0ZM40.51,9.97c-.15,0-.31.11-.25.33-.04.12.32.54.38.76.05.16-.08.68.03.73.1.05.24-.36.29-.74.03-.21-.13-.94-.39-1.07-.02,0-.04,0-.06,0h0ZM30.27,10.22c.01.06.03.12.04.19.03.13.06.27.09.4-.12-.16-.22-.3-.26-.34-.27-.32,0-.21.14-.25h0ZM32.62,11.39c-.06.01-.11.06-.13.14-.01.05.03.14-.02.16-.03.03-.13.01-.13-.13,0-.05-.03-.1-.05-.12-.02-.01-.03-.02-.07-.02-.04,0-.04.01-.07.05-.01.04-.02.08-.02.12,0,.05-.02.07-.06.08-.04,0-.03,0-.07-.02-.02-.02-.04-.03-.04-.07s-.01-.1-.02-.13c-.02-.02-.05-.03-.08-.04-.17,0-.19.2-.18.28-.01.01-.02.37.22.47.32.15.92.09.9-.43,0-.04-.01-.2-.02-.24-.03-.08-.09-.11-.15-.09h0ZM21.85,11.49s-.09.01-.15.05c-.28.15-.39.61-.22.87.16.24.43.15.46.15.28.03.44-.52.44-.52,0,0,0-.16-.32.14-.14.03-.16-.02-.19-.1-.03-.14-.02-.29.04-.44.03-.09,0-.14-.07-.15h0ZM37.08,11.56c-.16,0-.32.09-.37.31,0,.13.06.2.05.31-.02.07-.09.11-.25.03.03-.02-.1-.21-.1-.21-.13-.08-.3,0-.4.08-.06.11-.11.3-.04.49.18.33.8.91,1.1.91,0-.3.04-.7.05-.95,0-.09.03-.2.12-.22.09-.03.25.09.25,0-.02-.19-.05-.48-.16-.61-.06-.08-.15-.13-.24-.13h0ZM24.47,12.61s0,0-.01,0c0,0,0,0,0,0-.03.02-.07.08-.15.14-.14.16-.16.27-.16.59,0,.03.27.75.48,1.25.15.52.28,1.12.18,1.68-.34.75-1.03,1.42-1.7,1.78-.34.11-.63.07-.71,0h0c-.2-.13-.2-.37-.19-.41h0s0,0,0,0c.56-.39,1.21-.71,1.71-1.77.15-.4.19-.65.05-1.27-.06-.23-.13-.43-.29-.59,0,0,0,0,0,0,.1-.05.35.14.38.02-.06-.3-.26-.7-.49-.9-.2-.18-.42-.2-.6-.04-.21.11-.25.53-.15.89.11.27.41.32.62.87h0s.07.41-.03.56c-.09.27-1.2,1.15-1.28,1.2,0,0,0,0,0,0h0s0,0,0,0c0,0,0,0,0,0h0s0,0,0,0h0s0,0,0,0c0-.02,0-.08,0-.17,0-.16.06-.54.06-.6h0s0,0,0,0h0s0,0,0,0c-.37.24-.49.97-.56,1.18-.93.65-1.99,1.13-2.6,1.78-.32.5,2.19-.57,2.48-.7,0,0,0,0,0,0,.06.06.06.27.23.47.26.35.82.57,1.36.44.9-.33,1.43-.94,1.96-1.63.08-.11.19-.2.3-.11.36.82,1.42,1.4,2.78,1.46.32-.38.16-.57.04-.65-.04-.03-.68-.27-.78-.52-.06-.23.09-.43.39-.59.87-.11,1.73-.22,2.56-.49,0-.28.17-.7.28-.88.08-.13.12-.14.14-.16,0,0,0,0,0,0h0s0,0,0,0h0s0-.02,0-.03l-.14-.08h-2.79s-.06-.04-.08-.05h0s0,0,0,0h0s0,0,0,0c0,0,0,0,0,0h0s0,0,0,0h0v-.02h0s0,0,0,0c0,0,0,0,0,0,.01-.02.05-.04.09-.05.67-.09,1.85-.28,1.93-1.42-.01-.59-.25-.98-.98-1.09-.53.04-.91.56-.85,1.13-.03.15.05.45-.11.49-1.02.09-2.14.74-2.18,1.19h0s0,0,0,0c0,0,0,0,0,0h0s0,0,0,0h-.01s0,0-.01,0c-.07-.02-.15-.13-.14-.28-.04-.79-.3-1.69-.7-2.38-.14-.14-.21-.2-.25-.21h-.02ZM27.14,13.03c-.06.01-.11.06-.13.14-.01.05.03.14-.02.16-.03.03-.13.01-.13-.13,0-.05-.03-.1-.05-.12-.02-.01-.03-.02-.07-.02-.04,0-.05.01-.07.05-.01.04-.02.08-.02.12,0,.05-.02.07-.06.08-.04,0-.03,0-.07-.02-.02-.02-.05-.03-.05-.07s0-.1-.02-.13c-.02-.02-.05-.03-.08-.04-.17,0-.19.2-.17.27-.01.01-.02.37.22.47.32.15,1.09.06.9-.43,0-.05-.01-.2-.02-.24-.03-.08-.09-.11-.15-.1h0ZM37.9,13.47s-.02,0-.03,0c0,0-1.49,1.06-1.52,1.1-.15.13-.07.59,0,.54.11.04,1.6-.97,1.58-1.09.06,0,.1-.52-.03-.54h0ZM28.55,13.63c.06,0,.14.01.22.06.11.06.18.16.17.23h0s0,.01,0,.01c0,0,0,0,0,0,0,0,0,0,0,0,0,0,0,0,0,0,0,0,0,.01-.01.02-.05.05-.18.04-.29-.03-.11-.06-.18-.16-.17-.23,0,0,0,0,0,0,0,0,0-.02,0-.03,0,0,0,0,0,0h0s0-.01.01-.02c.02-.01.04-.02.07-.03h0ZM15.53,13.9c-.77.01-1.9,1.01-1.93,1.56.81-.39,1.61-.77,2.44-1.17-.13-.2,0-.38-.51-.39h0ZM18.02,14.24c.08,0,.16.04.2.14.04.1,0,.2-.04.25h0s0,0,0,0c-.03.04-.15.03-.23.03-.1,0-.15-.02-.2-.1-.03-.09.06-.17.09-.24,0,0,0,0,0,0,0,0,.01-.01.02-.02.03-.03.08-.05.13-.06.01,0,.02,0,.03,0h0ZM37.61,14.55c-.14.02-.27.15-.21.35-.04.12.19.55.24.77.05.16-.07.62.04.66.1.05.36-.27.35-.68.03-.21-.07-.98-.34-1.11-.03,0-.06-.01-.09,0h0ZM20.98,15.3c-.12,0-.23.07-.18.24,0,.12.34.27.36.56.05.12-.08.5.03.53.1.04.23-.26.28-.54.03-.15-.12-.69-.37-.78-.04,0-.08-.01-.12,0h0ZM25.96,15.98h.03c.31.08.77.09,1.17.13.32.02.48.27.18.38-.3.1-.59.18-.59.61.04.21.03.33,0,.38,0,0,0,0-.01.01h0s0,0,0,0c0,0,0,0,0,0h0s0,0,0,0c0,0,0,0-.01,0,0,0-.01,0-.01,0-.07,0-.17-.06-.25-.1-.18-.13-.7-.45-.77-1.14-.01-.15.11-.29.29-.3h0ZM13.79,16.51s-.06.06-.11.13c-.46.73-.5,1.82-.25,2.14.13.15.36.22.52.17.29-.12.42-.71.35-.92-.1-.15-.17-.17-.27-.05-.2.41-.29.13-.31-.1-.03-.44.01-.84.06-1.16.03-.16.02-.22,0-.22h0ZM29.4,17.47s-.07,0-.11.02c0,0-.33.22-.43.37-.06.05-.05.09-.04.17.05.11.14.08.23.02.13-.02.19.07.18.22-.06.2.03.27.03.28s.12.12.27.03c.31-.12.51-.23.94-.33.11,0,.11-.31-.07-.32-.24.01-.45.02-.69.21-.15.03-.17-.05-.2-.13-.04-.2.08-.34.06-.48,0,0-.07-.06-.17-.07h0ZM39.4,17.84c-.06,0-.12.01-.21.02-.1.02-.13.06-.15.18,0,.18.11.17.22.24.06.08.11.16,0,.29-.1.1-.18.15-.28.24-.05.08-.08.21.07.25.28.08.92-.34.92-.35.11-.08.07-.23.06-.23-.06-.07-.2-.03-.29-.04-.04,0-.19-.02-.12-.15.06-.08.08-.13.12-.22.04-.1,0-.16-.15-.21-.08-.01-.13-.02-.19-.02h0ZM35.22,26.3h0c-.46.12-.45.6-.15.81-4.88,0-11.34-.07-13.98-.08-.9,0-3.74-.11-3.8-.11.61.89,1.49,1.07,2.65,1.09,2.17,0,12.22-.03,15.08-.03-.2.36.02,1.11.18,1.21,0,0,0,0,.01,0,0,0,.01,0,.02,0h0c.19.05.27-.09.34-.19.31.03,2.04.05,2.19,0h0c.11.15.21.3.42.28.36-.08.64-.11.65-.84,0,0-.04-1.5-.85-1.42-.19.03-.48.19-.48.19-.15-.15-1.33-.08-2.03-.11.06-.08.18-.41.04-.53-.04-.03-.09-.05-.17-.04h0s0,0,0,0c0,0,0,0,0,0,0,0,0,0-.01-.01,0,0,0,0,0,0-.04-.05-.05-.18-.08-.21,0,0,0,0,0,0h0s0,0,0,0h0ZM35.56,28.06h0c.71.03,1.38,0,2.09.04.11.1.06.56-.02.6,0,0,0,0-.01,0,0,0,0,0,0,0,0,0,0,0-.01,0-.23,0-.37,0-.6,0,0-.01,0-.04,0-.05-.05-.16-.45-.15-.55-.02,0,0,0,0,0,0,0,0,0,0,0,0,0,0,0,0,0,.01,0,0,0,.01,0,.02,0,0,0,.02,0,.03h-.91c-.09-.11-.08-.6.03-.65h0Z"/>
</svg>