<?xml version="1.0" encoding="UTF-8"?>
<svg id="Capa_1" data-name="Capa 1" xmlns="http://www.w3.org/2000/svg" viewBox="0 0 56 38">
  <defs>
    <style>
      .cls-1 {
        fill: #0a7d36;
      }

      .cls-2 {
        fill: #fff;
      }

      .cls-3 {
        fill: #e52527;
      }
    </style>
  </defs>
  <rect class="cls-2" x="-1.25" y="-.5" width="58.5" height="39"/>
  <rect class="cls-1" x="-1.25" y="-.5" width="29.25" height="39"/>
  <g>
    <polygon class="cls-3" points="31.38 20.76 33.46 23.62 33.46 20.08 36.78 19 33.46 17.92 33.46 14.38 31.38 17.24 28 16.14 30.09 19 28 21.86 31.38 20.76"/>
    <path class="cls-3" d="M25.49,25.09c-3.36-2.69-3.91-7.6-1.21-10.96,2.69-3.36,7.6-3.91,10.96-1.21.45.36.85.77,1.21,1.21-2.69-4.66-8.66-6.26-13.32-3.57-4.66,2.69-6.26,8.66-3.57,13.32,2.69,4.66,8.66,6.26,13.32,3.57,1.48-.86,2.71-2.09,3.57-3.57-2.69,3.36-7.6,3.91-10.96,1.21Z"/>
  </g>
</svg>