<?xml version="1.0" encoding="UTF-8"?>
<svg id="Capa_1" data-name="Capa 1" xmlns="http://www.w3.org/2000/svg" viewBox="0 0 56 38">
  <defs>
    <style>
      .cls-1 {
        fill: #fff;
      }

      .cls-2 {
        fill: #174194;
      }

      .cls-3 {
        fill: #e40428;
      }
    </style>
  </defs>
  <g>
    <rect class="cls-2" x="-1.25" y="-.5" width="58.5" height="39"/>
    <g>
      <rect class="cls-1" x="10.5" y="10.98" width="5.84" height="8.03"/>
      <polygon class="cls-1" points="-1.17 18.99 2.03 18.99 13.1 11.05 9.91 8.76 -1.17 16.7 -1.17 18.99"/>
      <polygon class="cls-3" points=".96 18.99 10.47 12.17 8.34 12.17 -1.17 18.99 .96 18.99"/>
      <polygon class="cls-1" points="24.81 19 28 19 28 16.71 16.94 8.77 13.75 11.06 24.81 19"/>
      <polygon class="cls-3" points="28 19 28 17.47 20.63 12.18 18.5 12.18 28 19"/>
      <polygon class="cls-1" points="28 -.5 24.81 -.5 13.74 7.44 16.93 9.73 28 1.79 28 -.5"/>
      <polygon class="cls-3" points="25.88 -.5 16.37 6.32 18.49 6.32 28 -.5 25.88 -.5"/>
      <polygon class="cls-1" points="2.02 -.5 -1.17 -.5 -1.17 1.79 9.9 9.73 13.09 7.44 2.02 -.5"/>
      <rect class="cls-1" x="-1.17" y="6.32" width="11.88" height="5.85"/>
      <rect class="cls-1" x="10.5" y="-.49" width="5.83" height="7.99"/>
      <polygon class="cls-3" points="-1.17 -.5 -1.17 1.02 6.21 6.32 8.34 6.32 -1.17 -.5"/>
      <rect class="cls-1" x="16.12" y="6.33" width="11.89" height="5.85"/>
      <polygon class="cls-3" points="15.17 7.5 15.17 -.49 11.67 -.49 11.67 7.49 -1.17 7.49 -1.17 11 11.67 11 11.67 11.01 11.67 11.01 11.67 19.01 15.17 19.01 15.17 11.01 28 11.01 28 7.5 15.17 7.5"/>
    </g>
  </g>
  <polygon id="Star7" class="cls-1" points="13.42 24.38 14.22 26.85 16.64 25.93 15.21 28.1 17.44 29.42 14.85 29.65 15.21 32.22 13.42 30.34 11.63 32.22 11.99 29.65 9.4 29.42 11.64 28.1 10.2 25.93 12.63 26.85 13.42 24.38"/>
  <polygon id="Star7-2" data-name="Star7" class="cls-1" points="43.49 30.2 43.87 31.37 45.02 30.94 44.34 31.96 45.4 32.59 44.17 32.7 44.34 33.93 43.49 33.03 42.64 33.93 42.81 32.7 41.58 32.59 42.64 31.96 41.96 30.94 43.11 31.37 43.49 30.2"/>
  <polygon id="Star7-3" data-name="Star7" class="cls-1" points="36.62 16.29 37 17.46 38.16 17.03 37.47 18.06 38.54 18.69 37.3 18.79 37.47 20.02 36.62 19.12 35.77 20.02 35.94 18.79 34.71 18.69 35.77 18.06 35.09 17.03 36.24 17.46 36.62 16.29"/>
  <polygon id="Star7-4" data-name="Star7" class="cls-1" points="43.49 6.32 43.87 7.5 45.02 7.06 44.34 8.09 45.4 8.72 44.17 8.83 44.34 10.05 43.49 9.16 42.64 10.05 42.81 8.83 41.58 8.72 42.64 8.09 41.96 7.06 43.11 7.5 43.49 6.32"/>
  <polygon id="Star7-5" data-name="Star7" class="cls-1" points="49.6 14.46 49.97 15.63 51.13 15.2 50.45 16.23 51.51 16.86 50.28 16.96 50.45 18.19 49.6 17.29 48.74 18.19 48.91 16.96 47.68 16.86 48.75 16.23 48.06 15.2 49.22 15.63 49.6 14.46"/>
  <polygon id="Star5" class="cls-1" points="46.24 18.96 46.54 19.69 47.33 19.75 46.72 20.26 46.91 21.03 46.24 20.61 45.57 21.03 45.75 20.26 45.15 19.75 45.94 19.69 46.24 18.96"/>
</svg>