<?xml version="1.0" encoding="UTF-8"?>
<svg id="Capa_1" data-name="Capa 1" xmlns="http://www.w3.org/2000/svg" viewBox="0 0 56 38">
  <defs>
    <style>
      .cls-1 {
        fill: #284899;
      }

      .cls-2 {
        fill: #ffd504;
      }

      .cls-3 {
        fill: #fff;
      }
    </style>
  </defs>
  <rect class="cls-1" x="-1.25" y="-.5" width="58.5" height="39"/>
  <polygon class="cls-3" points="37.95 33.62 40.13 32.04 37.44 32.04 36.61 29.48 35.78 32.04 33.09 32.04 35.26 33.62 34.43 36.18 36.61 34.6 38.79 36.18 37.95 33.62"/>
  <path class="cls-2" d="M9.5-.5h39v39L9.5-.5Z"/>
  <path id="path11682" class="cls-3" d="M1.13-.5h2.71l.83,2.56L2.48.47.3,2.06,1.13-.5Z"/>
  <path id="path11689" class="cls-3" d="M40.13,38.5l-2.17-1.58h2.69s.83-2.56.83-2.56l.83,2.56h2.69s-2.17,1.58-2.17,1.58h-2.71Z"/>
  <polygon class="cls-3" points="8.7 4.37 10.88 2.79 8.19 2.79 7.36 .23 6.53 2.79 3.83 2.79 6.01 4.37 5.18 6.93 7.36 5.35 9.54 6.93 8.7 4.37"/>
  <polygon class="cls-3" points="13.58 9.25 15.76 7.67 13.06 7.67 12.23 5.11 11.4 7.67 8.71 7.67 10.89 9.25 10.05 11.81 12.23 10.23 14.41 11.81 13.58 9.25"/>
  <polygon class="cls-3" points="18.45 14.12 20.63 12.54 17.94 12.54 17.11 9.98 16.28 12.54 13.58 12.54 15.76 14.12 14.93 16.68 17.11 15.1 19.29 16.68 18.45 14.12"/>
  <polygon class="cls-3" points="23.33 19 25.51 17.42 22.82 17.42 21.98 14.86 21.15 17.42 18.46 17.42 20.64 19 19.8 21.56 21.98 19.98 24.16 21.56 23.33 19"/>
  <polygon class="cls-3" points="28.21 23.87 30.38 22.29 27.69 22.29 26.86 19.73 26.03 22.29 23.33 22.29 25.51 23.87 24.68 26.43 26.86 24.85 29.04 26.43 28.21 23.87"/>
  <polygon class="cls-3" points="33.08 28.75 35.26 27.17 32.57 27.17 31.73 24.61 30.9 27.17 28.21 27.17 30.39 28.75 29.55 31.31 31.73 29.73 33.91 31.31 33.08 28.75"/>
</svg>