<?xml version="1.0" encoding="UTF-8"?>
<svg id="Capa_1" data-name="Capa 1" xmlns="http://www.w3.org/2000/svg" viewBox="0 0 56 38">
  <defs>
    <style>
      .cls-1 {
        fill: #ffd504;
      }

      .cls-2 {
        fill: #fff;
      }

      .cls-3 {
        fill-rule: evenodd;
      }

      .cls-3, .cls-4 {
        fill: #009939;
      }

      .cls-5 {
        fill: #129b39;
      }

      .cls-6 {
        fill: #203c88;
      }
    </style>
  </defs>
  <rect class="cls-5" x="-1.25" y="-.5" width="58.5" height="39"/>
  <polygon class="cls-1" points="8.92 19 28 31.18 47.08 19 28 6.82 8.92 19"/>
  <path class="cls-6" d="M36.05,19c0,4.45-3.6,8.05-8.05,8.05s-8.04-3.6-8.04-8.05,3.6-8.05,8.04-8.05,8.05,3.6,8.05,8.05Z"/>
  <path class="cls-2" d="M23.41,15.55c-.94,0-1.86.07-2.76.19-.17.39-.32.81-.43,1.23,1.04-.18,2.1-.28,3.19-.28,4.72,0,9.03,1.78,12.28,4.7.13-.41.22-.84.29-1.27-3.4-2.85-7.78-4.58-12.57-4.58h0Z"/>
  <path class="cls-3" d="M21.12,16.51h0c.11-.01.19-.13.17-.26-.01-.13-.12-.23-.23-.21-.11.01-.18.13-.17.26.01.13.12.23.23.21ZM21.14,16.65h0c.19-.02.32-.21.3-.42s-.2-.36-.39-.34-.32.21-.3.42.2.36.39.34Z"/>
  <path class="cls-4" d="M22.31,16.22c.07-.04.11-.13.1-.21,0-.13-.13-.23-.26-.22l-.44.03.04.77h.15s-.02-.29-.02-.29l.31-.02c.08.07.09.2.09.28h.13c0-.1-.02-.26-.1-.32h0ZM21.87,16.14v-.2s.28-.02.28-.02c.05,0,.1.04.11.09,0,.05-.04.1-.09.11l-.3.02Z"/>
  <path class="cls-3" d="M22.87,16.38h.21c.12,0,.21-.1.2-.21v-.07c0-.12-.1-.21-.21-.2h-.21v.49ZM22.73,16.52h.36c.18,0,.33-.16.32-.34v-.11c0-.18-.16-.33-.34-.32h-.36v.77s0,0,0,0Z"/>
  <polygon class="cls-4" points="23.71 16.51 24.4 16.54 24.4 16.39 23.84 16.38 23.85 16.18 24.29 16.19 24.29 16.06 23.86 16.05 23.86 15.89 24.39 15.91 24.39 15.77 23.74 15.74 23.71 16.51"/>
  <polygon class="cls-4" points="24.68 16.55 24.81 16.57 24.86 16.04 24.96 16.57 25.08 16.59 25.28 16.08 25.24 16.6 25.37 16.61 25.43 15.85 25.24 15.83 25.04 16.34 24.94 15.81 24.75 15.79 24.68 16.55"/>
  <polygon class="cls-4" points="26.27 16.73 26.84 16.83 26.86 16.7 26.42 16.62 26.45 16.45 26.81 16.51 26.83 16.39 26.47 16.32 26.49 16.21 26.91 16.27 26.94 16.15 26.38 16.05 26.27 16.73"/>
  <path class="cls-3" d="M27.97,16.64l.29.07c.05.01.11-.02.12-.07.01-.05-.01-.11-.07-.12l-.29-.07s-.05.19-.05.19ZM27.73,17.01l.14.03.07-.27.3.08c.13.03.26-.04.29-.17.03-.13-.04-.26-.17-.29l-.42-.11-.2.74h0Z"/>
  <path class="cls-4" d="M29.32,16.67l-.42-.13-.24.73.14.04.09-.27.29.09c.04.1,0,.22-.01.29l.13.04c.02-.08.08-.24.02-.33.08-.02.15-.08.17-.16.04-.13-.03-.26-.16-.3h0ZM29.33,16.93c-.01.05-.07.08-.12.06l-.28-.09.06-.19.28.09c.05.01.08.07.06.12h0Z"/>
  <path class="cls-3" d="M29.96,17.56h0c.1.04.23-.03.27-.16.05-.13,0-.26-.11-.3s-.23.03-.28.16,0,.26.11.3h0ZM29.91,17.69h0c.18.07.38-.04.46-.24.07-.2,0-.41-.19-.48-.18-.07-.38.04-.46.24-.07.2,0,.41.19.48Z"/>
  <path class="cls-4" d="M32.13,17.82l-.39-.19-.35.68.13.06.13-.26.27.14c.03.1-.03.22-.06.29l.12.06c.04-.08.11-.22.07-.32.08,0,.16-.05.2-.13.06-.12,0-.26-.11-.33h0ZM32.1,18.08s-.08.07-.13.04l-.26-.13.09-.17.26.13s.07.08.04.13Z"/>
  <polygon class="cls-4" points="32.26 18.75 32.85 19.09 32.93 18.97 32.44 18.69 32.54 18.52 32.92 18.74 32.98 18.62 32.6 18.41 32.68 18.27 33.13 18.53 33.2 18.41 32.63 18.09 32.26 18.75"/>
  <path class="cls-4" d="M33.37,19.13c-.04.06,0,.14.09.19.09.06.16.06.18.01.08-.13-.4-.32-.25-.55.13-.19.35-.04.43,0s.21.19.11.35l-.14-.09c.04-.07,0-.14-.08-.18-.07-.04-.13-.07-.17,0-.07.11.4.31.26.54-.11.17-.3.1-.42.01-.11-.07-.27-.23-.16-.39l.15.09h0Z"/>
  <path class="cls-4" d="M34.19,19.67c-.04.06,0,.14.08.2.09.06.15.06.18.02.09-.13-.38-.35-.22-.56.14-.19.35-.02.43.03s.21.2.09.35l-.14-.1c.05-.07,0-.14-.07-.18-.07-.05-.13-.07-.17,0-.08.1.39.33.23.55-.12.16-.3.08-.42,0-.1-.07-.25-.24-.14-.4l.14.1h0Z"/>
  <path class="cls-3" d="M35.06,20.44h0c.09.07.22.04.31-.06.08-.11.08-.24,0-.32-.09-.07-.23-.04-.31.06-.08.1-.08.25,0,.32ZM34.97,20.55h0c.15.12.38.08.51-.08.13-.17.12-.4-.03-.52-.15-.12-.38-.08-.51.09s-.12.39.03.52h0Z"/>
  <polygon class="cls-2" points="21.51 17.45 21.44 17.21 21.35 17.45 21.11 17.45 21.31 17.6 21.23 17.84 21.44 17.69 21.64 17.84 21.56 17.6 21.76 17.45 21.51 17.45"/>
  <polygon class="cls-2" points="22.22 20.83 22.15 20.59 22.07 20.83 21.82 20.83 22.02 20.98 21.94 21.22 22.15 21.07 22.35 21.22 22.27 20.98 22.47 20.83 22.22 20.83"/>
  <polygon class="cls-2" points="21.22 21.58 21.16 21.38 21.1 21.58 20.89 21.58 21.05 21.7 20.99 21.9 21.16 21.77 21.33 21.9 21.27 21.7 21.44 21.58 21.22 21.58"/>
  <polygon class="cls-2" points="22.97 20.39 22.93 20.28 22.89 20.39 22.78 20.39 22.87 20.47 22.84 20.58 22.93 20.51 23.03 20.58 22.99 20.47 23.09 20.39 22.97 20.39"/>
  <polygon class="cls-2" points="23.89 21.65 23.82 21.45 23.75 21.65 23.55 21.65 23.72 21.78 23.65 21.97 23.82 21.85 23.99 21.97 23.92 21.78 24.09 21.65 23.89 21.65"/>
  <polygon class="cls-2" points="23.63 22.47 23.58 22.31 23.53 22.47 23.36 22.47 23.5 22.57 23.44 22.72 23.58 22.63 23.72 22.72 23.66 22.57 23.8 22.47 23.63 22.47"/>
  <polygon class="cls-2" points="30.57 16.4 30.5 16.16 30.42 16.4 30.17 16.4 30.37 16.55 30.3 16.78 30.5 16.64 30.7 16.78 30.62 16.55 30.83 16.4 30.57 16.4"/>
  <polygon class="cls-2" points="33.51 21.87 33.44 22.11 33.64 21.96 33.84 22.11 33.77 21.87 33.97 21.72 33.72 21.72 33.64 21.48 33.56 21.72 33.31 21.72 33.51 21.87"/>
  <polygon class="cls-2" points="34.84 21.93 34.98 21.83 34.81 21.83 34.76 21.67 34.7 21.83 34.54 21.83 34.67 21.93 34.62 22.09 34.76 21.99 34.89 22.09 34.84 21.93"/>
  <polygon class="cls-2" points="34.03 22.45 33.97 22.25 33.9 22.45 33.69 22.45 33.86 22.57 33.8 22.77 33.97 22.65 34.14 22.77 34.07 22.57 34.24 22.45 34.03 22.45"/>
  <polygon class="cls-2" points="32.03 23.94 31.97 24.14 31.75 24.14 31.92 24.26 31.86 24.46 32.03 24.33 32.2 24.46 32.13 24.26 32.3 24.14 32.09 24.14 32.03 23.94"/>
  <polygon class="cls-2" points="32.07 24.96 32.02 24.8 31.97 24.96 31.8 24.96 31.93 25.06 31.89 25.22 32.02 25.12 32.15 25.22 32.1 25.06 32.24 24.96 32.07 24.96"/>
  <polygon class="cls-2" points="32.88 23.52 32.83 23.36 32.78 23.52 32.61 23.52 32.75 23.62 32.69 23.78 32.83 23.68 32.96 23.78 32.91 23.62 33.05 23.52 32.88 23.52"/>
  <polygon class="cls-2" points="33.54 23.1 33.47 22.9 33.41 23.1 33.2 23.1 33.37 23.22 33.3 23.42 33.47 23.3 33.65 23.42 33.58 23.22 33.75 23.1 33.54 23.1"/>
  <polygon class="cls-2" points="31.91 23.46 31.86 23.62 32 23.52 32.13 23.62 32.08 23.46 32.22 23.36 32.05 23.36 32 23.2 31.94 23.36 31.78 23.36 31.91 23.46"/>
  <polygon class="cls-2" points="25 19.24 24.94 19.04 24.87 19.24 24.66 19.24 24.83 19.36 24.77 19.56 24.94 19.44 25.11 19.56 25.04 19.36 25.21 19.24 25 19.24"/>
  <polygon class="cls-2" points="30.19 18.68 30.33 18.78 30.28 18.63 30.41 18.53 30.24 18.53 30.19 18.37 30.14 18.53 29.97 18.53 30.11 18.63 30.06 18.78 30.19 18.68"/>
  <polygon class="cls-2" points="28.08 22.51 28 22.27 27.92 22.51 27.67 22.51 27.88 22.65 27.8 22.89 28 22.75 28.21 22.89 28.13 22.65 28.33 22.51 28.08 22.51"/>
  <polygon class="cls-2" points="29 20.93 28.93 20.73 28.87 20.93 28.66 20.93 28.83 21.05 28.77 21.25 28.93 21.13 29.1 21.25 29.04 21.05 29.2 20.93 29 20.93"/>
  <polygon class="cls-2" points="27.9 20.33 27.83 20.53 28 20.4 28.17 20.53 28.11 20.33 28.27 20.21 28.07 20.21 28 20.01 27.94 20.21 27.73 20.21 27.9 20.33"/>
  <polygon class="cls-2" points="27.24 20.94 27.19 20.78 27.14 20.94 26.97 20.94 27.11 21.05 27.05 21.2 27.19 21.1 27.33 21.2 27.27 21.04 27.41 20.94 27.24 20.94"/>
  <polygon class="cls-2" points="27.6 21.64 27.69 21.71 27.66 21.6 27.75 21.52 27.63 21.52 27.6 21.41 27.56 21.52 27.44 21.52 27.54 21.6 27.5 21.71 27.6 21.64"/>
  <polygon class="cls-2" points="30.48 24.33 30.41 24.13 30.35 24.33 30.14 24.33 30.31 24.45 30.24 24.65 30.41 24.53 30.58 24.65 30.52 24.45 30.69 24.33 30.48 24.33"/>
  <polygon class="cls-2" points="31.15 23.64 31.1 23.48 31.05 23.64 30.88 23.64 31.02 23.74 30.96 23.89 31.1 23.8 31.23 23.89 31.18 23.74 31.32 23.64 31.15 23.64"/>
  <polygon class="cls-2" points="29.83 23.44 29.78 23.28 29.72 23.44 29.56 23.44 29.69 23.54 29.64 23.7 29.78 23.6 29.91 23.7 29.86 23.54 30 23.44 29.83 23.44"/>
  <polygon class="cls-2" points="24.85 23.17 24.77 22.93 24.69 23.17 24.44 23.17 24.65 23.31 24.57 23.55 24.77 23.4 24.97 23.55 24.9 23.31 25.1 23.17 24.85 23.17"/>
  <polygon class="cls-2" points="28.03 25.26 28 25.18 27.98 25.26 27.89 25.26 27.96 25.31 27.93 25.39 28 25.34 28.07 25.39 28.04 25.31 28.11 25.26 28.03 25.26"/>
  <path class="cls-4" d="M31.06,17.48c.06.03.1.09.11.17l.14.06c.01-.16-.06-.3-.19-.36h0c-.17-.08-.38.02-.47.21-.08.19,0,.41.17.49.08.03.17.03.26,0l-.04.1.1.04.11-.25h0l.04-.1-.1-.04h0l-.17-.07h0l-.04.1.12.05c-.06.06-.15.08-.22.05-.1-.04-.15-.18-.09-.3s.18-.18.28-.14h0Z"/>
</svg>