<?xml version="1.0" encoding="UTF-8"?>
<svg id="Capa_1" data-name="Capa 1" xmlns="http://www.w3.org/2000/svg" viewBox="0 0 56 38">
  <defs>
    <style>
      .cls-1 {
        fill: #fff;
      }

      .cls-2 {
        fill: #e52521;
      }
    </style>
  </defs>
  <g>
    <rect class="cls-2" x="-.51" y="-.5" width="57.02" height="39"/>
    <rect class="cls-1" x="14.15" y="-.5" width="27.7" height="39"/>
  </g>
  <path class="cls-2" d="M17.1,18.52l-1.2.57,5.82,4.75c.23.18.35.5.26.8l-.51,1.68c2-.23,3.8-.58,5.8-.8.18-.02.47.28.47.48l-.27,6.16h.97l-.15-6.15c0-.21.27-.51.44-.5,2,.22,3.8.57,5.8.8l-.51-1.68c-.08-.29.03-.62.27-.8l5.82-4.75-1.2-.57c-.53-.19-.38-.49-.19-1.21l.89-3.25-3.38.71c-.33.05-.55-.16-.6-.36l-.43-1.53-2.67,3.01c-.38.48-1.15.48-.91-.63l1.14-6.1-1.53.8c-.43.24-.86.28-1.1-.15l-2.12-3.97-2.12,3.97c-.24.43-.67.39-1.1.15l-1.53-.8,1.14,6.1c.24,1.11-.53,1.11-.91.63l-2.67-3.01-.43,1.53c-.05.2-.27.41-.6.36l-3.38-.71.89,3.25c.19.72.34,1.02-.19,1.21Z"/>
</svg>