<?xml version="1.0" encoding="UTF-8"?>
<svg id="Capa_1" data-name="Capa 1" xmlns="http://www.w3.org/2000/svg" viewBox="0 0 56 38">
  <defs>
    <style>
      .cls-1 {
        fill: #46a1da;
      }

      .cls-2 {
        fill: #1f3c90;
      }

      .cls-3 {
        fill: #24376e;
      }

      .cls-4 {
        stroke: #fff;
        stroke-linecap: round;
        stroke-linejoin: round;
        stroke-width: .92px;
      }

      .cls-4, .cls-5 {
        fill: #fff;
      }

      .cls-6 {
        fill: #1a181c;
      }

      .cls-7 {
        fill: #9a5c15;
      }

      .cls-8 {
        fill: #ffd910;
      }

      .cls-9 {
        fill: #e52521;
      }

      .cls-10 {
        fill: #263685;
      }
    </style>
  </defs>
  <rect class="cls-5" x="-1.25" y="-.5" width="58.5" height="39"/>
  <rect class="cls-9" x="-1.25" y="-.5" width="58.5" height="13"/>
  <rect class="cls-2" x="-1.25" y="25.5" width="58.5" height="13"/>
  <g>
    <g>
      <path class="cls-5" d="M28,29.32c-2.08,0-4.04-.82-5.52-2.3s-2.3-3.44-2.3-5.52v-9.24h15.63v9.24c0,4.31-3.51,7.82-7.82,7.82Z"/>
      <path class="cls-9" d="M20.42,12.5h15.16s0,9.01,0,9.01c0,4.17-3.41,7.58-7.58,7.58-4.17,0-7.58-3.41-7.58-7.58v-9.01M19.95,12.03v.47s0,9.01,0,9.01c0,4.44,3.61,8.05,8.05,8.05,2.14,0,4.16-.84,5.69-2.37,1.52-1.53,2.36-3.54,2.36-5.69v-9.01s0-.47,0-.47h-15.63s-.47,0-.47,0h0Z"/>
    </g>
    <path class="cls-4" d="M35.31,12.4l1.77-4.02-1.35-2.18-2.24.83-1.57-1.8-2.07,1.19-1.85-1.51-1.85,1.51-2.07-1.19-1.57,1.8-2.24-.83-1.35,2.18,1.77,4.02c2.23-1.01,4.71-1.57,7.31-1.57,2.6,0,5.08.56,7.31,1.57h0Z"/>
    <path class="cls-1" d="M35.23,12.21l1.69-3.82-1.24-2.01-2.22.82-1.03,4.04c.97.25,1.9.57,2.8.97h0Z"/>
    <path class="cls-9" d="M35.75,11.03l.43-.98c-1.02-.45-2.08-.82-3.17-1.1l-.26,1.01c1.04.27,2.04.62,3.01,1.04l-.02.03Z"/>
    <path class="cls-10" d="M26.17,6.6h0s-2.06-1.18-2.06-1.18l-1.56,1.78,1.02,4.04c.95-.24,1.93-.41,2.93-.49l-.34-4.15h0Z"/>
    <path class="cls-10" d="M33.45,7.21h0s-1.56-1.78-1.56-1.78l-2.05,1.18-.35,4.15c1,.08,1.98.25,2.93.49l1.03-4.04h0Z"/>
    <path class="cls-1" d="M22.56,7.2h0s-2.22-.82-2.22-.82l-1.24,2.01,1.68,3.82c.9-.4,1.84-.72,2.81-.97l-1.02-4.04h0Z"/>
    <polygon class="cls-9" points="23.7 12.92 20.84 12.92 20.84 16.07 23.7 16.07 23.7 12.92"/>
    <polygon class="cls-9" points="23.7 19.21 26.57 19.21 26.57 16.07 23.7 16.07 23.7 19.21"/>
    <path class="cls-9" d="M20.84,21.51c0,.28.02.57.05.84h2.81s0-3.15,0-3.15h-2.86s0,2.3,0,2.3Z"/>
    <polygon class="cls-9" points="29.43 19.21 26.57 19.21 26.57 22.36 29.43 22.36 29.43 19.21"/>
    <polygon class="cls-9" points="29.43 25.5 32.29 25.5 32.29 22.36 29.43 22.36 29.43 25.5"/>
    <path class="cls-9" d="M32.29,27.22c.63-.48,1.19-1.06,1.63-1.72h-1.63s0,1.72,0,1.72Z"/>
    <polygon class="cls-9" points="23.71 25.5 26.57 25.5 26.57 22.36 23.71 22.36 23.71 25.5"/>
    <path class="cls-9" d="M22.07,25.5c.45.66,1,1.24,1.64,1.72v-1.72s-1.64,0-1.64,0Z"/>
    <path class="cls-9" d="M28.5,28.65c.32-.02.63-.07.93-.13v-3.02s-2.86,0-2.86,0v3.02c.3.06.62.1.93.13.33.02.67.02,1,0h0Z"/>
    <path class="cls-9" d="M35.1,22.36c.03-.28.05-.56.05-.85v-2.3s-2.86,0-2.86,0v3.14s2.81,0,2.81,0h0Z"/>
    <polygon class="cls-9" points="29.43 19.21 32.29 19.21 32.29 16.07 29.43 16.07 29.43 19.21"/>
    <polygon class="cls-9" points="29.43 12.92 26.57 12.92 26.57 16.07 29.43 16.07 29.43 12.92"/>
    <polygon class="cls-9" points="35.15 16.07 35.15 12.92 32.29 12.92 32.29 16.07 35.15 16.07"/>
    <path class="cls-5" d="M22.43,9.19c.08.15.12.32.12.5,0,.6-.49,1.09-1.08,1.09-.53,0-.97-.38-1.07-.88.19.33.54.56.95.56.6,0,1.09-.49,1.09-1.09,0-.06,0-.12-.01-.18h0Z"/>
    <path class="cls-9" d="M23.33,10.24c1-.26,2.04-.43,3.1-.52l-.09-1.05c-1.12.09-2.21.28-3.28.55l.26,1.02h0Z"/>
    <path class="cls-9" d="M22.81,8.21c1.11-.28,2.27-.48,3.44-.57l-.09-1.03c-1.24.1-2.44.31-3.61.6l.25,1Z"/>
    <path class="cls-5" d="M32.75,9.95c1.04.27,2.04.62,3.01,1.04l-.12.27c-.95-.42-1.94-.76-2.96-1.02l.07-.29ZM36.18,10.05l.11-.25c-1.03-.46-2.11-.83-3.22-1.11l-.07.27c1.1.28,2.16.65,3.17,1.1h0Z"/>
    <polygon class="cls-7" points="20.73 7.55 21.04 7.82 21.43 7.69 21.36 8.09 21.67 8.37 21.28 8.5 21.2 8.91 20.88 8.64 20.49 8.77 20.57 8.36 20.26 8.09 20.65 7.96 20.73 7.55"/>
    <polygon class="cls-8" points="20.98 8.23 21.62 8.35 21.34 8.11 20.98 8.23"/>
    <polygon class="cls-8" points="20.31 8.09 20.94 8.22 20.66 7.97 20.31 8.09"/>
    <polygon class="cls-8" points="20.94 8.23 20.31 8.11 20.58 8.35 20.94 8.23"/>
    <polygon class="cls-8" points="21.61 8.36 20.98 8.24 21.26 8.48 21.61 8.36"/>
    <polygon class="cls-8" points="20.97 8.21 21.39 7.72 21.04 7.84 20.97 8.21"/>
    <polygon class="cls-8" points="20.52 8.73 20.94 8.24 20.59 8.36 20.52 8.73"/>
    <polygon class="cls-8" points="20.95 8.25 20.53 8.73 20.88 8.62 20.95 8.25"/>
    <polygon class="cls-8" points="21.4 7.73 20.98 8.21 21.33 8.09 21.4 7.73"/>
    <polygon class="cls-8" points="20.95 8.21 20.74 7.6 20.67 7.96 20.95 8.21"/>
    <polygon class="cls-8" points="21.17 8.86 20.96 8.25 20.89 8.62 21.17 8.86"/>
    <polygon class="cls-8" points="20.97 8.25 21.18 8.86 21.25 8.49 20.97 8.25"/>
    <polygon class="cls-8" points="20.75 7.6 20.96 8.2 21.03 7.84 20.75 7.6"/>
    <polygon class="cls-7" points="35.44 7.05 35.13 7.33 34.73 7.19 34.81 7.6 34.49 7.88 34.89 8.01 34.97 8.43 35.29 8.15 35.68 8.29 35.6 7.88 35.92 7.6 35.52 7.46 35.44 7.05"/>
    <polygon class="cls-8" points="35.18 7.74 34.55 7.86 34.83 7.61 35.18 7.74"/>
    <polygon class="cls-8" points="35.86 7.61 35.23 7.73 35.51 7.48 35.86 7.61"/>
    <polygon class="cls-8" points="35.23 7.74 35.87 7.62 35.59 7.86 35.23 7.74"/>
    <polygon class="cls-8" points="34.55 7.87 35.18 7.75 34.9 8 34.55 7.87"/>
    <polygon class="cls-8" points="35.2 7.72 34.77 7.23 35.13 7.35 35.2 7.72"/>
    <polygon class="cls-8" points="35.65 8.24 35.23 7.75 35.58 7.88 35.65 8.24"/>
    <polygon class="cls-8" points="35.22 7.76 35.64 8.25 35.29 8.13 35.22 7.76"/>
    <polygon class="cls-8" points="34.76 7.24 35.19 7.73 34.83 7.6 34.76 7.24"/>
    <polygon class="cls-8" points="35.22 7.72 35.43 7.11 35.5 7.47 35.22 7.72"/>
    <polygon class="cls-8" points="34.99 8.38 35.21 7.76 35.28 8.13 34.99 8.38"/>
    <polygon class="cls-8" points="35.19 7.76 34.98 8.37 34.91 8.01 35.19 7.76"/>
    <polygon class="cls-8" points="35.42 7.1 35.21 7.71 35.14 7.35 35.42 7.1"/>
    <g>
      <path class="cls-1" d="M29.84,6.6h0s-1.83-1.5-1.83-1.5l-1.83,1.5.34,4.15c.49-.04.98-.06,1.48-.06s1,.02,1.49.06l.35-4.15h0Z"/>
      <path class="cls-7" d="M28,8.47c-.1.12-.07.09-.12.15-.04.01-.05.04-.03.07-.05,0-.06.04-.06.08-.05-.07-.1-.09-.16-.06,0-.09-.11-.05-.2-.12-.1-.07.06.16.12.27,0,.01,0,.03.02.04,0,.03.02.05.03.08,0,0,0,.01,0,.02-.05-.02-.17-.02-.2-.05-.04-.04-.03.16.1.3-.12,0-.16,0-.15.02.02.06.07.11.16.15-.08.04-.07.17-.11.19-.05.03.08.06.17.04-.03.05-.04.11-.04.16.04.01.08,0,.12-.01-.02.06,0,.06-.03.13-.04.04.11.04.18.01,0,.28.05.1.14.05.02.06.06.03.06.11,0,0,0,.01,0,.02.03,0,.1-.07.11-.12.07.04.12.22.12-.05.07.03.22.03.18-.01-.03-.05-.03-.12-.03-.13.04.01.08.02.12.01,0-.06-.01-.11-.04-.16.09.02.22-.02.17-.04-.04-.02-.03-.15-.11-.19.09-.04.2-.16.14-.17-.05,0-.09,0-.14,0,.13-.15.13-.34.1-.3-.03.04-.13.02-.19.05,0,0,0-.01,0-.02,0-.03.02-.05.03-.08.01-.01.02-.02.02-.04.27-.43.13-.23,0-.22-.05.01-.08.03-.08.08-.06-.03-.11-.01-.16.06,0-.05,0-.09-.06-.08.02-.03,0-.06-.03-.07,0,0-.05-.06-.14-.15h0Z"/>
      <path class="cls-8" d="M28.48,8.74s-.04.1,0,.05h0s0,0,0,0c0-.01,0-.03,0-.04h0Z"/>
      <path class="cls-8" d="M27.52,8.73c.06-.03.04.11,0,.04,0-.01-.01-.03,0-.04h0Z"/>
      <path class="cls-8" d="M28.38,8.92s.02.02.02,0c0,0-.02-.01-.02,0Z"/>
      <path class="cls-8" d="M27.61,8.92s0,.01.01.01c.03,0-.01-.04-.01-.01Z"/>
      <path class="cls-8" d="M28.44,8.85c-.29-.03-.57-.03-.87,0,.22,0,.51,0,.87,0Z"/>
      <path class="cls-8" d="M28.44,8.84l.02-.04c-.09.03.02-.16.04-.06l.08-.14c-.09.06-.19.06-.18.11,0,.03-.01.03-.04,0-.13-.07-.14.23-.16.03,0-.04-.02-.05-.04-.04-.03.01-.03,0-.03-.01.02-.04.02-.06-.02-.06-.04-.05-.09-.09-.13-.14-.03.05-.07.09-.11.14-.04,0-.03.03-.01.06,0,.02,0,.03-.03.01-.04-.02-.04.04-.04.08,0,.12-.04-.13-.16-.07-.03.02-.04.02-.03,0,0-.07-.07-.04-.19-.11l.08.13s0,0,.01-.01c.03-.02.08.06.04.08,0,0,0,0,0,0l.02.03c.29-.02.49-.04.88,0Z"/>
      <path class="cls-8" d="M28.41,9.01c-.07.05-.1.11-.02,0-.02,0-.04,0-.05,0-.02,0-.06.02-.07.04,0,0,0,0,0,0-.01,0,.02-.03.03-.04,0,0,.01,0,.02-.01-.02,0-.04,0-.06,0,0,0,0,0-.01,0,0,0,0,0-.01.01,0,0,0,0,0,0,0,0,0-.02,0-.02h0s-.03,0-.05,0h0s0,0,0,.01c0,0,0,0,0,.01,0,0,0,0,0,0,0,0,0,0,0,0,.01-.02,0-.01.02-.02-.02,0-.05,0-.07,0-.02.01-.01.01-.01.01,0,0,0,0,0,.01,0,0,0,0,0,0,0,0,0-.02,0-.02,0,0,0,0,0,0-.04,0-.1,0-.14,0,0,0,0,0,0,0,0,0,.02.02,0,.02,0,0,0,0,0,0,0,0,0,0,0-.01,0,0,0,0-.01-.01h0s-.04,0-.07,0c0,0,0,0,0,0,0,0,0,.01,0,.02,0,0,0,0,0,0,0,0,0,0,0,0,0,0,0,0,0-.01,0,0,0,0-.01-.01,0,0,0,0,0,0-.02,0-.03,0-.05,0,0,0,0,0,0,0,0,0,.02.02.01.02,0,0,0,0,0,0,0,0,0,0-.01-.01,0,0,0,0-.01,0h0s-.04,0-.06,0c.02,0,.04.02.05.04,0,0,0,0,0,0,0,0-.02-.03-.08-.05h0s-.03,0-.05,0c.1.16.08,0-.13-.03-.03,0-.06,0-.09-.01.01.03.03.06.07.07.02.06.01.08.07.11-.03-.04-.05-.08-.05-.13,0,0,0,0,0,0,0,0,0,0,0,0,0,.05.01.1.07.14,0,0,0,.01,0,.01-.06-.02-.1-.06-.11-.12-.03-.01-.05-.04-.07-.07.02.29.27.28.11.28.04.01.09.04.09.07,0,0,0,0,0,0-.02,0,.02-.04-.12-.08-.03,0-.06,0-.09,0,.03.02.2.07.17.09,0,0,0,0,0,0-.04-.04-.11-.04-.18-.09.04.09.12.13.23.15.1.02.05.03-.04,0-.06.03-.04-.05-.1.1.08-.07.13-.06.13-.05,0,.03-.01-.04-.13.06h0s-.02.05-.04.07c.08.04.26-.08.04.02.1.02.16-.04.22-.05,0,0,0,0,0,0,0,0,0,0,0,0-.02,0-.02,0-.04.02-.04.06-.06,0-.09.13.02-.03.1-.13.11-.11,0,0-.08.05-.12.14.02-.02.04-.04.06-.06h0s.09-.04.09-.02c0,.01-.03-.01-.08.03h0s-.05.04-.07.07c.09.01.14-.04.15-.05.01-.01,0,0,.03-.03,0,0,0,0,0,0,0,0-.04.05-.04.05-.07.08-.02.08-.06.16.04-.02.13-.2.15-.15,0,.02-.05,0-.08.09-.01.03-.03.05-.06.07.05,0,.09-.01.11-.06,0,0,0,0,0,0,.01,0-.02.06-.07.07.12,0,.08-.03.11-.06.02-.05.09-.09.03-.02,0,0-.01.02-.02.03,0,.01-.03.08,0,.18.01-.01.02-.03.03-.04.01-.08,0-.05.01-.14,0,0,0,0,0,0,0,.02,0,.04,0,.07,0,.02,0,.04,0,.05.03-.03.03-.07.03-.11,0,0,0,0,0,0,0,0,0,0,0,0,0,.03,0,.05,0,.09,0,0,.02-.02.03-.02,0-.02,0-.09.01-.09,0,0,0,.08,0,.09,0,.04.05.05.06.1,0-.03,0-.05,0-.08,0-.03-.01-.05-.02-.07,0,0,0,0,0,0,.03-.01.04.11.03.17.02-.02.07-.05.07-.11,0,0,0-.01,0-.01,0,0,0,0,0,0,0,0,.01.01.02.02,0,0,0,0,0,.01,0,0,0,0,.01,0,0,0,.01,0,.01.01,0-.03-.01-.05,0-.08,0,0,0,0,0,0,0,0,0,0,0,0-.02.06,0,.04.01.09,0,0,0,0,.01.01,0-.04,0-.08,0-.12,0,0,0,0,0,0,0,.05,0,.09.01.13,0,.01.02.02.03.04.04-.13,0-.12,0-.18-.01-.02-.03-.04-.05-.05,0,0,0,0,0,0,0-.01.03.01.04.02,0,0,.01.02.02.03.01,0,0,.06.11.06-.01,0-.03,0-.04-.02-.01,0-.04-.05-.03-.05,0,0,.03.03.04.04.02.01.05.02.08.02-.01,0-.02-.01-.03-.02-.02-.03,0-.04-.11-.13,0-.01.07.02.09.08,0,.02.01.03.02.04,0,.01.02.02.03.03-.02-.04-.01-.07-.02-.11,0-.03-.04-.05-.04-.06,0,0,.03.02.05.03.03.01.07.02.11.02-.02-.03-.05-.05-.07-.07h0s-.05-.03-.07-.02c0,0,0,0,0,0,0,0,0,0,0,0,.03,0,.05,0,.08.03h0s.04.03.06.06c0,0,0,0,0-.01-.02-.05-.05-.09-.11-.12,0,0,0,0,0,0,0,0,0,0,0,0,.05.02.08.06.11.11-.01-.09-.09-.13-.09-.13,0,0,0,0-.01,0,0,0-.04-.01-.04-.02,0-.01.03,0,.04,0,0,0,.01,0,.02.01.06,0,.07.05.17.03-.03-.01-.06-.03-.09-.03,0,0,0,0,0,0,0,0,0,0,0,0,.04,0,.07.02.1.03.01,0,.02,0,.03,0-.02-.02-.04-.04-.04-.07h0s-.08-.07-.12-.06c0,0,0,0,0,0,0,0,0,0,0,0,.04-.01.09.02.12.05h0c0-.15-.21-.08-.07-.12.07-.02.13-.06.16-.13-.07.05-.14.05-.18.09,0,0,0,0,0,0-.03-.02.14-.08.17-.09-.03,0-.06,0-.09,0-.04.01-.11.04-.12.07,0,0,0,0,0,0-.02,0,0-.05.08-.08-.14,0,.08,0,.11-.28-.02.03-.03.06-.07.07-.01.06-.05.1-.11.12-.03,0,.03-.04.05-.08.01-.03.02-.05.01-.07,0,0,0,0,0,0,.03,0-.01.1-.04.13.04-.02.06-.05.07-.1.06-.06.04,0,.07-.08-.01,0-.13.01-.2.04h0Z"/>
      <path class="cls-8" d="M28.4,8.98c-.2-.03-.48-.03-.79,0,.43,0,.86,0,.79,0h0Z"/>
      <path class="cls-8" d="M28.4,8.97v-.02s0,0,0,0c-.06,0,0-.08.02-.03v-.03c-.27-.03-.54-.03-.83,0v.03s.08.04.03.04c0,0,0,0,0,0v.02s0,0,0,0c.26-.01.44-.04.78,0ZM28.21,8.88c-.07,0,.02.09.02.02,0-.01-.01-.02-.02-.02ZM28.21,8.9s.01.04.01.01c0,0,0-.01-.01-.01ZM27.98,8.9s.05.03.05,0c0-.01-.05-.03-.05,0ZM27.99,8.9s.02.01.02,0c0,0-.02-.01-.02,0ZM27.77,8.91s.05.03.05,0c0-.01-.05-.03-.05,0ZM27.78,8.91s.02.02.02,0c0,0-.02-.01-.02,0Z"/>
      <path class="cls-7" d="M28.01,8.73s-.03-.05-.05-.05c0,0,0-.01,0-.01.05-.02.06-.12.06-.08,0,.03.03.05.06.07,0,0-.04.02-.05.07,0,0-.01,0-.01,0h0ZM28.01,8.71s.02-.04.03-.04c-.02-.01-.03-.02-.04-.05,0,.02-.02.04-.04.05.02,0,.03.02.04.04Z"/>
      <path class="cls-7" d="M28.17,9.7l-.1.04s0,0,0,0c0,0,0,0,0,0l.1-.04s0,0,0,0c0,0,0,0,0,0ZM28.18,9.63l-.12.06s0,0,0,0c0,0,0,0,0-.01l.12-.06s0,0,0,0c0,0,0,0,0,0ZM27.83,9.62l.12.06s0,0,0,.01c0,0,0,0,0,0l-.12-.06s0,0,0,0c0,0,0,0,.01,0ZM27.84,9.68l.1.04s0,0,0,0c0,0,0,0-.01,0l-.1-.04s0,0,0,0c0,0,0,0,0,0h0ZM27.88,9.77s.09.02.11-.02v-.1s-.08,0-.1-.04c0-.02,0-.07,0-.07,0,0,0,.05,0,.06,0,.01.01.02.03.03.16.05.22-.1.1-.08,0,0,0,0-.01,0,0,0,0,0,0,0,0,0,0,0,0,0,0,0,0,0,.01,0,.11-.02.11.11-.03.11v.09h0s.11.03.11.03c0,.02-.09.03-.12,0-.03.04-.12.03-.12.01,0,0,0,0,0,0h0ZM27.95,9.81h.08s0,0,0,0c0,0,0,0,0,0h-.08s0,0,0,0c0,0,0,0,0,0Z"/>
      <path class="cls-7" d="M28.06,9.21c.06-.05.16-.11.16-.07,0,.01-.03-.01-.15.08,0,0,0,0,0,0,0,0,0,0,0-.01h0ZM27.95,9.22c-.11-.1-.16-.07-.16-.09,0-.05.19.07.17.09,0,0,0,0-.01,0h0ZM27.98,9.34s-.06.09-.07.08c0,0,.05-.1.07-.08ZM27.98,9.08c.05.07.04.24-.05.21.03.09,0,.06-.06.04h0s-.06-.02-.07-.05h0s-.02-.04-.02-.07c-.02,0-.08-.04-.07-.06,0,0,.07.04.08.05.07,0,.08.03.14.06,0,0,0,0,0,0,.09.04.07-.1.04-.2,0,0,0,0,.01,0h0ZM27.9,9.29s-.08-.05-.12-.06c0,.02,0,.04.02.05h0s.04.03.07.04h0s.03.01.04.02c0-.02,0-.04,0-.05,0,0,0,0,0,0h0ZM28.05,9.09c-.05.07-.03.22.05.19.06-.05.08-.06.14-.07,0,0,.08-.05.08-.05.01.01-.05.05-.07.06,0,.02,0,.05-.02.07h0s-.05.04-.08.05h0c-.06.02-.08.04-.06-.04-.11.04-.1-.26-.04-.21,0,0,0,0,0,.01h0ZM28.11,9.29s0,0,0,0c0,.02,0,.04,0,.05,0,0,.03-.01.04-.02h0s.05-.02.07-.04h0s.02-.04.02-.05c0,0-.05,0-.12.06Z"/>
      <path class="cls-7" d="M28.13,9.28c0,.06.08.05.08,0,0-.02-.08-.05-.08,0ZM28.14,9.28s.06.04.06,0c0-.01-.06-.04-.06,0ZM28.16,9.28s.03.02.03,0c0,0-.03-.02-.03,0ZM27.89,9.28c0,.06-.08.06-.08,0,0-.02.08-.05.08,0ZM27.87,9.28s-.06.04-.06,0c0-.01.06-.04.06,0ZM27.86,9.28s-.03.02-.03,0c0,0,.03-.02.03,0Z"/>
      <path class="cls-7" d="M27.15,6.6c-.1.13-.07.09-.11.15-.04.01-.05.04-.03.07-.05,0-.05.04-.05.09-.05-.07-.11-.09-.16-.05,0-.09-.11-.05-.17-.09-.06-.04-.08-.02-.07,0,.06.08.11.16.17.24,0,.02,0,.03.02.04.01.03.02.05.03.08,0,0,0,.01,0,.02-.05-.02-.17-.01-.2-.04-.04-.04-.03.16.11.3-.12,0-.16,0-.15.03.03.06.07.11.16.14-.08.05-.06.17-.1.19-.05.03.08.06.17.03-.03.05-.04.11-.03.16.04,0,.08,0,.12-.02,0,.01,0,.08-.02.13-.04.04.11.03.18,0,.01.28.05.1.14.04.03.06.06.03.07.1,0,0,0,.01,0,.02.03,0,.09-.08.11-.12.04.02.06.04.09.08.01.01.02,0,.02,0,.01-.05,0-.09,0-.14.07.02.22.02.18-.02-.02-.04-.04-.12-.04-.12.04.01.08.02.12,0,0-.06-.02-.11-.05-.16.09.02.22-.02.17-.05-.04-.02-.04-.14-.12-.18.09-.04.13-.09.15-.15,0-.03-.03-.02-.15-.02.12-.15.12-.35.08-.31-.03.04-.14.04-.19.06,0,0,0-.01,0-.02,0-.03.02-.05.03-.08.01-.01.02-.03.01-.04.06-.11.2-.35.1-.27-.11.08-.19.05-.19.13-.06-.03-.11,0-.15.07,0-.05-.01-.09-.06-.08.01-.03,0-.06-.04-.07,0-.01-.05-.06-.15-.14h0Z"/>
      <path class="cls-8" d="M27.65,6.85s-.04.1,0,.05h0s0,0,0,0c0-.02,0-.03,0-.04h0Z"/>
      <path class="cls-8" d="M26.69,6.9c.06-.03.04.11,0,.04,0-.01-.01-.03,0-.04h0Z"/>
      <path class="cls-8" d="M27.57,7.03s.01.04.01.01c0,0,0-.01-.01-.01h0Z"/>
      <path class="cls-8" d="M26.8,7.07s-.01,0-.01.01c0,.03.04-.01.01-.01h0Z"/>
      <path class="cls-8" d="M27.62,6.97c-.3-.02-.58,0-.87.04.06,0,.6-.04.87-.04Z"/>
      <path class="cls-8" d="M27.62,6.95l.02-.04c-.06.02-.03-.1.02-.08,0,0,.01.01.01.02l.08-.15c-.09.06-.19.07-.18.12,0,.03-.01.03-.04.01-.12-.06-.13.21-.16.03,0-.04-.02-.05-.04-.04-.03.02-.03,0-.03,0,.01-.04.02-.06-.02-.06-.04-.04-.09-.09-.13-.13-.03.05-.07.1-.1.15-.04,0-.03.03-.01.06,0,.02,0,.03-.03.01-.02-.01-.04,0-.04.04,0,.21-.04-.09-.16-.02-.03.02-.04.02-.04,0,0-.07-.07-.03-.19-.1l.09.13s0,0,.01-.01c.03-.02.08.06.04.08,0,0,0,0,0,0l.02.03c.32-.04.55-.06.88-.04Z"/>
      <path class="cls-8" d="M27.6,7.13s-.07.07-.08.06c0,0,0,0,0,0,.02-.02.04-.04.05-.06-.02,0-.04,0-.05,0-.07.03-.07.05-.08.05,0,0,0,0,0,0,0-.02.03-.03.05-.04-.02,0-.04,0-.06,0-.04.04-.04.02-.02,0-.02,0-.03,0-.05,0h0s-.01.03-.02.03c0,0,0,0,0,0,0,0,0-.02,0-.02,0,0,0,0,0,0-.02,0-.04,0-.07,0-.02.01-.01.01-.02.01,0,0,0,0,0,.01,0,0,0,0,0,0,0,0,0-.02,0-.02,0,0,0,0,0,0,0,0,.04,0-.14,0,0,0,0,0,0,0,0,0,0,0,.01.01,0,0,0,0,0,0,0,0,0,0,0,0,0,0,0,0,0-.01,0,0,0,0-.01,0h0s-.04,0-.07,0c0,0,0,0,0,0,0,0,0,0,0,.01,0,0,0,0,0,0,0,0,0,0,0,0,0,0,0,0,0-.01,0,0,0,0-.01-.01h0s-.03,0-.05,0c0,0,.01.01.02.02,0,0,0,0,0,0,0,0-.03-.02-.03-.02-.02,0-.04,0-.06,0,.02,0,.04.02.06.04,0,0,0,0,0,0,0,0-.01-.02-.08-.04h0s-.04,0-.05,0c0,.01.06.06.06.06,0,.01-.06-.05-.08-.06-.06-.02-.19-.03-.2-.03.03.06.01.03.07.07.01.04.03.08.07.1-.03-.03-.08-.13-.05-.13.02.06,0,.08.08.14.05.04-.09,0-.12-.1-.03-.01-.05-.04-.07-.07.03.26.25.27.13.27.04.01.09.03.09.07,0,0,0,0,0,0,0,0,0,0,0,0,0-.04-.08-.06-.12-.07-.03,0-.06,0-.09,0,.03.02.2.06.17.09,0,0-.02-.03-.08-.04-.05,0-.07-.02-.11-.04.08.15.43.19.2.14-.06.04-.04-.05-.1.11.07-.07.13-.07.12-.05,0,.01-.03-.02-.13.07h0s-.01.06-.04.07c.06.03.26-.08.04.01.1.01.16-.05.22-.06,0,0,0,0,0,0,0,0,0,0,0,0-.05,0-.12.07-.13.15.01-.03.09-.14.11-.11,0,0,0,0,0,0-.05.03-.09.08-.11.14.02-.03.04-.05.06-.06h0s.09-.04.08-.02c0,0-.04,0-.08.03h0s-.04.04-.07.07c.09,0,.14-.05.15-.05,0,0,.03-.04.04-.03,0,0-.03.04-.03.05,0,0,0,0,0,0-.07.08-.02.08-.05.16.04-.02.12-.2.14-.16,0,.02-.05.01-.07.09,0,.03-.03.06-.05.08.13-.01.07-.08.11-.07,0,0,0,0,0,0-.01.04-.04.06-.07.07.15-.01.21-.23.12-.06.01.06-.03.04,0,.18,0-.01.02-.03.03-.04h0c0-.06,0-.08,0-.14.02,0,.01.1,0,.12.02-.02.02-.05.02-.07,0-.02,0-.05,0-.05.02,0,.01.07,0,.09,0,0,.02-.02.03-.03,0-.08.01-.16.02,0,0,.04.05.05.07.09,0-.13-.04-.15-.03-.16.03-.02.04.11.04.17.02-.02.07-.05.06-.12,0,0,0,0,0-.01,0,0,0,0,0,0,0,0,.01.01.02.02,0,0,0,0,0,.01,0,0,0,0,0,0,0,0,.01,0,.01,0-.01-.03-.01-.06,0-.08,0,0,0,0,0,0,.01,0-.01.03.02.1,0,0,0,0,0,0,0,0,0,0,.01.01,0-.02-.02-.12,0-.12.01,0,0,.02.02.13h0s.02.02.03.04c.03-.14,0-.12,0-.18-.03-.05-.06-.05-.05-.06,0-.02.05.03.06.05.01,0,0,.05.12.05-.05-.01-.08-.06-.07-.07.05.06.06.06.12.06-.03-.02-.05-.04-.06-.07-.03-.07-.09-.07-.08-.08,0-.01.07.02.09.08.01.04.03.05.06.07-.02-.04-.02-.07-.03-.11,0-.02-.05-.05-.04-.06,0-.01.06.05.15.03-.03-.03-.05-.05-.07-.07h0s-.05-.03-.07-.02c0,0,0,0,0,0,0-.02.06,0,.08.01h0s.04.03.06.05c-.06-.13-.13-.11-.12-.13.01-.03.1.07.12.1-.02-.1-.1-.12-.1-.13,0,0-.05-.01-.05-.02,0-.02.05,0,.06.01.06,0,.08.05.17.02-.22-.09-.03.03.04-.02-.02-.02-.04-.04-.04-.07h0s-.08-.07-.12-.05c0,0,0,0,0,0,0,0,0,0,0,0,.04-.01.09.02.12.05-.03-.06-.03-.09-.09-.09-.04,0-.06,0,0-.02.07-.03.12-.06.15-.14-.05.04-.15.06-.17.1,0,0,0,0,0,0-.03-.02.13-.08.16-.1-.03,0-.06,0-.09,0-.03.01-.11.04-.11.08,0,0,0,0,0,0,0,0,0,0,0,0,0-.04.05-.06.08-.08-.09,0,.08-.04.1-.28-.01.03-.03.06-.06.07,0,.06-.04.11-.1.13-.06.02.07-.05.05-.15,0,0,0,0,0,0,0,0,0,0,0,0,0,.05-.01.09-.04.13.04-.02.06-.06.06-.11,0,0,0,0,0,0,.02,0,.03-.02.04-.03s.02-.03.02-.05c-.01,0-.13.02-.19.05h0Z"/>
      <path class="cls-8" d="M27.19,7.09c-.22.01-.17.01-.4.05.24-.02.53-.05.79-.03,0,0,.1-.04-.39-.02Z"/>
      <path class="cls-8" d="M27.58,7.08v-.03s0,0,0,0c-.06,0,0-.08.02-.03v-.03c-.27-.02-.55,0-.83.04v.03s.08.03.03.04h0v.02s0,0,0,0c.28-.04.49-.06.78-.04ZM27.36,7.03s.05.03.05,0c0-.01-.05-.03-.05,0ZM27.37,7.03s.02.01.02,0c0,0-.02-.01-.02,0ZM27.15,7.04s.01.02.03.02c.07,0-.03-.09-.03-.02ZM27.18,7.05s.01,0,.01-.01c0-.03-.04.01-.01.01ZM26.95,7.05s.05.03.05,0c0-.01-.05-.03-.05,0ZM26.96,7.05s.02.01.02,0c0,0-.02-.01-.02,0Z"/>
      <path class="cls-7" d="M27.18,6.87s-.01-.02-.02-.03c-.09-.07,0,.02,0-.11,0-.03.02.02.03.04.07.07.04.01.01.06-.01.02-.02.07-.03.04h0ZM27.18,6.85s.02-.04.03-.05c-.02,0-.03-.03-.04-.04,0,.03-.02.04-.03.05.02,0,.03.02.04.03h0Z"/>
      <path class="cls-7" d="M27.39,7.82l-.1.04s0,0,0,0c0,0,0,0,0,0l.1-.04s0,0,0,0c0,0,0,0,0,0h0ZM27.39,7.76l-.11.07s0,0,0,0c0,0,.12-.09.12-.08,0,0,0,0,0,.01h0ZM27.04,7.77l.12.06s0,0,0,.01c0,0,0,0-.01,0l-.12-.06s0,0,0,0c0,0,0,0,.01,0ZM27.05,7.83l.1.03s0,0,0,0c0,0,0,0,0,0l-.1-.04s0,0,0,0c0,0,0,0,0,0h0ZM27.1,7.91s.09.01.1-.03v-.09s-.09,0-.1-.04c0-.01-.01-.07,0-.07,0,0,0,0,0,0-.03.13.21.09.2.01,0-.02-.04-.02-.06-.02,0,0-.01,0-.01,0,0,0,0,0,0,0,0,0,0,0,0,0,0,0,0,0,.01,0,.11-.03.12.1-.03.11v.09s0,0,0,0c.03.05.11,0,.12.02,0,.02-.09.04-.12,0-.03.05-.12.04-.12.02,0,0,0,0,0,0h0ZM27.17,7.95h.08s0,0,0,0c0,0,0,0,0,0h-.08s0,0,0,0c0,0,0,0,0,0Z"/>
      <path class="cls-7" d="M27.26,7.35s.15-.12.15-.08c0,.01-.03-.01-.14.09,0,0,0,0-.01,0,0,0,0,0,0-.01h0ZM26.97,7.29s.2.05.18.08c0,0,0,0-.01,0-.16-.12-.16-.05-.17-.08ZM27.11,7.56c.02-.06.11-.13.04-.04,0,.01-.02.05-.03.04,0,0,0,0,0,0h0ZM27.16,7.22c.06.07.05.24-.04.21.03.09,0,.06-.05.04h0s-.06-.02-.08-.04h0s-.02-.04-.02-.07c-.08-.04-.11-.08-.03-.03.01,0,.03.01.04.02.1,0,.24.16.21-.04h0s0-.04,0-.05c0-.02-.03-.04-.02-.05,0,0,0,0,.01,0h0ZM27.1,7.43s-.08-.04-.12-.05c0,.02,0,.04.02.05h0s.05.03.07.04h0s.03.01.04.02c0-.02,0-.03,0-.05,0,0,0,0,0,0ZM27.24,7.23c-.04.07-.03.22.05.19.06-.04.06-.06.14-.07,0,0,.07-.05.08-.05,0,0,0,0,0,.01-.02.02-.04.04-.07.05,0,.03,0,.05-.02.07h0s-.05.04-.07.05h0c-.05.02-.08.05-.06-.04-.11.05-.11-.25-.05-.21,0,0,0,0,0,.01h0ZM27.43,7.36s-.08.03-.12.06c0,0,0,0,0,0,0,.02,0,.04,0,.05.01,0,.03-.02.04-.02h0s.05-.02.07-.04h0s.01-.03.01-.05Z"/>
      <path class="cls-7" d="M27.33,7.41c0,.05.08.05.08,0,0-.05-.08-.05-.08,0ZM27.34,7.41s.06.04.06,0c0-.04-.06-.03-.06,0ZM27.35,7.41s.03.02.03,0c0,0-.03-.02-.03,0ZM27.04,7.39c.06,0,.06.08,0,.08-.05,0-.06-.08,0-.08ZM27.04,7.4s.04.05,0,.06c-.04,0-.04-.05,0-.06ZM27.04,7.41s.02,0,.02.02c0,.05-.07-.01-.02-.02Z"/>
      <path class="cls-7" d="M28.97,6.76s.05.04.03.07c.05,0,.05.04.05.09.05-.07.11-.09.16-.05,0-.09.11-.05.21-.11.1-.07-.07.16-.13.26,0,.02,0,.03-.02.04-.01.03-.02.05-.03.08,0,0,0,.01,0,.02.05-.02.17-.01.2-.04.04-.04.03.16-.11.3.12,0,.16,0,.15.03-.03.06-.07.11-.17.14.08.05.06.17.1.19.05.03-.08.06-.17.03.03.05.04.11.03.16-.04,0-.08,0-.12-.02.02.05,0,.06.03.13.04.04-.11.03-.18,0-.01.28-.06.09-.14.04-.03.06-.06.02-.07.1,0,0,0,.01,0,.02-.03,0-.09-.08-.11-.12-.08.04-.13.21-.12-.06-.07.02-.22.02-.18-.02.03-.05.03-.12.04-.12-.04.01-.08.02-.12,0,0-.06.02-.11.05-.16-.09.02-.22-.02-.17-.05.04-.02.04-.14.12-.18-.09-.04-.2-.17-.14-.17.04,0,.09,0,.14,0-.12-.15-.12-.35-.08-.31.03.04.14.04.19.06,0,0,0-.01,0-.02,0-.03-.02-.05-.03-.08-.01-.01-.02-.03-.01-.04-.25-.44-.12-.23,0-.22.05.01.08.04.08.08.06-.03.11,0,.15.07,0-.05.01-.09.06-.08-.01-.03,0-.06.04-.07,0,0,.05-.06.15-.14.09.12.09.12.11.15Z"/>
      <path class="cls-8" d="M28.36,6.85c.05-.02.04.1,0,.05h0s0,0,0,0c0-.02,0-.03,0-.04h0Z"/>
      <path class="cls-8" d="M29.32,6.9c-.05-.03-.04.11,0,.04,0-.01.01-.03,0-.04h0Z"/>
      <path class="cls-8" d="M28.44,7.03s-.01.04-.01.01c0,0,0-.01.01-.01h0Z"/>
      <path class="cls-8" d="M29.23,7.08s-.02.01-.02,0c0,0,.02-.01.02,0Z"/>
      <path class="cls-8" d="M29.26,7.01c-.29-.02-.56-.04-.87-.02-.08,0,.15-.08.87.02Z"/>
      <path class="cls-8" d="M29.27,6.99c-.29-.04-.58-.06-.88-.04l-.02-.04s.04-.02.03-.05c-.01-.04-.05-.04-.06,0l-.08-.15c.09.06.19.07.18.12,0,.03,0,.03.04.01.06-.03.1.02.12.07.01.04.03.04.03,0,0-.05,0-.1.05-.08.07.04-.03-.07.05-.07.04-.04.09-.09.13-.13.03.05.07.1.1.15.04,0,.03.03.01.06,0,.02,0,.03.03.01.03-.01.04,0,.04.04,0,.19.04-.09.16-.02.03.02.04.02.04,0,0-.07.08-.03.19-.1l-.09.13s0,0,0-.01c-.04-.02-.08.06-.04.08,0,0,0,0,0,0l-.02.03h0Z"/>
      <path class="cls-8" d="M28.41,7.13c.12.12.07.06.03,0,.02,0,.04,0,.05,0,.07.03.07.05.08.05.02,0-.03-.04-.05-.05.02,0,.04,0,.06,0,0,0,0,0,.01.01,0,0,0,0,0,.01,0,0,0,0,0,0,0,0,0-.02-.01-.03.02,0,.03,0,.05,0h0s0,.01,0,.01c0,0,0,0,0,.01,0,0,0,0,0,0,0,0,0,0,0,0,0,0,0-.01,0-.02,0,0,0,0,0,0,.02,0,.04,0,.07,0,.03.03.02.02.02.03,0,0,0,0,0,0,0,0,0,0,0,0-.01-.02,0-.01-.02-.02,0,0,0,0,.14,0,0,0,0,0,0,0,0,0-.02.02,0,.02,0,0,0,0,0,0,0,0,0,0,.01-.01,0,0,0,0,.01,0h0s.04,0,.07,0c0,0,0,0,0,0,0,0-.01.02,0,.02,0,0,0,0,0,0,0,0,0,0,0-.01,0,0,0,0,.01-.01,0,0,0,0,0,0,.01,0,.03,0,.05,0,0,0,0,0,0,0,0,0-.02.02-.01.02,0,0,0,0,0,0,0,0,0,0,.01-.01,0,0,0,0,.01,0h0s.04,0,.06,0c-.02,0-.07.04-.05.05,0,0,.01-.03.08-.04.03,0,.04,0,.05,0,0,0-.06.06-.06.06,0,0,.04-.03.05-.03.09-.08.16-.03.23-.06-.01.03-.03.06-.07.07-.03.06-.02.08-.08.1.06-.06.06-.13.05-.13,0,0,0,0,0,0,0,.11-.13.16-.07.15.06-.01.1-.05.11-.12.03-.01.05-.04.07-.07-.03.25-.24.27-.13.27-.02,0-.03.01-.05.02-.03.01-.06.05-.04.06,0,0,0,0,0,0,0-.04.08-.06.12-.07.03,0,.06,0,.09,0-.03.02-.2.06-.17.09.01,0,.02-.03.08-.04.05,0,.07-.02.11-.04-.07.14-.43.19-.2.14.06.04.04-.05.1.11-.08-.07-.13-.07-.12-.05,0,.03.02-.04.13.07h0s.01.06.04.07c-.07.03-.26-.09-.04.01-.06.01-.12-.02-.19-.05-.01,0-.04-.02-.04,0,0,0,0,0,0,0,.02,0,.02,0,.04.02.04.06.07.02.08.13-.02-.05-.05-.09-.1-.11,0,0,0,0,0,0-.02.03.05,0,.11.14-.02-.03-.04-.05-.06-.06h0s-.09-.04-.08-.02c0,.01.03,0,.08.03h0s.04.04.07.07c-.08,0-.14-.05-.15-.05,0,0,0,0,0-.01,0,0-.01-.01-.02-.02,0,0,0,0,0,0s.03.04.03.05c0,0,0,0,0,0,.06.08.02.08.05.16-.07-.04-.04-.12-.13-.16,0,0,0,0,0,0,0,0,0,0,0,0,.09.04.05.11.12.16-.1-.01-.05-.03-.11-.07-.01,0,.01.06.06.07-.12,0-.08-.03-.11-.06,0-.02-.05-.07-.06-.05,0,0,0,0,0,0,.01,0,.03.03.04.05,0,.06.03.05,0,.18-.01-.01-.02-.03-.03-.04,0-.03,0-.1,0-.14-.02,0,0,.1,0,.12-.02-.03-.03-.08-.02-.11,0,0,0,0,0,0-.02,0-.01.07,0,.09-.01,0-.02-.02-.03-.03,0-.02.01-.09,0-.09,0,0,0,.08,0,.09,0,.04-.05.05-.06.09,0-.12.04-.15.03-.16,0,0,0,0,0,0-.03.05-.03.11-.03.17-.02-.02-.07-.05-.06-.12,0,0,0,0,0-.01,0,0,0,0,0,0,0,0,0,0,0,0,0,0,0,.01,0,.02,0,0,0,0,0,.01,0,0,0,0,0,0,0,0-.01,0-.02,0,.01-.03.02-.05.01-.08,0,0,0,0,0,0-.03,0,.02-.03-.02.1,0,0,0,0-.01.01,0-.02.02-.12,0-.12,0,0,0,.08-.02.13-.01.01-.02.02-.03.04-.03-.11,0-.16,0-.18.03-.05.05-.05.05-.06,0-.02-.05.03-.06.05-.01,0,0,.05-.12.05.05-.01.08-.06.07-.07-.05.06-.06.06-.12.06.08-.04.05-.12.14-.14,0,0,0,0,0,0,0-.01-.07.01-.09.08-.02.03-.03.05-.06.07.02-.04.02-.07.03-.11,0-.02.05-.05.04-.06,0-.01-.06.05-.15.03.03-.03.05-.05.07-.07h0s.05-.03.07-.02c0,0,0,0,0,0,0-.02-.06,0-.08.01h0s-.04.03-.06.05c.05-.12.13-.11.12-.13,0,0,0,0,0,0-.04.02-.08.05-.11.11.02-.09.09-.12.1-.13,0,0,.05-.01.05-.02,0-.02-.05,0-.06.01-.06,0-.08.05-.17.02.23-.09.03.03-.04-.02.03-.02.04-.04.04-.07h0c.12-.1.12-.03.13-.06,0-.01-.05-.03-.13.04h0c.02-.15.22-.07.08-.12-.07-.03-.12-.06-.15-.14.08.06.08.03.14.07,0,0,.03.03.04.03.03-.02-.14-.08-.16-.1.03,0,.06,0,.09,0,.1.04.05.03.12.09.02,0,0-.04-.08-.08.12,0-.08-.02-.1-.28.01.03.03.06.06.07.01.07.04.11.1.13-.04-.09-.03,0-.06-.16,0,0,0,0,0,0,0,.03,0,.05.01.08,0,.02.02.03.03.05-.06-.03-.05-.05-.07-.11-.03-.01-.05-.04-.06-.08.01,0,.13.02.19.05h0Z"/>
      <path class="cls-8" d="M29.22,7.14c-.24-.02-.53-.05-.79-.03-.06.02.06-.09.79.03Z"/>
      <path class="cls-8" d="M29.21,7.12c-.26-.04-.52-.06-.78-.04v-.03s0,0,0,0c.06,0,0-.08-.02-.03v-.03c.28-.02.55,0,.83.04v.03s-.08.03-.03.04h0v.02s0,0,0,0h0ZM28.65,7.03s-.05.03-.05,0c0-.01.05-.03.05,0ZM28.63,7.02s.01,0,.01.01c0,.03-.04-.01-.01-.01h0ZM28.86,7.04s-.05.03-.05,0c0-.01.05-.03.05,0ZM28.84,7.04s-.02.01-.02,0c0,0,.02-.01.02,0ZM29.06,7.05s-.05.03-.05,0c0-.01.05-.03.05,0ZM29.05,7.05s-.02.01-.02,0c0,0,.02-.01.02,0Z"/>
      <path class="cls-7" d="M28.83,6.87s.01-.02.02-.03c.09-.07.01.02,0-.11,0-.03-.03.05-.07.06,0,0,0,.01,0,.01.05.01.04.11.06.06h0ZM28.83,6.85s-.02-.04-.03-.05c.02,0,.03-.02.04-.04,0,.02.02.04.03.05-.02,0-.03.02-.04.03h0Z"/>
      <path class="cls-7" d="M28.62,7.82l.1.04s0,0,0,0c0,0,0,0,0,0l-.1-.04s0,0,0,0c0,0,0,0,0,0ZM28.62,7.76l.11.07s0,0,.01,0c0,0,0,0,0-.01l-.11-.07s0,0,0,0c0,0,0,0,0,.01h0ZM28.97,7.77l-.12.06s0,0,0,.01c0,0,0,0,0,0l.12-.06s0,0,0,0c0,0,0,0,0,0ZM28.96,7.83l-.1.03s0,0,0,0c0,0,0,0,0,0l.1-.04s0,0,0,0c0,0,0,0,0,0h0ZM28.91,7.91s-.09.01-.1-.03v-.09c.08,0,.12-.02.11-.1,0,0,0,0,0,0-.02,0,.04.1-.1.09-.05,0-.11-.02-.1-.07,0-.02.04-.02.06-.02,0,0,0,0,.01,0,0,0,0,0,0,0,0,0,0,0,0,0,0,0,0,0-.01,0-.03-.01-.08,0-.08.03,0,.04.03.08.11.09v.09s0,0,0,0c-.02.04-.11.02-.11.02,0,.02.09.04.12,0,.03.04.13.04.12.02,0,0,0,0,0,0h0ZM28.84,7.95h-.08s0,0,0,0c0,0,0,0,0,0h.08s0,0,0,0c0,0,0,0,0,0Z"/>
      <path class="cls-7" d="M28.75,7.35s-.15-.11-.15-.08c0,0,0,0,0,0,.02,0,.04,0,.06.02.01,0,.08.07.09.06,0,0,0,0,0-.01h0ZM28.87,7.36c.11-.09.17-.06.17-.08.01-.04-.2.05-.18.08,0,0,0,0,0,0h0ZM28.9,7.56c-.02-.06-.11-.13-.04-.04,0,.01.02.05.03.04,0,0,0,0,0,0h0ZM28.85,7.22c-.06.07-.05.24.04.21,0,.02-.01.04,0,.06,0,0,0,0,.01,0,.04-.02.1-.03.13-.06h0s.02-.04.03-.07c.06-.03.13-.07-.01-.01-.08,0-.24.14-.21-.04h0s.03-.1.03-.1c0,0,0,0-.01,0h0ZM28.91,7.43s.08-.04.12-.05c0,.02,0,.04-.02.05h0s-.05.03-.07.04h0s-.02,0-.04.02c0-.02,0-.03,0-.05,0,0,0,0,0,0h0ZM28.77,7.23c.04.06.03.22-.05.19-.06-.05-.08-.06-.14-.07-.13-.08-.07-.03,0,.01,0,.03,0,.05.02.07h0s.05.04.07.05h0c.05.02.08.05.06-.04.12.04.11-.25.05-.21,0,0,0,0,0,.01h0ZM28.58,7.36s.08.03.12.06c0,0,0,0,0,0,0,.02,0,.04,0,.05-.01,0-.03-.02-.04-.02h0s-.05-.03-.07-.04h0s-.01-.04-.01-.05Z"/>
      <path class="cls-7" d="M28.68,7.41c0,.06-.08.05-.08,0,0-.02.09-.05.08,0ZM28.67,7.41s-.06.03-.06,0c0-.01.06-.03.06,0ZM28.66,7.41s-.03.02-.03,0c0,0,.03-.02.03,0ZM28.93,7.43c0,.05.08.06.08,0,0-.05-.08-.06-.08,0ZM28.94,7.43s.05.04.06,0c0-.04-.06-.04-.06,0ZM28.95,7.43s0,.02.02.02c.05,0-.02-.07-.02-.02Z"/>
    </g>
    <path class="cls-3" d="M30.52,7.53c.77-.6,1.07.17,1.59.03.03,0,.05.01.02.03-.27.17-.48.02-.66-.05.19.13.43.46.87.39.08-.01.03.09-.19.11-.53.03-.72-.55-1.17-.41.02,0,.04.01.05.03.09.06.27.02.12.1-.03.04-.08.07-.13.06-.08.05-.11.02-.13-.01,0,.02-.01.04-.02.06,0,.01,0,.02,0,.03.01.02.02.04.01.06,0,.04.04.04.05.09,0,.03.05.06.07.08.05.02.07.05.08.1.04.01.05.04.06.07.02,0,.04.02.05.04.2,0,.27-.01.37.11.1.01.36-.11.49.04.09.1.16-.06.34.02.03-.01.06-.02.09-.01.1-.11.2.03.12.06-.02.04-.06.06-.11.05,0,.03-.02.05-.04.07.02.07,0,.1-.05.1-.01.02-.03.03-.06.03-.02.03-.04.04-.07.04,0,.06.1.12-.04.12.01.04.01.07,0,.11.05.03.06.06.01.09.03.06.02.1-.04.13,0,.09-.06.1-.05.12.03.04.02.1-.02.1-.03,0,0,.01-.03.03-.01,0-.14.09-.15.09-.03.06-.08.12-.14.19,0,.05-.04.08-.08.1,0,.01-.01.02-.03.03.06.07-.04.14-.09.15-.15.04-.22-.04-.16-.07-.07,0-.08-.07-.03-.07.03,0,.05-.01.08-.02.01-.02.02-.03.04-.04,0-.06.04-.09.09-.11.08-.03.14-.15.18-.22-.02-.02-.02-.04-.02-.06-.02-.01-.03-.03-.05-.04-.03,0-.05-.02-.05-.04,0,0-.02,0-.03,0-.02.01-.04.02-.06.02-.03.03-.06.05-.09.07-.01.03-.03.04-.06.05-.06,0-.18.14-.19.19,0,.05-.01.09-.04.09-.02,0-.03,0-.03,0-.01,0-.02,0-.03,0,.11.12-.24.15-.24.03-.05-.02-.03-.07,0-.06.02,0,.03-.01.05-.02.05-.05.09-.09.15-.11.01-.02.03-.04.05-.05,0-.05.04-.08.07-.12,0-.02,0-.03.02-.05,0-.01,0-.01,0-.02-.01-.03-.02-.06-.01-.09,0-.01,0-.03,0-.04-.09.05-.11.03-.12,0-.03.03-.06.04-.08,0-.03,0-.06.02-.09,0-.02,0-.04.01-.06.02,0,.02-.02.04-.04.06,0,.05-.07.2-.1.24,0,.01,0,.03,0,.04,0,.05-.01.07-.04.08,0,.02-.02.04-.03.06,0,0,0,.01,0,.02.05.14-.24.17-.2.08-.04.01-.04,0-.07-.02-.03-.05.04-.05.08-.09,0-.02.02-.03.03-.03.01-.03.03-.05.05-.06,0-.02.09-.19.08-.2-.02-.08.09-.17.04-.25,0-.02,0-.05,0-.07-.04,0-.04-.03-.07.02,0,.03-.02.05-.03.05,0,.07-.04.12-.08.13,0,.03,0,.15-.02.15-.03,0-.05.04-.05.07.11.11-.27.15-.24.04-.07,0-.05-.06,0-.07.06-.02.11-.06.15-.11,0-.07.02-.11.05-.12.01-.11.07-.13.06-.22-.04-.02-.04-.05,0-.07.01,0,.01-.01,0-.02-.03,0,0-.06-.03-.06-.05,0-.04-.03-.02-.05.03-.03,0-.03,0-.07-.03-.02-.02-.05,0-.07-.02-.01-.03-.04-.03-.06-.09,0-.07-.07,0-.13.01-.02.03-.04.02-.07-.02-.04.04-.07.08-.11,0-.01,0-.02-.01-.03-.03-.03-.02-.05.01-.07,0-.01-.01-.02-.01-.03-.06.01-.06-.03-.03-.09-.04-.02-.03-.06.04-.12,0-.01,0-.02,0-.03-.08,0-.09.06-.16.03-.03-.04-.06-.04-.05-.08-.08,0-.09-.05-.05-.08.03-.02.04-.04.05-.06.02-.05.06-.09.11-.12,0-.01,0-.03,0-.04-.02-.01-.04-.02-.06-.02-.02-.05-.07-.05-.06-.09-.04-.04-.03-.06-.02-.08.06,0,.21-.04.28.07Z"/>
    <path class="cls-9" d="M31.97,7.59s.09,0,.13,0c-.04.03-.1.05-.15.06.02-.01.03-.03.02-.05Z"/>
    <path class="cls-9" d="M31.95,7.59h0s0,.02,0,.02c0,.02-.03.02-.02.03-.04,0-.07,0-.1,0,0,0,0,0,0,0,.02-.02.03-.04.02-.07.04,0,.04,0,.1.01Z"/>
    <path class="cls-9" d="M31,7.33c.05,0,.11,0,.17,0,.04.02.06.05.05.1,0,0,0,0,0,0,.01,0,.02-.07-.02-.11.06.01.08,0,.19.05,0,0,0,0,0,0,.04.05-.03.08,0,.09,0,0,.05-.04.04-.08.04.02.09.04.15.07h0s-.05.07-.05.07c0,.02.07-.01.07-.06.03.02.06.03.09.05h0s-.04.07-.03.07c0,.02.06-.02.05-.06.04.02.09.03.14.04h0s.01.04,0,.06c0,0,0,0,0,.01,0,0,0,0,0,0-.12-.01-.26-.08-.51-.18,0,0,0,0,0,0,0,0,0,0,0,0,0,0,0,0,0,0h0c-.12-.04-.19-.03-.25-.03,0-.04-.01-.07-.05-.1h0Z"/>
    <path class="cls-9" d="M30.8,7.38c.06-.02.11-.04.17-.05.04.02.07.04.06.09-.05,0-.11,0-.15.02-.02-.04-.05-.06-.08-.06h0Z"/>
    <path class="cls-8" d="M31.61,9.41s0,0-.01,0c-.02.02-.04.04-.07.06-.02-.02-.05,0-.02.01,0,0,0,0-.01,0,0,.02-.02.03-.04.04,0,0,0,0-.01,0,0-.03,0-.04,0-.06,0,0,0,0,0,0,0,0,0,0,0,0,0,.02,0,.05,0,.07-.07.02-.17.15-.19.2-.01.04,0,.07-.04.07,0-.01-.02-.01-.03,0-.03,0-.06,0-.08,0-.02.02.03.01.05.03.1.06-.2.12-.2.01.02,0,.08,0,.07-.03,0,0,0,0-.01,0-.02.01-.05.01-.08.01h0s-.01,0,0-.01c0,0,.01,0,.02,0,.02,0,.04-.01.06-.02.04-.05.09-.09.15-.12.02-.02.04-.04.06-.05,0-.05.03-.08.07-.12,0-.02.01-.04.02-.06,0-.01,0-.02,0-.03-.01-.03-.02-.05-.01-.08,0-.02,0-.04,0-.06,0,0,0,0,0-.01.02-.02.05-.03.07-.05,0,.02,0,.04,0,.07h0s-.02.03-.02.04c0,0,0,0,0,0,0,0,0,0,0,0,0-.01.01-.03.02-.04h0s.08-.05.11-.08c0,.03,0,.06,0,.09-.02.02-.03.03-.04.06,0,0,0,0,0,0,.03-.04.04-.05.04-.05h0s0,0,0,0h0s0,0,0,0c.02-.02.04-.03.07-.04,0,.06,0,.11.04.15h0Z"/>
    <path class="cls-9" d="M31.41,7.69c-.09-.06-.18-.09-.29-.1,0,0,0,0,0,0,.05-.05.04-.1-.03-.15.08,0,.16.02.23.04.05.1-.05.12-.04.13.01.03.09-.05.06-.13.05.02.14.09.17.11,0,.11-.11.06-.11.08h0Z"/>
    <path class="cls-9" d="M31.42,7.7c.06,0,.1-.01.11-.08.09.07.07.07.13.12h0s0,.06-.03.07c-.02,0-.06,0-.06,0,0,0-.11-.09-.15-.12Z"/>
    <path class="cls-9" d="M31.75,7.93c-.05-.03-.08-.04-.16-.1.08,0,.1-.03.1-.07.06.05.1.08.17.12,0,0,0,0,0,0,0,.02,0,.03-.02.03-.01,0-.09.01-.09.02h0Z"/>
    <path class="cls-9" d="M31.93,8c-.06-.02-.11-.04-.17-.06.05,0,.11-.01.11-.06.03.02.07.03.1.04.01.03,0,.05-.04.06,0,0,0,0,0,.01h0Z"/>
    <path class="cls-9" d="M32.31,7.96s.03,0,.02,0c-.11.07-.26.07-.39.04.03-.01.06-.04.05-.07.04.01.09.02.13.03,0,.03-.05.05-.05.06,0,.01.07-.02.07-.06.06,0,.11,0,.17,0h0Z"/>
    <path class="cls-8" d="M30.35,8.67s.01-.01.01-.01h0s.04-.07.07-.1c0,0,0,0,0,0-.05.07-.06.08-.07.1,0,0,0,0,0,.01,0,.03,0,.04.02.06,0,0,0,0,0,0,.03-.07.07-.05.1-.11,0,0,0,0,0,0,0,0,0,0,0,0,0,.02-.03.04-.04.05h0s-.04.03-.05.05c0,0,0,.02,0,.03-.02.03-.04.04,0,.06,0,.05.05.05,0,.1-.02.02,0,.01.01.01,0,0,0,0,0,0h0c.05-.09.06-.04.1-.15,0,0,0,0,0,0,0,.07-.05.08-.09.15.02.01.01.04.02.06,0,0,0,0,.01,0h0c.04-.06.06-.09,0,0h0s-.06.06,0,.1c0,.03,0,.05,0,.08,0,0,0,0,0,0,0,.01,0,.04,0,.05,0,0,0,0,0,0,0,0,0,0,0,0v-.02s0,0,0,0c-.03.06-.05.09-.05.15-.05.01-.04.06-.05.11-.12.16-.19.1-.2.15,0,0,.02.02.03.01.04-.03.05-.01.01.02-.03.08.29.07.2-.03,0-.04.02-.08.06-.1.01-.03-.02-.14.02-.15.05-.01.06-.17.08-.14.03-.04.03-.08.08-.06-.02-.04-.02-.16,0-.16.13-.28-.04,0,.02.17.02.01.01.06.02.08.05.09-.06.18-.04.25.02.02,0,.03,0,.04,0,0,.02-.03-.07.18-.03,0-.04.03-.05.06-.02,0-.02.01-.03.03-.07.07-.11.04-.06.08.01.01.04-.01.05-.03.01-.02.03-.01.02,0-.01.02-.02.04-.02.05,0,.01.05.02.06.03.03,0,.07-.03.1-.05.02-.02.02-.04,0-.07h0s-.04,0-.08-.02c0,0,0,0,0,0,.03,0,.06.02.09.02v-.02s.03-.04.04-.06c.04-.02.04-.03.03-.07,0-.02,0-.02,0-.04.02-.04.04-.08.06-.13.03-.04.04-.07.04-.12,0-.02,0-.03.02-.03,0-.01.02-.03.03-.04h0s0,0,0,0c0-.01,0-.03.02-.05.02-.05-.03-.09-.01-.11,0,0,0,0,0,0,0,0,0,0,0,0,0,0,0,0,0,.01,0,0,0,0,0,.01h0s.02.06,0,.08h0s-.01.03-.02.04h0s.04,0,.06-.01c.04-.07.01,0,.05-.09,0,0,0,0,0,0,0,.04-.02.06-.04.08.03,0,.06,0,.09,0,0-.05,0-.12.03-.16,0,0,0,0,0,0-.02.06-.04.05-.02.16h0c.05.08.07-.04.22-.13,0,0,0,0,0,0-.07.05-.08.06-.13.12,0,0,0,0,0,.02,0,.09.12-.01.2-.06,0-.05.02-.09.07-.15,0,0,0,0,0,0,.06-.03.05-.04.09-.1,0,0,0,0,0,0-.02.05-.05.08-.09.1-.04.05-.06.09-.07.14,0,0,0,0,0,0,0,0,0,0,0,0,0,0,0,0,0,0,0,.02,0,.04,0,.06.04,0,.09-.05.11-.08h0s.02-.06.05-.07c0,0,0,0,0,0,0,0,0,0,0,0-.03.01-.04.04-.05.06,0,.03,0,.06,0,.09,0,0,0,0,0,0,.02-.02.05-.03.08-.04.01.07-.02.09.04.15,0-.01.02-.03.03-.04,0,0,0,0,.01-.01h0c.06-.06.1-.09.03-.02h0s-.02.01-.02.02c0,0,0,0,0,.04.02,0,.03,0,.05,0,0,.04,0,.04.04.04,0-.03,0-.05.01-.08,0,0,0,0,0,0,0,.03,0,.04,0,.08h0s.03.04.05.05c.01-.02.02-.05.02-.07,0,0,0,0,0,0,0,.08,0,.02-.02.09,0,.01,0,.03,0,.04,0-.02.02-.04.04-.05,0,0,0,0,0,0-.02.03-.02.04-.04.06,0,0,0,.01.01.02-.05.08-.1.2-.2.24-.05.02-.07.05-.08.1-.02.02-.03.03-.04.05-.03.01-.06.03-.1.03,0,.02,0,.03.03.03.04-.02.05-.03.06-.02.02.02-.05.06-.04.07.05.08.32,0,.24-.1-.06,0-.05-.05,0-.03.02,0,.02,0,.03-.03.05-.02.07-.04.08-.09.03-.03.15-.17.14-.21.01-.02.02-.05.02-.07,0,0,0,0,0,0,0,0,0,0,0,0,0,.02,0,.05-.01.07,0,0,0,.01.01.01.04-.03.08-.06.13-.08,0-.06.09,0,.03-.1-.01-.03,0-.04.03-.06.02-.02.02-.06.02-.08h0c-.02-.06,0-.06,0,0,.06-.03.06-.06.03-.12,0,0-.04.02-.05.02,0,0,0,0,0,0,.09-.04.12-.06.04-.1h0c-.08-.07-.09-.09,0-.01,0-.05,0-.08-.02-.12h0s-.05-.04-.05-.07c0,0,0,0,0,0,0,0,0,0,0,0,0,.06.07.09.12.06.02-.01-.01-.04-.03-.11,0,0,0,0,0,0,0,0,0,0-.01-.01,0,0,0,0-.02-.01,0,0,0,0,0,0,.01,0,.02.02.03.03,0,0,0,0,0,0,.03,0,.04-.02.06-.04-.02-.02-.04-.04-.07-.06,0,0,0,0,0,0,0,0,0,0,0,0,.03.02.05.04.07.06,0,0,0,0,0,0,.03,0,.03,0,.04-.03,0-.03-.03-.05-.04-.07,0,0,0,0,0,0,.02.02.04.04.04.07.06,0,.05-.03.03-.09h0s0,0-.03-.02c0,0,0,0,0,0,0,0,0,0,0,0,0,0,.01,0,.02.01,0,0,0,0,.01,0,0,0,0,0,0,0,.02-.01.02-.03.03-.05,0-.03,0-.02.04-.02.04,0,.05,0,.08-.05.07-.04-.02-.1-.1-.03,0,0,0,.01.01.02,0,0,0,0,0,0,0,0,0,0,0,0,0,0,0,0,0-.01-.03,0-.06,0-.1.01,0,0,0,0,0,0,.01.02.02.04.03.06,0,0,0,0,0,0s0,0,0,0c0-.03-.01-.05-.03-.07h0s-.05-.02-.08-.01c0,0,0-.01.03.03,0,0,0,0,0,0,0,0,0,0-.03-.03-.05,0-.07.02-.12.03.02.02.04.04.05.09,0,0,0,0,0,0-.03-.07-.01-.03-.05-.09-.01,0-.03,0-.04,0l.02.03s0,0,0,0c0,0,0,0,0,0l-.02-.03s-.03,0-.04-.01c.02.06.01.07.01.13,0-.06,0-.08-.02-.13-.03-.02-.02-.03-.06-.05,0,.02,0,.04-.02.06,0,0,0,0,0,0,0,0,0,0,0,0,.01-.02.02-.04.01-.06-.03-.01-.05-.02-.08-.02.02.02.03.05.04.07.01.01.02.02.02.03,0,.01,0,.03,0,.04,0,0,0,0,0,0,0-.03,0-.06-.03-.07,0,0,0,0,0,0-.01-.03-.03-.05-.05-.08h0s-.02,0-.03,0c0,0,0,0,0,0,0,0,0,.01,0,.02,0,0,0,0,0,0,0,0,0,0,0,0,0,0,0-.01,0-.02,0,0,0,0,0-.01-.02,0-.04,0-.06,0,.07.08.06.11.08.19-.02-.08-.03-.12-.09-.19-.02,0-.02,0-.05,0,0,0,.01,0,.02.01,0,0,.01.01.02.02,0,0,0,0,0,0-.03-.02-.01-.01-.02-.02,0,0-.01-.01-.02-.02,0,0-.03.01-.04.01.06.04.03.03.08.09-.03-.04-.05-.06-.09-.09-.02,0-.03,0-.05,0,.02.04.04.09.04.14,0,0,0,0,0,0-.02-.06-.02-.08-.05-.14-.01,0-.02,0-.03,0,.02.06.01.05.03.14-.03-.11-.02-.09-.04-.14-.03-.03-.07-.06-.11-.08.02.03.03.06.03.09,0,0,0,0,0,0,0,0,0,0,0,0,0-.04-.01-.07-.04-.1-.03,0-.08-.01-.11-.01.02.02.04.04.04.06,0,0,0,0,0,0s0,0,0,0c0-.02-.02-.04-.04-.06-.02,0-.03,0-.05,0,.02.02.03.04.04.06h0s.02.07.05.08c0,0,0,0,0,0,0,0,0,0,0,0-.07-.03-.03-.09-.1-.15h-.05c.03.1.02.21.02.15,0-.06,0-.09-.03-.15h0s-.02-.03-.04-.04c0,0,0,0,0,0-.01.03-.01.02-.01.02,0,0,0,0,0,0,0,0,0-.01,0-.01,0,0,0,0,0,0,0,0,0,0,0,0,0-.04-.02-.05-.05-.06,0,.02,0,.05-.02.07,0,0,0,0,0,0,0,0,0,0,0,0,0-.01.02-.03.02-.07,0,0,0,0,0,0,0-.05-.02-.08-.07-.1,0,.02,0,.04,0,.05,0,0,0,0,0,0,0-.03,0-.04,0-.07-.01-.01-.03-.02-.04-.04,0,.07-.01.07-.05.12.03-.06.04-.08.04-.13,0,0-.01-.01-.01-.02h0s0,.01,0,.02c0,0,0,0,0,0,0,0,0,0,0,0,0,0,0,0,0-.01,0,0,0,0,0-.01,0,0,0,0,0,0,0-.02,0-.03-.02-.04h0s-.01.03-.02.04c0,0,0,0,0,0,.02-.05.01-.03.02-.05,0,0,0-.01-.01-.02,0,0,0,0,0,.01,0,0,0,.01-.02.01,0,0,0,0,0,0,0,0,0,0,0,0,.01-.01.03-.03.02-.04,0-.02,0-.04-.02-.06h0s-.04.01-.06.03c0,0,0,0,0,0,0,0,0,0,0,0,.02-.01.05-.03.07-.03,0,0,0-.01,0-.02-.05.02-.11.03-.15.01,0,0,0,0,0,0,.06,0,.05.02.15-.02h0s.01-.03.02-.05c-.01,0-.03,0-.04,0-.01,0,0,0,0,0,0,0,0,0,0,0h0s.03,0,.04,0c0,0,0-.01,0-.01.01-.09.04.08.14.01-.03,0-.03-.02,0,0h0s.08-.01.11-.04c-.12,0-.07-.01-.13-.02.06.01.08.01.14.01,0,0,0,0,0,0,.01,0,.03-.01.04-.02-.06,0-.11-.02-.16-.04-.04-.04-.11-.03-.16,0,0,0-.01-.01-.02-.02-.01,0,0,0-.09-.01,0,0,0,0,0,0,.13.02.1.01.1.01.06-.02.21-.05.28-.05.01-.06.07-.08-.04-.15-.06,0-.08-.02-.17.01.07.02.09.12.08.12-.04,0,.04-.05-.1-.11-.05,0-.13.01-.16.04.08-.02.14.07.11.08,0,0,0,0-.01,0,0-.03-.02-.04-.04-.05-.11-.05-.17.09-.2.07-.02-.01.07-.08.11-.09.04-.04.13-.05.19-.06-.05-.09-.14-.04-.22.02h.01s.04,0,.04.01c0,0-.06,0-.07,0,0,0,0,0,0,0-.05.03-.08.06-.12.09h0c-.05,0-.09,0-.08.06,0,.02-.01.04-.02.06-.14.12-.07.09-.13.16,0,0,.01,0,.02,0,0,0,0,0,0,0,0-.02,0-.03.02-.06,0,0,0,0,0,0,0,0,0,0,0,0,0,0,0,.02-.01.03-.02.09,0,.02-.04.02-.04.04-.08.07,0,.07.05,0,0,.03.04.06.01,0,.03.02.03.03.02,0,.03,0,.04,0,0-.03,0-.05.01-.05h0s0,0,0-.01c0,0,0-.01.01-.02,0,0,0,0,0,0,0,0,0,0,0,0,0,0,0,.01-.01.02,0,0,0,0,0,.01,0,0,0,.02,0,.03.03-.01.05-.02.08-.02.05-.06.08-.05.03,0-.01.02-.02.04-.02.06-.01.01-.08.07-.05.09.07,0-.06.11.02.09,0,0,0,0,0,0,.08-.07.06-.06.11-.12.04-.13.02-.07.05-.12.03.04.05.04.08,0,0,0,0,0,0,0,0,0,0,0,0,0-.03.04-.06.04-.09,0-.01.03-.03.07-.04.11.02.01-.08.11-.09.12,0,.01,0,.03.01.04.1-.08.21-.23.12-.11,0,0,0,0,0,0,0,.06-.01.02,0,.08,0,0,0,0,0,0,0,0,0,0,0,0,0-.02,0-.04,0-.06,0,0,0,0,0-.01-.04.04-.05.05-.1.1h0s0,0,0,0c-.03.02-.05.03-.02.05.07-.06.11-.06,0,0,0,.01,0,.02,0,.03h0s.04-.03.07-.05c0,0,0,0,0,0,0,0,0,0,0,0-.02.01-.04.03-.06.05,0,0,0,0,0,0-.02.01-.09.06-.09.09.08-.03,0,.02.11-.06,0,0,0,0,0,0-.02.02-.03.03-.05.04,0,0,0,0,0,.01,0,.02,0,0,0,.01,0,0,0,0,0,0h0s-.03,0-.05,0c0,.03,0,.05-.03.08-.05.04-.09.08-.03.09h0Z"/>
    <path class="cls-7" d="M31.65,9.39s-.02.01-.04.01h0s.02-.03.03-.05c0,0,0,.01,0,.02v.02h0Z"/>
    <path class="cls-7" d="M31.73,9.79c.06-.06.04-.04.07-.07-.05.06-.01.05-.07.07Z"/>
    <path class="cls-7" d="M31.91,9.61s0,0-.02.03c0,0,0,0,0,0,0,0,0-.02.02-.02,0,0,0,0,0,0,0,0,0,0,0,0h0Z"/>
    <path class="cls-7" d="M31.86,9.6s-.03.05-.05.06c0,0,0,0,0,0,0,0,0,0,0,0,.03-.01.04-.03.05-.06,0,0,0,0,0,0,0,0,0,0,0,0Z"/>
    <path class="cls-7" d="M31.96,9.47s-.01.02-.02.03c0,0,0,0,0,0,0,0,0,0,0,0,0-.01.01-.03.02-.04,0,0,0,0,0,0,0,0,0,0,0,0h0Z"/>
    <path class="cls-7" d="M32.02,9.55s0,0,0,0c.05-.15.04-.06,0,0Z"/>
    <path class="cls-7" d="M32.01,8.99s.03.08.03.12c0-.01,0-.03.01-.04h0s.03-.06.02-.09c0,0,0,0,0,0,0,0,0,0,0,0,0,.03,0,.07-.02.1-.05.2,0,.04-.05-.08Z"/>
    <path class="cls-7" d="M31.94,9.07s0,0,0,0c0,0,0,0,0,.01,0,0,0,0,0,0,0,0,0,0,0,0,0,0,0,0,0,0,0-.02,0-.01,0-.01,0,0,0,0,0,0Z"/>
    <path class="cls-7" d="M31.94,9.29s0,0,0,0c0,0,.02-.02.03-.02,0,0,0,0,0,0,0,0,0,0,0,0-.02.01-.03.03-.04.05-.02-.1-.03-.13-.03-.13,0,0,0,0,0,0,.02.07.02.05.03.11Z"/>
    <path class="cls-7" d="M32.01,9.22s.01.07,0,.1c0,0,0,0,0,0,0-.07,0-.02,0-.1,0,0,0,0,0,0Z"/>
    <path class="cls-7" d="M32.09,9.21c.02.1-.04.1,0,.19,0,0,0,0,0,0,0,0,0,0,0,0-.01-.03-.02-.07-.01-.1h0s.01-.06,0-.08c0,0,0,0,0,0,0,0,0,0,0,0h0Z"/>
    <path class="cls-7" d="M32.13,9.08s0,.02-.01.05c0,0,0,0,0,0,0-.05,0-.02,0-.05,0,0,0,0,0,0,0,0,0,0,0,0h0Z"/>
    <path class="cls-7" d="M32.09,8.87s0,.01,0,.02c0,0,0,0,0,0,0,0,0,0,0,0,0,0,0-.01,0-.02,0,0,0,0,0,0,0,0,0,0,0,0h0Z"/>
    <path class="cls-7" d="M32.11,8.71s0,.02,0,.06c-.02.02-.03.05-.02.08,0,0,0,0,0,0,0,0,0,0,0,0,0-.03,0-.07.02-.09,0-.01,0-.05,0-.06,0,0,0,0,0,0s0,0,0,0h0Z"/>
    <path class="cls-7" d="M31.95,8.65s.09.07.08.13c0,0,0,0,0,0-.01,0-.03-.01-.04-.02.01.09,0,.19-.08.22.01-.12,0-.05,0-.15,0,.06.02.07,0,.13.03-.01.05-.04.06-.07.05-.14-.05-.18.05-.13,0-.06-.02-.07-.08-.12,0,0,0,0,0,0h0Z"/>
    <path class="cls-7" d="M32.37,8.57s0,0,0,0c0,.02,0,0,0,.01,0,0,0,0,0,0,0,0,0,0,0,0,0-.02,0,0,0-.01,0,0,0,0,0,0Z"/>
    <path class="cls-7" d="M32.27,8.57s.03.02.03.03c0,0,0,0,0,0,0,0,0,0,0,0,0-.01-.02-.02-.03-.03,0,0,0,0,0,0,0,0,0,0,0,0h0Z"/>
    <path class="cls-7" d="M32.12,8.61s.03.06.02.09c0,0,0,0,0,0,0-.07,0-.03-.02-.1,0,0,0,0,0,0h0Z"/>
    <path class="cls-7" d="M31.63,8.66s0,.01,0,.02c0,.03,0,.02,0,.02,0,0,0,0,0,0,0,0,0-.01,0-.02,0-.03,0-.02,0-.02,0,0,0,0,0,0h0Z"/>
    <path class="cls-7" d="M31.73,8.63s0,.01,0,.01c0,0,0,0,0,0,0,0,0-.02,0-.03,0,0,0,0,0,0,.01.03,0,.02.01.03Z"/>
    <path class="cls-7" d="M31.91,8.74s0,0,0,.01c0,.02,0,.01,0,.01,0,0,0,0,0,0,0-.02,0-.01,0-.02,0,0,0,0,0,0,0,0,0,0,0,0h0Z"/>
    <path class="cls-7" d="M31.97,8.59s0,0,0,.01c0,0,0,0,0,.01,0,0,0,0,0,0,0,0,0,0,0,0,0,0,0,0,0,0,0,0,0,0,0,0,0,0,0,0,0,0,0,0,0,0,0,0h0Z"/>
    <path class="cls-7" d="M31.53,8.61s0,.04.02.05h0s.02.04.02.07c0,0,0,0,0,0,0,0,0,0,0,0,0-.02,0-.04-.02-.06h0s-.02-.04-.02-.06c0,0,0,0,0,0s0,0,0,0h0Z"/>
    <path class="cls-7" d="M31.71,8.74c.06.11-.05.14.08.23-.04-.13.01-.11.05-.22,0,0,0,0,0,0,0,.01,0,.02,0,.04-.02.06-.07.07-.03.19,0,0,0,0,0,0-.13-.09-.04-.14-.09-.24,0,0,0,0,0,0,0,0,0,0,0,0h0Z"/>
    <path class="cls-7" d="M31.64,8.85s-.02.08-.05.11c0,0,.01,0,.02,0,.04-.02.06-.04.08-.07,0,0,0,0,0,0,0,0,0,0,0,0-.01.02-.03.04-.05.05,0,0,0,0,0,.01,0,0,0,0,0,.01,0,0,0,0,0,0,0,0,0,0,0,0t0-.02s-.04.02-.07.03c0,0,0,0,0,0,.02-.02.03-.04.04-.06,0-.02.01-.04.01-.06,0,0,0,0,0,0s0,0,0,0Z"/>
    <path class="cls-7" d="M31.55,8.84s0,.04,0,0c0,0,0,0,0,0s0,0,0,0Z"/>
    <path class="cls-7" d="M31.49,8.73c.05.13-.05.14-.08.24.02-.03.1-.06.15-.12,0,0,0,0,0,0-.06.06-.03.04-.1.08-.03,0-.05.03-.07.06,0,0,0,0,0,0,.02-.12.08-.1.09-.19,0-.02,0-.05-.01-.08,0,0,0,0,0,0,0,0,0,0,0,0h0Z"/>
    <path class="cls-7" d="M31.67,9.02s.06.02.03.18c-.04-.07-.01-.05-.1-.13.06.04.08.05.1.11.01-.09,0-.06-.02-.12-.01-.02-.02-.03-.02-.04,0,0,0,0,0,0,0,0,0,0,0,0h0Z"/>
    <path class="cls-7" d="M31.75,9.02s0,0,0,.01c.02.02,0,.01,0,.02,0,0,0,0,0,0,0,0,0,0,0-.01-.02-.02,0-.01,0-.02,0,0,0,0,0,0Z"/>
    <path class="cls-7" d="M31.81,9.16s0,0,0,0c0,0,0,0,0,0,.04-.16.06-.16,0,0Z"/>
    <path class="cls-7" d="M31.89,9.36s0,.01,0,.01c0,0,0,0,0,0,0,0,0,0,0,0,0,0,0-.01,0-.02,0,0,0,0,0,0,0,0,0,0,0,0h0Z"/>
    <path class="cls-7" d="M31.84,9.27s0,0-.02.06c0-.05,0-.06.01-.07,0,0,0,0,0,0,0,0,0,0,0,0Z"/>
    <path class="cls-7" d="M31.76,9.27h0s0,.01,0,.01c0,0,0,0,0,0h0s0-.01,0-.01c0,0,0,0,0,0Z"/>
    <path class="cls-7" d="M31.66,9.22s0,.03-.01.03c0,0,0,0,0,0,0,0,0,0,0,0,0,0,0-.03.01-.03,0,0,0,0,0,0,0,0,0,0,0,0h0Z"/>
    <path class="cls-7" d="M31.53,9.37s-.01.02-.02.04c0,0,0,0,0,0,0,0,0,0,0,0,0-.01,0-.03.02-.04,0,0,0,0,0,0,0,0,0,0,0,0h0Z"/>
    <path class="cls-7" d="M31.14,9.75s0,0,0,.01c0,0,0,0-.01.01,0,0,0,0,0,0,0,0,0,0,0,0,0,0,0,0,.01-.01,0,0,0,0,0-.01,0,0,0,0,0,0,0,0,0,0,0,0h0Z"/>
    <path class="cls-7" d="M31.2,9.71s0,0,0,.01c0,0,0,0-.01,0,0,0,0,0,0,0,0,0,0,0,0,0,0,0,0,0,.01,0,.01-.02.01,0,.01-.01,0,0,0,0,0,0h0Z"/>
    <path class="cls-7" d="M31.28,9.66s0,0,0,0c-.02.01-.01,0-.01,0,0,0,0,0,0,0,.01-.01.01-.01.01-.01,0,0,0,0,0,0,0,0,0,0,0,0h0Z"/>
    <path class="cls-7" d="M31.4,9.35s0,.04,0,.07c0,0,0,0,0,0,0,0,0,0,0,0,0-.02,0-.05,0-.07,0,0,0,0,0,0,0,0,0,0,0,0h0Z"/>
    <path class="cls-7" d="M31.49,8.51s-.01.04-.03.05c0,0,0,0,0,0,.01-.02.02-.04.02-.05,0,0,0,0,0,0s0,0,0,0Z"/>
    <path class="cls-7" d="M31.4,8.44s.02.05.02.08c0,0,0,0,0,0,0-.03,0-.05-.02-.08,0,0,0,0,0,0,0,0,0,0,0,0Z"/>
    <path class="cls-7" d="M31.29,8.57s-.05-.04-.04-.07c0,0,0,0,0,0,0,0,0,0,0,0,0,.03.02.05.04.06,0,0,0,0,0,0,0,0,0,0,0,0h0Z"/>
    <path class="cls-7" d="M31.41,8.78h0s0,.02,0,.02c0,0,0,0,0,0h0s0-.02,0-.02c0,0,0,0,0,0Z"/>
    <path class="cls-7" d="M31.26,8.63s.05.09.05.15h0s.04-.07.04-.1h0s.02-.06.03-.09c0,0,0,0,0,0,.03.04.05.09.06.14,0,0,0,0,0,0,0,0,0,0,0,0,0-.04-.02-.09-.05-.12,0,.03,0,.05-.02.08,0,.04,0,.09-.04.11h0s0,.02,0,.03c0,0,0,0,0,0,0,0,0,0,0,0,.01-.11-.02-.12-.04-.18h0Z"/>
    <path class="cls-7" d="M31.33,9.09s0-.03.01-.07c0,0,0,.01-.01.07Z"/>
    <path class="cls-7" d="M31.17,9.1s0,.02,0,.03c0,0,0,0,0,0,0,0,0,0,0,0,0,0,0-.02,0-.03,0,0,0,0,0,0,0,0,0,0,0,0h0Z"/>
    <path class="cls-7" d="M31.32,8.89s-.02.07-.04.09h0s-.03.06-.02.11c0,0,0,0,0,0,0,0,0,0,0,0-.03-.12.05-.09.06-.2,0,0,0,0,0,0,0,0,0,0,0,0h0Z"/>
    <path class="cls-7" d="M31.28,8.83s-.01.07-.04.09h0c-.09.08-.07.16.02-.05,0-.01,0-.03,0-.04,0,0,0,0,0,0,0,0,0,0,0,0h0Z"/>
    <path class="cls-7" d="M31.02,9.07s0,0,0,0c.05-.06.07-.08.07-.15,0,0,0,0,0,0,0,0,0,0,0,0,0,.05,0,.09-.07.15Z"/>
    <path class="cls-7" d="M30.84,9.06s.01.03.01.03c0,0,0,0,0,0-.03-.04-.02-.02-.02-.03,0,0,0,0,0,0,0,0,0,0,0,0h0Z"/>
    <path class="cls-7" d="M30.77,9.17h0s.02.05.02.07c.03-.03.04-.06.04-.09,0,0,0,0,0,0s0,0,0,0c0,.02,0,.04-.01.05-.05.11-.03.03-.06-.03-.03-.03-.03-.07-.03-.11,0,0,0,0,0,0s0,0,0,0c0,.06-.01.05.03.11Z"/>
    <path class="cls-7" d="M30.75,9.4s0-.05.01-.06c0,0,0,0,0,0,0,0,0,0,0,0,0,.01-.01.05-.02.06,0,0,0,0,0,0h0Z"/>
    <path class="cls-7" d="M30.75,9.46s0,0,0,0c0,.05,0,.03,0,.04,0,0,0,0,0,0,0-.04,0-.03,0-.04Z"/>
    <path class="cls-7" d="M30.68,9.66s.03-.03.03-.05c0,0,0,0,0,0,0,0,0,0,0,0-.01.02-.02.04-.04.05,0,0,0,0,0,0,0,0,0,0,0,0h0Z"/>
    <path class="cls-7" d="M30.58,9.13v.02s0,0,0,0c0,0,0,0,0,0,0-.03,0-.02,0-.02,0,0,0,0,0,0Z"/>
    <path class="cls-7" d="M30.42,9.49s0,0,0-.01c0-.02,0-.01,0-.02,0,0,0,0,0,0h0s0,.03,0,.03c0,0,0,0,0,0h0Z"/>
    <path class="cls-7" d="M30.82,8.84c-.04.15.01.1.05.19,0,0,0,0,0,0,0-.02,0-.05,0-.07,0,0,0,0,0,0,0,.03,0,.05,0,.08,0,0,0,0,0,0,0,0,0,0,0-.01-.03-.07-.09-.05-.05-.19,0,0,0,0,0,0,0,0,0,0,0,0h0Z"/>
    <path class="cls-7" d="M30.79,8.74c.01.12-.08.16-.01.29,0,0,0,0,0,0,0,0,0,0,0,0-.06-.11,0-.16.02-.29,0,0,0,0,0,0Z"/>
    <path class="cls-7" d="M30.61,9s0,.05.01.08c0,0,0,0,0,0,0,0,0,0,0,0-.02-.03-.03-.06-.01-.08,0,0,0,0,0,0,0,0,0,0,0,0h0Z"/>
    <path class="cls-7" d="M30.53,8.97s0,.03,0,.05h0s0,.03,0,.04c0,0,0,0,0,0-.03-.07-.01,0,0-.1,0,0,0,0,0,0h0Z"/>
    <path class="cls-7" d="M31,8.27s0,.08.03.12c0,0,0,0,0,0,0,0,0,0,0,0-.02-.04-.03-.08-.03-.12,0,0,0,0,0,0,0,0,0,0,0,0h0Z"/>
    <path class="cls-7" d="M30.98,8.47s0,0,0,0c-.03-.12-.01-.05-.04-.15.03.06.04.07.05.14Z"/>
    <path class="cls-7" d="M30.65,8.34c-.05.08-.05.12-.03.17h0s.01.09,0,.13c0,0,0,0,0,0,.03-.19-.07-.17.03-.32,0,0,0,0,0,0,0,0,0,0,0,0h0Z"/>
    <path class="cls-7" d="M30.92,8.22s0,.05-.03.07c-.03.02-.03.06-.02.1,0,0,0,0,0,0,0,0,0,0,0,0-.02-.11.07-.09.05-.17,0,0,0,0,0,0,0,0,0,0,0,0h0Z"/>
    <path class="cls-7" d="M30.63,8.25s0,.07-.03.1h0s-.04.07-.04.11c0,0,0,0,0,0s0,0,0,0c0-.12.09-.12.07-.21,0,0,0,0,0,0,0,0,0,0,0,0h0Z"/>
    <path class="cls-7" d="M30.8,8.25s0,.03,0,.04c0,0,0,0,0,0,0,0,0,0,0,0,0-.01-.01-.03,0-.04,0,0,0,0,0,0,0,0,0,0,0,0h0Z"/>
    <path class="cls-7" d="M30.79,8.21s-.05.05-.05.09h0s0,0,0,0c.02.03.02.06.02.09,0,0,0,0,0,0s0,0,0,0c0-.03,0-.06-.02-.09-.09.08-.03.16-.01.22-.05-.08-.06-.16.01-.23.01-.06,0-.08.05-.1,0,0,0,0,0,0,0,0,0,0,0,0h0Z"/>
    <path class="cls-7" d="M30.74,8.15h0c0,.09-.03.04-.04.12,0,0,0,0,0,0,0,0,0,0,0,0,.01-.08.04-.04.04-.11,0-.02,0-.01,0-.01,0,0,0,0,0,0h0Z"/>
    <path class="cls-7" d="M31.2,8.64s.02.04.01.07c0,0,0,0,0,0s0,0,0,0c0-.03,0-.04-.01-.06,0,0,0,0,0,0,0,0,0,0,0,0Z"/>
    <path class="cls-7" d="M31.2,8.79c.02.09-.08.23-.03.1h0c.03-.06.02-.05.02-.11,0,0,0,0,0,0Z"/>
    <path class="cls-7" d="M31.11,8.65c.05.06.07.13.05.2,0-.08,0-.13-.06-.2,0,0,0,0,0,0,0,0,0,0,0,0h0Z"/>
    <path class="cls-7" d="M31.1,8.82s-.04.07-.07.11h0c-.09.1,0,.11-.07,0h0c-.06-.1.03-.13.03-.23,0,0,0,0,0,0,0,.06,0,.05-.02.1h0s-.03.08,0,.13h0s.02.04.02.06c0-.02.02-.04.04-.06h0s.05-.07.07-.11c0,0,0,0,0,0,0,0,0,0,0,0h0Z"/>
    <path class="cls-7" d="M30.85,8.74c0,.06,0,.06.03.12,0,0,0,0,0,0-.02-.04-.03-.07-.03-.12,0,0,0,0,0,0,0,0,0,0,0,0h0Z"/>
    <path class="cls-7" d="M30.71,8.82h0s0,.03,0,.03c0,0,0,0,0,0h0s0-.03,0-.03c0,0,0,0,0,0Z"/>
    <path class="cls-7" d="M30.75,8.69s-.01.06-.03.08c0,0,0,0,0,0,0,0,0,0,0,0,.02-.02.03-.05.03-.07,0,0,0,0,0,0,0,0,0,0,0,0h0Z"/>
    <path class="cls-7" d="M30.62,8.94c-.1-.24.08-.19.07-.35,0,0,0,0,0,0,0,0,0,0,0,0,.02.16-.16.12-.07.35,0,0,0,0,0,0,0,0,0,0,0,0h0Z"/>
    <path class="cls-7" d="M30.55,8.85s0,.04,0,.06c0,0,0,0,0,0,0,0,0,0,0,0-.01-.02-.02-.04,0-.06,0,0,0,0,0,0,0,0,0,0,0,0h0Z"/>
    <path class="cls-7" d="M30.91,8.59s.03.09,0,.14c0,0,0,0,0,0,.03-.13.01-.06,0-.14h0Z"/>
    <path class="cls-7" d="M31.03,8.5s.02.09,0,.13c0,0,0,0,0,0,0-.05-.02-.08-.05-.1,0,0,0,0,0,0,0,0,0,0,0,0,.03.02.04.05.05.08,0-.04,0-.07-.01-.11,0,0,0,0,0,0,0,0,0,0,0,0h0Z"/>
    <path class="cls-7" d="M31.1,8.4c.08.07.01.16.05.22,0,0,0,0,0,0,0,0,0,0,0,0-.01-.02-.02-.05-.01-.08h0c0-.1-.01-.08-.04-.14,0,0,0,0,0,0h0Z"/>
    <path class="cls-7" d="M30.89,8.48s0,0,0,0c0-.05,0-.08.02-.1,0,0,0,0,0,0-.03.07-.02.03-.02.1Z"/>
    <path class="cls-7" d="M30.56,8.62c0,.07-.04.11-.09.14,0,0,0,0,0,0,.1-.09.06-.06.1-.14h0Z"/>
    <path class="cls-7" d="M30.56,8.5s0,.05-.02.08c0,0,0,0,0,0,0-.03.02-.05.01-.08,0,0,0,0,0,0,0,0,0,0,0,0h0Z"/>
    <path class="cls-7" d="M30.79,8.48s0-.02,0,.08c0,0,0,0,0,0h0s0,0,0,0c0,0,0,0,0,0,0-.02,0-.06,0-.08,0,0,0,0,0,0,0,0,0,0,0,0h0s0,0,0,0Z"/>
    <path class="cls-7" d="M30.85,8.38s-.03.08,0,.12c.06.1-.03.25,0,.19,0-.06.05-.11,0-.19h0s-.02-.09.01-.13c0,0,0,0,0,0,0,0,0,0,0,0h0Z"/>
    <path class="cls-8" d="M30.39,7.63s-.03-.02-.05-.02c-.01-.02-.02-.03-.04-.05t0-.02s.02,0,.02-.01c.02,0,.03,0,.04.01,0,0,0,0,0,0,0,0,0,0,0,0-.01-.02-.03-.02-.05-.02h0s-.02,0-.03,0c-.01-.01-.02-.02-.02-.04h0s.02,0,.02,0c0,0,.01,0,.02.01,0,0,0,0,0,0,0,0,0,0,0,0,0-.01-.03-.02-.04-.02.11-.02.2.01.24.07,0,0-.01,0-.02.01-.07,0-.09,0-.1.07Z"/>
    <path class="cls-7" d="M30.48,7.72c.06-.04.11-.05.17-.02.08,0,.11,0,0,0h0s-.11.08-.16.04c0,0,0,0,0,0,.06,0,.06.04.15-.03-.08-.03-.1,0-.16.02,0,0,0,0,0,0h0Z"/>
    <path class="cls-7" d="M30.59,7.72s-.04.03-.04,0c0-.01.04-.03.04,0Z"/>
    <path class="cls-7" d="M30.71,7.83s.05-.03.06-.05c0,0,0,0,0,0,0,0,0,0,0,0-.02.02-.03.04-.06.05,0,0,0,0,0,0,0,0,0,0,0,0h0Z"/>
    <path class="cls-7" d="M31.01,7.71s.03,0,.05.01c0,0,0,0,0,0-.03-.01-.02-.01-.05-.01,0,0,0,0,0,0h0Z"/>
    <path class="cls-7" d="M30.84,7.71s.05-.05.08-.04c0,0,0,0,0,0,0,0,0,0,0,0-.03,0-.06,0-.07.04,0,0,0,0,0,0,0,0,0,0,0,0Z"/>
    <path class="cls-7" d="M30.86,7.74s.01-.03.03-.03c0,0,0,0,0,0,0,0,0,0,0,0-.01,0-.02,0-.02,0,0,0,0,0,0,.01,0,0,0,0,0,0,0,0,0,0,0,0h0Z"/>
    <path class="cls-7" d="M30.57,7.84s-.02.03-.02.05c0,0,0,0,0,0,0,0,0,0,0,0,0-.02,0-.03.02-.05,0,0,0,0,0,0,0,0,0,0,0,0h0Z"/>
    <path class="cls-7" d="M30.65,7.89s0,0,0,0c0,0,0,0,0,0,0-.03,0-.01,0-.02,0,0,0,.01,0,.02Z"/>
    <path class="cls-7" d="M30.6,7.78s.03,0,.05,0c0,0,0,0,0,0,0,0,0,0,0,0-.03,0-.04,0-.05,0,0,0,0,0,0,0,0,0,0,0,0,0h0Z"/>
    <path class="cls-7" d="M30.65,7.63s-.01,0-.02,0c0,0,0,0-.01.01,0,0,0,0,0,0,0,0,0,0,0,0,0-.02.02-.03.04-.03,0,0,0,0,0,0,0,0,0,0,0,0h0Z"/>
    <path class="cls-7" d="M30.57,7.64s-.01,0-.01,0h0s-.01.01-.01.01c0,0,0,0,0,0,0,0,0,0,0-.01h0s.01,0,.02,0c0,0,0,0,0,0,0,0,0,0,0,0Z"/>
    <path class="cls-7" d="M30.49,7.67s0,0,0,0c0-.01.01-.02.03-.03,0,0,0,0,0,0-.02.02,0,.01-.03.04Z"/>
    <path class="cls-7" d="M30.45,7.69s-.02.02-.03.03c0,0,0,0,0,0,0,0,0,0,0,0,.01-.02.01-.02.03-.03,0,0,0,0,0,0,0,0,0,0,0,0h0Z"/>
    <path class="cls-7" d="M30.45,7.77s-.02.02-.03.03c0,0,0,0,0,0,0,0,0,0,0,0,.01-.01.01-.01.03-.03,0,0,0,0,0,0,0,0,0,0,0,0Z"/>
    <path class="cls-7" d="M30.38,7.79s0,0,0,0c0,.05,0,.04,0,0Z"/>
    <path class="cls-7" d="M30.47,7.94s0,0,0,0c0,0,0,0,0,0,0,0,0,0,0,0,0-.01,0-.03,0-.04,0,0,0,0,0,0,0,.05,0,.03,0,.05Z"/>
    <path class="cls-7" d="M30.42,7.89s0,0,0,0c0,0,0,0,0,0,0-.04,0-.04,0,0Z"/>
    <path class="cls-7" d="M30.37,7.5s.03.02.04.04c0,0,0,0,0,0,0,0,0,0,0,0,0-.02-.02-.03-.03-.03,0,0,0,0,0,0,0,0,0,0,0,0h0Z"/>
    <path class="cls-7" d="M30.79,8.04s.02.07,0,.11c0,0,0,0,0,0,0-.06.02-.05,0-.11,0,0,0,0,0,0,0,0,0,0,0,0Z"/>
    <path class="cls-7" d="M30.66,8.2c.03-.09.11-.11.08-.22,0,0,0,0,0,0,0,0,0,0,0,0,.02.11-.05.12-.08.22,0,0,0,0,0,0,0,0,0,0,0,0h0Z"/>
    <path class="cls-7" d="M30.48,8.16s.02-.03.03-.04c0,0,0,0,0,0,0,0,0,0,0,0-.02,0-.03.02-.03.03,0,0,0,0,0,0,0,0,0,0,0,0h0Z"/>
    <path class="cls-7" d="M30.45,8.14s.03-.03.05-.04c0,0,0,0,0,0-.03.02.02-.01-.05.04,0,0,0,0,0,0h0Z"/>
    <path class="cls-7" d="M30.63,7.96s.03,0,.04,0c0,0,0,0,0,0,0,0,0,0,0,0-.02,0-.03,0-.05,0,0,0,0,0,0,0,0,0,0,0,0,0h0Z"/>
    <path class="cls-7" d="M30.54,7.95s0,0,0,0h0s0,0,0,0c0,0,0,0,0,0h0s0,0,0,0c0,0,0,0,0,0,0,0,0,0,0,0h0Z"/>
    <path class="cls-7" d="M32.5,8.52s0,0,.01.01c0,0,0,.01,0,.02,0,0,0,0,0,0,0,0,0,0,0,0,0,0,0,0,0-.01-.02-.02,0-.02,0-.02,0,0,0,0,0,0Z"/>
    <g>
      <path class="cls-6" d="M33.32,9.71s.06-.01.09,0c.03-.01.05-.01.09-.01.01,0,.03-.01.05-.02.02-.01,0-.02-.01-.05-.05-.03-.07-.07-.09-.12-.03,0-.04-.02-.05-.03-.1-.01-.08.01-.14-.04-.05-.02-.11-.12-.05-.11.05,0,.06-.02.13-.01.03,0,.04-.02.07-.04v-.03s.07,0,.09.03c.04,0,.07.03.09.06.07,0,.14.03.06.09h0s.03.04.03.05c.03.01.06.03.09.05.08,0,.21.05.39.16.12.02.23.05.34.1.18,0,.38-.06.62.13.21.03.94.24.7.33-.02.05-.07.05-.15.03-.05,0-.11-.03-.16-.07-.14-.05-.29-.2-.37-.16,0,0,0,0,0,.01.02.01.03.04.03.07,0,.06-.03.16.14.19.02,0,.05.13.06.16,0,.01.01.02.03.03.05.03.02.07-.02.08-.05.04-.13.1-.16.05-.02,0-.03,0-.04-.02-.04-.03,0-.08.08-.05,0-.01,0-.01.02-.01,0-.02,0-.05,0-.07-.04-.03-.27-.16-.31-.18-.06,0-.1-.03-.15-.05-.02,0-.04,0-.06,0-.02,0-.03.03-.19.03-.06.01-.1,0-.13.02-.02.03-.06.01-.08,0-.02,0-.04-.01-.04-.02-.04-.01-.05-.02-.05-.03-.05-.01-.03-.05,0-.05.04,0,.07,0,.11.01.09.02.08-.03.14-.06-.06,0-.11-.01-.15-.04-.23-.14-.2.05-.43-.03-.05.01-.1.02-.15,0-.06.03-.07.03-.15-.02-.03,0-.04-.01-.04-.02-.03,0-.04-.02-.04-.03-.03-.04.04-.08.13-.01.02,0,.03,0,.05,0,.01-.02.04-.02.08-.02.02-.01.04-.02.06-.02,0,0,0,0,0-.01-.03,0-.05-.03-.07-.06-.05,0-.09-.02-.13-.04-.03,0-.05,0-.08-.02-.02,0-.04,0-.06,0-.04.01-.08.01-.11,0-.02,0-.04,0-.06,0-.03.03-.05.03-.08.02-.02-.03-.09-.05-.1-.07-.03-.02-.02-.03,0-.04.04-.02.07.01.12.01h0Z"/>
      <path class="cls-5" d="M34.59,10.1s0-.02-.03,0c-.06,0-.13,0-.18-.03-.05-.03-.11-.06-.17-.06.09-.09.38-.02.42.06h0s.04.04.06.06c-.04,0-.08,0-.12-.02h0Z"/>
    </g>
    <path class="cls-9" d="M31.53,9.91s-.01.02-.02.03c-.03.01-.06.03-.1.03,0,.02,0,.03.03.03.04-.02.05-.03.06-.02,0,0,0,.04-.04.06-.09.07.35.05.23-.09-.03,0-.05-.01-.04-.02-.04-.01-.08-.01-.12-.01Z"/>
    <path class="cls-9" d="M30.3,9.53s-.05.04-.08.05c-.08.03-.04.05-.01.04.04-.03.05-.01.01.02-.03.08.29.07.2-.03,0,0,0-.01,0-.02h-.05s-.03-.02-.03-.02l-.03-.03Z"/>
    <path class="cls-9" d="M31.11,9.81s0,0,0,0c-.02.02.03.01.05.03.1.06-.2.12-.2.01.02,0,.09,0,.07-.03,0,0,0,0-.01,0-.02.01-.05.01-.08.01h0s-.01,0,0-.01c0,0,.01,0,.02,0,.02,0,.04-.01.06-.02,0,0,0,0,0,0,.04,0,.07,0,.1.02h0Z"/>
    <path class="cls-9" d="M30.53,9.77s-.01.01-.02.02c-.06.06-.11.04-.05.08.01.01.03-.01.05-.03.01-.02.03-.01.02,0,0,.02-.02.04-.02.05-.02.06.2.02.16-.09h0c-.06,0-.03,0-.09-.03,0,0,0,0,0,0h-.05s0-.01,0-.01Z"/>
    <path class="cls-7" d="M30.32,9.54s.04.03.06.03c0,0,0,0,0,0,0,0,0,0,0,0-.03,0-.05-.01-.07-.03,0,0,0,0,0,0,0,0,0,0,0,0h0Z"/>
    <path class="cls-9" d="M30.83,7.64c.06-.02.21-.05.28-.05.01-.06.07-.08-.04-.15-.06,0-.08-.02-.17.01.06.02.1.12.08.12-.04,0,.03-.05-.1-.11-.05,0-.12.01-.16.04.08-.02.14.07.11.08,0,0,0,0-.01,0-.03-.1-.15-.07-.22.02,0,0,0,0,0,0,.06,0,.12,0,.17.03.06,0,.03,0,.07.01ZM30.57,7.6c.06-.05.05-.07.11-.09.04-.04.13-.05.19-.06-.05-.09-.14-.04-.22.02h.01s.04,0,.04.01c0,0-.06,0-.07,0,0,0,0,0,0,0-.04.03-.07.05-.1.08.02,0,.04.02.06.03Z"/>
  </g>
</svg>