<?xml version="1.0" encoding="UTF-8"?>
<svg id="Capa_1" data-name="Capa 1" xmlns="http://www.w3.org/2000/svg" viewBox="0 0 56 38">
  <defs>
    <style>
      .cls-1 {
        fill: none;
      }

      .cls-2, .cls-3 {
        fill: #fff;
      }

      .cls-2, .cls-4 {
        fill-rule: evenodd;
      }

      .cls-5 {
        fill: #da0d1b;
      }

      .cls-6 {
        fill: #000100;
      }

      .cls-7, .cls-4 {
        fill: #cc9a03;
      }
    </style>
  </defs>
  <g>
    <rect class="cls-3" x="-1.25" y="-.5" width="58.5" height="39"/>
    <rect class="cls-6" x="-1.25" y="25.5" width="58.5" height="13"/>
    <rect class="cls-5" x="-1.25" y="-.5" width="58.5" height="13"/>
  </g>
  <g>
    <path class="cls-2" d="M28.03,19.17l4.36,4.05-.31-7.36c-.05-1.12-1.02-.86-1.72-.46-.71.46-1.53.46-2.39.16-.86.3-1.67.3-2.38-.16-.7-.4-1.67-.66-1.72.46l-.31,7.36,4.47-4.05Z"/>
    <path class="cls-7" d="M28.03,19.23c-4.38,3.96-4.51,4.16-4.51,3.99l.31-7.36c.04-1.04.88-1,1.78-.49,1.14.73,2.29.12,2.38.15.91.32,1.7.27,2.35-.15.9-.51,1.74-.55,1.78.49l.31,7.34s0,0,0,.01c0,.02-.02.04-.04.04-.45-.37-1.06-.97-4.37-4.04ZM23.92,15.87l-.31,7.26c4.61-4.16,4.39-4.04,4.45-3.99l4.29,3.98-.31-7.26c-.02-.51-.24-.76-.64-.76-1.04,0-1.45,1.19-3.42.5-.93.32-1.73.27-2.41-.16-.83-.47-1.62-.55-1.66.42Z"/>
    <path class="cls-4" d="M29.25,16.84l.15,3.55.41.4-.16-3.9c-.1,0-.36,0-.4-.05Z"/>
    <polygon class="cls-4" points="28.18 19.98 28.79 22.77 28.59 22.97 28.38 22.81 28.03 20.33 28.18 22.81 27.98 23.07 27.78 22.81 27.92 20.33 27.58 22.81 27.37 22.97 27.17 22.77 27.78 19.98 28.18 19.98"/>
    <path class="cls-7" d="M27.98,23.13l-.24-.3c.02-.38.1-1.73.1-1.65l-.23,1.65-.25.18-.24-.24c.02-.08.64-2.92.62-2.83h.46c.15.67.65,2.98.62,2.83l-.23.24-.25-.18-.23-1.65.1,1.65-.24.3ZM27.81,22.8l.17.21.17-.21-.15-2.47h.07s.35,2.46.35,2.46l.18.13.17-.17-.6-2.74h-.35l-.6,2.74.17.17.17-.13.35-2.47h.07s-.15,2.48-.15,2.48Z"/>
    <path class="cls-4" d="M24.38,15.61l-.3,7.15-.51.46.31-7.36c.15-.1.4-.26.5-.26Z"/>
    <path class="cls-4" d="M24.73,22.11l-.51.52.31-6.91c.1.1.4.35.46.4-.15,3.55-.11,2.5-.26,5.98Z"/>
    <path class="cls-4" d="M25.55,16.58l-.2,4.99-.41.4.26-5.7c.1.1.3.25.36.3Z"/>
    <path class="cls-4" d="M26.15,16.84l-.2,4.25-.4.33.2-4.74c.1.05.3.15.4.15Z"/>
    <path class="cls-4" d="M26.71,16.84l-.15,3.55-.41.4.16-3.9c.1,0,.36,0,.4-.05Z"/>
    <path class="cls-4" d="M31.58,15.61l.3,7.15.51.46-.31-7.36c-.15-.1-.4-.26-.5-.26Z"/>
    <path class="cls-4" d="M31.22,22.11l.51.52-.31-6.91c-.1.1-.4.35-.46.4.15,3.55.11,2.5.26,5.98Z"/>
    <path class="cls-4" d="M30.41,16.58l.2,4.99.41.4-.26-5.7c-.1.1-.3.25-.36.3Z"/>
    <path class="cls-4" d="M29.81,16.84l.2,4.25.4.33-.2-4.74c-.1.05-.3.15-.4.15Z"/>
    <polygon class="cls-2" points="26.61 18.76 25.39 23.07 27.06 23.33 27.78 20.08 26.61 18.76"/>
    <path class="cls-7" d="M27.06,23.36h0c-1.59-.27-1.73-.21-1.7-.3,1.22-4.31,1.2-4.42,1.28-4.33l1.17,1.32s.01.02,0,.03c-.76,3.41-.69,3.27-.75,3.27ZM25.44,23.04l1.6.24.7-3.19-1.11-1.26-1.18,4.2Z"/>
    <polygon class="cls-2" points="29.35 18.76 30.57 23.07 28.89 23.33 28.18 20.08 29.35 18.76"/>
    <path class="cls-7" d="M28.89,23.36c-.06,0,.01.14-.75-3.27,0-.01,0-.03,0-.03,1.05-1.18,1.2-1.43,1.23-1.31l1.22,4.31s0,.02,0,.03c0,0-.01.02-.03.02-.42.07-1.76.27-1.68.26ZM28.22,20.09l.7,3.19,1.59-.24-1.18-4.2-1.11,1.26Z"/>
    <path class="cls-2" d="M30.87,22.97c-.1,0-.25.05-.3.1l.3-.1Z"/>
    <path class="cls-2" d="M30.37,23.12c-.06,0-.26.05-.36.1l.36-.1Z"/>
    <path class="cls-2" d="M28.54,23.33c.1,0,.3,0,.36.05l-.36-.05Z"/>
    <path class="cls-2" d="M29.09,23.33c.05-.05.26-.05.36,0h-.36Z"/>
    <path class="cls-2" d="M28.76,16.03s-.06-.23-.06-.23c.11.11.54.14.54.14-.26-.11-.51-.96-.48-1.64.03-.68-.1-.95-.2-1.05-.13-.13-.54-.24-.81-.25-.15,0-.13.12-.13.12-.28-.07-.56-.1-.69-.02-.12.08-.15.48-.06.41.21-.17.4-.02.52.17.11.16.11.62-.06,1.16-.17.56-.63,1.13-.63,1.13.25,0,.61-.23.61-.23l-.09.35c.27-.13.48-.32.48-.32l.25.27c.08-.11.26-.27.26-.27,0,0,.21.23.54.25Z"/>
    <path class="cls-7" d="M27.18,16.17l.08-.34c-.42.24-.57.17-.63.19.27-.33.56-.78.68-1.18.17-.56.16-.99.06-1.13-.28-.4-.45-.15-.51-.15-.13,0-.07-.41.05-.49.12-.08.36-.08.68,0,.02-.07.08-.1.15-.1h.01c.28.02.7.13.83.27.11.11.24.39.21,1.08-.03.69.24,1.5.46,1.6l-.02.07s-.29-.02-.46-.09c.04.12.03.14.02.15v.02s-.04,0-.04,0c-.27-.02-.47-.18-.54-.24-.19.18-.2.21-.25.27l-.26-.27c-.28.24-.48.31-.54.34ZM27.38,15.67l-.09.36c.17-.09.32-.21.42-.31l.25.26c.08-.09.17-.18.26-.26.2.2.41.25.5.27,0-.04-.04-.11-.06-.17l.06-.04c.06.06.24.1.38.12-.23-.26-.42-.99-.39-1.59.03-.7-.1-.94-.19-1.02-.12-.12-.52-.23-.78-.24h-.01s-.05,0-.07.02c-.01.02,0,.05,0,.05v.06s-.53-.15-.71-.04c-.07.05-.11.25-.09.34.2-.16.41-.03.56.19.18.26.12,1.28-.64,2.26.22-.04.46-.19.58-.26Z"/>
    <path class="cls-7" d="M27.35,15.78l-.06-.05c.26-.28.4-1.31.4-1.32h.08c0,.05-.15,1.07-.42,1.38Z"/>
    <path class="cls-7" d="M27.75,15.8l-.07-.04c.18-.33.23-1.37.23-1.38h.08s-.06,1.08-.24,1.42Z"/>
    <path class="cls-7" d="M28.19,15.79c-.07-.2-.07-1.32-.07-1.37h.08c0,.32.01,1.19.07,1.34l-.08.03Z"/>
    <path class="cls-7" d="M28.67,15.83c-.24-.36-.3-1.31-.31-1.35h.08s.06.96.29,1.3l-.07.05Z"/>
    <path class="cls-4" d="M27.48,13.9c-.01-.09-.03-.16-.07-.21-.13-.19-.31-.34-.52-.17,0,0,.07-.23.23-.23.12,0,.39.09.63.5,0,0-.18-.04-.22,0-.08.07-.05.12-.05.12Z"/>
    <path class="cls-7" d="M27.46,13.91s-.01-.02,0-.04c-.01-.07-.03-.13-.06-.17-.17-.24-.34-.3-.51-.17l-.03.02c.07-.2.16-.27.25-.28h.01c.15,0,.41.13.63.51v.02c-.11-.03-.25-.06-.27.06,0,.01,0,.02,0,.03h-.02ZM27.47,13.82c.05-.08.12-.08.25-.05-.32-.53-.67-.47-.61-.47-.11,0-.18.13-.2.19.24-.16.51.1.57.34Z"/>
    <path class="cls-4" d="M26.86,13.24c.02-.06.04-.11.08-.13.13-.08.41-.06.69.02,0,0-.02-.12.13-.12.27.01.68.13.81.25.03.03.06.08.09.15h0c-.1-.14-.54-.06-.62,0-.03.02-.05.11-.09.11-.07,0-.06-.02-.08-.04-.02-.03-.03-.07-.06-.07-.07.01-.18-.04-.32-.15-.14-.11-.2-.14-.38-.13-.18.01-.24.12-.24.12h0Z"/>
    <path class="cls-7" d="M27.94,13.53c-.06,0-.07,0-.11-.07,0-.01-.02-.03-.03-.03-.1.02-.25-.09-.33-.16-.16-.12-.2-.13-.37-.12-.17.01-.23.11-.23.11h-.02s0-.02,0-.02c.04-.12.09-.19.33-.19.12,0,.27.02.44.06,0-.07.04-.12.14-.11.28.02.69.13.81.26.06.07.08.11.11.17h-.03c-.08-.12-.35-.07-.48-.05-.08.02-.12.03-.15.08-.02.03-.04.07-.07.07ZM27.8,13.41s.04.05.07.07c0,0,0,0,.01.01,0,.01.01.02.06.02.02,0,.04-.03.05-.06.04-.06.05-.07.16-.09.14-.03.36-.07.47.02-.02-.04-.04-.07-.07-.1-.2-.2-.87-.26-.81-.25-.04,0-.07.01-.09.03-.02.03-.02.07-.02.07v.02c-.23-.05-.66-.16-.76.06.08-.07.18-.08.28-.08.13,0,.2.04.32.13.07.05.24.18.31.15h0Z"/>
    <path class="cls-2" d="M27.98,13.33c0-.1-.15-.1-.15,0s.15.1.15,0Z"/>
    <g>
      <polygon class="cls-1" points="26.17 23.15 26.55 23.21 26.45 22.83 26.17 23.15"/>
      <polygon class="cls-1" points="29.25 19.2 29.53 19.5 29.35 18.83 28.76 19.49 29.09 19.85 29.25 19.2"/>
      <polygon class="cls-1" points="27.13 22.89 27.17 22.7 27.13 22.74 26.97 22.08 26.52 22.59 26.35 21.93 25.9 22.43 25.77 21.9 25.47 22.96 25.88 22.51 26.03 23.13 26.07 23.14 26.5 22.66 26.63 23.22 26.74 23.24 27.12 22.82 27.13 22.89"/>
      <polygon class="cls-1" points="30.02 23.12 30.47 23.05 30.13 22.68 30.02 23.12"/>
      <polygon class="cls-1" points="29.42 23.21 29.8 23.15 29.51 22.83 29.42 23.21"/>
      <polygon class="cls-1" points="27.07 22.99 26.84 23.25 27.05 23.28 27.09 23.07 27.07 22.99"/>
      <polygon class="cls-1" points="26.88 19.85 27.21 19.49 26.62 18.83 26.44 19.5 26.72 19.2 26.88 19.85"/>
      <polygon class="cls-1" points="27.58 19.91 27.43 19.74 27.49 20.01 27.58 19.91"/>
      <polygon class="cls-1" points="26.46 21.51 26.92 21.01 27.08 21.67 27.5 21.2 27.54 21.02 27.39 20.42 26.94 20.93 26.77 20.27 26.32 20.77 26.21 20.33 25.95 21.23 26.3 20.85 26.46 21.51"/>
      <polygon class="cls-1" points="26.4 21.76 26.56 22.42 27.01 21.91 27.18 22.57 27.21 22.54 27.46 21.36 27.03 21.83 26.87 21.18 26.42 21.68 26.26 21.02 25.91 21.4 25.81 21.74 25.94 22.26 26.4 21.76"/>
      <polygon class="cls-1" points="25.5 23.05 25.95 23.12 25.84 22.68 25.5 23.05"/>
      <polygon class="cls-1" points="26.81 20.1 26.98 20.76 27.43 20.26 27.57 20.84 27.74 20.09 27.64 19.97 27.45 20.18 27.31 19.61 27.26 19.55 26.83 20.02 26.67 19.36 26.39 19.68 26.25 20.17 26.36 20.61 26.81 20.1"/>
      <polygon class="cls-1" points="28.95 21.91 29.41 22.42 29.57 21.76 30.03 22.26 30.16 21.74 30.06 21.4 29.71 21.02 29.55 21.68 29.1 21.18 28.94 21.83 28.51 21.36 28.76 22.54 28.79 22.57 28.95 21.91"/>
      <polygon class="cls-1" points="29.23 23.24 29.34 23.22 29.47 22.66 29.9 23.14 29.94 23.13 30.09 22.51 30.49 22.96 30.2 21.9 30.07 22.43 29.61 21.93 29.45 22.59 29 22.08 28.83 22.74 28.8 22.7 28.84 22.89 28.85 22.82 29.23 23.24"/>
      <polygon class="cls-1" points="28.99 20.76 29.15 20.1 29.61 20.61 29.72 20.17 29.58 19.68 29.3 19.36 29.13 20.02 28.71 19.55 28.66 19.61 28.52 20.18 28.33 19.97 28.23 20.09 28.39 20.84 28.54 20.26 28.99 20.76"/>
      <polygon class="cls-1" points="29.05 21.01 29.51 21.51 29.67 20.85 30.01 21.23 29.76 20.33 29.65 20.77 29.2 20.27 29.03 20.93 28.58 20.42 28.43 21.02 28.47 21.2 28.89 21.67 29.05 21.01"/>
      <polygon class="cls-1" points="28.54 19.74 28.39 19.91 28.48 20.01 28.54 19.74"/>
      <polygon class="cls-1" points="28.9 22.99 28.88 23.07 28.92 23.28 29.13 23.25 28.9 22.99"/>
      <polygon class="cls-7" points="29.03 20.93 29.2 20.27 29.65 20.77 29.76 20.33 29.72 20.17 29.61 20.61 29.15 20.1 28.99 20.76 28.54 20.26 28.39 20.84 28.43 21.02 28.58 20.42 29.03 20.93"/>
      <polygon class="cls-7" points="29.1 21.18 29.55 21.68 29.71 21.02 30.06 21.4 30.01 21.23 29.67 20.85 29.51 21.51 29.05 21.01 28.89 21.67 28.47 21.2 28.51 21.36 28.94 21.83 29.1 21.18"/>
      <polygon class="cls-7" points="29.3 19.36 29.58 19.68 29.53 19.5 29.25 19.2 29.09 19.85 28.76 19.49 28.71 19.55 29.13 20.02 29.3 19.36"/>
      <polygon class="cls-7" points="28.66 19.61 28.54 19.74 28.48 20.01 28.39 19.91 28.33 19.97 28.52 20.18 28.66 19.61"/>
      <polygon class="cls-7" points="29 22.08 29.45 22.59 29.61 21.93 30.07 22.43 30.2 21.9 30.16 21.74 30.03 22.26 29.57 21.76 29.41 22.42 28.95 21.91 28.79 22.57 28.76 22.54 28.8 22.7 28.83 22.74 29 22.08"/>
      <polygon class="cls-7" points="29.34 23.22 29.42 23.21 29.51 22.83 29.8 23.15 29.9 23.14 29.47 22.66 29.34 23.22"/>
      <polygon class="cls-7" points="29.13 23.25 29.23 23.24 28.85 22.82 28.84 22.89 28.88 23.07 28.9 22.99 29.13 23.25"/>
      <polygon class="cls-7" points="29.94 23.13 30.02 23.12 30.13 22.68 30.47 23.05 30.52 23.04 30.49 22.96 30.09 22.51 29.94 23.13"/>
      <polygon class="cls-7" points="26.77 20.27 26.94 20.93 27.39 20.42 27.54 21.02 27.57 20.84 27.43 20.26 26.98 20.76 26.81 20.1 26.36 20.61 26.25 20.17 26.21 20.33 26.32 20.77 26.77 20.27"/>
      <polygon class="cls-7" points="26.42 21.68 26.87 21.18 27.03 21.83 27.46 21.36 27.5 21.2 27.08 21.67 26.92 21.01 26.46 21.51 26.3 20.85 25.95 21.23 25.91 21.4 26.26 21.02 26.42 21.68"/>
      <polygon class="cls-7" points="26.83 20.02 27.26 19.55 27.21 19.49 26.88 19.85 26.72 19.2 26.44 19.5 26.39 19.68 26.67 19.36 26.83 20.02"/>
      <polygon class="cls-7" points="27.64 19.97 27.58 19.91 27.49 20.01 27.43 19.74 27.31 19.61 27.45 20.18 27.64 19.97"/>
      <polygon class="cls-7" points="26.35 21.93 26.52 22.59 26.97 22.08 27.13 22.74 27.17 22.7 27.21 22.54 27.18 22.57 27.01 21.91 26.56 22.42 26.4 21.76 25.94 22.26 25.81 21.74 25.77 21.9 25.9 22.43 26.35 21.93"/>
      <polygon class="cls-7" points="27.09 23.07 27.13 22.89 27.12 22.82 26.74 23.24 26.84 23.25 27.07 22.99 27.09 23.07"/>
      <polygon class="cls-7" points="26.07 23.14 26.17 23.15 26.45 22.83 26.55 23.21 26.63 23.22 26.5 22.66 26.07 23.14"/>
      <polygon class="cls-7" points="25.47 22.96 25.45 23.04 25.5 23.05 25.84 22.68 25.95 23.12 26.03 23.13 25.88 22.51 25.47 22.96"/>
    </g>
    <path class="cls-2" d="M27.98,25c1.27,0,2.49-.1,3.2-.3.3-.05.3-.21.3-.41.3-.1.15-.46.36-.46-.21.05-.26-.36-.51-.3,0-.36-.36-.4-.66-.3-1.08.36-4.48.29-5.37,0-.3-.1-.66-.05-.66.3-.26-.05-.3.36-.51.3.21,0,.05.36.36.46,0,.2,0,.36.31.41.7.2,1.92.3,3.19.3Z"/>
    <path class="cls-7" d="M27.98,25.07c-1.36,0-2.53-.11-3.21-.3-.34-.06-.36-.24-.37-.43-.23-.11-.2-.39-.26-.43-.15,0-.12-.18.02-.15.04,0,.08-.06.13-.12.06-.08.14-.18.27-.2.05-.35.42-.4.75-.29.49.16,1.28.19,2.12.22,2.83.11,3.1-.27,3.5-.27.26,0,.43.13.46.34.13.01.21.11.27.2.04.06.09.11.13.12.14-.03.17.14.02.15-.06.04-.02.31-.26.43,0,.19-.03.37-.36.43-.68.19-1.85.3-3.21.3ZM24.3,23.86c.06.13.03.29.21.35.15.05-.11.34.3.41.66.19,1.85.3,3.18.3s2.51-.11,3.18-.3c.4-.07.15-.36.3-.41.18-.06.14-.23.21-.35-.13-.1-.19-.29-.32-.26-.04.01-.09-.03-.09-.07,0-.29-.3-.32-.56-.23-.8.27-2.4.26-3.26.23-2.52-.09-1.95-.27-2.41-.27-.14,0-.31.05-.31.27,0,.02,0,.04-.03.06-.07.06-.09-.08-.27.15-.03.04-.07.09-.12.13Z"/>
    <path class="cls-2" d="M26.25,23.07c.41.05.87.1,1.22.05.2,0,.35.35-.06.4-.66.08-1.75-.12-2.38-.3-.36-.16-.1-.46.1-.41.31.1.71.2,1.12.26h0Z"/>
    <path class="cls-7" d="M25.03,23.26c-.4-.17-.13-.55.12-.49,1.42.46,2.49.3,2.33.31.13,0,.24.1.24.23.04.58-2.14.11-2.69-.05ZM25.05,23.19c.47.13,2.62.58,2.58.13,0-.08-.08-.15-.16-.15-.63.08-1.69-.1-2.35-.31-.19-.03-.36.21-.07.33Z"/>
    <path class="cls-2" d="M28.49,23.12c-.21,0-.36.35.05.4.66.08,1.75-.12,2.38-.3.36-.16.1-.46-.1-.41-.89.29-1.89.37-2.33.31Z"/>
    <path class="cls-7" d="M28.24,23.31c0-.13.12-.23.25-.23.37.05.84,0,1.21-.05.68-.09,1.08-.26,1.16-.26.26,0,.43.34.07.49-.52.15-2.73.63-2.7.05ZM28.49,23.17c-.09,0-.16.08-.16.15-.03.45,2.11,0,2.59-.13.3-.13.07-.37-.08-.33-.64.21-1.71.39-2.34.31Z"/>
    <path class="cls-2" d="M24.99,22.87c-.31-.05-.46.3-.36.5.05-.1.26-.1.3-.2.05-.16-.05-.16.05-.3Z"/>
    <path class="cls-7" d="M24.63,23.41s-.03,0-.04-.02c-.12-.24.07-.62.4-.56.03,0,.04.04.03.06-.05.07-.04.09-.04.13.05.3-.27.26-.32.37,0,.01-.02.02-.04.02h0ZM24.92,22.9c-.2,0-.31.21-.27.39.13-.1.29-.06.26-.26,0-.04,0-.08.02-.13Z"/>
    <path class="cls-2" d="M26.21,23.8c0-.2.2-.18.2-.38,0-.1-.05-.26-.16-.26s-.2.1-.2.2c-.05.2.16.23.16.43Z"/>
    <path class="cls-7" d="M26.17,23.8c0-.19-.21-.21-.15-.44,0-.11.12-.23.24-.23s.19.17.19.3c0,.21-.2.21-.2.38,0,.02-.08.05-.08,0ZM26.25,23.21c-.08,0-.16.08-.16.16-.03.14.06.18.12.29.07-.09.16-.11.16-.23,0-.09-.05-.21-.11-.21Z"/>
    <path class="cls-2" d="M27.65,23.23c.3,0,.27.4.13.6,0-.15-.26-.2-.26-.3,0-.16.23-.16.13-.3Z"/>
    <path class="cls-7" d="M27.78,23.87s0,0-.01,0c-.02,0-.03-.02-.03-.04,0-.12-.25-.17-.25-.3,0-.09.06-.14.1-.17.11-.09,0-.09.03-.15,0-.01.02-.02.04-.02.32,0,.34.42.16.67,0,.01-.02.02-.03.02ZM27.72,23.27c.02.13-.16.14-.16.25,0,.02.05.06.09.09.05.03.1.07.13.12.08-.16.1-.41-.07-.46Z"/>
    <path class="cls-2" d="M30.97,22.87c.31-.05.46.3.36.5-.05-.1-.26-.1-.3-.2-.05-.16.05-.16-.05-.3Z"/>
    <path class="cls-7" d="M31.32,23.41h0s-.03,0-.04-.02c-.02-.03-.07-.06-.13-.08-.13-.05-.22-.1-.19-.29,0-.04.01-.06-.04-.13-.02-.02,0-.06.03-.06.34-.06.52.32.4.56,0,.01-.02.02-.04.02ZM31.04,22.9c.03.05.02.09.01.13-.03.21.13.16.26.26.04-.18-.08-.39-.27-.39Z"/>
    <path class="cls-2" d="M29.75,23.8c0-.2-.2-.18-.2-.38,0-.1.05-.26.16-.26s.2.1.2.2c.04.2-.16.23-.16.43Z"/>
    <path class="cls-7" d="M29.71,23.8c0-.17-.2-.16-.2-.38,0-.12.07-.3.2-.3s.24.12.24.24c.05.21-.16.25-.16.43,0,.05-.08.05-.08,0ZM29.71,23.21c-.07,0-.11.13-.11.21,0,.13.09.14.16.23.06-.11.15-.15.12-.28,0-.09-.08-.17-.16-.17Z"/>
    <path class="cls-2" d="M28.31,23.23c-.3,0-.27.4-.12.6,0-.15.26-.2.26-.3,0-.16-.23-.16-.13-.3Z"/>
    <path class="cls-7" d="M28.18,23.87c-.07,0-.22-.34-.11-.55.09-.17.33-.16.27-.07-.03.05-.02.06.03.1.32.25-.15.33-.15.48,0,.02-.01.03-.03.04h-.01ZM28.24,23.27c-.17.05-.15.3-.07.46.11-.16.35-.16.15-.32-.04-.03-.09-.07-.08-.14Z"/>
    <path class="cls-7" d="M25.39,23.1c-.06-.02-.37-.12-.31-.1-.03-.01-.02-.05,0-.05.1,0,.33.06.33.13,0,.02-.01.03-.03.03h0Z"/>
    <path class="cls-7" d="M25.95,23.25c-.06-.02-.42-.12-.36-.1-.01,0-.02-.02-.02-.03,0-.07.33.04.39.08.03,0,.03.06,0,.06h0Z"/>
    <path class="cls-7" d="M27.06,23.4s-.04-.03-.02-.05c.06-.05.22-.05.37-.05.04,0,.04.05,0,.06l-.36.05h0Z"/>
    <path class="cls-7" d="M26.87,23.35h-.36s-.03,0-.03-.02c-.02-.1.44-.1.41,0,0,0-.01.02-.03.02Z"/>
    <path class="cls-7" d="M30.57,23.1s-.02,0-.02-.01c-.04-.06.2-.14.33-.14.03,0,.04.04,0,.05l-.3.1s0,0,0,0Z"/>
    <path class="cls-7" d="M30.01,23.25s-.02,0-.03-.02c-.03-.06.32-.14.38-.14.01,0,.03.01.03.02,0,.01,0,.03-.02.03l-.36.1s0,0,0,0Z"/>
    <path class="cls-7" d="M28.53,23.35s-.03-.06,0-.06c.15,0,.31,0,.37.05.03.01.02.05-.01.05-.07,0-.42-.05-.36-.05Z"/>
    <path class="cls-7" d="M29.45,23.35c-.06,0-.42,0-.36,0-.01,0-.02,0-.03-.02-.04-.11.41-.1.41-.01,0,.02-.01.03-.03.03Z"/>
    <path class="cls-4" d="M27.87,24.71s-.01,0-.03-.02c-.03-.01-.05-.03-.07-.05,0-.02-.02-.05-.02-.07,0,0,0-.01-.01-.01-.03,0-.11-.02-.17-.02-.16,0-.29-.03-.32,0,0,0-.03.05-.04.06-.01.01-.02.03-.02.03,0,0,0,0,0,0,0,0-.01,0-.02,0-.01.01-.04.03-.05.03,0,0-.01,0-.02.01-.02.01-.14.01-.16,0-.03-.02-.07,0-.06-.03,0-.01.02-.02.08-.02.03,0,.04,0,.06-.01.02-.01.07-.04.07-.05,0,0,0,0,.01-.01,0,0,.01-.01.01-.02.01-.06.04-.03,0-.12-.02-.05-.03-.07-.05-.08-.04-.04,0-.04.04-.11.02-.03.04-.03.06,0,.02.03.04.09.04.1,0,0,0,.01,0,.02,0,0,0,.02.01.03,0,.02.01.03.05.03.04,0,.04,0,.05-.05,0-.02,0-.04,0-.04,0,0,0,0,0-.01,0-.01-.02-.08-.03-.08,0,0,0-.03,0-.05.02-.03.09-.06.12-.04.03.02,0,.08.03.1,0,0,.02.01.03.01.06.02.02.01.12.02.15,0,.2.01.21.01.03,0,.15,0,.17.02h.01v.07c0,.07,0,.08.04.08.03,0,.03,0,.04-.04,0-.01,0-.03,0-.03,0,0,0-.01.01-.02,0-.02.04-.05.06-.06,0,0,.01,0,.02-.01.01-.02.09-.02.11-.04.01-.01.05-.02.06,0,.01.01.01.02.02.09,0,.03,0,.05,0,.06,0,0,0,.04,0,.07v.06s-.01.02-.01.02l-.02.02h-.15c-.09,0-.16,0-.17,0-.02,0-.02.01-.02.05,0,.01,0,.02,0,.03,0,0,0,.01-.01.02,0,.01-.04.03-.05.04,0,0-.02,0-.02,0-.01,0-.05.03-.05.03,0,0,0,0,0,0ZM27.91,24.56s.01,0,.01-.09v-.09h-.01s-.02-.02-.1-.03c-.05,0-.1,0-.11,0-.01,0-.02,0-.04,0-.02,0-.03,0-.05,0-.07-.01-.12,0-.14.03,0,.01,0,.01,0,.03.01.02.03.02.05.02.01,0,.04,0,.08,0,.03,0,.08,0,.11,0,.03,0,.07,0,.09,0,.03,0,.04,0,.05,0h.01s0,.05,0,.05c0,.04,0,.04,0,.05.01.01.03.02.04.02,0,0,0,0,.01,0ZM28.28,24.43s.01,0,.01-.01c0,0,0-.02,0-.03,0-.02,0-.02-.02-.02s-.03.01-.05.03c0,0-.02.03-.01.04.01.01.04.02.07,0ZM28.68,24.67s-.02-.02-.02-.04c0-.02,0-.02.02-.04.03-.03.04-.03.09,0,.05.02.06.03.07,0,0-.02.03-.03.06-.03.02,0,.03,0,.04.01.02.01.02.01.02.04s0,.03-.02.05c-.02.02-.02.02-.04.01-.03,0-.04-.02-.05-.04,0-.02,0-.02-.01,0,0,0,0,0-.02.01-.01,0-.03.02-.05.03,0,0-.02,0-.03,0-.02,0-.03,0-.04-.02ZM29.12,24.65h-.01s0-.02,0-.02c0,0,.02-.01.03-.02.03-.01.06-.02.08-.05.02-.01.03-.03.03-.03,0,0,0-.01.01-.02.01-.01.01-.02.01-.06,0-.05,0-.06-.02-.08-.03-.04-.11-.05-.08-.09.04-.05.06-.16.1-.11.03.04.03.07.05.08.03.03.03.06.05.09,0,.01.01.03.01.04,0,.01,0,.03,0,.04.01.03,0,.12,0,.14,0,.01-.01.02-.01.02,0,0-.01,0-.02.02-.01.02-.07.05-.08.05,0,0-.01,0-.02.01,0,0-.01.01-.07.01-.05,0-.06,0-.07,0ZM29.5,24.6s0-.03,0-.03c0,0,.01,0,.02,0,0,0,.02,0,.02,0,0,0,.02,0,.03-.01.05,0,.09-.04.09-.08,0-.01,0-.02,0-.02,0,0-.09,0-.13,0-.01,0-.02,0-.03-.01h-.01s0-.15,0-.15l.02-.02s.03-.03.03-.04c.02-.03.07-.07.11-.08.02,0,.01-.01.04-.02.03,0,.05.1.06.13,0,.01,0,.03,0,.03,0,0,.07.01.08,0,0,0,0-.02,0-.05,0-.11.08-.19.13-.2.01,0,.02-.01.02-.03,0-.07-.11-.04-.02-.14.02-.02.04-.06.07-.05.03.01.05.12.05.15,0,.04,0,.04.05.05.02,0,.11.03.11.05,0,0,0,0,0,0,0,0,.03.03.05.07.03.04.02.04.06.04.03,0,.04,0,.05-.01,0,0,0-.02,0-.03,0-.03.05-.07.07-.08.04-.04.05-.03.1-.01.04.01.05.02.06.04.03.03.08.04.1.03,0,0,.01,0,.02,0,0,0,0,0,0,0,0,0-.02-.06-.03-.07,0,0,0-.02,0-.04-.01-.07-.02-.05-.03-.12,0-.04-.02-.12-.02-.12,0-.08-.1-.13-.13-.1,0,0-.01,0-.02,0,0,0-.04.03-.04.03,0,0,0,0-.01,0-.03,0-.04-.04-.07-.06-.03-.02-.02-.05,0-.05.02,0,0-.01.03-.02.01,0,.04,0,.06-.01.05-.01.15-.01.17,0,0,0,.02.01.03.01.02,0,.08.06.08.1.01.06.02,0,.03.16,0,.02.04.17.04.18,0,0,0,.01,0,.02,0,.02.05.05.08.05.03,0,.06-.02.09-.04.01-.01.03-.02.04-.03.01,0,.03,0,.04.02.02.04.08.05.07.08,0,0,0,0-.01,0-.11.04-.47.13-.41.12-.03,0-.04,0-.04.02,0,.02-.05.07-.08.08-.02.01-.03.01-.08.01-.03,0-.06,0-.07,0,0,0-.01,0-.01-.02,0,0,0-.02-.02-.02-.02,0-.03,0-.07,0h-.02c-.02.14.02.09-.09.19-.02.02-.04.02-.05,0-.01-.02-.04,0-.1-.04-.03-.02-.04-.07-.05-.09-.02-.02-.12,0-.15,0-.07,0-.05.01-.09.02-.03,0-.04.01-.04.05,0,.01,0,.03,0,.03s0,.01-.01.02c0,.02-.04.06-.07.07-.01,0-.03.01-.04.02-.01,0-.03,0-.07.01-.03,0-.06,0-.06,0ZM30.24,24.38s.02-.03,0-.04c-.04-.03-.12.02-.07.04.02,0,.06,0,.07,0ZM29.63,24.33s.02-.02.02-.04c0-.03-.04-.04-.06-.01,0,0-.01.02-.01.02,0,0,0,0,0,0,0,0,0,0,0,.02,0,0,0,.01.01.01,0,0,.04,0,.05,0ZM30.01,24.22s0-.03-.02-.04c-.02-.01-.03-.01-.05,0-.01.01-.02.02-.02.04,0,.04,0,.04.04.04.03,0,.04,0,.04-.05ZM30.18,24.24c.07-.03-.05-.13-.08-.08t0,.03s0,.03,0,.03c0,0,.03.03.04.03,0,0,.02,0,.03-.01ZM30.56,24.24s.04-.03.03-.05c-.03-.06-.14,0-.08.05.01,0,.02.01.02.01,0,0,.02,0,.03,0ZM26.54,24.6s-.01,0-.01,0c0,0-.05-.03-.05-.03,0,0,0,0,0-.01,0-.02-.04-.09-.01-.1,0,0,0-.02,0-.03,0,0-.02,0-.04,0-.05,0-.08,0-.08-.06,0-.02,0-.03-.01-.04,0,0-.02-.01-.03,0,0,0,0,0-.02,0,0,0-.01,0-.02.01,0,0-.01.02-.02.03-.01.02-.01.02-.04.02-.02,0-.04,0-.05,0-.02,0-.04-.01-.09-.01-.07,0-.11,0-.11.02,0,.03-.07.08-.09.08-.01,0-.03,0-.04,0-.01,0-.02,0-.03,0,0,0-.03,0-.06,0-.05,0-.07-.02-.07-.03,0-.01.03-.03.05-.02.01,0,.04,0,.04,0,0,0,.01,0,.03-.01.01,0,.03,0,.03-.01,0,0,.01,0,.02,0,.01,0,.02,0,.03-.02,0-.01.01-.03.01-.03s0-.01.01-.02c0-.01,0-.04.01-.07,0-.02,0-.02,0-.05,0-.02-.01-.03-.02-.04,0,0,0-.01-.01-.02-.02-.05.03-.06.04-.1,0-.01.01-.02.03-.02.01,0,.03.02.03.04,0,0,0,.01,0,.02,0,.01.02.14.03.16.01.03.05.03.09.04.08.02.09,0,.11-.02.01-.02.03-.03.03-.03,0-.02-.06-.05-.11-.06-.05,0-.03-.1.09-.13h.05s.01-.04.01-.04c.03-.06.12-.12.16-.07.02.03.05.06.05.09,0,.02,0,.04.01.04s.08.07.08.08c0,0,0,0,0,0,0,0,.01.03.01.05,0,.06-.06.02-.12.05h-.02v.03s0,.04.04.05c.01,0,.03,0,.03,0,0,0,.01,0,.02,0,.04,0,.03.03.03.07v.06c.05.02.03.01.04.01.01.01.03,0,.03,0,0,0,0-.02.01-.02,0,0,.01-.13.02-.15,0-.01,0-.04.01-.07,0-.03,0-.06,0-.06,0,0,0-.03,0-.07,0-.05,0-.06.01-.07,0,0,0-.02,0-.07v-.06s-.02-.01-.02-.01c-.05-.04,0-.05.05-.07.01,0,.02-.01.02-.01,0-.01.03-.03.04-.03,0,0,.01,0,.02,0,0,.01.01.05,0,.07,0,.01,0,.07-.01.09,0,.01-.03.23-.03.23,0,.09-.03.2-.04.26,0,.02,0,.04-.01.05s0,.02,0,.02c0,.01-.02.05-.03.05,0,0,0,0-.01,0,0,0-.01.01-.02.01,0,0-.02,0-.03.01-.01.01-.06.02-.08.01ZM26.39,24.15s.01-.02,0-.02c-.01,0-.03-.02-.03-.05,0-.07-.05-.01-.11.04h.01s.04.04.08.04c.02,0,.04,0,.04,0ZM28.55,24.52s-.01-.02,0-.04c0-.02,0-.04,0-.06,0-.02,0-.03,0-.04,0,0,0-.02,0-.03,0-.01,0-.02.02-.03.01-.01.02-.02.02-.02,0,0,.04-.03.04-.04,0,0,.01,0,.02,0,.01-.01.03,0,.05-.02.02-.02.01-.09,0-.11,0-.03,0-.06-.01-.09,0-.04,0-.05-.02-.06,0,0-.01-.01-.02-.01,0,0-.03-.03-.03-.03.03-.04.09-.09.1-.09.01,0,.03,0,.04.02,0,0,.05.42.05.42,0,.04,0,.08,0,.09,0,.03.05.05.08.04,0,0,.02,0,.04-.01.05,0,.05,0,.04-.08,0-.05,0-.05-.02-.07-.02-.02-.05-.02-.05-.05,0-.02.06-.05.07-.06.03-.02.04-.02.06,0,.01.01.01.02.02.08,0,.05,0,.07.01.08,0,.01,0,.03,0,.06,0,.03,0,.05,0,.06,0,.01,0,.02,0,.03,0,0,0,.02-.01.03,0,.01-.01.01-.05.02-.02,0-.04,0-.05,0-.01,0-.04,0-.06,0-.1,0-.24.01-.25.02,0,0-.02,0-.06,0h-.06s-.01-.01-.01-.01h0ZM28.69,24.43h.03s0-.03,0-.03v-.02s-.02,0-.02,0c-.01,0-.02,0-.03.01-.02.02-.02.03,0,.04,0,0,.01,0,.01,0,0,0,.01,0,.03,0ZM26.84,24.47l-.02-.02v-.04s.07-.45.07-.5c0-.02,0-.05,0-.06,0,0,0-.02,0-.03,0-.01.02-.04.02-.04.02.03.04.05.06.07.08.08.05.05,0,.1-.02.02,0,.05-.02.08,0,.02-.01.08-.02.15,0,.01,0,.03,0,.03,0,0,0,.04,0,.07,0,.04,0,.07,0,.07,0,0,0,.01,0,.03,0,.04,0,.07-.02.08,0,0-.02.01-.03.01-.02,0-.03,0-.04-.01ZM25.43,24.32c.06-.05.13.02.1.07-.07.07-.16-.02-.1-.07ZM30.89,24.24s.06-.02.08.01c.02.04.02.05,0,.08-.01.01-.02.01-.05.01-.09,0-.09-.08-.02-.11ZM25.15,24.26s.01-.03.05-.03c.05,0,.05,0,.05.05,0,.02,0,.03-.01.04-.04.04-.11,0-.09-.05ZM24.99,24.27s-.03-.05.02-.09c.02-.01.03-.01.05,0,.03.03.04.05,0,.08-.01.01-.02.02-.04.02-.02,0-.02,0-.04-.02ZM25.53,24.25c-.35-.07-.52-.15-.57-.15-.06,0-.1-.04-.08-.09,0-.01,0-.03.02-.04,0,0,0-.01,0-.01,0,0,.02-.04.04-.05.02-.02.05-.03.07-.04.01,0,.02,0,.03,0,0,0,.02,0,.04-.01h.03s.01-.03.01-.03c0-.01.06-.2.06-.2.02-.01-.01-.04-.03-.04-.04,0-.07.05-.11.05-.02,0-.05-.02-.06-.03,0-.01,0-.02,0-.04,0-.01.01-.02.02-.03.02,0,.07,0,.08,0,.02.02.07,0,.1,0,.02,0,.02-.02.04-.02.02,0,.02-.02.04-.02.04,0,.02.07,0,.11-.01.02,0,.05-.02.06,0,0-.01.02-.01.02s0,.01,0,.02c0,0-.01.02-.01.04,0,.03-.02.05-.02.07,0,.01,0,.02-.01.03-.06.2-.05.19-.05.19-.03.04.15.1.16,0,0-.04.04-.09,0-.11-.01-.01-.02-.01-.01-.03.01-.03.06-.01.12-.06.02-.02.03-.02.04,0,0,.01,0,.01,0,.03,0,.01,0,.03,0,.04,0,.03,0,.03-.02.06,0,.01,0,.03-.01.04,0,.03,0,.05-.02.07-.02.04,0,.04.03.06,0,0,.05,0,.07.02.01,0,.03,0,.05.01.03,0,.03,0,.04-.01.02-.02.04-.1.01-.13-.03-.03-.02-.06.02-.06.01,0,.05-.02.07-.03.03-.03.05-.03.06-.03.01,0,.02.03,0,.04,0,.01-.03.09-.03.1,0,.02-.04.18-.05.2-.02.04-.07.03-.17,0ZM25.07,23.99s0-.05-.04-.03c-.02,0-.02.01-.02.02,0,.01.01.01.04.02,0,0,.01,0,.02-.01ZM28.49,24.13s0-.04.03-.05h.02s.02,0,.02,0c.07.03.05.08,0,.1-.02.01-.08,0-.08-.05ZM28.51,24.02s-.03-.03-.03-.05c0-.02.04-.07.06-.07.01,0,.04.02.05.03.02.02.02.06,0,.08-.01.01-.05.01-.07,0ZM24.96,23.71s.04-.06.07-.05c.02,0,.05.04.05.05,0,.01-.02.05-.03.05,0,0,0,0-.01,0-.02.03-.1,0-.09-.06Z"/>
    <path class="cls-2" d="M27.98,20.76c2.08-1.6,1.9-3.94,1.9-3.94-.4.08-1.63-.21-1.88-.55-.27.3-1.52.64-1.92.55,0,0-.18,2.34,1.9,3.94Z"/>
    <path class="cls-7" d="M27.98,20.58c-.12-.13-1.17-.84-1.59-2.4-.19-.7-.16-1.17-.17-1.23.34.05,1.39-.21,1.76-.49h.02s.02,0,.02,0c.35.3,1.31.51,1.69.5h.04s0,.03,0,.03c0,1.28-.6,2.66-1.75,3.58h-.02ZM26.27,17.01c0,1.22.55,2.56,1.7,3.49,1.1-.89,1.7-2.21,1.71-3.49-.35.03-1.33-.2-1.69-.5-.38.27-1.36.52-1.72.5Z"/>
    <path class="cls-7" d="M27.98,20.8l-.02-.02c-1.37-1.05-2-2.72-1.91-4.02.06,0,.1.02.19.02.44,0,1.48-.28,1.73-.55l.03-.03.03.03c.24.32,1.45.62,1.85.54h.04c.09,1.31-.56,2.97-1.91,4.01l-.02.02ZM26.11,16.86c0,.32,0,2.4,1.86,3.85,1.87-1.45,1.88-3.54,1.87-3.85-.38.06-1.54-.21-1.85-.54-.33.3-1.5.6-1.88.54Z"/>
    <path class="cls-2" d="M29.71,16.99c-.44.02-1.37-.21-1.72-.5-.39.3-1.49.55-1.75.5,0,.09,0,.18,0,.26.08,1.21.64,2.43,1.72,3.29,1.13-.9,1.74-2.27,1.73-3.56Z"/>
  </g>
</svg>