<?xml version="1.0" encoding="UTF-8"?>
<svg id="Capa_1" data-name="Capa 1" xmlns="http://www.w3.org/2000/svg" viewBox="0 0 56 38">
  <defs>
    <style>
      .cls-1 {
        fill: #274193;
      }

      .cls-2 {
        fill: #fff;
      }

      .cls-3 {
        fill: #e30519;
      }
    </style>
  </defs>
  <rect class="cls-2" x="-.44" y=".04" width="56.87" height="37.92"/>
  <rect class="cls-3" x="-.44" y="-.43" width="56.87" height="2.98"/>
  <rect class="cls-3" x="-.44" y="5.88" width="56.87" height="2.92"/>
  <rect class="cls-3" x="-.44" y="11.71" width="56.87" height="2.92"/>
  <rect class="cls-3" x="-.44" y="17.54" width="56.87" height="2.92"/>
  <rect class="cls-3" x="-.44" y="23.38" width="56.87" height="2.92"/>
  <rect class="cls-3" x="-.44" y="29.21" width="56.87" height="2.92"/>
  <rect class="cls-3" x="-.44" y="35.04" width="56.87" height="3.53"/>
  <rect class="cls-1" x="-.44" y="-.43" width="28.81" height="20.89"/>
  <g>
    <polygon class="cls-2" points="2.03 .89 1.77 1.7 .92 1.7 1.61 2.2 1.34 3.01 2.03 2.51 2.72 3.01 2.45 2.2 3.14 1.7 2.29 1.7 2.03 .89"/>
    <polygon class="cls-2" points="6.81 .89 6.54 1.7 5.7 1.7 6.38 2.2 6.12 3.01 6.81 2.51 7.49 3.01 7.23 2.2 7.92 1.7 7.07 1.7 6.81 .89"/>
    <polygon class="cls-2" points="11.58 .89 11.32 1.7 10.47 1.7 11.16 2.2 10.9 3.01 11.58 2.51 12.27 3.01 12.01 2.2 12.69 1.7 11.85 1.7 11.58 .89"/>
    <polygon class="cls-2" points="16.36 .89 16.1 1.7 15.25 1.7 15.94 2.2 15.67 3.01 16.36 2.51 17.05 3.01 16.79 2.2 17.47 1.7 16.62 1.7 16.36 .89"/>
    <polygon class="cls-2" points="21.14 .89 20.88 1.7 20.03 1.7 20.71 2.2 20.45 3.01 21.14 2.51 21.82 3.01 21.56 2.2 22.25 1.7 21.4 1.7 21.14 .89"/>
    <polygon class="cls-2" points="25.49 2.2 25.23 3.01 25.91 2.51 26.6 3.01 26.34 2.2 27.03 1.7 26.18 1.7 25.91 .89 25.65 1.7 24.8 1.7 25.49 2.2"/>
    <polygon class="cls-2" points="4.42 2.94 4.16 3.75 3.31 3.75 3.99 4.25 3.73 5.05 4.42 4.56 5.1 5.05 4.84 4.25 5.53 3.75 4.68 3.75 4.42 2.94"/>
    <polygon class="cls-2" points="9.19 2.94 8.93 3.75 8.08 3.75 8.77 4.25 8.51 5.05 9.19 4.56 9.88 5.05 9.62 4.25 10.3 3.75 9.46 3.75 9.19 2.94"/>
    <polygon class="cls-2" points="13.97 2.94 13.71 3.75 12.86 3.75 13.55 4.25 13.29 5.05 13.97 4.56 14.66 5.05 14.4 4.25 15.08 3.75 14.23 3.75 13.97 2.94"/>
    <polygon class="cls-2" points="18.75 2.94 18.49 3.75 17.64 3.75 18.33 4.25 18.06 5.05 18.75 4.56 19.43 5.05 19.17 4.25 19.86 3.75 19.01 3.75 18.75 2.94"/>
    <polygon class="cls-2" points="23.53 2.94 23.26 3.75 22.42 3.75 23.1 4.25 22.84 5.05 23.53 4.56 24.21 5.05 23.95 4.25 24.64 3.75 23.79 3.75 23.53 2.94"/>
    <polygon class="cls-2" points="2.03 4.99 1.77 5.8 .92 5.8 1.61 6.29 1.34 7.1 2.03 6.6 2.72 7.1 2.45 6.29 3.14 5.8 2.29 5.8 2.03 4.99"/>
    <polygon class="cls-2" points="6.81 4.99 6.54 5.8 5.7 5.8 6.38 6.29 6.12 7.1 6.81 6.6 7.49 7.1 7.23 6.29 7.92 5.8 7.07 5.8 6.81 4.99"/>
    <polygon class="cls-2" points="11.58 4.99 11.32 5.8 10.47 5.8 11.16 6.29 10.9 7.1 11.58 6.6 12.27 7.1 12.01 6.29 12.69 5.8 11.85 5.8 11.58 4.99"/>
    <polygon class="cls-2" points="16.36 4.99 16.1 5.8 15.25 5.8 15.94 6.29 15.67 7.1 16.36 6.6 17.05 7.1 16.79 6.29 17.47 5.8 16.62 5.8 16.36 4.99"/>
    <polygon class="cls-2" points="21.14 4.99 20.88 5.8 20.03 5.8 20.71 6.29 20.45 7.1 21.14 6.6 21.82 7.1 21.56 6.29 22.25 5.8 21.4 5.8 21.14 4.99"/>
    <polygon class="cls-2" points="25.91 4.99 25.65 5.8 24.8 5.8 25.49 6.29 25.23 7.1 25.91 6.6 26.6 7.1 26.34 6.29 27.03 5.8 26.18 5.8 25.91 4.99"/>
    <polygon class="cls-2" points="4.42 7.04 4.16 7.84 3.31 7.84 3.99 8.34 3.73 9.15 4.42 8.65 5.1 9.15 4.84 8.34 5.53 7.84 4.68 7.84 4.42 7.04"/>
    <polygon class="cls-2" points="9.19 7.04 8.93 7.84 8.08 7.84 8.77 8.34 8.51 9.15 9.19 8.65 9.88 9.15 9.62 8.34 10.3 7.84 9.46 7.84 9.19 7.04"/>
    <polygon class="cls-2" points="13.97 7.04 13.71 7.84 12.86 7.84 13.55 8.34 13.29 9.15 13.97 8.65 14.66 9.15 14.4 8.34 15.08 7.84 14.23 7.84 13.97 7.04"/>
    <polygon class="cls-2" points="18.75 7.04 18.49 7.84 17.64 7.84 18.33 8.34 18.06 9.15 18.75 8.65 19.43 9.15 19.17 8.34 19.86 7.84 19.01 7.84 18.75 7.04"/>
    <polygon class="cls-2" points="23.53 7.04 23.26 7.84 22.42 7.84 23.1 8.34 22.84 9.15 23.53 8.65 24.21 9.15 23.95 8.34 24.64 7.84 23.79 7.84 23.53 7.04"/>
    <polygon class="cls-2" points="2.03 9.08 1.77 9.89 .92 9.89 1.61 10.39 1.34 11.2 2.03 10.7 2.72 11.2 2.45 10.39 3.14 9.89 2.29 9.89 2.03 9.08"/>
    <polygon class="cls-2" points="6.81 9.08 6.54 9.89 5.7 9.89 6.38 10.39 6.12 11.2 6.81 10.7 7.49 11.2 7.23 10.39 7.92 9.89 7.07 9.89 6.81 9.08"/>
    <polygon class="cls-2" points="11.58 9.08 11.32 9.89 10.47 9.89 11.16 10.39 10.9 11.2 11.58 10.7 12.27 11.2 12.01 10.39 12.69 9.89 11.85 9.89 11.58 9.08"/>
    <polygon class="cls-2" points="16.36 9.08 16.1 9.89 15.25 9.89 15.94 10.39 15.67 11.2 16.36 10.7 17.05 11.2 16.79 10.39 17.47 9.89 16.62 9.89 16.36 9.08"/>
    <polygon class="cls-2" points="21.14 9.08 20.88 9.89 20.03 9.89 20.71 10.39 20.45 11.2 21.14 10.7 21.82 11.2 21.56 10.39 22.25 9.89 21.4 9.89 21.14 9.08"/>
    <polygon class="cls-2" points="25.91 9.08 25.65 9.89 24.8 9.89 25.49 10.39 25.23 11.2 25.91 10.7 26.6 11.2 26.34 10.39 27.03 9.89 26.18 9.89 25.91 9.08"/>
    <path class="cls-2" d="M4.42,11.13l-.26.81h-.85l.69.5-.26.81.69-.5.69.5-.26-.81.69-.5h-.85l-.26-.81ZM4.42,12.3h0,0Z"/>
    <path class="cls-2" d="M9.19,11.13l-.26.81h-.85l.69.5-.26.81.69-.5.69.5-.26-.81.69-.5h-.85l-.26-.81ZM9.19,12.3h0Z"/>
    <path class="cls-2" d="M13.97,11.13l-.26.81h-.85l.69.5-.26.81.69-.5.69.5-.26-.81.69-.5h-.85l-.26-.81ZM13.97,12.3h0Z"/>
    <path class="cls-2" d="M18.75,11.13l-.26.81h-.85l.69.5-.26.81.69-.5.69.5-.26-.81.69-.5h-.85l-.26-.81ZM18.75,12.3h0Z"/>
    <path class="cls-2" d="M23.53,11.13l-.26.81h-.85l.69.5-.26.81.69-.5.69.5-.26-.81.69-.5h-.85l-.26-.81ZM23.53,12.3h0Z"/>
    <polygon class="cls-2" points="2.03 13.18 1.77 13.99 .92 13.99 1.61 14.48 1.34 15.29 2.03 14.79 2.72 15.29 2.45 14.48 3.14 13.99 2.29 13.99 2.03 13.18"/>
    <path class="cls-2" d="M6.81,13.18l-.26.81h-.85l.69.5-.26.81.69-.5.69.5-.26-.81.69-.5h-.85l-.26-.81ZM6.81,14.35h0Z"/>
    <path class="cls-2" d="M11.58,13.18l-.26.81h-.85l.69.5-.26.81.69-.5.69.5-.26-.81.69-.5h-.85l-.26-.81ZM11.58,14.35h0Z"/>
    <path class="cls-2" d="M16.36,13.18l-.26.81h-.85l.69.5-.26.81.69-.5.69.5-.26-.81.69-.5h-.85l-.26-.81ZM16.36,14.35h0Z"/>
    <path class="cls-2" d="M21.14,13.18l-.26.81h-.85l.69.5-.26.81.69-.5.69.5-.26-.81.69-.5h-.85l-.26-.81ZM21.14,14.35h0Z"/>
    <path class="cls-2" d="M25.91,13.18l-.26.81h-.85l.69.5-.26.81.69-.5.69.5-.26-.81.69-.5h-.85l-.26-.81ZM25.91,14.35h0Z"/>
    <polygon class="cls-2" points="4.68 16.03 4.42 15.23 4.16 16.03 3.31 16.03 3.99 16.53 3.73 17.34 4.42 16.84 5.1 17.34 4.84 16.53 5.53 16.03 4.68 16.03"/>
    <polygon class="cls-2" points="9.46 16.03 9.19 15.23 8.93 16.03 8.08 16.03 8.77 16.53 8.51 17.34 9.19 16.84 9.88 17.34 9.62 16.53 10.3 16.03 9.46 16.03"/>
    <polygon class="cls-2" points="14.23 16.03 13.97 15.23 13.71 16.03 12.86 16.03 13.55 16.53 13.29 17.34 13.97 16.84 14.66 17.34 14.4 16.53 15.08 16.03 14.23 16.03"/>
    <polygon class="cls-2" points="19.01 16.03 18.75 15.23 18.49 16.03 17.64 16.03 18.33 16.53 18.06 17.34 18.75 16.84 19.43 17.34 19.17 16.53 19.86 16.03 19.01 16.03"/>
    <polygon class="cls-2" points="23.79 16.03 23.53 15.23 23.26 16.03 22.42 16.03 23.1 16.53 22.84 17.34 23.53 16.84 24.21 17.34 23.95 16.53 24.64 16.03 23.79 16.03"/>
    <polygon class="cls-2" points="2.29 18.08 2.03 17.27 1.77 18.08 .92 18.08 1.61 18.58 1.34 19.38 2.03 18.89 2.72 19.38 2.45 18.58 3.14 18.08 2.29 18.08"/>
    <polygon class="cls-2" points="7.07 18.08 6.81 17.27 6.54 18.08 5.7 18.08 6.38 18.58 6.12 19.38 6.81 18.89 7.49 19.38 7.23 18.58 7.92 18.08 7.07 18.08"/>
    <polygon class="cls-2" points="11.85 18.08 11.58 17.27 11.32 18.08 10.47 18.08 11.16 18.58 10.9 19.38 11.58 18.89 12.27 19.38 12.01 18.58 12.69 18.08 11.85 18.08"/>
    <polygon class="cls-2" points="16.62 18.08 16.36 17.27 16.1 18.08 15.25 18.08 15.94 18.58 15.67 19.38 16.36 18.89 17.05 19.38 16.79 18.58 17.47 18.08 16.62 18.08"/>
    <polygon class="cls-2" points="21.4 18.08 21.14 17.27 20.88 18.08 20.03 18.08 20.71 18.58 20.45 19.38 21.14 18.89 21.82 19.38 21.56 18.58 22.25 18.08 21.4 18.08"/>
    <polygon class="cls-2" points="26.18 18.08 25.91 17.27 25.65 18.08 24.8 18.08 25.49 18.58 25.23 19.38 25.91 18.89 26.6 19.38 26.34 18.58 27.03 18.08 26.18 18.08"/>
  </g>
</svg>