<?xml version="1.0" encoding="UTF-8"?>
<svg id="Capa_1" data-name="Capa 1" xmlns="http://www.w3.org/2000/svg" viewBox="0 0 56 38">
  <defs>
    <style>
      .cls-1, .cls-2, .cls-3, .cls-4, .cls-5, .cls-6, .cls-7, .cls-8, .cls-9, .cls-10, .cls-11, .cls-12 {
        stroke-width: .04px;
      }

      .cls-1, .cls-2, .cls-13, .cls-11 {
        stroke: #18331c;
      }

      .cls-1, .cls-14, .cls-15, .cls-7, .cls-9, .cls-11 {
        fill: #eba616;
      }

      .cls-16 {
        fill: #18331c;
      }

      .cls-17 {
        fill: #2a4395;
      }

      .cls-2, .cls-18, .cls-3, .cls-19, .cls-15, .cls-5, .cls-7, .cls-20, .cls-8, .cls-21, .cls-11, .cls-12 {
        fill-rule: evenodd;
      }

      .cls-2, .cls-18, .cls-22, .cls-12 {
        fill: #fff;
      }

      .cls-3, .cls-6, .cls-20 {
        fill: #26326a;
      }

      .cls-3, .cls-6, .cls-23, .cls-24 {
        stroke: #282e69;
      }

      .cls-19 {
        fill: #0d8236;
      }

      .cls-4, .cls-5 {
        stroke: #72160e;
      }

      .cls-4, .cls-5, .cls-21 {
        fill: #c61618;
      }

      .cls-25 {
        fill: #717274;
      }

      .cls-26 {
        fill: #a84a22;
      }

      .cls-27, .cls-28, .cls-13, .cls-29, .cls-30, .cls-31, .cls-32, .cls-33, .cls-23, .cls-24, .cls-34, .cls-35, .cls-10, .cls-36, .cls-37, .cls-38 {
        fill: none;
      }

      .cls-27, .cls-28, .cls-13, .cls-29, .cls-30, .cls-31, .cls-24, .cls-34, .cls-37, .cls-38 {
        stroke-width: .04px;
      }

      .cls-27, .cls-7, .cls-31, .cls-9 {
        stroke: #a84a22;
      }

      .cls-28 {
        stroke: #165a2a;
      }

      .cls-29, .cls-34 {
        stroke: #254093;
      }

      .cls-30, .cls-32, .cls-33 {
        stroke: #26326a;
      }

      .cls-39 {
        fill: #e40b2e;
      }

      .cls-8 {
        fill: #b17229;
        stroke: #532710;
      }

      .cls-31, .cls-32, .cls-33, .cls-23, .cls-34, .cls-35, .cls-10, .cls-36 {
        stroke-linecap: round;
      }

      .cls-32, .cls-23 {
        stroke-width: .04px;
      }

      .cls-33 {
        stroke-width: .05px;
      }

      .cls-35 {
        stroke-width: .04px;
      }

      .cls-35, .cls-10, .cls-36 {
        stroke: #fff;
      }

      .cls-36 {
        stroke-width: .05px;
      }

      .cls-37 {
        stroke: #eba616;
      }

      .cls-38 {
        stroke: #c61618;
      }

      .cls-12 {
        stroke: #5a595b;
      }
    </style>
  </defs>
  <rect class="cls-17" x="-1.25" y="-.5" width="58.5" height="39"/>
  <rect class="cls-39" x="-1.25" y="19" width="58.5" height="19.5"/>
  <rect class="cls-22" x="21.85" y="14.1" width="12.3" height="9.79"/>
  <path class="cls-19" d="M33.76,22.43c-.18-.06-.3-.13-.63-.2-.41-.09-.34-.26-.86-.37-.52-.11-1.8-.68-1.8-.68l-2.51.07-2.5.03s-1.28.48-1.81.58c-.52.11-.46.28-.86.37-.32.07-.36.09-.55.11-.11,0-.26.1-.4.19v1.36h12.3v-1.29c-.13-.07-.26-.12-.39-.17Z"/>
  <path class="cls-28" d="M33.76,22.43c-.18-.06-.3-.13-.63-.2-.41-.09-.34-.26-.86-.37-.52-.11-1.8-.68-1.8-.68l-2.51.07-2.5.03s-1.28.48-1.81.58c-.52.11-.46.28-.86.37-.32.07-.36.09-.55.11-.11,0-.26.1-.4.19v1.36h12.3v-1.29c-.13-.07-.26-.12-.39-.17Z"/>
  <polygon class="cls-19" points="28.45 15.32 27.48 15.36 27.48 15.78 27.84 15.83 27.78 17.01 28.16 17.01 28.1 15.84 28.5 15.78 28.45 15.32"/>
  <polygon class="cls-28" points="28.45 15.32 27.48 15.36 27.48 15.78 27.84 15.83 27.78 17.01 28.16 17.01 28.1 15.84 28.5 15.78 28.45 15.32"/>
  <polygon class="cls-7" points="26.77 18.34 26.62 18.37 26.95 19.07 27.36 19.51 26.77 18.34"/>
  <polygon class="cls-12" points="26.19 17.54 26.56 18.53 26.74 18.53 26.19 17.54"/>
  <polygon class="cls-7" points="27.47 18.15 27.29 18.16 27.73 19.99 27.8 19.55 27.47 18.15"/>
  <polygon class="cls-7" points="27.1 18.08 26.89 18.1 27.45 19.6 27.75 19.92 27.1 18.08"/>
  <polygon class="cls-12" points="26.63 17.24 26.86 18.28 27.04 18.28 26.63 17.24"/>
  <polygon class="cls-12" points="27.1 17.22 27.22 18.3 27.36 18.29 27.1 17.22"/>
  <path class="cls-20" d="M27,19.18l-1.49-1.62c-.47.37-.38,1.04-.38,1.04l1.69,1.32.18-.74Z"/>
  <path class="cls-24" d="M27,19.18l-1.49-1.62c-.47.37-.38,1.04-.38,1.04l1.69,1.32.18-.74Z"/>
  <path class="cls-5" d="M27.85,20.07l-1.1-1.12c-.47.02-.1.71-.07.8l1.18,1.01v-.69Z"/>
  <polygon class="cls-7" points="25.48 17.44 25.39 17.5 27.8 20.18 27.76 19.88 25.48 17.44"/>
  <polygon class="cls-7" points="24.83 16.81 25.04 17.28 25.2 17.31 25.25 17.37 25.35 17.28 25.3 17.22 25.3 17.11 24.83 16.81"/>
  <path class="cls-7" d="M25.45,17.17c-.17.09-.27.19-.35.29l.19.14.28-.24-.13-.19Z"/>
  <path class="cls-20" d="M26.35,19.61l-1.87-1.48c-.32.33-.05,1.33-.05,1.33l1.83.99.1-.84Z"/>
  <path class="cls-24" d="M26.35,19.61l-1.87-1.48c-.32.33-.05,1.33-.05,1.33l1.83.99.1-.84Z"/>
  <path class="cls-5" d="M27.89,20.81l-1.54-1.23c-.52.07-.11.84-.08.93l1.62.88v-.58Z"/>
  <polygon class="cls-7" points="24.51 18.07 24.44 18.14 27.92 20.87 27.83 20.56 24.51 18.07"/>
  <polygon class="cls-7" points="24.27 18.04 24.35 17.93 24.29 17.89 24.28 17.77 23.76 17.55 24.05 17.99 24.22 17.99 24.27 18.04"/>
  <path class="cls-7" d="M24.44,17.81c-.15.12-.23.23-.29.34l.22.11.23-.28-.16-.16Z"/>
  <path class="cls-20" d="M23.96,20.65c.05.27.17.51.35.66.22.83,1.07.89,1.4.21l.51-1s-2.41-1.36-2.41-1.36c-.17.29-.02.72.06.78,0,.2-.08.3.09.71Z"/>
  <path class="cls-24" d="M23.96,20.65c.05.27.17.51.35.66.22.83,1.07.89,1.4.21l.51-1s-2.41-1.36-2.41-1.36c-.17.29-.02.72.06.78,0,.2-.08.3.09.71Z"/>
  <path class="cls-5" d="M27.79,21.41l-1.63-.96c-.52.07.01,1.05.04,1.13l1.57.56v-.74Z"/>
  <polygon class="cls-7" points="23.83 19.1 23.77 19.19 27.65 21.35 27.51 21.06 23.83 19.1"/>
  <polygon class="cls-7" points="23.59 19.1 23.65 18.99 23.58 18.95 23.55 18.84 23 18.71 23.36 19.09 23.52 19.06 23.59 19.1"/>
  <path class="cls-7" d="M23.71,18.85c-.13.14-.19.26-.23.38l.23.07.19-.31-.19-.14Z"/>
  <path class="cls-3" d="M25.8,17.54l.1-.11c-.25-.27-.49.04-.49.04l-.55.4.08.13s.52-.45.52-.45h.34Z"/>
  <path class="cls-30" d="M25.8,17.54l.1-.11c-.25-.27-.49.04-.49.04l-.55.4.08.13s.52-.45.52-.45h.34Z"/>
  <path class="cls-4" d="M25.13,18.09c.02-.12.24-.42.28-.43.17.05.33.15.5-.24-.15.19-.45,0-.45,0l-.13.11v.05s-.39.37-.39.37l.2.14Z"/>
  <path class="cls-3" d="M24.45,18.22l.34-.06.07-.11c-.23-.27-.48.09-.48.09l-.41.43.02.14s.46-.48.46-.48Z"/>
  <path class="cls-30" d="M24.45,18.22l.34-.06.07-.11c-.23-.27-.48.09-.48.09l-.41.43.02.14s.46-.48.46-.48Z"/>
  <path class="cls-5" d="M24.23,18.81c-.02-.13.16-.5.19-.52.2.06.38.15.45-.27-.12.21-.45.05-.45.05l-.11.13v.07s-.32.44-.32.44l.25.1Z"/>
  <path class="cls-3" d="M24.13,19.12l.06-.13c-.26-.24-.45.17-.45.17l-.4.51.08.15s.39-.59.39-.59l.32-.11Z"/>
  <path class="cls-30" d="M24.13,19.12l.06-.13c-.26-.24-.45.17-.45.17l-.4.51.08.15s.39-.59.39-.59l.32-.11Z"/>
  <path class="cls-5" d="M23.68,19.89c-.03-.13.06-.55.09-.57.2.06.37.08.42-.34-.12.2-.43.12-.43.12l-.09.14.02.05-.27.51.26.08Z"/>
  <polygon class="cls-7" points="26.12 21.87 27.51 22.26 27.49 21.96 26.57 21.68 26.17 21 24.75 20.92 24.8 21.44 26.01 21.67 26.12 21.87"/>
  <polygon class="cls-8" points="25.08 20.02 25.01 20.07 26.45 22.21 26.53 22.15 25.08 20.02"/>
  <path class="cls-12" d="M25.21,20.11l-.16-.26s-.07-.06-.14-.03c-.06.03-.06.1-.03.15l.14.24.18-.1Z"/>
  <polygon class="cls-7" points="23.78 20.54 23.71 20.96 26.61 21.26 26.7 20.84 23.78 20.54"/>
  <polygon class="cls-7" points="23.72 20.43 23.65 21.02 23.77 21.02 23.86 20.48 23.72 20.43"/>
  <polygon class="cls-7" points="24.21 20.53 24.18 21.06 24.25 21.06 24.32 20.59 24.21 20.53"/>
  <polygon class="cls-15" points="26.19 20.75 26.12 21.25 26.26 21.25 26.32 20.75 26.19 20.75"/>
  <polygon class="cls-29" points="26.19 20.75 26.12 21.25 26.26 21.25 26.32 20.75 26.19 20.75"/>
  <path class="cls-7" d="M26.63,20.77l-.1.58.16.02.05-.3c.01.06.07.11.13.11.08,0,.14-.06.14-.13s-.06-.13-.14-.13c-.05,0-.1.03-.12.09l.03-.22h-.15Z"/>
  <polygon class="cls-15" points="25.57 20.86 25.17 21.31 25.22 21.37 25.73 21.02 25.57 20.86"/>
  <polygon class="cls-29" points="25.57 20.86 25.17 21.31 25.22 21.37 25.73 21.02 25.57 20.86"/>
  <polygon class="cls-15" points="24.99 21.48 24.48 21.83 24.64 21.99 25.04 21.54 24.99 21.48"/>
  <polygon class="cls-29" points="24.99 21.48 24.48 21.83 24.64 21.99 25.04 21.54 24.99 21.48"/>
  <polygon class="cls-15" points="25.2 21.5 25.15 21.53 25.54 22.02 25.69 21.88 25.2 21.5"/>
  <polygon class="cls-29" points="25.2 21.5 25.15 21.53 25.54 22.02 25.69 21.88 25.2 21.5"/>
  <polygon class="cls-15" points="24.65 20.84 24.49 21 24.98 21.37 25.04 21.32 24.65 20.84"/>
  <polygon class="cls-29" points="24.65 20.84 24.49 21 24.98 21.37 25.04 21.32 24.65 20.84"/>
  <polygon class="cls-15" points="25.29 20.72 25.03 20.7 25.07 21.3 25.14 21.29 25.29 20.72"/>
  <polygon class="cls-29" points="25.29 20.72 25.03 20.7 25.07 21.3 25.14 21.29 25.29 20.72"/>
  <polygon class="cls-15" points="25.07 21.54 24.98 22.14 25.19 22.14 25.14 21.55 25.07 21.54"/>
  <polygon class="cls-29" points="25.07 21.54 24.98 22.14 25.19 22.14 25.14 21.55 25.07 21.54"/>
  <polygon class="cls-15" points="25.22 21.41 25.21 21.47 25.84 21.55 25.84 21.34 25.22 21.41"/>
  <polygon class="cls-29" points="25.22 21.41 25.21 21.47 25.84 21.55 25.84 21.34 25.22 21.41"/>
  <polygon class="cls-15" points="24.98 21.41 24.35 21.34 24.36 21.55 24.97 21.45 24.98 21.41"/>
  <polygon class="cls-29" points="24.98 21.41 24.35 21.34 24.36 21.55 24.97 21.45 24.98 21.41"/>
  <path class="cls-15" d="M25.27,21.41c0-.09-.07-.16-.16-.16s-.17.07-.17.16.07.16.17.16.16-.07.16-.16Z"/>
  <path class="cls-34" d="M25.27,21.41c0-.09-.07-.16-.16-.16s-.17.07-.17.16.07.16.17.16.16-.07.16-.16Z"/>
  <path class="cls-15" d="M25.8,21.41c0-.37-.31-.68-.7-.68s-.7.3-.7.68.32.68.7.68.7-.3.7-.68Z"/>
  <path class="cls-15" d="M25.98,21.41c0-.47-.39-.85-.88-.85s-.88.38-.88.85.39.85.88.85.88-.38.88-.85ZM24.4,21.41c0-.37.32-.68.7-.68s.7.3.7.68-.31.68-.7.68-.7-.3-.7-.68Z"/>
  <path class="cls-34" d="M25.8,21.41c0-.37-.31-.68-.7-.68s-.7.3-.7.68.32.68.7.68.7-.3.7-.68Z"/>
  <path class="cls-9" d="M25.98,21.41c0-.47-.39-.85-.88-.85s-.88.38-.88.85.39.85.88.85.88-.38.88-.85ZM24.4,21.41c0-.37.32-.68.7-.68s.7.3.7.68-.31.68-.7.68-.7-.3-.7-.68Z"/>
  <polygon class="cls-26" points="24.55 20.99 24.41 20.89 24.42 20.87 24.56 20.97 24.55 20.99"/>
  <polygon class="cls-26" points="25.78 21.96 25.64 21.85 25.65 21.83 25.8 21.94 25.78 21.96"/>
  <polygon class="cls-7" points="27.51 20.58 27.4 20.59 27.54 21.41 27.66 21.34 27.51 20.58"/>
  <path class="cls-12" d="M27.44,20.6s.3-.03.3-.03l-.07-.09s-.19,0-.24,0c-.07-.03-.16.02-.31-.17-.24.22-.01.26.02.48.07.03.11-.17.3-.19Z"/>
  <path class="cls-12" d="M27.5,20.4c-.03-.08-.13-.01-.13.03l.03.21.13-.02-.03-.23Z"/>
  <path class="cls-11" d="M25.78,22.6s.05-.05.05-.08c0-.03-.02-.07-.05-.08-.03-.02-.07-.02-.1,0-.03.02-.05.05-.05.08,0,.03.02.06.05.08.03.02.07.02.1,0Z"/>
  <path class="cls-11" d="M25.53,22.42s.05-.05.05-.08-.02-.06-.05-.08c-.03-.02-.07-.02-.1,0-.03.02-.05.05-.05.08,0,.03.02.06.05.08.03.02.07.02.1,0Z"/>
  <path class="cls-11" d="M25.2,22.54s.05-.05.05-.08-.02-.06-.05-.08c-.03-.02-.07-.02-.1,0-.03.02-.05.05-.05.08s.02.06.05.08c.03.02.07.02.1,0Z"/>
  <path class="cls-11" d="M24.69,22.65s.05-.05.05-.08-.02-.06-.05-.08c-.03-.02-.07-.02-.1,0-.03.02-.05.05-.05.08s.02.06.05.08c.03.02.07.02.1,0Z"/>
  <path class="cls-11" d="M24.47,22.67s.05-.05.05-.08-.02-.06-.05-.08c-.03-.02-.07-.02-.1,0-.03.02-.05.05-.05.08s.02.06.05.08c.03.02.07.02.1,0Z"/>
  <path class="cls-11" d="M24.26,22.67s.05-.05.05-.08-.02-.06-.05-.08c-.03-.02-.07-.02-.1,0-.03.02-.05.05-.05.08s.02.06.05.08c.03.02.07.02.1,0Z"/>
  <path class="cls-11" d="M24.04,22.67s.05-.05.05-.08-.02-.06-.05-.08c-.03-.02-.07-.02-.1,0-.03.02-.05.05-.05.08s.02.06.05.08c.03.02.07.02.1,0Z"/>
  <path class="cls-11" d="M24.15,22.5s.05-.05.05-.08-.02-.06-.05-.08c-.03-.02-.07-.02-.1,0-.03.02-.05.05-.05.08s.02.06.05.08c.03.02.07.02.1,0Z"/>
  <path class="cls-11" d="M24.36,22.51s.05-.05.05-.08-.02-.06-.05-.08c-.03-.02-.07-.02-.1,0-.03.02-.05.05-.05.08s.02.06.05.08c.03.02.07.02.1,0Z"/>
  <path class="cls-11" d="M24.56,22.49s.05-.05.05-.08-.02-.06-.05-.08c-.03-.02-.07-.02-.1,0-.03.02-.05.05-.05.08,0,.03.02.06.05.08.03.02.07.02.1,0Z"/>
  <path class="cls-11" d="M24.46,22.32s.05-.05.05-.08-.02-.06-.05-.08c-.03-.02-.07-.02-.1,0-.03.02-.05.05-.05.08s.02.06.05.08c.03.02.07.02.1,0Z"/>
  <path class="cls-11" d="M24.26,22.32s.05-.05.05-.08-.02-.06-.05-.08c-.03-.02-.07-.02-.1,0-.03.02-.05.05-.05.08s.02.06.05.08c.03.02.07.02.1,0Z"/>
  <path class="cls-2" d="M25.77,22.2c.04.25.38.35.5.24.12-.11.15-.4-.24-.47l-.08-.07c-.08-.03-.08.15-.08.15h.13c.06.03.1.11.07.15-.03.03-.28-.06-.3,0Z"/>
  <rect class="cls-26" x="23.37" y="21.46" width=".02" height=".54" transform="translate(-4.38 5.97) rotate(-13.32)"/>
  <polygon class="cls-26" points="23.59 21.97 23.39 21.56 23.42 21.55 23.61 21.96 23.59 21.97"/>
  <polygon class="cls-26" points="23.92 21.87 23.49 21.64 23.5 21.62 23.93 21.85 23.92 21.87"/>
  <polygon class="cls-26" points="24.11 21.82 23.31 21.47 23.32 21.45 24.12 21.8 24.11 21.82"/>
  <path class="cls-21" d="M21.93,21.33s.54.05.61-.09c.02-.04-.08-.14-.05-.15.05-.02.35-.02.35-.02l-.27-.21s-.22.03-.23.12c-.01.07.07.17.07.22,0,.04-.54.08-.47.13Z"/>
  <path class="cls-38" d="M21.93,21.33s.54.05.61-.09c.02-.04-.08-.14-.05-.15.05-.02.35-.02.35-.02l-.27-.21s-.22.03-.23.12c-.01.07.07.17.07.22,0,.04-.54.08-.47.13Z"/>
  <path class="cls-8" d="M23.22,21.35l-.66-.55s-.03-.03-.05,0c-.02.03,0,.06,0,.06l.68.56.02-.07Z"/>
  <path class="cls-7" d="M23.86,21.89s-.54-.47-.54-.47l-.03-.13s-.08.06-.11.08c-.03.03-.08.11-.08.11h.15s.47.44.47.44l.15-.02Z"/>
  <path class="cls-19" d="M26.76,15.12c.25-.02.61.23.66.31l.56-.08c-1.01-1.01-1.8-.52-1.99-.38.12.03.24-.05.3-.06-.04.05-.11.16-.11.16,0,0,.31-.15.35-.13-.05.04-.1.12-.1.12.02,0,.2-.14.23-.14-.05.06-.07.2-.07.2l.15-.07s-.01.08.02.08Z"/>
  <path class="cls-16" d="M27.41,15.44c-.04-.07-.37-.3-.62-.3-.01,0-.02,0-.03,0h0s-.01,0-.02,0c0,0,0-.02,0-.03,0-.02,0-.03,0-.04l-.16.08v-.02s.01-.1.05-.17c-.02.01-.05.03-.07.05-.09.06-.12.08-.13.07h-.01s0-.02,0-.02c0,0,.03-.06.07-.1-.06.02-.19.07-.31.13l-.04.02.02-.04s.05-.08.09-.13c0,0-.02,0-.03.01-.06.03-.15.06-.24.04h-.03s.02-.02.02-.02c.22-.16,1.02-.62,2.01.38l-.02.02c-.95-.95-1.71-.56-1.95-.39.07,0,.14-.02.19-.04.03-.01.05-.02.07-.02h.03s-.02.02-.02.02c-.02.03-.06.09-.09.12.1-.05.29-.13.32-.12h.02s-.02.02-.02.02c-.03.02-.06.06-.08.09.03-.01.06-.04.09-.06.06-.04.1-.07.12-.07h.03s-.02.02-.02.02c-.04.04-.06.13-.06.17l.14-.07h0s.02.05.02.07c0,0,0,0,0,.01.01,0,.02,0,.03,0,.26,0,.59.24.64.32h-.02Z"/>
  <path class="cls-19" d="M27.73,15.53c-.11-.24-2.03-.65-2.41.03.15.04.3-.13.3-.13v.15s.24-.2.24-.2l-.09.2.2-.17v.17s.24-.27.24-.27l-.03.16.22-.1-.03.13h1.36Z"/>
  <path class="cls-16" d="M25.95,15.63v-.17s-.18.15-.18.15h-.02s.07-.17.07-.17l-.24.18v-.15s-.15.14-.27.11h-.01s0-.02,0-.02c.21-.37.83-.39,1.19-.38.56.03,1.18.2,1.25.35h-.02c-.05-.11-.64-.29-1.23-.32-.34-.02-.95,0-1.16.35,0,0,.02,0,.03,0,.13,0,.24-.13.24-.13l.02-.03v.16s.22-.18.22-.18h.02s-.07.17-.07.17l.19-.15v.16s.25-.28.25-.28l-.04.18.22-.09-.03.16h-.02s.02-.12.02-.12l-.22.09.03-.14-.24.26Z"/>
  <path class="cls-19" d="M27.58,15.66l.06-.09c-.49-.33-1.26-.11-1.26-.11-.49.27-.75.22-.81.73.05-.02.18-.18.18-.18l.1.2.03-.28.08.22.12-.36.03.24.19-.24.08.07.08-.18.07.12s.13-.08.2-.03l.14-.16.03.11.12-.14.05.1.12-.11v.08s.4,0,.4,0Z"/>
  <path class="cls-16" d="M25.86,16.25l-.11-.22s-.13.15-.17.17h-.02s0-.01,0-.01c.05-.38.21-.46.49-.58.1-.04.2-.09.33-.16.01,0,.78-.22,1.27.11v.02c-.5-.32-1.25-.11-1.26-.11-.12.07-.23.12-.33.16-.27.12-.42.19-.47.53.04-.03.12-.13.15-.16h.01s.09.16.09.16l.03-.24h.02s.07.18.07.18l.11-.32h.02s.02.21.02.21l.17-.23.08.07.08-.19.08.13s.13-.06.19-.03l.15-.17.03.11.12-.14.05.1.13-.12v.09s.39,0,.39,0v.02s-.42,0-.42,0v-.06s-.1.1-.1.1l-.04-.1-.12.14-.03-.11-.13.15h0c-.07-.05-.19.03-.19.03h-.01s-.07-.1-.07-.1l-.08.18-.09-.07-.2.25-.02-.22-.11.33-.07-.2-.03.27Z"/>
  <path class="cls-19" d="M26.22,16.3v.12c.05-.09.09-.1.16,0l.03-.15.04.14.07-.15s.04.16.07.16c0,0,.11-.29.16-.3v.18s.08-.18.08-.18l.06.13v-.19s.08.15.08.15c0,0,.03-.14.09-.17l.1.09.44-.32-.05-.18c-.34,0-1.33.37-1.58.75.1-.06.16-.08.16-.08l.05.16.06-.16Z"/>
  <path class="cls-16" d="M26.16,16.49l-.06-.18s-.08.03-.15.08l-.02-.02c.26-.4,1.24-.76,1.58-.76h0s0,.02,0,.02h0c-.33,0-1.24.34-1.53.71.07-.04.12-.06.12-.06h.01s.04.13.04.13l.05-.13h.02s0,.08,0,.08c.02-.03.03-.04.05-.04h0s.05.02.08.05l.02-.12h.02s.03.11.03.11l.07-.15v.03c.02.06.04.12.06.14.03-.07.11-.28.16-.29h.01s.01.13.01.13l.06-.15.05.12v-.14s.03,0,.03,0l.05.12s.04-.13.08-.15h0s.1.08.1.08l.43-.31v.02s-.43.32-.43.32l-.1-.09s-.06.12-.07.16v.03s-.07-.13-.07-.13v.14s-.03,0-.03,0l-.05-.11-.05.15h-.02s-.01-.16-.01-.16c-.03.04-.09.16-.14.28h0s0,0,0,0c0,0,0,0-.01,0-.02-.01-.04-.08-.06-.13l-.06.15-.04-.12-.02.12-.02-.02s-.06-.06-.08-.06h0s-.04.02-.05.07h-.02s0-.08,0-.08l-.05.14Z"/>
  <path class="cls-19" d="M27.75,15.88l-.15-.17c-.46.17-.87.8-.84,1.07.2-.25.16-.22.25.07,0,0,.03-.25.07-.28l.06.19.02-.25h.06s-.02-.15-.02-.15l.09.07c-.02-.09-.05-.12.05-.19,0,0-.12.01-.03-.2l.09.09s-.01-.09.02-.13l.32-.11Z"/>
  <path class="cls-16" d="M27,16.85s-.03-.09-.04-.12c-.02-.06-.03-.11-.04-.11h0s-.06.05-.12.13l-.05.06v-.03c-.03-.27.37-.9.84-1.08v.02c-.43.17-.82.76-.82,1.03h0c.08-.12.12-.16.15-.15.03,0,.04.04.06.13,0,.02.01.04.02.07.01-.08.04-.21.07-.24h.01s.05.14.05.14l.02-.2h.06s-.02-.17-.02-.17l.09.07c-.02-.06-.02-.1.04-.15-.01,0-.02,0-.03-.02-.03-.03-.02-.1.02-.19v-.02s.08.07.08.07c0-.03,0-.08.02-.11h0s0,0,0,0l.32-.11v.02s-.31.11-.31.11c-.02.03-.01.09-.01.12v.04s-.09-.1-.09-.1c-.04.1-.03.14-.02.15.01.02.04.02.04.01h.04s-.03.02-.03.02c-.08.06-.07.09-.05.15,0,0,0,.02,0,.03v.03s-.09-.07-.09-.07v.14s-.05,0-.05,0l-.02.24h-.02s-.05-.16-.05-.16c-.02.05-.04.18-.05.26h-.02Z"/>
  <path class="cls-19" d="M27.24,16.59l.26-.11s-.22.23-.25.36l.15-.13s-.15.16-.12.4l.11-.12c-.03.29-.02.31.11.54,0,0-.03-.34,0-.38l.29.3-.16-.43s.18.27.29.25l-.23-.35.23.18-.26-.39.24.07s-.17-.22-.16-.36l.16.18s-.06-.21-.04-.27l.08.02-.16-.19.11-.02v-.12s.07-.03.07-.03v-.14s-.32-.1-.32-.1l-.17.33.09.03-.2.15.17-.02s-.26.09-.29.35Z"/>
  <path class="cls-16" d="M27.49,17.52c-.13-.21-.14-.25-.12-.51l-.11.12v-.03c-.02-.14.03-.25.07-.33l-.1.09v-.04c.03-.1.16-.25.22-.33l-.23.1v-.02c.02-.18.16-.28.24-.33l-.15.02.22-.16-.08-.02.18-.34h.02s-.17.33-.17.33l.1.03-.18.14h.13s0,0,0,0c0,0-.24.09-.28.32l.24-.11v.02s-.17.18-.22.32l.12-.1.02.02s-.13.15-.12.36l.12-.13v.04c-.03.27-.02.31.08.49,0-.1-.02-.3.01-.34h0s0,0,0,0l.25.26-.14-.38h.02c.05.06.18.23.26.23l-.22-.33.02-.02.16.13-.23-.35.24.07c-.05-.07-.15-.22-.14-.33v-.03s.02.02.02.02l.13.14c-.02-.07-.04-.18-.03-.22h0s.06,0,.06,0l-.15-.18.12-.02v-.12s0,0,0,0l.07-.02v-.13s.02,0,.02,0v.15s0,0,0,0l-.07.02v.12s-.09.02-.09.02l.17.2-.11-.02c0,.06.03.2.05.25h-.02s-.14-.14-.14-.14c0,.13.15.32.16.32l.02.03-.24-.07.24.36-.02.02-.17-.14.2.3h-.02s-.01,0-.02,0c-.08,0-.18-.11-.24-.18l.13.35h-.02s-.28-.28-.28-.28c-.02.05,0,.25,0,.36h-.02Z"/>
  <path class="cls-16" d="M27.52,17.14h-.02c.07-.14.08-.33.1-.52.02-.26.04-.55.21-.77h.02c-.16.23-.18.52-.2.78-.01.2-.03.39-.1.52Z"/>
  <path class="cls-11" d="M27.74,22.63s-.06-.04-.1,0c-.06-.03-.1-.07-.14-.03-.05-.05-.16-.08-.21,0-.03-.03-.06-.04-.08,0-.06-.06-.14-.08-.22,0-.05-.06-.18-.08-.23-.03-.09-.08-.18-.08-.26.03-.05-.02-.09-.08-.18,0-.02-.05-.17-.09-.17-.03,0,.05.1.03.1.07,0,.04-.08.02-.08.06s.1.03.15,0c.02.08.13.09.2,0,.06.05.13.08.24,0,.03.05.13.09.2,0h.04c.04.08.15.09.22.02.02.03.07.03.1,0,.05.06.13.05.16,0,.01.05.12.07.15.02.01.05.1.04.1,0,0-.04-.06-.03-.06-.06,0-.04.08-.02.08-.06ZM26.4,22.69s-.06-.02-.06-.03.03-.03.06-.03c.03,0,.06.02.06.03s-.03.03-.06.03ZM26.63,22.67s-.07-.02-.07-.04.03-.04.07-.04c.04,0,.07.02.07.04s-.03.04-.07.04ZM26.85,22.7s-.06-.02-.06-.05.03-.05.06-.05c.03,0,.06.02.06.05s-.03.05-.06.05ZM27.1,22.7s-.06-.02-.06-.04.03-.04.06-.04.06.02.06.04-.03.04-.06.04ZM27.24,22.69s-.04-.01-.04-.03c0-.02.02-.03.04-.03s.03.01.03.03c0,.02-.01.03-.03.03ZM27.39,22.69s-.05-.02-.05-.05.03-.05.05-.05.05.02.05.05-.02.05-.05.05ZM27.55,22.71s-.04-.02-.04-.04.02-.04.04-.04c.02,0,.04.02.04.04s-.02.04-.04.04Z"/>
  <polygon class="cls-7" points="29.22 18.34 28.62 19.51 29.04 19.07 29.36 18.37 29.22 18.34"/>
  <polygon class="cls-12" points="29.24 18.53 29.43 18.53 29.79 17.54 29.24 18.53"/>
  <polygon class="cls-7" points="28.51 18.15 28.18 19.55 28.25 19.99 28.7 18.16 28.51 18.15"/>
  <polygon class="cls-7" points="28.89 18.08 28.24 19.92 28.54 19.6 29.1 18.1 28.89 18.08"/>
  <polygon class="cls-12" points="28.94 18.28 29.13 18.28 29.36 17.24 28.94 18.28"/>
  <polygon class="cls-12" points="28.63 18.29 28.76 18.3 28.88 17.22 28.63 18.29"/>
  <path class="cls-20" d="M30.48,17.55l-1.49,1.62.18.74,1.68-1.32s.09-.67-.38-1.04Z"/>
  <path class="cls-24" d="M30.48,17.55l-1.49,1.62.18.74,1.68-1.32s.09-.67-.38-1.04Z"/>
  <path class="cls-5" d="M29.23,18.95l-1.1,1.12v.69s1.18-1.01,1.18-1.01c.02-.09.39-.78-.07-.8Z"/>
  <polygon class="cls-7" points="28.23 19.88 28.18 20.18 30.6 17.5 30.51 17.44 28.23 19.88"/>
  <polygon class="cls-7" points="30.73 17.37 30.78 17.31 30.94 17.28 31.15 16.81 30.68 17.11 30.69 17.22 30.64 17.28 30.73 17.37"/>
  <path class="cls-7" d="M30.53,17.17l-.13.19.28.24.19-.14c-.08-.1-.17-.19-.35-.29Z"/>
  <path class="cls-20" d="M31.51,18.12l-1.87,1.48.1.84,1.82-.99s.27-1.01-.05-1.33Z"/>
  <path class="cls-24" d="M31.51,18.12l-1.87,1.48.1.84,1.82-.99s.27-1.01-.05-1.33Z"/>
  <path class="cls-5" d="M29.63,19.58l-1.54,1.23v.58s1.62-.88,1.62-.88c.03-.09.44-.86-.08-.93Z"/>
  <polygon class="cls-7" points="28.15 20.56 28.06 20.87 31.55 18.14 31.48 18.07 28.15 20.56"/>
  <polygon class="cls-7" points="31.93 17.99 32.23 17.55 31.71 17.77 31.69 17.89 31.63 17.93 31.71 18.04 31.77 17.99 31.93 17.99"/>
  <path class="cls-7" d="M31.55,17.81l-.16.16.23.28.22-.11c-.06-.11-.14-.22-.29-.34Z"/>
  <path class="cls-20" d="M32.18,19.16s-2.38,1.35-2.41,1.36l.51,1c.33.68,1.18.62,1.4-.21.18-.15.3-.39.35-.66.17-.41.09-.51.09-.71.08-.07.23-.49.06-.78Z"/>
  <path class="cls-24" d="M32.18,19.16s-2.38,1.35-2.41,1.36l.51,1c.33.68,1.18.62,1.4-.21.18-.15.3-.39.35-.66.17-.41.09-.51.09-.71.08-.07.23-.49.06-.78Z"/>
  <path class="cls-21" d="M29.83,20.45l-1.63.96v.74s1.59-.56,1.59-.56c.03-.09.57-1.06.04-1.13Z"/>
  <path class="cls-29" d="M29.83,20.45l-1.63.96v.74s1.59-.56,1.59-.56c.03-.09.57-1.06.04-1.13Z"/>
  <polygon class="cls-7" points="28.47 21.06 28.33 21.35 32.22 19.19 32.16 19.1 28.47 21.06"/>
  <polygon class="cls-7" points="32.62 19.09 32.98 18.71 32.44 18.84 32.4 18.95 32.34 18.99 32.4 19.1 32.46 19.06 32.62 19.09"/>
  <path class="cls-7" d="M32.27,18.85l-.19.14.19.31.23-.07c-.04-.12-.1-.24-.23-.38Z"/>
  <path class="cls-3" d="M31.05,18l.08-.13-.55-.4s-.24-.31-.49-.04l.1.11h.34s.48.44.52.46Z"/>
  <path class="cls-30" d="M31.05,18l.08-.13-.55-.4s-.24-.31-.49-.04l.1.11h.34s.48.44.52.46Z"/>
  <path class="cls-5" d="M30.53,17.42s-.3.19-.45,0c.17.39.33.29.5.24.03.01.26.31.28.43l.2-.14-.4-.37v-.05s-.13-.11-.13-.11Z"/>
  <path class="cls-3" d="M32,18.7l.02-.14-.4-.43s-.25-.37-.48-.09l.07.11.34.06s.42.46.46.48Z"/>
  <path class="cls-30" d="M32,18.7l.02-.14-.4-.43s-.25-.37-.48-.09l.07.11.34.06s.42.46.46.48Z"/>
  <path class="cls-5" d="M31.57,18.07s-.33.16-.45-.05c.07.42.25.33.45.27.03.02.2.39.19.52l.24-.1-.34-.44.02-.07-.11-.13Z"/>
  <path class="cls-20" d="M32.57,19.82l.08-.15-.4-.51s-.19-.41-.45-.17l.06.13.32.11s.35.56.39.59Z"/>
  <path class="cls-30" d="M32.57,19.82l.08-.15-.4-.51s-.19-.41-.45-.17l.06.13.32.11s.35.56.39.59Z"/>
  <path class="cls-5" d="M32.23,19.11s-.31.07-.43-.12c.05.42.21.4.42.34.03.02.12.44.09.57l.26-.08-.27-.51.02-.05-.09-.14Z"/>
  <polygon class="cls-7" points="31.18 21.44 31.23 20.92 29.82 21 29.42 21.68 28.5 21.96 28.48 22.26 29.86 21.87 29.98 21.67 31.18 21.44"/>
  <polygon class="cls-8" points="30.91 20.02 29.46 22.15 29.54 22.21 30.98 20.07 30.91 20.02"/>
  <path class="cls-12" d="M31.06,19.82c-.06-.03-.11-.02-.14.03l-.15.26.18.1.14-.24s.03-.11-.03-.15Z"/>
  <polygon class="cls-7" points="32.21 20.54 29.29 20.84 29.37 21.26 32.28 20.96 32.21 20.54"/>
  <polygon class="cls-7" points="32.26 20.43 32.13 20.48 32.21 21.02 32.34 21.02 32.26 20.43"/>
  <polygon class="cls-7" points="31.78 20.53 31.67 20.59 31.73 21.06 31.81 21.06 31.78 20.53"/>
  <polygon class="cls-7" points="29.79 20.75 29.66 20.75 29.72 21.25 29.86 21.25 29.79 20.75"/>
  <path class="cls-7" d="M29.12,20.9c-.08,0-.14.06-.14.13s.06.13.14.13c.07,0,.12-.05.13-.11l.05.3.16-.02-.1-.58h-.15s.03.23.03.23c-.02-.06-.07-.09-.12-.09Z"/>
  <polygon class="cls-15" points="30.41 20.86 30.25 21.02 30.77 21.37 30.81 21.31 30.41 20.86"/>
  <polygon class="cls-29" points="30.41 20.86 30.25 21.02 30.77 21.37 30.81 21.31 30.41 20.86"/>
  <polygon class="cls-15" points="30.99 21.48 30.95 21.54 31.35 21.99 31.51 21.83 30.99 21.48"/>
  <polygon class="cls-29" points="30.99 21.48 30.95 21.54 31.35 21.99 31.51 21.83 30.99 21.48"/>
  <polygon class="cls-15" points="30.79 21.5 30.3 21.88 30.45 22.02 30.84 21.53 30.79 21.5"/>
  <polygon class="cls-29" points="30.79 21.5 30.3 21.88 30.45 22.02 30.84 21.53 30.79 21.5"/>
  <polygon class="cls-15" points="31.33 20.84 30.95 21.32 31 21.37 31.5 21 31.33 20.84"/>
  <polygon class="cls-29" points="31.33 20.84 30.95 21.32 31 21.37 31.5 21 31.33 20.84"/>
  <polygon class="cls-15" points="30.96 20.7 30.69 20.72 30.85 21.29 30.92 21.3 30.96 20.7"/>
  <polygon class="cls-29" points="30.96 20.7 30.69 20.72 30.85 21.29 30.92 21.3 30.96 20.7"/>
  <polygon class="cls-15" points="30.85 21.55 30.8 22.14 31.01 22.14 30.92 21.54 30.85 21.55"/>
  <polygon class="cls-29" points="30.85 21.55 30.8 22.14 31.01 22.14 30.92 21.54 30.85 21.55"/>
  <polygon class="cls-15" points="30.76 21.41 30.14 21.34 30.14 21.55 30.78 21.47 30.76 21.41"/>
  <polygon class="cls-29" points="30.76 21.41 30.14 21.34 30.14 21.55 30.78 21.47 30.76 21.41"/>
  <polygon class="cls-15" points="31.63 21.34 31 21.41 31.02 21.45 31.62 21.55 31.63 21.34"/>
  <polygon class="cls-29" points="31.63 21.34 31 21.41 31.02 21.45 31.62 21.55 31.63 21.34"/>
  <path class="cls-15" d="M31.05,21.41c0-.09-.07-.16-.17-.16s-.16.07-.16.16.07.16.16.16.17-.07.17-.16Z"/>
  <path class="cls-34" d="M31.05,21.41c0-.09-.07-.16-.17-.16s-.16.07-.16.16.07.16.16.16.17-.07.17-.16Z"/>
  <ellipse class="cls-14" cx="30.88" cy="21.41" rx=".7" ry=".68"/>
  <path class="cls-15" d="M31.76,21.41c0-.47-.39-.85-.88-.85s-.88.38-.88.85.39.85.88.85.88-.38.88-.85ZM30.18,21.41c0-.37.31-.68.7-.68s.7.3.7.68-.31.68-.7.68-.7-.3-.7-.68Z"/>
  <ellipse class="cls-34" cx="30.88" cy="21.41" rx=".7" ry=".68"/>
  <path class="cls-31" d="M31.76,21.41c0-.47-.39-.85-.88-.85s-.88.38-.88.85.39.85.88.85.88-.38.88-.85ZM30.18,21.41c0-.37.31-.68.7-.68s.7.3.7.68-.31.68-.7.68-.7-.3-.7-.68Z"/>
  <polygon class="cls-26" points="30.44 20.89 30.32 20.77 30.34 20.76 30.46 20.88 30.44 20.89"/>
  <polygon class="cls-26" points="31.42 22.09 31.3 21.96 31.32 21.94 31.44 22.07 31.42 22.09"/>
  <polygon class="cls-7" points="28.48 20.58 28.33 21.34 28.45 21.41 28.58 20.59 28.48 20.58"/>
  <path class="cls-12" d="M28.84,20.79c.04-.22.27-.25.02-.48-.15.19-.24.14-.31.17-.05,0-.24,0-.24,0l-.07.09s.28.02.3.03c.19.02.23.22.3.19Z"/>
  <path class="cls-12" d="M28.48,20.4l-.03.23.13.02.03-.21s-.1-.12-.13-.03Z"/>
  <path class="cls-11" d="M30.3,22.6s.05-.05.05-.08c0-.03-.02-.07-.05-.08-.03-.02-.07-.02-.1,0-.03.02-.05.05-.05.08,0,.03.02.06.05.08.03.02.07.02.1,0Z"/>
  <path class="cls-11" d="M30.55,22.42s.05-.05.05-.08-.02-.06-.05-.08c-.03-.02-.07-.02-.1,0-.03.02-.05.05-.05.08,0,.03.02.06.05.08.03.02.07.02.1,0Z"/>
  <path class="cls-11" d="M30.88,22.54s.05-.05.05-.08-.02-.06-.05-.08c-.03-.02-.07-.02-.1,0-.03.02-.05.05-.05.08s.02.06.05.08c.03.02.07.02.1,0Z"/>
  <path class="cls-11" d="M31.39,22.65s.05-.05.05-.08-.02-.06-.05-.08c-.03-.02-.07-.02-.1,0-.03.02-.05.05-.05.08s.02.06.05.08c.03.02.07.02.1,0Z"/>
  <path class="cls-11" d="M31.61,22.67s.05-.05.05-.08-.02-.06-.05-.08c-.03-.02-.07-.02-.1,0-.03.02-.05.05-.05.08s.02.06.05.08c.03.02.07.02.1,0Z"/>
  <path class="cls-11" d="M31.82,22.67s.05-.05.05-.08-.02-.06-.05-.08c-.03-.02-.07-.02-.1,0-.03.02-.05.05-.05.08s.02.06.05.08c.03.02.07.02.1,0Z"/>
  <path class="cls-11" d="M32.04,22.67s.05-.05.05-.08-.02-.06-.05-.08c-.03-.02-.07-.02-.1,0-.03.02-.05.05-.05.08s.02.06.05.08c.03.02.07.02.1,0Z"/>
  <path class="cls-11" d="M31.93,22.5s.05-.05.05-.08-.02-.06-.05-.08c-.03-.02-.07-.02-.1,0-.03.02-.05.05-.05.08s.02.06.05.08c.03.02.07.02.1,0Z"/>
  <path class="cls-11" d="M31.72,22.51s.05-.05.05-.08-.02-.06-.05-.08c-.03-.02-.07-.02-.1,0-.03.02-.05.05-.05.08s.02.06.05.08c.03.02.07.02.1,0Z"/>
  <path class="cls-11" d="M31.52,22.49s.05-.05.05-.08-.02-.06-.05-.08c-.03-.02-.07-.02-.1,0-.03.02-.05.05-.05.08,0,.03.02.06.05.08.03.02.07.02.1,0Z"/>
  <path class="cls-11" d="M31.62,22.32s.05-.05.05-.08-.02-.06-.05-.08c-.03-.02-.07-.02-.1,0-.03.02-.05.05-.05.08s.02.06.05.08c.03.02.07.02.1,0Z"/>
  <path class="cls-11" d="M31.82,22.32s.05-.05.05-.08-.02-.06-.05-.08c-.03-.02-.07-.02-.1,0-.03.02-.05.05-.05.08s.02.06.05.08c.03.02.07.02.1,0Z"/>
  <path class="cls-2" d="M29.98,22.06h.13s0-.19-.08-.15l-.08.07c-.39.08-.35.36-.24.47.12.11.46.01.5-.24-.02-.05-.27.04-.3,0-.04-.04,0-.13.07-.15Z"/>
  <polygon class="cls-26" points="32.55 22 32.53 21.99 32.66 21.47 32.68 21.47 32.55 22"/>
  <polygon class="cls-26" points="32.4 21.97 32.38 21.96 32.57 21.55 32.59 21.56 32.4 21.97"/>
  <polygon class="cls-26" points="32.06 21.87 32.05 21.85 32.49 21.62 32.5 21.64 32.06 21.87"/>
  <polygon class="cls-26" points="31.88 21.82 31.87 21.8 32.67 21.45 32.68 21.47 31.88 21.82"/>
  <path class="cls-21" d="M33.42,20.87l-.27.21s.29,0,.35.02c.02,0-.07.11-.05.15.07.14.57.12.61.09.07-.05-.46-.1-.47-.13,0-.04.08-.15.07-.22-.02-.09-.23-.12-.23-.12Z"/>
  <path class="cls-38" d="M33.42,20.87l-.27.21s.29,0,.35.02c.02,0-.07.11-.05.15.07.14.57.12.61.09.07-.05-.46-.1-.47-.13,0-.04.08-.15.07-.22-.02-.09-.23-.12-.23-.12Z"/>
  <path class="cls-8" d="M33.48,20.79s-.05,0-.05,0l-.66.55.02.07.68-.56s.03-.03.01-.06Z"/>
  <path class="cls-15" d="M32.89,21.48s-.05-.08-.08-.11c-.03-.03-.11-.08-.11-.08l-.03.13s-.53.46-.54.47l.15.02.47-.43h.15Z"/>
  <path class="cls-27" d="M32.89,21.48s-.05-.08-.08-.11c-.03-.03-.11-.08-.11-.08l-.03.13s-.53.46-.54.47l.15.02.47-.43h.15Z"/>
  <path class="cls-9" d="M29.37,22.32s-.11-.03-.14-.08v-.62c0-.08.01-.13-.05-.15v-.21s-.11,0-.11,0v.17s-.17.02-.18.2v.32c0,.07.07.15.1.15h.13s0,.14,0,.14c-.03.03-.09.05-.15.07-.1.04-.06.1.14.14h.13c.16-.05.17-.11.13-.14ZM29.17,21.86c0,.05-.07.11-.1.11-.03,0-.1-.05-.1-.1v-.26c0-.05.07-.1.1-.1.03,0,.1.06.1.11v.24Z"/>
  <path class="cls-9" d="M26.75,22.45h.13c.19-.04.23-.1.14-.14-.05-.02-.12-.04-.15-.07v-.15s.13,0,.13,0c.03,0,.1-.09.1-.15v-.32c0-.18-.14-.2-.18-.2v-.17s-.11,0-.11,0v.21c-.07.02-.06.08-.05.15v.62s-.1.04-.13.08c-.04.03-.03.09.13.13ZM26.82,21.63c0-.05.07-.11.1-.11.03,0,.1.05.1.1v.26c0,.05-.07.1-.1.1-.03,0-.1-.06-.1-.11v-.24Z"/>
  <path class="cls-19" d="M30,14.97c-.19-.14-.98-.63-1.99.38l.56.08c.05-.08.4-.33.66-.31.03,0-.02-.05.02-.08l.15.07s-.02-.14-.07-.2c.04,0,.21.15.24.14,0,0-.05-.09-.09-.12.03-.01.35.13.35.13,0,0-.08-.11-.11-.16.06,0,.17.09.3.06Z"/>
  <path class="cls-16" d="M28.58,15.44h-.02c.05-.09.38-.33.64-.33.01,0,.02,0,.03,0,0,0,0,0,0-.01,0-.02-.01-.05.02-.07h0s0,0,0,0l.13.06s-.03-.13-.07-.17l-.02-.02h.03s.06.03.12.07c.03.02.06.04.08.06-.02-.03-.05-.07-.07-.09h-.02s.02-.02.02-.02c.03-.01.22.07.32.12-.03-.04-.07-.09-.09-.12l-.02-.02h.03s.04.02.07.03c.05.02.11.04.18.04h.02c-.25-.17-1.01-.55-1.96.39l-.02-.02c.99-.99,1.79-.54,2.01-.38l.02.02h-.03c-.09.02-.18-.01-.24-.03-.01,0-.02,0-.03-.01.04.05.09.13.09.13l.03.04-.04-.02c-.12-.06-.25-.11-.31-.13.04.04.07.1.07.1h0s-.01.02-.01.02c-.02,0-.04,0-.13-.07-.02-.02-.05-.04-.07-.05.04.07.05.16.05.17v.02s-.16-.08-.16-.08c0,.01,0,.02,0,.04,0,.01,0,.02,0,.03,0,0-.01,0-.02,0,0,0-.02,0-.03,0-.25,0-.57.23-.62.3Z"/>
  <path class="cls-19" d="M30.67,15.56c-.39-.68-2.31-.27-2.41-.03h1.35s-.03-.15-.03-.15l.23.1-.03-.16.25.27v-.17s.2.17.2.17l-.09-.2.26.2v-.15s.13.16.28.13Z"/>
  <path class="cls-16" d="M30.04,15.63l-.02-.02-.22-.24.03.14-.22-.09.02.11h-.02s-.03-.15-.03-.15h.02s.2.09.2.09l-.04-.18.03.03.23.25v-.16s.18.15.18.15l-.07-.16h.02s.23.17.23.17v-.16s0,.03,0,.03c0,0,.12.13.24.13,0,0,.02,0,.03,0-.21-.35-.82-.37-1.16-.35-.59.03-1.17.21-1.22.33h-.02c.06-.16.68-.33,1.24-.36.36-.02.98,0,1.19.38h0s-.01.02-.01.02c-.12.03-.24-.06-.28-.11v.15s-.23-.18-.23-.18l.07.16h-.02s-.18-.13-.18-.13v.17Z"/>
  <path class="cls-19" d="M28.97,15.58l.12.14.03-.11.14.16c.07-.04.2.03.2.03l.07-.12.08.18.09-.07.18.24.03-.24.12.36.08-.22.03.28.1-.2s.13.16.18.18c-.06-.51-.32-.46-.81-.73,0,0-.76-.22-1.26.11l.06.09h.41s0-.08,0-.08l.12.11.05-.1Z"/>
  <path class="cls-16" d="M30.12,16.25l-.03-.27-.07.2-.11-.33-.02.22-.19-.25-.09.07-.08-.18-.07.11h-.01s-.12-.08-.19-.04h0s-.13-.14-.13-.14l-.03.11-.12-.14-.05.1h-.01s-.09-.1-.09-.1v.06s0,0,0,0h-.41s0-.02,0-.02h.4s0-.1,0-.1l.02.02.11.1.05-.1.12.14.03-.11.15.17c.07-.03.16.01.19.03l.08-.13.08.19.08-.07h0s.16.23.16.23l.02-.21h.02s.11.32.11.32l.07-.18h.02s.03.24.03.24l.09-.18h.01c.03.05.11.14.15.18-.05-.35-.2-.42-.47-.54-.1-.04-.21-.09-.33-.16,0,0-.76-.22-1.24.11v-.02c.48-.33,1.24-.11,1.25-.11.13.07.23.12.33.16.27.12.44.2.49.58v.02s-.02,0-.02,0c-.04-.02-.14-.13-.17-.17l-.11.22Z"/>
  <path class="cls-19" d="M29.03,16.2l.07-.15v.19s.07-.13.07-.13l.07.18v-.18c.06.01.17.3.17.3.03,0,.07-.16.07-.16l.07.15.04-.14.03.15c.07-.1.11-.09.15,0v-.12s.07.16.07.16l.05-.16s.06.02.16.08c-.26-.39-1.24-.76-1.58-.75l-.05.18.44.32.1-.09c.05.03.09.17.09.17Z"/>
  <path class="cls-16" d="M29.82,16.49l-.05-.14v.07s-.03,0-.03,0c-.02-.04-.04-.07-.05-.07h0s-.04.02-.08.06l-.02.02-.02-.12-.04.12-.06-.15s-.04.12-.06.13c0,0-.01,0-.01,0h0s0,0,0,0c-.05-.12-.1-.24-.14-.28v.16s-.04,0-.04,0l-.05-.15-.05.11h-.02s-.01-.15-.01-.15l-.06.13v-.03s-.05-.13-.08-.16l-.1.09h0s-.44-.32-.44-.32v-.02s.44.31.44.31l.1-.09h0s.07.11.08.15l.05-.12h.02s.01.15.01.15l.05-.12.06.16v-.14s.02,0,.02,0c.05.01.13.22.16.29.01-.02.03-.09.05-.14v-.03s.07.15.07.15l.03-.11h.02s.02.12.02.12c.03-.04.05-.05.08-.05h0s.04.02.05.04v-.08s.03,0,.03,0l.05.13.05-.14h.01s.05.02.12.06c-.29-.36-1.2-.71-1.53-.71h0s0-.02,0-.02h0c.35,0,1.32.36,1.58.76l-.02.02c-.07-.04-.13-.07-.15-.08l-.06.18Z"/>
  <path class="cls-19" d="M28.82,16.51l.02.25.06-.19s.07.28.07.28c.09-.29.05-.32.25-.07.03-.27-.38-.89-.84-1.07l-.15.17.32.11s.02.13.02.13l.09-.09c.09.21-.03.2-.03.2.09.07.07.1.05.19l.09-.07-.02.15h.06Z"/>
  <path class="cls-16" d="M28.99,16.85h-.02c-.01-.08-.03-.21-.05-.26l-.05.16h-.02s-.02-.24-.02-.24h-.06s0-.01,0-.01v-.13s-.08.07-.08.07v-.03s.01-.02.01-.03c.02-.07.03-.09-.05-.15l-.03-.03h.04s.03,0,.04-.01c.01-.01.02-.05-.02-.15l-.1.1v-.04s.02-.09,0-.12l-.32-.11v-.02s.33.11.33.11h0s.02.08.02.11l.08-.07v.02c.05.09.05.16.03.19,0,.01-.02.02-.03.02.06.06.06.09.04.15l.09-.07-.02.17h.06s0,0,0,0l.02.19.05-.15h.01s.05.17.07.25c0-.03.01-.05.02-.07.02-.08.03-.12.06-.13h0s.06.04.14.14h0c0-.27-.39-.85-.83-1.02v-.02c.48.18.88.81.85,1.08v.03s-.05-.06-.05-.06c-.06-.08-.11-.13-.12-.13h0s-.03.05-.04.11c0,.03-.02.07-.03.12Z"/>
  <path class="cls-19" d="M28.35,15.76l-.32.1v.14s.08.03.08.03v.12s.1.02.1.02l-.16.19.08-.02c.02.06-.04.27-.04.27l.16-.18c.01.14-.16.36-.16.36l.24-.07-.26.39.23-.18-.23.35c.11.03.29-.25.29-.25l-.16.43.29-.3s0,.38,0,.38c.13-.22.14-.25.11-.54l.11.12c.02-.24-.13-.4-.13-.4l.15.13c-.03-.14-.25-.36-.25-.36l.26.11c-.03-.25-.29-.35-.29-.35l.17.02-.2-.15.09-.03-.17-.33Z"/>
  <path class="cls-16" d="M28.5,17.52h-.02c.01-.13.02-.32,0-.37l-.28.29h-.02s.13-.36.13-.36c-.06.08-.17.2-.25.18h-.02s.2-.3.2-.3l-.17.14-.02-.02.24-.36-.24.07.02-.03s.15-.19.16-.32l-.14.16h-.02c.02-.06.05-.2.05-.26l-.11.02.17-.2-.1-.02v-.12s-.07-.03-.07-.03v-.15s.03,0,.03,0v.13s.08.03.08.03v.12s.11.02.11.02l-.15.18h.06s0,0,0,0c.01.04-.01.16-.03.22l.15-.16v.03c.01.11-.09.27-.14.33l.24-.07-.23.35.16-.13.02.02-.22.33c.08,0,.21-.18.26-.24h.02s-.14.39-.14.39l.26-.27h0s.02.25.01.35c.11-.18.11-.22.09-.49v-.04s.11.13.11.13c0-.22-.12-.36-.12-.36l.02-.02.12.1c-.05-.13-.23-.31-.24-.32v-.02s.25.11.25.11c-.04-.23-.27-.32-.28-.32v-.02s.13.01.13.01l-.18-.14.1-.03-.17-.32h.02s.18.33.18.33l-.08.02.22.16-.15-.02c.08.05.21.15.24.33v.02s-.22-.1-.22-.1c.07.07.19.22.21.33v.04s-.1-.09-.1-.09c.04.07.08.18.07.33v.03s-.11-.12-.11-.12c.02.26,0,.3-.12.51Z"/>
  <path class="cls-16" d="M28.47,17.14c-.07-.13-.09-.32-.1-.52-.02-.25-.04-.55-.2-.76h.02c.16.21.19.5.21.76.01.2.03.38.1.51h-.02Z"/>
  <path class="cls-1" d="M29.74,22.64s.1-.02.1-.07c0-.05-.15-.01-.17.03-.09-.08-.12-.02-.18,0-.07-.11-.17-.11-.26-.03-.05-.06-.18-.04-.23.03-.09-.09-.16-.06-.22,0-.02-.04-.06-.03-.08,0-.05-.08-.16-.06-.21,0-.04-.05-.09,0-.14.03-.04-.04-.1-.03-.1,0,0,.04.08.02.08.06,0,.03-.06.02-.06.06,0,.03.09.04.1,0,.03.06.14.04.15-.02.04.04.12.06.16,0,.04.03.08.03.1,0,.07.07.18.06.22-.02h.04c.07.09.17.05.2,0,.11.08.18.05.24,0,.07.09.18.08.21,0,.05.04.15.04.15,0s-.08-.03-.08-.06ZM28.43,22.71s-.04-.02-.04-.04.02-.04.04-.04.04.02.04.04-.02.04-.04.04ZM28.6,22.69s-.05-.02-.05-.05.02-.05.05-.05.05.02.05.05-.03.05-.05.05ZM28.74,22.69s-.03-.01-.03-.03c0-.02.01-.03.03-.03.02,0,.03.01.03.03,0,.02-.02.03-.03.03ZM28.89,22.7s-.06-.02-.06-.04.03-.04.06-.04c.03,0,.06.02.06.04s-.03.04-.06.04ZM29.13,22.7s-.06-.02-.06-.05.03-.05.06-.05.06.02.06.05-.03.05-.06.05ZM29.36,22.67s-.07-.02-.07-.04.03-.04.07-.04.07.02.07.04-.03.04-.07.04ZM29.58,22.69s-.06-.02-.06-.03.03-.03.06-.03.06.02.06.03-.03.03-.06.03Z"/>
  <path class="cls-7" d="M28.13,21.15s.16-1.29.16-1.85c0-.44-.11-1.41-.11-1.41h-.44s-.07.97-.06,1.4c.01.56.15,1.86.15,1.86h.3Z"/>
  <polygon class="cls-7" points="27.78 17.61 27.7 17.95 28.21 17.95 28.15 17.61 27.78 17.61"/>
  <polygon class="cls-7" points="27.82 17.33 27.73 17.68 28.19 17.68 28.11 17.33 27.82 17.33"/>
  <polygon class="cls-7" points="27.84 17.05 27.76 17.39 28.15 17.39 28.08 17.05 27.84 17.05"/>
  <polygon class="cls-7" points="27.83 17.01 27.8 17.13 28.12 17.13 28.09 17.01 27.83 17.01"/>
  <rect class="cls-26" x="27.81" y="20.86" width=".34" height=".02"/>
  <rect class="cls-26" x="27.79" y="20.6" width=".38" height=".02"/>
  <rect class="cls-26" x="27.73" y="20.35" width=".48" height=".02"/>
  <rect class="cls-26" x="27.74" y="20.07" width=".51" height=".02"/>
  <rect class="cls-26" x="27.71" y="19.79" width=".53" height=".02"/>
  <rect class="cls-26" x="27.69" y="19.53" width=".58" height=".02"/>
  <rect class="cls-26" x="27.67" y="19.3" width=".6" height=".02"/>
  <rect class="cls-26" x="27.66" y="19.02" width=".6" height=".02"/>
  <rect class="cls-26" x="27.66" y="18.74" width=".58" height=".02"/>
  <rect class="cls-26" x="27.69" y="18.46" width=".53" height=".02"/>
  <rect class="cls-26" x="27.72" y="18.2" width=".48" height=".02"/>
  <path class="cls-3" d="M28.54,21.41s.03-.06.03-.09c0-.15-.26-.27-.59-.27s-.59.12-.59.27c0,.02,0,.05.02.07.07.08.3.14.57.14.26,0,.47-.05.56-.13Z"/>
  <path class="cls-33" d="M28.54,21.41s.03-.06.03-.09c0-.15-.26-.27-.59-.27s-.59.12-.59.27c0,.02,0,.05.02.07.07.08.3.14.57.14.26,0,.47-.05.56-.13Z"/>
  <path class="cls-15" d="M28.58,22.26v-.92c0,.11-.27.19-.59.19s-.59-.09-.59-.19v.92c0,.11.27.19.59.19s.59-.09.59-.19Z"/>
  <path class="cls-23" d="M28.58,22.26v-.92c0,.11-.27.19-.59.19s-.59-.09-.59-.19v.92c0,.11.27.19.59.19s.59-.09.59-.19Z"/>
  <path class="cls-21" d="M28.16,22.39l.19-.67.23.45v-.25s-.21-.44-.21-.44c-.03,0-.05.01-.08.02l-.13.5-.19-.47s-.06,0-.09,0l-.19.47-.22-.57s-.08-.06-.08-.1v.14s.29.89.29.89l.23-.68.25.71Z"/>
  <path class="cls-38" d="M28.16,22.39l.19-.67.23.45v-.25s-.21-.44-.21-.44c-.03,0-.05.01-.08.02l-.13.5-.19-.47s-.06,0-.09,0l-.19.47-.22-.57s-.08-.06-.08-.1v.14s.29.89.29.89l.23-.68.25.71Z"/>
  <path class="cls-3" d="M28.58,22.26v-.17c0,.11-.27.19-.59.19s-.59-.09-.59-.19v.17c0,.11.27.19.59.19s.59-.09.59-.19Z"/>
  <path class="cls-32" d="M28.58,22.26v-.17c0,.11-.27.19-.59.19s-.59-.09-.59-.19v.17c0,.11.27.19.59.19s.59-.09.59-.19Z"/>
  <path class="cls-9" d="M28.23,22.26s-.1.01-.15.02v.17c.06,0,.11,0,.16-.01v-.17Z"/>
  <path class="cls-7" d="M27.6,22.23v.17s.1.02.15.03v-.17c-.06,0-.11-.02-.15-.03Z"/>
  <path class="cls-7" d="M27.46,22.17s-.07-.06-.07-.09v.17s.02.06.07.09v-.17Z"/>
  <path class="cls-7" d="M28.58,22.26v-.15h0s-.05.07-.11.09v.17c.07-.03.11-.07.11-.11Z"/>
  <path class="cls-26" d="M27.98,22.46c-.34,0-.61-.09-.61-.21v-.91s0-.01.01-.01.01,0,.01.01v.91c0,.09.23.18.58.18s.58-.09.58-.18v-.91s0-.01.01-.01.01,0,.01.01v.91c0,.12-.27.21-.61.21Z"/>
  <path class="cls-18" d="M28.44,21.28c0-.07-.21-.12-.46-.12s-.46.05-.46.12.21.12.46.12.46-.05.46-.12Z"/>
  <path class="cls-35" d="M28.44,21.28c0-.07-.21-.12-.46-.12s-.46.05-.46.12.21.12.46.12.46-.05.46-.12Z"/>
  <path class="cls-7" d="M28.01,21.37h-.17s.02.16.02.16c.04,0,.08,0,.12,0l.03-.17Z"/>
  <path class="cls-7" d="M28.37,21.33l-.12.03v.15s.08-.02.12-.03v-.16Z"/>
  <path class="cls-7" d="M27.66,21.08s-.06.02-.09.03l.02.12.08-.02v-.13Z"/>
  <path class="cls-7" d="M28.07,21.03s-.06,0-.09,0c-.02,0-.03,0-.05,0l.02.15h.08s.03-.15.03-.15Z"/>
  <path class="cls-7" d="M28.33,21.08l-.02.13.09.03v-.13s-.04-.02-.07-.03Z"/>
  <polygon class="cls-7" points="27.51 21.28 27.38 21.21 27.39 21.4 27.48 21.44 27.51 21.28"/>
  <polygon class="cls-7" points="28.47 21.27 28.57 21.41 28.58 21.24 28.47 21.27"/>
  <path class="cls-19" d="M26.25,20.22c.12,0,.22.05.26.11,0-.02.01-.03.01-.05,0-.09-.12-.16-.27-.16s-.27.07-.27.16c0,.02,0,.03.01.05.03-.07.14-.11.26-.11Z"/>
  <path class="cls-36" d="M26.25,20.22c.12,0,.22.05.26.11,0-.02.01-.03.01-.05,0-.09-.12-.16-.27-.16s-.27.07-.27.16c0,.02,0,.03.01.05.03-.07.14-.11.26-.11Z"/>
  <path class="cls-19" d="M26.49,20.53v-.17h-.47v.17c0,.17.11.31.24.31s.24-.14.24-.31Z"/>
  <path class="cls-10" d="M26.49,20.53v-.17h-.47v.17c0,.17.11.31.24.31s.24-.14.24-.31Z"/>
  <path class="cls-18" d="M26.49,20.31c0-.06-.11-.12-.23-.12s-.24.05-.24.12.11.12.24.12.23-.05.23-.12Z"/>
  <polygon class="cls-19" points="26.34 20.01 26.16 20.01 26.2 20.44 26.31 20.44 26.34 20.01"/>
  <polygon class="cls-37" points="26.34 20.01 26.16 20.01 26.2 20.44 26.31 20.44 26.34 20.01"/>
  <path class="cls-19" d="M26.53,20.36s0-.03-.01-.05c-.03.06-.14.11-.26.11s-.22-.05-.26-.11c0,.02-.01.03-.01.05,0,.09.12.16.27.16s.27-.07.27-.16Z"/>
  <path class="cls-36" d="M26.53,20.36s0-.03-.01-.05c-.03.06-.14.11-.26.11s-.22-.05-.26-.11c0,.02-.01.03-.01.05,0,.09.12.16.27.16s.27-.07.27-.16Z"/>
  <polygon class="cls-7" points="26.62 20.83 26.06 20.77 26.07 21.2 26.54 21.25 26.62 20.83"/>
  <polygon class="cls-7" points="26.19 20.75 26.12 21.25 26.26 21.25 26.32 20.75 26.19 20.75"/>
  <path class="cls-15" d="M29.6,20.88c.1,0,.23-.06.24-.12,0,0,.23,0,.22-.14-.01-.18-.17-.33-.28-.32l-.14.03s-.08.19-.02.36c0,0-.13.19-.03.19Z"/>
  <path class="cls-9" d="M29.6,20.88c.1,0,.23-.06.24-.12,0,0,.23,0,.22-.14-.01-.18-.17-.33-.28-.32l-.14.03s-.08.19-.02.36c0,0-.13.19-.03.19Z"/>
  <path class="cls-26" d="M29.76,20.75h0s-.03-.03-.03-.05h-.09s0-.02,0-.02h.12s0,0,0,0c0,.02.01.04.02.05,0,0,.02-.02.03-.04h0s.17-.01.17-.01v.02s-.15,0-.15,0c0,.02-.03.05-.05.05Z"/>
  <path class="cls-21" d="M29.7,20.36s.11.08.14.06c.09-.06.01-.19-.05-.19h-.14c-.07,0-.18.08-.17.14.01.05.05.08.11.07.03,0,.08-.07.11-.07Z"/>
  <path class="cls-37" d="M29.7,20.36s.11.08.14.06c.09-.06.01-.19-.05-.19h-.14c-.07,0-.18.08-.17.14.01.05.05.08.11.07.03,0,.08-.07.11-.07Z"/>
  <path class="cls-20" d="M27.76,14.73c-.06.08.14.21.23.25.06.03.15.04.22.03l.1-.19c0-.32.03-.28.03-.34,0-.2-.52-.27-.51-.18.01.09.15-.02.02.27l-.09.16Z"/>
  <path class="cls-6" d="M27.76,14.73c-.06.08.14.21.23.25.06.03.15.04.22.03l.1-.19c0-.32.03-.28.03-.34,0-.2-.52-.27-.51-.18.01.09.15-.02.02.27l-.09.16Z"/>
  <polygon class="cls-15" points="27.96 14.71 27.92 15.63 28.05 15.74 28.09 14.75 27.96 14.71"/>
  <polygon class="cls-29" points="27.96 14.71 27.92 15.63 28.05 15.74 28.09 14.75 27.96 14.71"/>
  <path class="cls-21" d="M28.02,14.8c.05.01.09.07.2.2.08-.05.13-.19.08-.27-.13-.17-.22-.1-.44-.17-.04.05-.14.14-.12.21.29.14.18.02.27.04Z"/>
  <path class="cls-38" d="M28.02,14.8c.05.01.09.07.2.2.08-.05.13-.19.08-.27-.13-.17-.22-.1-.44-.17-.04.05-.14.14-.12.21.29.14.18.02.27.04Z"/>
  <path class="cls-11" d="M22.63,23.01s-.14.12-.14.12c.19.04.48-.09.56-.18,0,0-.22-.02-.4-.16,0,0,.04.09.01.13,0,0-.27-.08-.3-.12,0,0,.64-.17.96-.26.01.06.07.16.15.14.05-.02.03-.11.02-.18.02.02.04.02.06.02.05,0,.1-.04.1-.09s-.04-.1-.1-.1c-.04,0-.08.03-.09.07-.01-.06-.04-.18-.11-.17-.08.01-.09.1-.06.19-.35.1-.66.23-.97.31-.01-.06.15-.24.15-.24.04.02.08.12.08.12.01-.21.21-.34.21-.34-.12-.02-.48.13-.53.18,0,0,.14-.02.16,0,0,0-.28.3-.29.39.04.1.52.17.52.17ZM23.55,22.38s.05.02.05.05-.02.05-.05.05-.05-.02-.05-.05.02-.05.05-.05Z"/>
  <path class="cls-11" d="M32.7,22.24c-.06-.02-.3-.13-.32-.05-.02.08.12.14.19.17l1.01.42s-.07.1-.02.16h.15c-.02-.19.2-.24.2-.24-.05-.1-.19-.19-.21-.39.03,0,.2.05.2.05-.02-.07-.42-.45-.53-.48,0,0,.17.33.11.52,0,0,.07-.08.12-.09,0,0,.04.24.02.29l-.9-.38Z"/>
  <path class="cls-11" d="M32.64,22.45l.12-.22c.04-.06-.05-.12-.11-.05l-.13.2c-.06.11.06.14.12.06Z"/>
  <polygon class="cls-18" points="25.29 22.73 25.27 22.98 25.58 22.95 25.57 22.71 25.29 22.73"/>
  <polygon class="cls-13" points="25.29 22.73 25.27 22.98 25.58 22.95 25.57 22.71 25.29 22.73"/>
  <path class="cls-18" d="M25.32,23.05l-.12-.29c.46.13.42-.15.18-.13-.38.03-.71.58-2.29.44l.38.22-.39.14c1.1.26,2.23-.37,2.23-.37Z"/>
  <path class="cls-13" d="M25.32,23.05l-.12-.29c.46.13.42-.15.18-.13-.38.03-.71.58-2.29.44l.38.22-.39.14c1.1.26,2.23-.37,2.23-.37Z"/>
  <polygon class="cls-18" points="30.38 22.71 30.38 22.95 30.75 22.98 30.73 22.72 30.38 22.71"/>
  <polygon class="cls-13" points="30.38 22.71 30.38 22.95 30.75 22.98 30.73 22.72 30.38 22.71"/>
  <path class="cls-18" d="M30.6,22.63c-.23-.03-.41.28.18.13l-.12.29h.28c.62.41,1.45.44,2,.31l-.41-.14.36-.2c-1.81.05-1.4-.3-2.3-.4Z"/>
  <path class="cls-13" d="M30.6,22.63c-.23-.03-.41.28.18.13l-.12.29h.28c.62.41,1.45.44,2,.31l-.41-.14.36-.2c-1.81.05-1.4-.3-2.3-.4Z"/>
  <path class="cls-18" d="M30.79,22.76s-.76.35-2.8.35-2.8-.35-2.8-.35v.41s1,.37,2.8.37,2.8-.37,2.8-.37v-.41Z"/>
  <path class="cls-13" d="M30.79,22.76s-.76.35-2.8.35-2.8-.35-2.8-.35v.41s1,.37,2.8.37,2.8-.37,2.8-.37v-.41Z"/>
  <g>
    <path class="cls-25" d="M25.79,23.23s.03,0,.05.01c.02,0,.05,0,.05,0l.02-.04h.01s-.02.06-.02.06h0s-.07-.01-.09-.02c-.02,0-.03,0-.05-.01-.02,0-.03,0-.04,0h0s.01-.01.01-.01c0,0,0,0,.01-.02l.04-.17s0-.03,0-.03c0,0,0,0-.01,0h-.01s0-.02,0-.02c.01,0,.04,0,.06.01.02,0,.04,0,.06.01h0s-.01.01-.01.01c-.01,0-.01,0-.02,0,0,0,0,.01,0,.03l-.04.18Z"/>
    <path class="cls-25" d="M25.94,23.13h0s.04-.06.04-.09c.02,0,.04,0,.05,0h0s-.05.06-.07.09h-.03Z"/>
    <path class="cls-25" d="M26.07,23.1s0-.03,0-.03c0,0,0,0-.01,0h-.01s0-.02,0-.02c.01,0,.04,0,.06.01.02,0,.04,0,.06.01h0s-.01.01-.01.01c-.01,0-.01,0-.02,0,0,0,0,.01,0,.03l-.02.09c0,.05-.01.09.05.1.06.01.08-.02.09-.08l.02-.09s0-.03,0-.03c0,0,0,0-.01,0h-.01s0-.02,0-.02c.01,0,.03,0,.04,0,.01,0,.03,0,.04,0h0s-.01.01-.01.01c-.01,0-.01,0-.02,0,0,0,0,.01,0,.03l-.02.11c-.01.07-.05.1-.12.08-.07-.01-.1-.05-.1-.09l.02-.14Z"/>
    <path class="cls-25" d="M26.38,23.15s0-.03,0-.03c0,0,0,0-.01,0h-.01s0-.02,0-.02c.02,0,.03,0,.05,0,.01,0,.02,0,.03,0,.01.02.02.04.03.06l.1.16.02-.14s0-.03,0-.03c0,0,0,0-.02,0h-.01s0-.02,0-.02c.01,0,.03,0,.04,0,.01,0,.03,0,.04,0h0s-.01.01-.01.01c-.01,0-.01,0-.02,0,0,0,0,.01,0,.03l-.03.17s0,.03,0,.04h0s-.03,0-.03,0c-.01-.02-.03-.04-.04-.06l-.1-.17h0l-.02.15s0,.03,0,.03c0,0,0,0,.01,0h.01s0,.02,0,.02c-.01,0-.03,0-.04,0-.01,0-.03,0-.04,0h0s.01-.01.01-.01c.01,0,.01,0,.02,0,0,0,0-.01,0-.03l.02-.16Z"/>
    <path class="cls-25" d="M26.73,23.35s0,.03,0,.03c0,0,0,0,.02,0h.01s0,.02,0,.02c-.02,0-.04,0-.06,0-.02,0-.04,0-.06,0h0s.01-.01.01-.01c.01,0,.01,0,.02,0,0,0,0-.01,0-.03l.02-.16s0-.03,0-.03c0,0,0,0-.01,0h-.01s0-.02,0-.02c.01,0,.04,0,.06,0,.02,0,.04,0,.06,0v.02h-.02s-.01,0-.02,0c0,0,0,.01,0,.03l-.02.16Z"/>
    <path class="cls-25" d="M27.09,23.31c0,.09-.07.13-.16.13-.08,0-.13-.06-.13-.14,0-.09.07-.13.16-.13.09,0,.13.06.13.15ZM26.87,23.29c0,.06.02.12.07.12.07,0,.09-.05.1-.1,0-.06-.02-.12-.07-.13-.07,0-.09.05-.1.1Z"/>
    <path class="cls-25" d="M27.15,23.23s0-.03,0-.03c0,0,0,0-.01,0h-.01v-.02s.03,0,.05,0c.01,0,.02,0,.03,0,.01.02.02.04.04.05l.11.15v-.14s0-.03,0-.03c0,0,0,0-.01,0h-.01s0-.02,0-.02c.01,0,.03,0,.04,0,.01,0,.03,0,.04,0h0s-.01.01-.01.01c-.01,0-.01,0-.02,0,0,0,0,.01,0,.03v.17s-.01.03-.01.04h0s-.03,0-.03,0c-.01-.02-.03-.04-.04-.06l-.11-.16h0v.15s0,.03,0,.03c0,0,0,0,.01,0h.01v.02s-.03,0-.04,0c-.01,0-.03,0-.04,0h0s.01-.01.01-.01c.01,0,.01,0,.02,0,0,0,0-.01,0-.03v-.15Z"/>
    <path class="cls-25" d="M27.63,23.33s.02,0,.03,0h.02s.02,0,.02,0v-.02s.02,0,.02,0c0,.01,0,.03,0,.04v.04s-.01,0-.01,0v-.02s0-.01-.02-.02h-.02s-.02,0-.03,0v.07s0,.03,0,.03c0,0,0,0,.02,0h.02s0,.02,0,.02c-.02,0-.04,0-.06,0-.02,0-.04,0-.06,0v-.02h.02s.01,0,.01,0c0,0,0-.01,0-.03v-.16s0-.03,0-.03c0,0,0,0-.01,0h-.01s0-.02,0-.02c.03,0,.04,0,.06,0,.03,0,.06,0,.08,0,.02,0,.04,0,.05,0h0s0,.06,0,.06h-.01s0-.03,0-.03c0,0-.03,0-.04,0-.01,0-.03,0-.04,0v.09Z"/>
    <path class="cls-25" d="M27.8,23.4l-.02.04s0,.02,0,.02h.02v.02s-.03,0-.04,0c-.01,0-.02,0-.04,0h0s.01-.02.01-.02c.01,0,.02-.01.02-.02l.07-.17v-.03s.02-.02.02-.02v-.02s.03,0,.03,0l.09.23s0,.02.02.02h0v.02s-.04,0-.06,0c-.02,0-.03,0-.06,0h0s.02-.01.02-.01c0,0,0,0,0-.02l-.02-.04h-.1ZM27.81,23.37h.08s-.04-.1-.04-.1l-.04.1Z"/>
    <path class="cls-25" d="M28.12,23.42s0,.03,0,.03c0,0,0,0,.01,0h.01v.02s-.04,0-.06,0-.04,0-.06,0h0s.01-.02.01-.02c0,0,.01,0,.02,0,0,0,0-.02,0-.03v-.16s0-.03,0-.03c0,0,0,0-.02,0h-.01v-.02s.04,0,.06,0,.04,0,.06,0h0s-.01.02-.01.02c0,0-.01,0-.01,0,0,0,0,.02,0,.03v.16Z"/>
    <path class="cls-25" d="M28.32,23.42s0,.03,0,.03c0,0,0,0,.02,0h.01s0,.02,0,.02h-.06s-.04,0-.06,0v-.02s.01,0,.01,0c0,0,.01,0,.01,0,0,0,0-.01,0-.03v-.18s-.05,0-.05,0c0,0-.02,0-.02,0,0,0,0,0,0,0v.03s-.02,0-.02,0c0-.03,0-.04,0-.06h0s.08,0,.12,0c.04,0,.08,0,.12,0h0s0,.04,0,.06h-.01s0-.03,0-.03c0,0,0,0,0,0,0,0-.01,0-.02,0h-.05s0,.19,0,.19Z"/>
    <path class="cls-25" d="M28.63,23.43s.03,0,.05,0c.02,0,.05,0,.05,0v-.04s.02,0,.02,0v.06s0,0,0,0c-.02,0-.07,0-.09,0-.02,0-.03,0-.05,0-.02,0-.03,0-.05,0h0s.01-.02.01-.02c0,0,0-.01,0-.02v-.17s-.01-.03-.02-.03c0,0,0,0-.02,0h-.01v-.02s.04,0,.06,0c.02,0,.04,0,.06,0v.02s-.01,0-.01,0c0,0-.01,0-.01,0,0,0,0,.01,0,.03v.18Z"/>
    <path class="cls-25" d="M28.84,23.37v.04s0,.02,0,.02h.02s0,.01,0,.01c-.02,0-.03,0-.04,0-.01,0-.03,0-.04,0h0s.01-.02.01-.02c.01,0,.02-.01.02-.02l.05-.17v-.03s.01-.02.01-.02v-.02s.03,0,.03,0l.12.22s.01.01.02.01h0s0,.01,0,.01c-.03,0-.04,0-.06,0-.01,0-.03,0-.06,0h0s.02-.02.02-.02c0,0,0-.01,0-.02l-.02-.04h-.1ZM28.85,23.34h.08s-.05-.1-.05-.1l-.03.1Z"/>
    <path class="cls-25" d="M29.24,23.27s.02,0,.03,0h.02s.02,0,.02-.01v-.02s.01,0,.01,0c0,.01,0,.03,0,.04,0,.01,0,.03,0,.04h-.01s0-.02,0-.02c0-.01-.01-.01-.02-.01h-.02s-.02,0-.03,0v.07s.01.03.01.03c0,0,0,0,.02,0h.02s0,.01,0,.01c-.02,0-.04,0-.06,0-.02,0-.04,0-.06,0v-.02s.01,0,.01,0c.01,0,.01,0,.02,0,0,0,0-.01,0-.03v-.16s-.02-.03-.02-.03c0,0,0,0-.02,0h-.01s0-.01,0-.01c.03,0,.04,0,.06,0,.03,0,.06,0,.08-.01.02,0,.04,0,.05,0h0s0,.06,0,.06h-.01s0-.03,0-.03c0,0-.03,0-.05,0,0,0-.03,0-.04,0v.09Z"/>
    <path class="cls-25" d="M29.66,23.23c.01.09-.04.14-.13.15-.09.01-.14-.03-.15-.12-.01-.09.04-.14.13-.16.09-.01.14.03.16.12ZM29.44,23.25c0,.06.04.12.1.11.07,0,.08-.06.07-.12,0-.06-.04-.11-.09-.11-.07,0-.08.06-.07.12Z"/>
    <path class="cls-25" d="M29.71,23.14s0-.03,0-.03c0,0,0,0-.02,0h-.01s0-.01,0-.01c.03,0,.04,0,.07-.01.03,0,.05,0,.08-.01.04,0,.08,0,.08.04,0,.03-.02.06-.05.08l.09.09s0,0,.01,0c0,0,0,0,.02,0h0s-.02.02-.04.02c-.01,0-.02,0-.03,0l-.11-.12h0s.06-.04.05-.07c0-.03-.03-.04-.06-.04,0,0-.02,0-.02,0l.03.19s0,.03,0,.03c0,0,0,0,.02,0h.01s0,.01,0,.01c-.01,0-.04,0-.06,0-.02,0-.04,0-.06.01v-.02s.01,0,.01,0c.01,0,.01,0,.01,0,0,0,0-.01,0-.03l-.03-.16Z"/>
    <path class="cls-25" d="M30.23,23.24s-.05.03-.08.04c-.09.02-.16-.02-.18-.11-.02-.09.04-.14.12-.16.03,0,.06,0,.09,0h0s0,.05,0,.06h-.01s0-.03,0-.03c-.02-.02-.05-.02-.07-.01-.06.01-.08.06-.07.12.02.07.07.11.13.09.02,0,.05-.02.07-.03h0s0,.02,0,.02Z"/>
    <path class="cls-25" d="M30.32,23.09s.02,0,.02,0h.03s.02-.01.02-.02v-.02s.01,0,.01,0c0,.01,0,.03,0,.04,0,.01,0,.03,0,.04h-.01s0-.01,0-.01c0,0-.01-.01-.03,0h-.02s-.02.01-.02.01l.02.1s.03,0,.05,0c.02,0,.04-.01.04-.02v-.04s.01,0,.01,0v.06s0,0,0,0c-.02,0-.07.02-.09.02-.01,0-.03,0-.05,0-.02,0-.03,0-.04.01h0s.01-.02.01-.02c0,0,0-.01,0-.02l-.04-.17s0-.03-.01-.03c0,0,0,0-.02,0h-.01s0,0,0,0c.03,0,.04,0,.06-.01.03,0,.06-.01.08-.02.02,0,.04,0,.05-.01h0s0,.06,0,.06h-.01s-.01-.02-.01-.02c0,0-.03,0-.04,0-.02,0-.03,0-.05.01l.02.09Z"/>
  </g>
</svg>