<?xml version="1.0" encoding="UTF-8"?>
<svg id="Capa_1" data-name="Capa 1" xmlns="http://www.w3.org/2000/svg" viewBox="0 0 56 38">
  <defs>
    <style>
      .cls-1 {
        fill: #010101;
      }

      .cls-2 {
        fill: #019939;
      }

      .cls-3 {
        fill: #fff;
      }

      .cls-4 {
        fill: #e40520;
      }
    </style>
  </defs>
  <g id="rect5">
    <g id="rect5-2" data-name="rect5">
      <rect class="cls-3" x="-1.25" y="-.5" width="58.5" height="39"/>
    </g>
  </g>
  <rect id="rect3" class="cls-4" x="-1.25" y="-.5" width="58.5" height="13"/>
  <rect id="rect7" class="cls-1" x="-1.25" y="25.5" width="58.5" height="13"/>
  <g id="g9">
    <g id="g4314">
      <g id="g4316">
        <path id="path4318" class="cls-2" d="M16.54,23.83l-.34-.37.34-.37.34-.37.34.37.34.37-.34.37-.34.37-.34-.37h0ZM14.23,23.64c-.12-.05-.32-.21-.45-.36-.24-.29-.3-.42-.13-.33.24.14.72.23.9.17.63-.23.78-1.15.27-1.73-.1-.11-.18-.25-.18-.29s.11-.14.23-.2c.18-.09.27-.18.38-.41.12-.23.17-.28.22-.23.08.07.35.78.35.91,0,.07.1.09.54.09h.54l-.08-.22c-.05-.12-.12-.28-.17-.36-.08-.13-.08-.15,0-.21.04-.03.19-.15.33-.25.14-.1.27-.24.29-.29.05-.14.35-.54.4-.54.02,0,.04.42.04.94v.94h6.75v-2.69l-.38-.25-.38.32v1.91h-5.67s2.84-4.16,3.43-5.03c.59-.87,1.1-1.59,1.12-1.59.02,0,.05.07.07.16.09.49.16.77.23.92.09.19.04.27-.2.27-.11,0-.37.35-1.59,2.13-.8,1.17-1.48,2.27-1.48,2.27h3.27v-1.38l1.26-.95,1.19.94v3.92h-9.38l-.09.38c-.11.46-.3.78-.55.97-.24.17-.77.22-1.08.1h0ZM25.93,19.15c0-2.13.02-3.07.06-3.09.03-.02.17.09.31.25.14.16.39.41.55.56.26.24.28.28.21.34-.27.18-.26.12-.26,2.15v1.91h.52c.46,0,.54-.02.76-.15.26-.17.28-.15.15.19-.05.12-.1.37-.12.55l-.03.32-1.07.02-1.07.02v-3.05h0Z"/>
        <path id="path4320" class="cls-2" d="M31.51,21.41c.03-.86.11-1.15.4-1.43.22-.21.54-.31.91-.29l.28.02.02-.35c.02-.45-.02-.6-.15-.65-.16-.06-.13-.24.07-.38.1-.07.33-.29.53-.51.19-.21.37-.39.39-.39.02,0,.04.85.04,1.89v1.89h.76v-1.94c0-1.69-.01-1.95-.09-2.04-.05-.05-.11-.09-.14-.09-.12,0-.03-.24.13-.35.1-.07.33-.29.53-.5.19-.21.37-.37.39-.35.02.02.04,1.21.04,2.65v2.62h.76v-5.37l-.13-.13c-.07-.07-.13-.16-.13-.2s.17-.22.37-.4c.21-.18.43-.41.49-.51.28-.42.27-.49.27,3.68v3.86h-5.76l.03-.75h0ZM33.13,20.83v-.38h-.21c-.29,0-.55.27-.55.56v.2h.76v-.38h0ZM37.85,19.1c0-2.14.02-3.08.06-3.1.03-.02.17.09.31.25.14.16.39.41.55.57.26.24.29.29.21.34-.27.18-.26.12-.26,2.16v1.91h.53c.48,0,.55-.01.74-.15.11-.08.22-.14.24-.12.02.02-.01.15-.07.29-.05.14-.11.4-.13.58l-.03.32-1.07.02-1.07.02v-3.07h0ZM33.58,15.89c-.09-.04-.21-.11-.24-.15-.06-.07-.03-.07.19-.04.38.06.62-.01.84-.25l.19-.21.26.1c.15.06.3.09.34.07.1-.04.29-.37.27-.47-.02-.13.08-.11.15.03.13.26.02.6-.23.7-.12.05-.24.05-.43,0-.24-.06-.28-.05-.39.06-.24.24-.6.31-.94.17h0ZM34.23,14.91c-.13-.1-.41-.59-.42-.75,0-.14.01-.18.1-.19.16-.02.23.09.35.54.1.37.09.49-.03.4h0Z"/>
      </g>
    </g>
  </g>
</svg>