<?xml version="1.0" encoding="UTF-8"?>
<svg id="Capa_1" data-name="Capa 1" xmlns="http://www.w3.org/2000/svg" viewBox="0 0 56 38">
  <defs>
    <style>
      .cls-1 {
        fill: #fff;
      }

      .cls-2 {
        fill: #db0d1b;
      }

      .cls-3 {
        fill: #1c3e92;
      }

      .cls-4 {
        fill: #f6ca01;
      }
    </style>
  </defs>
  <g>
    <rect class="cls-1" x="-1.25" y="-.5" width="58.5" height="39"/>
    <rect class="cls-3" x="-1.25" y="28.75" width="58.5" height="9.75"/>
    <rect class="cls-3" x="-1.25" y="-.5" width="58.5" height="19.5"/>
    <rect class="cls-2" x="-1.25" y="22.25" width="58.5" height="3.25"/>
  </g>
  <g>
    <polygon class="cls-4" points="19.71 12.17 19.28 13.52 17.86 13.52 19 14.36 18.57 15.7 19.71 14.87 20.86 15.7 20.42 14.36 21.57 13.52 20.15 13.52 19.71 12.17"/>
    <polygon class="cls-4" points="13.98 14.04 13.54 15.38 12.13 15.38 13.27 16.22 12.84 17.56 13.98 16.73 15.13 17.56 14.69 16.22 15.84 15.38 14.42 15.38 13.98 14.04"/>
    <polygon class="cls-4" points="24.73 16.22 24.3 17.56 25.44 16.73 26.59 17.56 26.15 16.22 27.3 15.38 25.88 15.38 25.44 14.04 25.01 15.38 23.59 15.38 24.73 16.22"/>
    <polygon class="cls-4" points="28.55 20.26 27.13 20.26 28.28 21.09 27.84 22.44 28.98 21.61 30.13 22.44 29.69 21.09 30.84 20.26 29.42 20.26 28.98 18.91 28.55 20.26"/>
    <polygon class="cls-4" points="29.42 26.29 28.98 24.94 28.55 26.29 27.13 26.29 28.28 27.12 27.84 28.47 28.98 27.63 30.13 28.47 29.69 27.12 30.84 26.29 29.42 26.29"/>
    <polygon class="cls-4" points="25.88 31.16 25.44 29.81 25.01 31.16 23.59 31.16 24.73 31.99 24.3 33.34 25.44 32.51 26.59 33.34 26.15 31.99 27.3 31.16 25.88 31.16"/>
    <polygon class="cls-4" points="20.15 33.02 19.71 31.68 19.28 33.02 17.86 33.02 19 33.86 18.57 35.2 19.71 34.37 20.86 35.2 20.42 33.86 21.57 33.02 20.15 33.02"/>
    <polygon class="cls-4" points="14.42 31.16 13.98 29.81 13.54 31.16 12.13 31.16 13.27 31.99 12.84 33.34 13.98 32.51 15.13 33.34 14.69 31.99 15.84 31.16 14.42 31.16"/>
    <polygon class="cls-4" points="11.15 27.12 12.29 26.29 10.88 26.29 10.44 24.94 10 26.29 8.58 26.29 9.73 27.12 9.29 28.47 10.44 27.63 11.58 28.47 11.15 27.12"/>
    <polygon class="cls-4" points="9.73 21.09 9.29 22.44 10.44 21.61 11.58 22.44 11.15 21.09 12.29 20.26 10.88 20.26 10.44 18.91 10 20.26 8.58 20.26 9.73 21.09"/>
  </g>
</svg>