<?xml version="1.0" encoding="UTF-8"?>
<svg id="Capa_1" data-name="Capa 1" xmlns="http://www.w3.org/2000/svg" viewBox="0 0 56 38">
  <defs>
    <style>
      .cls-1 {
        fill: #fff;
      }

      .cls-2 {
        fill: #174194;
      }

      .cls-3 {
        fill: #e40428;
      }
    </style>
  </defs>
  <g>
    <rect class="cls-2" x="-.26" y="-.29" width="56.52" height="38.58"/>
    <g>
      <rect class="cls-1" x="9.08" y="11.27" width="4.6" height="7.94"/>
      <polygon class="cls-1" points="-.11 19.2 2.4 19.2 11.13 11.34 8.61 9.08 -.11 16.93 -.11 19.2"/>
      <polygon class="cls-3" points="1.57 19.2 9.06 12.45 7.38 12.45 -.11 19.2 1.57 19.2"/>
      <polygon class="cls-1" points="20.36 19.2 22.87 19.2 22.87 16.94 14.15 9.08 11.64 11.34 20.36 19.2"/>
      <polygon class="cls-3" points="22.87 19.2 22.87 17.69 17.06 12.45 15.38 12.45 22.87 19.2"/>
      <polygon class="cls-1" points="22.87 -.09 20.36 -.09 11.63 7.77 14.14 10.03 22.87 2.18 22.87 -.09"/>
      <polygon class="cls-3" points="21.19 -.09 13.7 6.66 15.38 6.66 22.87 -.09 21.19 -.09"/>
      <polygon class="cls-1" points="2.4 -.09 -.11 -.09 -.11 2.17 8.61 10.03 11.12 7.77 2.4 -.09"/>
      <rect class="cls-1" x="-.11" y="6.66" width="9.36" height="5.79"/>
      <rect class="cls-1" x="9.08" y="-.08" width="4.6" height="7.9"/>
      <polygon class="cls-3" points="-.11 -.09 -.11 1.42 5.7 6.66 7.38 6.66 -.11 -.09"/>
      <rect class="cls-1" x="13.5" y="6.67" width="9.37" height="5.79"/>
      <polygon class="cls-3" points="12.76 7.83 12.76 -.08 10 -.08 10 7.82 -.11 7.82 -.11 11.29 10 11.29 10 11.3 10 11.3 10 19.21 12.76 19.21 12.76 11.3 22.87 11.3 22.87 7.83 12.76 7.83"/>
    </g>
  </g>
  <polygon class="cls-1" points="41.71 7.81 43.11 12.14 39.43 9.46 43.98 9.46 40.3 12.14 41.71 7.81"/>
  <polygon class="cls-3" points="41.71 8.65 42.62 11.46 40.23 9.72 43.18 9.72 40.79 11.46 41.71 8.65"/>
  <polygon class="cls-1" points="41.71 25.29 43.27 30.08 39.19 27.12 44.23 27.12 40.15 30.08 41.71 25.29"/>
  <polygon class="cls-3" points="41.71 26.13 42.77 29.41 39.98 27.38 43.43 27.38 40.64 29.41 41.71 26.13"/>
  <polygon class="cls-1" points="47.56 13.16 48.82 17.02 45.53 14.63 49.59 14.63 46.31 17.02 47.56 13.16"/>
  <polygon class="cls-3" points="47.56 14 48.32 16.34 46.33 14.89 48.79 14.89 46.8 16.34 47.56 14"/>
  <polygon class="cls-1" points="34.88 14.68 36.28 19.01 32.6 16.33 37.15 16.33 33.47 19.01 34.88 14.68"/>
  <polygon class="cls-3" points="34.88 15.52 35.79 18.33 33.4 16.59 36.35 16.59 33.96 18.33 34.88 15.52"/>
</svg>