<?xml version="1.0" encoding="UTF-8"?>
<svg id="Capa_1" data-name="Capa 1" xmlns="http://www.w3.org/2000/svg" viewBox="0 0 56 38">
  <defs>
    <style>
      .cls-1, .cls-2, .cls-3, .cls-4 {
        fill-rule: evenodd;
      }

      .cls-1, .cls-5 {
        fill: #fff;
      }

      .cls-2 {
        fill: #3664ad;
      }

      .cls-6 {
        fill: #e51b27;
      }

      .cls-7, .cls-3 {
        fill: #ffcc07;
      }

      .cls-8 {
        fill: #2b58a5;
      }

      .cls-9 {
        fill: none;
        stroke: #2f64ae;
        stroke-width: .38px;
      }

      .cls-10 {
        fill: #159438;
      }

      .cls-4 {
        fill: #e5252e;
      }
    </style>
  </defs>
  <rect class="cls-5" x="-1.25" y="-.5" width="58.5" height="39"/>
  <rect class="cls-8" x="-1.25" y="25.5" width="58.5" height="13"/>
  <rect class="cls-6" x="-1.25" y="-.5" width="58.5" height="13"/>
  <g>
    <path class="cls-1" d="M32.95,19.01c0,2.73-2.22,4.95-4.95,4.95s-4.95-2.22-4.95-4.95,2.22-4.95,4.95-4.95,4.95,2.22,4.95,4.95Z"/>
    <path class="cls-9" d="M32.95,19.01c0,2.73-2.22,4.95-4.95,4.95s-4.95-2.22-4.95-4.95,2.22-4.95,4.95-4.95,4.95,2.22,4.95,4.95Z"/>
    <path class="cls-2" d="M29.6,18.87c0,.88-.72,1.6-1.6,1.6s-1.6-.72-1.6-1.6.72-1.6,1.6-1.6,1.6.72,1.6,1.6Z"/>
    <polygon class="cls-3" points="28.87 19.98 28 19.38 27.13 19.98 27.46 19.02 26.7 18.42 27.67 18.42 28 17.46 28.33 18.42 29.3 18.42 28.54 19.02 28.87 19.98"/>
    <path class="cls-4" d="M32.33,19.01c0,2.39-1.94,4.33-4.33,4.33s-4.33-1.94-4.33-4.33,1.94-4.33,4.33-4.33,4.33,1.94,4.33,4.33ZM31.25,19.01c0,1.79-1.45,3.25-3.25,3.25s-3.25-1.46-3.25-3.25,1.46-3.25,3.25-3.25,3.25,1.45,3.25,3.25Z"/>
    <path class="cls-7" d="M31.24,19.77l.28.1.46-.08-.04.09-.24.04s-.09.01-.13.02c.03.03.06.07.09.11l.15.19-.03.09-.29-.37-.28-.1.03-.08Z"/>
    <path class="cls-7" d="M32.02,18.69v.08s-.4.04-.4.04c-.07,0-.13,0-.17,0-.04-.01-.08-.03-.11-.07-.03-.03-.05-.08-.05-.14,0-.06,0-.11.02-.15.02-.04.05-.07.09-.09.04-.02.1-.04.17-.04l.4-.05v.08s-.39.04-.39.04c-.06,0-.11.02-.13.03-.03.01-.05.03-.06.06-.01.03-.02.06-.01.09,0,.06.03.1.06.12.03.02.09.03.18.02l.4-.04Z"/>
    <path class="cls-7" d="M31.46,17.87l.08-.02.05.26-.26.05s-.08-.07-.11-.11c-.03-.04-.04-.08-.05-.13-.01-.06,0-.12.01-.17.02-.06.05-.1.1-.14.05-.04.11-.06.18-.08.07-.01.13-.01.2,0,.06.01.11.04.15.08.04.04.06.09.08.15,0,.04,0,.09,0,.12,0,.04-.03.07-.05.1-.03.03-.06.05-.1.07l-.04-.07s.06-.03.08-.05c.02-.02.03-.04.04-.07,0-.03,0-.06,0-.09,0-.04-.02-.07-.04-.09-.02-.03-.04-.04-.06-.06-.02-.01-.05-.02-.08-.02-.05,0-.09,0-.14,0-.06.01-.11.03-.15.06-.04.03-.06.06-.07.1-.01.04-.02.08,0,.12,0,.03.02.07.04.1.02.03.04.05.06.06l.13-.02-.04-.18h0Z"/>
    <polygon class="cls-7" points="28.51 15.65 28.63 14.96 28.71 14.97 28.6 15.58 28.9 15.64 28.89 15.72 28.51 15.65"/>
    <polygon class="cls-7" points="27.82 15.6 27.82 14.9 28.27 14.9 28.27 14.98 27.9 14.98 27.9 15.2 28.25 15.2 28.25 15.28 27.9 15.28 27.9 15.52 28.29 15.52 28.29 15.6 27.82 15.6"/>
    <path class="cls-7" d="M25.87,16.05l.08-.04c.04.07.05.13.04.19,0,.06-.04.11-.09.15-.05.04-.1.07-.16.07-.05,0-.1,0-.16-.04-.05-.03-.1-.07-.15-.12-.05-.05-.08-.11-.1-.17-.02-.06-.02-.11,0-.16.02-.05.05-.09.09-.13.05-.04.1-.06.15-.06s.11.02.17.06l-.05.07s-.08-.04-.12-.04-.07.01-.1.04c-.04.03-.06.07-.07.11,0,.04,0,.08.02.12.02.04.04.08.07.12.04.05.08.08.12.1.04.02.08.03.12.03.04,0,.07-.02.1-.04.04-.03.05-.07.06-.11,0-.04,0-.09-.04-.14Z"/>
    <polygon class="cls-7" points="25.58 16.67 25.05 16.19 25.11 16.13 25.63 16.6 25.58 16.67"/>
    <polygon class="cls-7" points="25.24 17.07 24.68 16.64 24.73 16.57 25.22 16.95 25.41 16.71 25.48 16.76 25.24 17.07"/>
    <path class="cls-7" d="M24.19,17.48l.03-.08.38.15c.07.03.11.05.15.08.03.03.05.07.07.11.01.04,0,.09-.02.15-.02.05-.05.09-.08.12-.03.03-.08.04-.12.04-.05,0-.1-.01-.17-.04l-.38-.15.03-.08.38.15c.06.02.1.03.13.04.03,0,.06,0,.08-.02.02-.02.04-.04.06-.08.02-.06.02-.1,0-.14-.02-.04-.07-.07-.15-.1l-.38-.15h0Z"/>
    <polygon class="cls-7" points="24.6 19.18 23.9 19.19 23.89 18.74 23.98 18.74 23.98 19.11 24.2 19.1 24.19 18.76 24.28 18.76 24.28 19.1 24.52 19.1 24.52 18.72 24.6 18.72 24.6 19.18 24.6 19.18"/>
    <path class="cls-7" d="M27.3,15.61l.13-.03s.07-.02.09-.03c.02-.01.04-.03.05-.05.01-.03.02-.06.03-.1,0-.04,0-.08,0-.14-.02-.07-.04-.13-.07-.16-.03-.04-.06-.06-.09-.06-.02,0-.06,0-.11,0l-.13.03.11.53ZM27.23,15.7l-.14-.69.21-.04s.08-.01.11-.01c.04,0,.07.01.1.03.04.03.07.06.1.1.02.04.04.1.06.16.01.05.01.1.01.14,0,.04-.01.08-.02.11-.01.03-.03.05-.04.07-.02.02-.04.04-.07.05-.03.01-.06.02-.1.03l-.22.04Z"/>
    <path class="cls-7" d="M29.75,15.7l.14.07s.09.03.12.02c.03-.01.05-.03.07-.07.01-.03.02-.05.02-.08,0-.03-.01-.05-.03-.06-.01-.01-.03-.02-.07-.04l-.14-.07-.12.22ZM29.51,15.98l.33-.62.21.11s.06.03.08.05c.03.02.04.04.05.06.01.02.02.05.01.08,0,.03-.01.06-.03.09-.03.05-.07.09-.12.11-.05.02-.11.01-.19-.03l-.14-.07-.13.25-.07-.04Z"/>
    <path class="cls-7" d="M30.19,16.08l.16.14.08-.19c.02-.06.05-.1.06-.14-.04.03-.07.05-.11.08l-.19.11ZM29.87,16.17l.65-.36.07.06-.28.69-.07-.06.09-.21-.19-.17-.19.11-.06-.06Z"/>
    <path class="cls-7" d="M30.73,16.47l.11.14s.04.05.06.06c.02.01.04.02.06.01.02,0,.04-.01.06-.03.03-.02.04-.04.05-.08,0-.03,0-.06-.04-.1l-.12-.16-.19.14ZM30.37,16.64l.56-.43.17.22s.05.08.06.11c0,.03,0,.06-.01.1-.01.03-.04.06-.07.08-.04.03-.08.04-.13.04-.04,0-.09-.02-.13-.07,0,.02,0,.04,0,.06,0,.04-.02.07-.03.11l-.09.2-.06-.08.07-.16s.03-.08.04-.11c0-.03.01-.05.01-.06,0-.02,0-.03,0-.04,0,0-.01-.02-.02-.04l-.06-.08-.25.19-.05-.07Z"/>
    <path class="cls-7" d="M31.08,17.14l.1.19.14-.15s.08-.08.11-.11c-.04.01-.09.03-.13.04l-.21.04ZM30.74,17.12l.73-.13.04.08-.49.57-.05-.08.15-.17-.13-.23-.22.04-.04-.08h0Z"/>
    <path class="cls-7" d="M31.63,19.15l-.02.21.2-.04c.06-.01.11-.02.15-.03-.04-.01-.09-.03-.13-.05l-.2-.09ZM31.36,18.95l.67.31v.09s-.74.18-.74.18v-.09s.23-.05.23-.05l.03-.26-.2-.09v-.09Z"/>
    <path class="cls-7" d="M24.31,19.83l-.04-.17s-.02-.07-.03-.08c-.01-.02-.03-.03-.05-.04-.02,0-.04,0-.07,0-.03,0-.06.02-.07.05-.02.03-.02.06-.01.11l.04.19.23-.05ZM24.71,19.83l-.69.15-.06-.27c-.01-.05-.01-.1,0-.13,0-.03.02-.06.05-.08.03-.02.06-.04.1-.05.05-.01.09,0,.13.01.04.02.07.06.09.12,0-.03.01-.04.02-.06.02-.03.05-.06.08-.09l.16-.15.02.1-.13.11s-.06.06-.08.08c-.02.02-.03.04-.04.05,0,.01,0,.03-.01.04,0,.01,0,.03,0,.05l.02.09.31-.07.02.08Z"/>
    <path class="cls-7" d="M24.27,18.45v-.16c.02-.05,0-.09-.01-.12-.02-.02-.05-.04-.09-.04-.03,0-.05,0-.08.01-.02.01-.04.03-.04.05,0,.01-.01.04-.01.08v.16s.24.02.24.02ZM24.63,18.56l-.7-.06.02-.23s0-.07.01-.09c0-.03.02-.05.04-.07.02-.02.04-.03.07-.04.03-.01.06-.01.1-.01.06,0,.11.03.15.06.04.04.05.1.05.19v.16s.27.02.27.02v.08Z"/>
    <path class="cls-7" d="M24.9,17.4l.09-.13s.02-.04.03-.05c0-.02.01-.03.01-.05,0-.02,0-.03-.02-.05,0-.02-.02-.03-.04-.04-.02-.01-.04-.02-.07-.02-.02,0-.04,0-.06.02-.02.01-.04.04-.06.07l-.08.12.2.13ZM24.63,17.22l.07-.11s.03-.05.04-.07c0-.02,0-.04,0-.06,0-.02-.02-.03-.04-.05-.02-.01-.04-.02-.06-.02-.02,0-.04,0-.05.01-.01.01-.04.04-.06.07l-.07.1.18.12ZM24.92,17.52l-.59-.39.13-.19s.05-.07.08-.08c.03-.02.06-.02.09-.02.03,0,.06.01.09.03.03.02.04.04.06.07.01.03.02.06.02.09.03-.02.06-.04.1-.04s.07.01.11.04c.03.02.05.04.07.07.02.03.03.05.03.07,0,.02,0,.05,0,.08,0,.03-.02.06-.05.09l-.13.2Z"/>
    <path class="cls-7" d="M26.08,15.83l.18-.11-.16-.13s-.09-.07-.11-.1c.02.04.03.09.04.13l.05.21ZM26.08,16.17l-.17-.72.08-.05.59.46-.08.05-.18-.14-.22.14.06.22-.07.05Z"/>
    <g>
      <path class="cls-10" d="M27.76,21.57c-.18.07-.35.15-.48.22.12.03.24.05.37.07.08-.07.18-.14.29-.2-.04-.03-.09-.05-.14-.08l-.03-.02Z"/>
      <path class="cls-10" d="M28.84,21.14h0c-.26.1-.52.2-.76.3l.12.05h.03c.19-.08.4-.16.64-.25h0s.07-.03.07-.03l-.04-.1-.06.03Z"/>
      <path class="cls-10" d="M30.2,18c.1.07.19.19.22.34.02.09.02.17.01.25,0,0,0,.01,0,.02h0s-.03.05-.05.05c-.02,0-.04,0-.06-.03,0,0,0,0,0-.01,0,0,0,0,0-.01-.04-.07-.06-.14-.08-.22-.03-.13-.04-.26-.02-.39Z"/>
      <path class="cls-10" d="M30.39,18.87c.07.11.11.26.09.42-.01.09-.04.18-.09.25,0,0,0,.01-.01.02h0s-.04.03-.07.03c-.02,0-.04-.03-.05-.05,0,0,0-.01,0-.02,0,0,0,0,0-.01,0-.08,0-.16,0-.25.02-.14.06-.27.13-.39Z"/>
      <path class="cls-10" d="M30.24,19.8c.03.14,0,.3-.09.44-.05.09-.12.16-.19.21,0,0-.01.01-.02.01h0s-.05.01-.07,0c-.02-.02-.03-.04-.02-.07,0,0,0-.01,0-.02,0,0,0,0,0-.01.03-.08.06-.16.11-.24.08-.13.17-.24.29-.33Z"/>
      <path class="cls-10" d="M29.68,20.65c-.04.14-.13.29-.28.39-.09.06-.19.1-.28.11,0,0-.02,0-.03,0h0s-.05-.01-.07-.04c-.01-.03,0-.05,0-.08,0,0,0-.01.01-.01,0,0,0,0,.01,0,.06-.06.13-.13.21-.18.13-.09.27-.15.42-.18Z"/>
      <path class="cls-10" d="M30.69,18.22c.04.12.05.26.01.39-.02.08-.06.15-.1.21,0,0,0,.01-.01.02,0,0,0,0,0,0-.02.01-.04.02-.05.01-.02,0-.03-.03-.03-.05,0,0,0,0,0-.01h0c0-.08.02-.16.04-.23.04-.13.09-.24.16-.34Z"/>
      <path class="cls-10" d="M30.82,19.23c0,.15-.05.3-.15.43-.06.08-.13.14-.2.18,0,0-.01,0-.02.01h0s-.05,0-.06-.01c-.01-.02-.02-.04-.01-.07,0,0,0-.01,0-.02,0,0,0,0,0-.01.04-.07.08-.15.13-.22.09-.12.2-.22.31-.3Z"/>
      <path class="cls-10" d="M30.52,20.37c-.07.15-.2.29-.36.38-.1.05-.2.08-.29.08,0,0-.02,0-.03,0h0s-.05-.02-.06-.04c0-.02,0-.05.02-.07,0,0,0,0,.01-.01,0,0,0,0,.01,0,.07-.06.15-.11.24-.16.15-.08.31-.14.46-.17Z"/>
      <path class="cls-10" d="M29.77,21.29c-.14.13-.34.21-.55.23-.12,0-.24-.01-.34-.05,0,0-.02,0-.03-.01,0,0,0,0,0,0-.03-.02-.04-.04-.04-.07,0-.03.03-.05.05-.06,0,0,.01,0,.02,0,0,0,0,0,.01,0,.1-.02.21-.04.32-.05.19-.01.38,0,.54.04Z"/>
      <path class="cls-10" d="M29.7,20.95c-.07.02-.12.07-.12.11,0,.04.07.07.15.04.07-.02.13-.08.12-.12-.01-.04-.08-.06-.15-.03Z"/>
      <path class="cls-10" d="M30.41,20.03c-.05.05-.08.11-.05.14.02.04.09.03.15-.02.06-.05.08-.12.05-.15-.03-.03-.09-.02-.14.03Z"/>
      <path class="cls-10" d="M30.61,19.01c-.03.06-.03.12,0,.14.03.02.09-.01.12-.07.03-.06.02-.13-.01-.15-.04-.02-.09.02-.11.08Z"/>
      <path class="cls-10" d="M29.93,18.42c.01.09.05.18.12.27.04.05.08.1.13.15,0,0,0,0,.01.01h0s.04.02.06,0c.02,0,.03-.03.03-.05,0,0,0-.01,0-.01,0,0,0,0,0,0-.01-.07-.04-.13-.08-.19-.07-.1-.17-.16-.27-.18Z"/>
      <path class="cls-10" d="M29.94,19.14c-.02.1-.02.21.01.33.02.07.05.14.08.21,0,0,0,.01.01.02,0,0,0,0,0,0,.01.02.03.03.06.03.02,0,.04-.01.05-.04,0,0,0-.01,0-.02,0,0,0,0,0-.01.01-.07.01-.15,0-.23-.03-.13-.11-.23-.21-.3Z"/>
      <path class="cls-10" d="M29.66,19.88c-.07.09-.11.2-.13.34-.01.08-.02.17-.02.25,0,0,0,.02,0,.03,0,0,0,0,0,0,0,.03.02.05.04.06.02.01.05,0,.07-.01,0,0,0,0,.01-.01,0,0,0,0,0-.01.05-.07.09-.15.1-.24.03-.15,0-.29-.08-.4Z"/>
      <path class="cls-10" d="M29.11,20.43c-.11.06-.2.15-.28.27-.05.08-.09.16-.13.24,0,0,0,.02-.01.03h0s0,.07.01.09c.02.02.05.03.08.02,0,0,.01,0,.02,0,0,0,0,0,.01,0,.08-.04.16-.11.21-.19.09-.14.12-.3.1-.44Z"/>
      <path class="cls-10" d="M29.4,20.6c-.02.06-.08.09-.11.07-.04-.02-.04-.09-.02-.14.02-.06.07-.09.11-.07.04.02.05.08.03.14Z"/>
      <path class="cls-10" d="M29.97,19.83c0,.06-.03.11-.07.1-.04,0-.07-.06-.08-.11,0-.06.02-.1.06-.1.04,0,.08.05.08.11Z"/>
      <path class="cls-10" d="M30.18,19c.03.05.02.11-.02.12-.04.01-.09-.02-.11-.07-.03-.05-.02-.1.02-.11.04-.01.09.01.11.07Z"/>
      <path class="cls-10" d="M29.73,17.29c.11.03.23.11.31.22.05.07.08.14.09.22,0,0,0,.01,0,.02h0s-.01.05-.03.06c-.02.01-.04,0-.06,0,0,0,0,0-.01,0,0,0,0,0,0,0-.05-.05-.1-.1-.15-.17-.08-.11-.12-.22-.15-.34Z"/>
      <path class="cls-10" d="M30.24,17.32c.08.09.13.21.15.34,0,.08,0,.15-.02.22,0,0,0,.01,0,.02,0,0,0,0,0,0,0,.02-.03.03-.05.03-.02,0-.04-.01-.05-.03,0,0,0,0,0-.01,0,0,0,0,0-.01-.02-.06-.04-.13-.04-.21-.01-.12,0-.25.03-.35Z"/>
      <path class="cls-10" d="M30.44,18.04c0,.06.02.12.06.12.04,0,.07-.04.08-.11,0-.07-.03-.13-.06-.13-.04,0-.07.05-.07.11Z"/>
      <path class="cls-10" d="M29.63,17.76c.04.08.11.14.2.2.05.04.11.06.17.08,0,0,.01,0,.02,0h0s.04,0,.05-.01c.01-.01.02-.03,0-.05,0,0,0,0,0-.01,0,0,0,0,0,0-.03-.05-.08-.1-.14-.14-.09-.06-.2-.08-.3-.07Z"/>
      <path class="cls-10" d="M30.05,18.19s.05.09.02.11c-.03.02-.08.01-.12-.03-.04-.03-.05-.08-.02-.11.03-.02.08-.02.12.02Z"/>
      <path class="cls-10" d="M29.07,16.81c.11,0,.24.02.35.1.07.05.12.1.16.16,0,0,0,.01.01.02h0s0,.05,0,.06c-.01.01-.04.02-.06.02,0,0,0,0-.01,0,0,0,0,0,0,0-.07-.03-.13-.06-.19-.1-.1-.07-.18-.16-.24-.25Z"/>
      <path class="cls-10" d="M29.54,16.67c.1.05.19.15.24.26.03.07.05.14.05.2v.02h0s-.01.04-.03.05c-.02,0-.04,0-.05-.01,0,0,0,0,0,0,0,0,0,0,0,0-.04-.05-.08-.11-.11-.17-.05-.11-.08-.22-.09-.32Z"/>
      <path class="cls-10" d="M29.95,17.24c.02.06.06.1.09.09.03,0,.05-.06.03-.12-.02-.06-.07-.1-.1-.09-.03,0-.05.07-.03.12Z"/>
      <path class="cls-10" d="M29.14,17.26c.06.05.15.09.24.12.06.01.12.02.18.02h.02s.03-.02.04-.03c0-.02,0-.03-.01-.05,0,0,0,0,0,0,0,0,0,0,0,0-.05-.03-.1-.06-.17-.08-.11-.02-.21,0-.29.03Z"/>
      <path class="cls-10" d="M29.65,17.5c.05.02.08.06.06.09-.02.03-.07.04-.12.02-.05-.02-.07-.05-.06-.09.01-.03.07-.04.12-.03Z"/>
      <path class="cls-10" d="M28.34,16.58c.1-.04.22-.05.34-.02.07.02.14.06.19.1,0,0,0,0,.01.01h0s.02.04.01.06c0,.02-.03.03-.05.03h-.01s0,0,0,0c-.07,0-.13-.01-.2-.03-.11-.03-.21-.08-.3-.15Z"/>
      <path class="cls-10" d="M28.72,16.31c.11.02.21.07.3.16.05.05.09.11.11.16,0,0,0,.01,0,.02,0,0,0,0,0,0,0,.02,0,.04-.01.05-.01.01-.03.01-.05,0,0,0,0,0-.01,0h0c-.05-.04-.1-.08-.15-.13-.08-.08-.14-.17-.18-.26Z"/>
      <path class="cls-10" d="M29.26,16.7s.08.07.11.05c.03-.02.03-.07,0-.12-.04-.05-.09-.07-.12-.05-.03.02-.02.07.01.12Z"/>
      <path class="cls-10" d="M28.54,16.97c.07.03.16.04.26.03.06,0,.11-.02.17-.04,0,0,.01,0,.02,0h0s.03-.03.03-.04c0-.02,0-.03-.03-.04,0,0,0,0-.01,0,0,0,0,0,0,0-.05-.02-.11-.02-.17-.02-.1.01-.19.06-.25.12Z"/>
      <path class="cls-10" d="M29.08,17.02c.05,0,.09.03.08.07,0,.03-.05.05-.1.05-.05,0-.08-.03-.08-.06,0-.03.05-.06.1-.06Z"/>
    </g>
    <g>
      <path class="cls-10" d="M27.15,21.14l-.07-.03-.04.1.07.03c.28.11.51.2.72.31.06.03.11.06.16.09v-.15c-.27-.11-.55-.22-.84-.34Z"/>
      <path class="cls-10" d="M28.16,21.54l-.16-.07v.15c.13.08.25.16.35.24.12-.01.24-.04.37-.07-.15-.09-.35-.17-.56-.26Z"/>
      <path class="cls-10" d="M27.43,16.84s-.15.02-.3.07c-.16.05-.35.14-.53.25-.18.12-.35.26-.47.39-.12.13-.19.24-.21.26-.04.06-.07.12-.1.18-.01.03-.03.06-.04.09-.01.03-.02.06-.03.09.03-.02.05-.04.07-.07.02-.03.04-.05.07-.08.04-.05.08-.1.12-.16.02-.03.09-.13.2-.26.11-.13.27-.27.44-.39.17-.12.36-.22.5-.28.15-.06.26-.1.29-.12Z"/>
      <path class="cls-10" d="M26.81,17.24s-.13.07-.26.16c-.13.1-.29.24-.42.41-.14.17-.25.36-.33.52-.08.16-.12.29-.13.32-.02.07-.04.14-.04.21,0,.07,0,.14,0,.21.04-.06.07-.12.1-.18.03-.06.05-.13.08-.19.01-.03.05-.16.12-.31.07-.16.17-.34.29-.51.12-.17.26-.32.38-.43.12-.11.21-.18.22-.21Z"/>
      <path class="cls-10" d="M26.53,17.7s-.12.09-.23.22c-.11.13-.23.31-.32.51-.09.2-.16.42-.2.61-.04.18-.05.33-.06.36-.01.15.01.31.07.45.04-.14.06-.29.07-.44,0-.04.01-.18.04-.35.03-.18.09-.39.17-.59.08-.2.18-.38.27-.52.09-.14.16-.23.18-.26Z"/>
      <path class="cls-10" d="M26.16,18.55s-.06.11-.1.24c-.04.13-.08.31-.09.5-.02.19-.02.38,0,.54.01.16.04.28.04.31.03.13.09.25.18.35,0-.13-.01-.25-.04-.37,0-.03-.03-.15-.05-.3-.02-.15-.03-.34-.03-.52,0-.18.03-.36.05-.49.02-.13.04-.23.04-.26Z"/>
      <path class="cls-10" d="M26.18,19.34s-.02.11-.02.23c0,.12.03.27.06.43.03.16.08.31.12.44.04.13.09.22.1.25.05.1.12.19.22.25-.01-.11-.04-.21-.09-.31-.01-.02-.06-.11-.11-.24-.05-.12-.1-.28-.15-.42-.04-.15-.08-.29-.1-.41-.02-.11-.03-.19-.05-.21Z"/>
      <path class="cls-10" d="M26.46,20.04s.01.09.04.18c.03.09.09.2.15.31.06.11.12.23.18.32.05.09.1.16.11.17.05.07.13.13.22.16-.01-.09-.05-.17-.1-.24-.01-.02-.06-.08-.12-.17-.06-.09-.13-.2-.2-.3-.07-.11-.13-.21-.18-.29-.05-.08-.08-.14-.1-.15Z"/>
      <path class="cls-10" d="M27.66,16.59s-.32.01-.58.12c-.27.09-.5.26-.54.29-.07.05-.12.12-.16.2.08-.03.16-.06.23-.11.03-.03.25-.19.5-.3.25-.12.52-.17.55-.19Z"/>
      <path class="cls-10" d="M27.32,16.45s-.17.03-.35.11c-.18.08-.39.21-.57.37-.19.16-.34.35-.44.52-.1.16-.15.29-.17.33-.03.07-.05.14-.06.21,0,.03,0,.07,0,.1,0,.03,0,.07.01.1,0-.03.02-.06.04-.09l.04-.09c.03-.06.05-.12.08-.19.01-.03.06-.16.15-.31.09-.16.23-.34.4-.51.17-.16.37-.3.54-.39.17-.09.3-.13.33-.15Z"/>
      <path class="cls-10" d="M26.46,16.74s-.17.09-.32.24c-.16.15-.32.36-.44.6-.12.24-.19.5-.22.7-.03.2-.02.35-.01.39,0,.08.02.16.05.23.03.07.06.13.11.18v-.21c0-.07-.01-.14-.02-.22,0-.04-.01-.17,0-.37.02-.19.08-.43.18-.67.1-.23.25-.45.39-.6.14-.15.26-.25.28-.28Z"/>
      <path class="cls-10" d="M25.84,17.11s-.15.16-.27.37c-.12.21-.23.5-.27.8-.05.3-.02.6.04.82.05.22.13.37.15.41.08.16.19.28.32.35-.06-.14-.12-.28-.19-.43-.02-.04-.09-.17-.14-.38-.06-.2-.09-.48-.06-.77.03-.28.12-.57.22-.78.1-.21.2-.35.22-.39Z"/>
      <path class="cls-10" d="M25.18,18.34s-.05.19-.05.39c0,.21.03.47.11.72.08.25.21.47.34.62.12.15.23.24.25.26.11.1.24.15.36.17-.08-.1-.17-.2-.28-.29-.03-.02-.12-.1-.24-.24-.12-.14-.25-.34-.33-.56-.09-.23-.13-.48-.15-.68-.01-.2,0-.35-.01-.39Z"/>
      <path class="cls-10" d="M25.15,19.56s.03.16.1.33c.07.16.19.36.33.52.15.17.32.3.46.38.14.08.25.12.28.13.12.04.23.04.34.01-.1-.07-.2-.12-.31-.16-.03-.01-.13-.04-.26-.11-.13-.07-.3-.18-.44-.33-.15-.15-.27-.32-.35-.47s-.13-.27-.16-.29Z"/>
      <path class="cls-10" d="M25.64,20.62s.07.11.18.2c.1.09.24.2.4.28.15.08.32.13.44.15.13.02.22.02.24.02.1,0,.18-.03.25-.09-.09-.03-.18-.05-.27-.05-.02,0-.11,0-.22-.01-.12-.02-.27-.05-.42-.12-.15-.06-.29-.15-.4-.23-.11-.08-.19-.14-.21-.15Z"/>
    </g>
  </g>
</svg>