<?xml version="1.0" encoding="UTF-8"?>
<svg id="Capa_1" data-name="Capa 1" xmlns="http://www.w3.org/2000/svg" viewBox="0 0 56 38">
  <defs>
    <style>
      .cls-1 {
        stroke-width: .09px;
      }

      .cls-1, .cls-2, .cls-3, .cls-4 {
        stroke: #641410;
      }

      .cls-1, .cls-5 {
        fill: #fff;
      }

      .cls-2, .cls-3, .cls-4 {
        stroke-width: .08px;
      }

      .cls-2, .cls-4 {
        fill: #feea10;
      }

      .cls-6 {
        fill: #f4e600;
      }

      .cls-7 {
        fill: #088036;
      }

      .cls-3 {
        fill: none;
      }

      .cls-3, .cls-4 {
        stroke-linecap: round;
        stroke-linejoin: round;
      }

      .cls-8 {
        fill: #e62d20;
      }

      .cls-9 {
        fill: #2c4f9e;
      }

      .cls-10 {
        fill: #641410;
      }
    </style>
  </defs>
  <g id="path1339">
    <g id="path1339-2" data-name="path1339">
      <polygon class="cls-8" points="-1.25 38.5 57.25 38.5 57.25 -.5 -1.25 -.5 -1.25 28.22 -1.25 38.5"/>
    </g>
  </g>
  <path id="path1341" class="cls-7" d="M-1.25,38.5h23.4V-.5H-1.25v39Z"/>
  <g>
    <g>
      <path id="path1355" class="cls-4" d="M12.49,19.55c1.81.98,5.84,1.47,9.65,1.5,3.47,0,7.99-.54,9.68-1.43l-.05-.98c-.53.83-5.37,1.62-9.67,1.59-4.3-.03-8.29-.7-9.62-1.55v.88"/>
      <path id="path1357" class="cls-4" d="M31.91,19.41v.23c-.25.3-1.85.76-3.84,1.09-1.52.23-3.5.41-5.97.41s-4.22-.17-5.67-.39c-2.29-.33-3.76-.92-4.06-1.09v-.27c.89.59,3.28,1.02,4.09,1.15,1.44.22,3.3.39,5.64.39,2.46,0,4.43-.17,5.94-.41,1.43-.21,3.48-.75,3.88-1.1h0ZM31.91,18.58v.23c-.25.3-1.85.76-3.84,1.09-1.52.23-3.5.41-5.97.41s-4.22-.17-5.67-.39c-2.29-.33-3.76-.92-4.05-1.09v-.27c.88.59,3.28,1.02,4.09,1.15,1.44.22,3.3.39,5.64.39,2.46,0,4.43-.17,5.94-.41,1.43-.21,3.48-.75,3.88-1.1"/>
      <path id="path1359" class="cls-4" d="M31.91,19.41v.23c-.25.3-1.85.76-3.85,1.09-1.52.23-3.5.41-5.97.41s-4.22-.17-5.67-.39c-2.29-.33-3.76-.92-4.06-1.09v-.27c.89.59,3.28,1.02,4.09,1.15,1.44.22,3.3.39,5.64.39,2.46,0,4.43-.17,5.94-.41,1.43-.21,3.48-.75,3.88-1.1h0ZM31.91,18.58v.23c-.25.3-1.85.76-3.84,1.09-1.52.23-3.5.41-5.97.41s-4.22-.17-5.67-.39c-2.29-.33-3.76-.92-4.05-1.09v-.27c.88.59,3.28,1.02,4.09,1.15,1.44.22,3.3.39,5.64.39,2.46,0,4.43-.17,5.94-.41,1.43-.21,3.48-.75,3.88-1.1h0Z"/>
      <path id="path1343" class="cls-4" d="M29.78,25.05c-2.95-.09-16.45-8.52-16.54-9.86l.75-1.24c1.34,1.95,15.15,10.15,16.5,9.86l-.7,1.25"/>
      <path id="path1347" class="cls-4" d="M13.82,13.77c-.26.71,3.53,3.05,8.08,5.83,4.56,2.77,8.49,4.49,8.78,4.24.02-.03.14-.25.13-.25-.05.08-.19.11-.4.05-1.23-.35-4.44-1.83-8.42-4.24-3.98-2.41-7.44-4.63-7.98-5.58-.04-.07-.07-.19-.06-.28h-.01s-.11.2-.11.2l-.02.03h0ZM29.85,25.09c-.05.09-.14.09-.32.07-1.1-.12-4.44-1.75-8.4-4.12-4.6-2.76-8.41-5.27-7.99-5.92l.11-.2h.02c-.37,1.12,7.5,5.62,7.97,5.91,4.55,2.82,8.4,4.47,8.73,4.04l-.12.21h0Z"/>
      <path id="path1361" class="cls-4" d="M22.13,24.88c-4.17-.03-7.74-1.14-8.5-1.32l.55.86c1.33.56,4.82,1.4,7.99,1.3,3.17-.09,5.94-.34,7.89-1.29l.56-.89c-1.33.63-5.86,1.33-8.49,1.34"/>
      <path id="path1363" class="cls-4" d="M30.27,24.24c-.08.13-.17.25-.25.37-.92.32-2.37.67-2.98.76-1.25.26-3.18.45-4.9.45-3.7-.05-6.72-.78-8.14-1.39l-.12-.2.02-.03.19.08c2.53.9,5.37,1.27,8.06,1.33,1.71,0,3.42-.2,4.81-.44,2.12-.43,2.98-.75,3.24-.89l.07-.04h0ZM30.76,23.43s0,0,0,0c-.06.11-.13.21-.19.32-.49.18-1.82.57-3.77.84-1.28.17-2.08.34-4.63.39-4.78-.12-7.87-1.06-8.61-1.29l-.11-.21c2.77.72,5.6,1.23,8.72,1.28,2.33-.05,3.32-.22,4.6-.4,2.27-.35,3.41-.73,3.76-.83,0,0,0-.01-.02-.02l.25-.09"/>
      <path id="path1365" class="cls-4" d="M30.27,24.24c-.08.13-.17.25-.25.37-.92.32-2.37.67-2.98.76-1.25.26-3.18.45-4.9.45-3.7-.05-6.72-.78-8.14-1.39l-.12-.2.02-.03.19.08c2.53.91,5.37,1.27,8.06,1.33,1.71,0,3.42-.2,4.81-.44,2.12-.43,2.98-.75,3.24-.89l.07-.04h0ZM30.76,23.43s0,0,0,0c-.06.11-.13.21-.19.32-.49.18-1.82.57-3.77.84-1.28.17-2.08.34-4.63.39-4.78-.12-7.87-1.06-8.61-1.29l-.11-.21c2.77.72,5.6,1.23,8.72,1.28,2.33-.05,3.33-.22,4.6-.4,2.27-.35,3.41-.73,3.75-.83,0,0,0-.01-.02-.02l.25-.09h0Z"/>
      <path class="cls-4" d="M30.85,14.76l-.45-.73c-.53.29-1.51.54-2.71.74v.79c1.21-.2,2.31-.46,3.16-.8Z"/>
      <g>
        <path class="cls-4" d="M30.58,14.03l-.15-.24c-.15.12-1.06.55-2.75.83v.22c1.71-.3,2.69-.65,2.9-.82Z"/>
        <path class="cls-4" d="M30.82,14.53c-.15.19-1.21.6-3.14.92v.23c1.92-.34,3.22-.79,3.29-.9h0l-.14-.25Z"/>
      </g>
      <path class="cls-4" d="M22.14,9.36c-5.32,0-9.65,4.34-9.65,9.66s4.34,9.65,9.65,9.65,9.65-4.34,9.65-9.65-4.34-9.66-9.65-9.66ZM22.15,27.63c-4.73,0-8.63-3.88-8.63-8.63s3.9-8.63,8.63-8.63c2.3,0,4.4.91,5.95,2.4,1.65,1.57,2.68,3.79,2.68,6.23,0,4.75-3.9,8.63-8.63,8.63Z"/>
      <path class="cls-4" d="M22.14,9.57c-5.18,0-9.44,4.25-9.44,9.44s4.26,9.44,9.44,9.44,9.44-4.25,9.44-9.44-4.26-9.44-9.44-9.44ZM22.15,27.84c-4.85,0-8.84-3.98-8.84-8.84s3.99-8.84,8.84-8.84c2.42,0,4.63.99,6.23,2.59,1.61,1.6,2.61,3.82,2.61,6.25,0,4.86-3.99,8.84-8.84,8.84Z"/>
      <path id="path1377" class="cls-4" d="M22.45,9.2v.11h-.61v-.1h-.21v19.62h.21v-.09h.61v.09h.21V9.2h-.21Z"/>
      <line class="cls-3" x1="21.84" y1="9.31" x2="21.84" y2="28.73"/>
      <line class="cls-3" x1="22.46" y1="9.31" x2="22.46" y2="28.73"/>
      <path id="path1397" class="cls-4" d="M22.1,12.46c3.59-.02,6.72.5,8.16,1.24l.52.91c-1.25-.67-4.63-1.37-8.68-1.27-3.3.02-6.83.36-8.6,1.31l.62-1.04c1.45-.75,4.88-1.14,7.97-1.14"/>
      <path id="path1401" class="cls-4" d="M22.15,13.21c2.05,0,4.03.11,5.6.39,1.47.27,2.87.68,3.07.9l.16.27c-.49-.32-1.7-.67-3.25-.97-1.56-.29-3.54-.39-5.58-.39-2.31,0-4.11.11-5.65.38-1.63.31-2.76.74-3.04.95l.15-.29c.54-.28,1.4-.61,2.85-.87,1.59-.29,3.41-.38,5.7-.39h0ZM22.15,12.38c1.96,0,3.9.1,5.41.37,1.19.23,2.37.59,2.8.92l.23.36c-.39-.43-1.84-.83-3.12-1.06-1.5-.26-3.35-.36-5.31-.38-2.06,0-3.96.13-5.44.4-1.41.27-2.32.58-2.7.83l.2-.3c.53-.28,1.39-.54,2.47-.75,1.49-.27,3.4-.39,5.47-.4"/>
      <path id="path1419" class="cls-4" d="M14.05,13.59c2.97-.04,16.66,8.37,16.7,9.92l-.85,1.3c-.38-1.8-14.28-9.98-16.57-9.83l.72-1.39"/>
      <path id="path1425" class="cls-4" d="M13.24,14.93c.55-.37,4.6,1.43,8.83,3.98,4.22,2.56,8.26,5.45,7.89,5.99l-.12.19-.05.04s.07-.08,0-.28c-.18-.59-3.04-2.88-7.79-5.74-4.63-2.76-8.49-4.42-8.87-3.95l.12-.23h0ZM30.84,23.6c.35-.69-3.4-3.51-8.06-6.27-4.76-2.7-8.19-4.29-8.81-3.81l-.14.25s0-.02.03-.04c.11-.1.3-.09.39-.09,1.08.02,4.16,1.43,8.48,3.91,1.89,1.1,8,5.02,7.98,6.12,0,.09,0,.11-.03.16l.16-.24"/>
      <path id="path1387" class="cls-4" d="M12.45,18.6c1.21-1.11,5.68-1.84,9.64-1.82,3.96.02,8.65.83,9.68,1.79v.83c-.85-.8-4.49-1.76-9.67-1.77-5.18-.01-8.94.98-9.65,1.8v-.83"/>
      <path id="path1393" class="cls-4" d="M22.15,17.51c2.28,0,4.49.22,6.25.56,1.81.36,3.08.82,3.52,1.32v.25c-.53-.63-2.24-1.1-3.56-1.36-1.74-.34-3.94-.56-6.21-.55-2.39,0-4.62.23-6.34.56-1.38.27-3.21.82-3.44,1.35v-.26c.13-.37,1.49-.92,3.41-1.31,1.73-.34,3.96-.56,6.37-.56h0ZM22.15,16.69c2.28,0,4.49.22,6.25.56,1.81.36,3.08.82,3.52,1.32v.25c-.53-.63-2.24-1.1-3.56-1.36-1.74-.34-3.94-.56-6.21-.55-2.39,0-4.61.23-6.32.56-1.33.25-3.24.82-3.45,1.35v-.26c.13-.37,1.52-.94,3.41-1.31,1.73-.34,3.96-.56,6.37-.56"/>
      <path id="path1405" class="cls-4" d="M26.94,23.02c-1.78-.33-3.56-.38-4.8-.36-5.99.07-7.92,1.23-8.16,1.58l-.45-.73c1.53-1.11,4.78-1.73,8.64-1.66,2,.03,3.73.17,5.18.45l-.41.73"/>
      <path id="path1411" class="cls-4" d="M22.11,22.55c1.66.03,3.3.09,4.88.39l-.11.2c-1.46-.27-3.03-.37-4.76-.37-2.21-.02-4.44.19-6.39.75-.61.17-1.63.57-1.73.89l-.11-.19c.03-.19.65-.59,1.79-.92,2.23-.64,4.31-.75,6.44-.76h0s0,0,0,0ZM22.18,21.72c1.73.03,3.51.11,5.24.46l-.12.21c-1.56-.31-3.06-.41-5.11-.45-2.22,0-4.57.16-6.71.78-.69.2-1.88.64-1.92.98l-.11-.2c.03-.31,1.06-.72,1.98-.99,2.15-.63,4.51-.79,6.75-.79h0Z"/>
    </g>
    <g>
      <path id="path1431" class="cls-1" d="M16.36,20.07c0,1.59.65,3.02,1.7,4.07,1.05,1.05,2.49,1.72,4.07,1.72s3.05-.65,4.1-1.7c1.05-1.05,1.7-2.49,1.7-4.08v-7.72h-11.58v7.72h0Z"/>
      <g>
        <path class="cls-8" d="M22.13,25.59c-1.46,0-2.85-.58-3.9-1.62-1.05-1.04-1.63-2.42-1.63-3.88v-7.49s11.08.03,11.08.03l-.03,7.46c0,1.46-.58,2.84-1.62,3.88-1.05,1.04-2.43,1.61-3.9,1.61ZM18.8,20.1c0,.87.36,1.73.99,2.36.64.64,1.48.99,2.34.99s1.73-.35,2.37-.98c.54-.54.87-1.21.96-1.94.02-.13.02-.28.02-.42v-5.27s-6.68-.04-6.68-.04v5.3Z"/>
        <path class="cls-10" d="M16.64,12.66h10.98v7.43c0,1.46-.57,2.83-1.61,3.86-1.04,1.03-2.42,1.6-3.88,1.6s-2.83-.57-3.88-1.61c-1.04-1.04-1.62-2.41-1.62-3.86v-7.42M22.13,23.48c.9,0,1.75-.35,2.39-.99.54-.54.88-1.22.97-1.96.02-.12.02-.27.02-.42v-5.27s0-.06,0-.06h-.06s-6.62-.01-6.62-.01h-.06s0,.06,0,.06v5.27c0,.88.36,1.75,1,2.38.65.65,1.49,1,2.36,1M16.58,12.6v7.48s0,0,0,0c0,1.52.63,2.9,1.64,3.9,1.01,1,2.4,1.63,3.92,1.63s2.92-.62,3.92-1.62c1-1,1.63-2.38,1.63-3.91v-7.49h-11.1ZM22.13,23.42c-.91,0-1.72-.38-2.32-.98-.62-.62-.98-1.46-.98-2.33v-5.27s6.62.01,6.62.01h0s0,5.27,0,5.27c0,.13,0,.28-.02.41-.09.75-.44,1.41-.95,1.92-.6.6-1.43.97-2.35.97h0Z"/>
      </g>
      <g>
        <path id="path1485" class="cls-9" d="M21.43,16.7h0c0,.22.08.41.21.56.13.14.32.23.52.23s.38-.09.52-.23c.13-.14.21-.34.21-.55v-1.05h-1.46s0,1.05,0,1.05"/>
        <path id="use5944" class="cls-5" d="M21.77,15.9c-.08,0-.15.07-.15.15s.07.14.15.14.14-.06.14-.14-.07-.15-.14-.15"/>
        <path id="use5944-2" data-name="use5944" class="cls-5" d="M22.56,15.9c-.08,0-.15.07-.15.15s.07.14.15.14.14-.06.14-.14-.07-.15-.14-.15"/>
        <path id="use5944-3" data-name="use5944" class="cls-5" d="M22.15,16.29c-.08,0-.14.07-.14.15s.06.15.14.15.14-.07.14-.15-.06-.15-.14-.15"/>
        <path id="use5944-4" data-name="use5944" class="cls-5" d="M22.56,16.7c-.08,0-.14.06-.14.14s.06.15.14.15.15-.07.15-.15-.07-.14-.15-.14"/>
        <path id="use5944-5" data-name="use5944" class="cls-5" d="M21.77,16.7c-.08,0-.15.07-.15.15s.07.14.15.14.14-.07.14-.14-.07-.15-.14-.15"/>
      </g>
      <g>
        <g id="use3438">
          <path id="path1485-2" data-name="path1485" class="cls-9" d="M21.43,19.23h0c0,.22.08.41.21.56.13.14.32.23.52.23s.38-.09.52-.23c.13-.14.21-.34.21-.56v-1.05h-1.46s0,1.05,0,1.05"/>
        </g>
        <g id="use5954">
          <path id="use5944-6" data-name="use5944" class="cls-5" d="M22.58,19.24c-.08,0-.15.07-.15.15s.07.15.15.15.14-.07.14-.15-.06-.15-.14-.15"/>
        </g>
        <path id="use5944-7" data-name="use5944" class="cls-5" d="M21.77,19.24c-.08,0-.15.07-.15.15s.07.14.15.14.14-.06.14-.14-.07-.15-.14-.15"/>
        <path id="use5944-8" data-name="use5944" class="cls-5" d="M22.17,18.83c-.08,0-.15.07-.15.15s.07.14.15.14.14-.07.14-.14-.07-.15-.14-.15"/>
        <path id="use5944-9" data-name="use5944" class="cls-5" d="M22.58,18.44c-.08,0-.14.07-.14.15s.06.15.14.15.15-.07.15-.15-.07-.15-.15-.15"/>
        <path id="use5944-10" data-name="use5944" class="cls-5" d="M21.77,18.44c-.08,0-.15.06-.15.14s.07.15.15.15.14-.07.14-.15-.07-.14-.14-.14"/>
      </g>
      <g>
        <g id="use3436">
          <path id="path1485-3" data-name="path1485" class="cls-9" d="M23.45,19.24h0c0,.22.08.41.22.55.13.14.32.23.52.23s.38-.09.52-.23c.13-.14.21-.34.21-.56v-1.05h-1.46s0,1.05,0,1.05"/>
        </g>
        <path id="use5944-11" data-name="use5944" class="cls-5" d="M24.6,19.24c-.08,0-.14.06-.14.14s.07.15.14.15.15-.07.15-.15-.07-.14-.15-.14"/>
        <g id="use5946">
          <path id="use5944-12" data-name="use5944" class="cls-5" d="M23.81,19.24c-.08,0-.15.07-.15.15s.07.14.15.14.14-.07.14-.14-.07-.15-.14-.15"/>
        </g>
        <g id="use5948">
          <path id="use5944-13" data-name="use5944" class="cls-5" d="M24.19,18.83c-.08,0-.14.07-.14.15s.06.15.14.15.15-.07.15-.15-.07-.15-.15-.15"/>
        </g>
        <g id="use5950">
          <path id="use5944-14" data-name="use5944" class="cls-5" d="M24.6,18.44c-.08,0-.15.06-.15.14s.07.15.15.15.14-.07.14-.15-.06-.14-.14-.14"/>
        </g>
        <g id="use5952">
          <path id="use5944-15" data-name="use5944" class="cls-5" d="M23.81,18.44c-.08,0-.15.07-.15.15s.07.14.15.14.14-.06.14-.14-.06-.15-.14-.15"/>
        </g>
      </g>
      <g>
        <g id="use3434">
          <path id="path1485-4" data-name="path1485" class="cls-9" d="M21.42,21.75h0c0,.22.08.41.21.56.13.14.32.23.52.23s.38-.09.52-.23c.13-.14.21-.34.21-.55v-1.05h-1.46s0,1.05,0,1.05"/>
        </g>
        <g id="use6358">
          <path id="use5944-16" data-name="use5944" class="cls-5" d="M22.57,21.75c-.08,0-.15.07-.15.15s.07.14.15.14.14-.06.14-.14-.06-.15-.14-.15"/>
        </g>
        <g id="use6360">
          <path id="use5944-17" data-name="use5944" class="cls-5" d="M21.77,21.75c-.08,0-.15.07-.15.15s.07.15.15.15.14-.07.14-.15-.07-.15-.14-.15"/>
        </g>
        <g id="use6356">
          <path id="use5944-18" data-name="use5944" class="cls-5" d="M22.16,21.34c-.08,0-.14.06-.14.14s.07.15.14.15.15-.07.15-.15-.07-.14-.15-.14"/>
        </g>
        <g id="use6352">
          <path id="use5944-19" data-name="use5944" class="cls-5" d="M22.57,20.95c-.08,0-.14.07-.14.15s.06.14.14.14.14-.06.14-.14-.06-.15-.14-.15"/>
        </g>
        <path id="use5944-20" data-name="use5944" class="cls-5" d="M21.77,20.95c-.08,0-.15.07-.15.15s.07.15.15.15.14-.07.14-.15-.07-.15-.14-.15"/>
      </g>
      <g>
        <g id="use3440">
          <path id="path1485-5" data-name="path1485" class="cls-9" d="M19.4,19.24h0c0,.21.08.41.21.55.13.14.32.23.52.23s.39-.09.52-.23c.13-.14.21-.34.21-.55v-1.05h-1.46v1.05"/>
        </g>
        <g>
          <path id="use5944-21" data-name="use5944" class="cls-5" d="M20.55,19.24c-.08,0-.14.07-.14.15s.06.14.14.14.14-.07.14-.14-.06-.15-.14-.15"/>
          <path id="use5944-22" data-name="use5944" class="cls-5" d="M19.76,19.24c-.08,0-.14.06-.14.14s.06.15.14.15.15-.07.15-.15-.07-.14-.15-.14"/>
          <path id="use5944-23" data-name="use5944" class="cls-5" d="M20.14,18.83c-.08,0-.15.07-.15.15s.07.14.15.14.14-.06.14-.14-.06-.15-.14-.15"/>
          <path id="use5944-24" data-name="use5944" class="cls-5" d="M20.55,18.45c-.08,0-.15.07-.15.14s.07.15.15.15.14-.07.14-.15-.07-.14-.14-.14"/>
          <path id="use6320" class="cls-6" d="M19.76,18.44c-.08,0-.14.07-.14.14s.06.15.14.15.15-.07.15-.15-.07-.14-.15-.14"/>
          <path id="use5944-25" data-name="use5944" class="cls-5" d="M19.76,18.44c-.08,0-.14.07-.14.15s.07.15.14.15.15-.07.15-.15-.07-.15-.15-.15"/>
        </g>
      </g>
      <g>
        <polygon class="cls-2" points="18.5 14.52 18.43 13.92 16.96 13.92 16.9 14.52 18.5 14.52"/>
        <path class="cls-2" d="M18.52,14.67s.06-.03.06-.07c0-.04-.03-.08-.06-.08h-1.65s-.06.03-.06.08c0,.04.03.07.06.07h1.65Z"/>
        <path class="cls-2" d="M18.49,13.79s.06-.03.06-.07-.03-.07-.06-.07h-1.58s-.06.03-.06.07.03.07.06.07h1.58Z"/>
        <path class="cls-2" d="M18.45,13.92s.06-.03.06-.07-.03-.07-.06-.07h-1.51s-.06.03-.06.07.03.07.06.07h1.51Z"/>
        <path class="cls-2" d="M17.43,12.76h0v.19s.03.05.05.05h.43s.05-.02.05-.05v-.2h-.12v.09h-.09v-.08h-.12s0,.08,0,.08h-.09v-.08h-.12Z"/>
        <polygon class="cls-2" points="17.88 13 17.51 13 17.49 13.65 17.91 13.65 17.88 13"/>
        <polygon class="cls-2" points="18.02 13.31 18.01 13.65 18.41 13.65 18.4 13.31 18.02 13.31"/>
        <path class="cls-2" d="M17.95,13.07h0v.19s.03.05.05.05h.42s.05-.02.05-.05v-.2h-.12v.09h-.08v-.09h-.12s0,.09,0,.09h-.08v-.08h-.12Z"/>
        <path class="cls-2" d="M16.92,13.07v.19s.03.05.05.05h.42s.05-.02.05-.05v-.2h-.12v.09h-.09v-.09h-.12v.09h-.09v-.08h-.11Z"/>
        <polygon class="cls-2" points="16.98 13.65 17.38 13.65 17.37 13.31 16.99 13.31 16.98 13.65"/>
        <path class="cls-10" d="M17.65,13.21v.15h.08v-.15c0-.06-.09-.06-.08,0Z"/>
        <path class="cls-10" d="M18.17,13.44v.12h.08v-.12c0-.06-.08-.06-.08,0Z"/>
        <path class="cls-10" d="M17.14,13.44v.12h.08v-.12c0-.06-.08-.06-.08,0Z"/>
        <path class="cls-2" d="M17.69,13.93s-.39.08-.4.59h.8c0-.48-.39-.59-.4-.59Z"/>
        <path class="cls-2" d="M17.69,14.11s-.22.09-.22.41h.45c0-.32-.23-.41-.23-.41Z"/>
      </g>
      <g>
        <polygon class="cls-2" points="22.94 14.52 22.87 13.92 21.4 13.92 21.33 14.52 22.94 14.52"/>
        <path class="cls-2" d="M22.96,14.67s.06-.03.06-.07c0-.04-.03-.08-.06-.08h-1.65s-.06.03-.06.08c0,.04.03.07.06.07h1.65Z"/>
        <path class="cls-2" d="M22.92,13.79s.06-.03.06-.07-.03-.07-.06-.07h-1.58s-.06.03-.06.07.03.07.06.07h1.58Z"/>
        <path class="cls-2" d="M22.89,13.92s.06-.03.06-.07-.03-.07-.06-.07h-1.51s-.06.03-.06.07.03.07.06.07h1.51Z"/>
        <path class="cls-2" d="M21.86,12.76h0v.19s.03.05.05.05h.43s.05-.02.05-.05v-.2h-.12v.09h-.09v-.08h-.12s0,.08,0,.08h-.09v-.08h-.12Z"/>
        <polygon class="cls-2" points="22.31 13 21.95 13 21.92 13.65 22.34 13.65 22.31 13"/>
        <polygon class="cls-2" points="22.46 13.31 22.44 13.65 22.85 13.65 22.84 13.31 22.46 13.31"/>
        <path class="cls-2" d="M22.38,13.07h0v.19s.03.05.05.05h.42s.05-.02.05-.05v-.2h-.12v.09h-.08v-.09h-.12s0,.09,0,.09h-.08v-.08h-.12Z"/>
        <path class="cls-2" d="M21.35,13.07v.19s.03.05.05.05h.42s.05-.02.05-.05v-.2h-.12v.09h-.09v-.09h-.12v.09h-.09v-.08h-.11Z"/>
        <polygon class="cls-2" points="21.41 13.65 21.81 13.65 21.8 13.31 21.42 13.31 21.41 13.65"/>
        <path class="cls-10" d="M22.09,13.21v.15h.08v-.15c0-.06-.09-.06-.08,0Z"/>
        <path class="cls-10" d="M22.61,13.44v.12h.08v-.12c0-.06-.08-.06-.08,0Z"/>
        <path class="cls-10" d="M21.57,13.44v.12h.08v-.12c0-.06-.08-.06-.08,0Z"/>
        <path class="cls-2" d="M22.13,13.93s-.39.08-.4.59h.8c0-.48-.39-.59-.4-.59Z"/>
        <path class="cls-2" d="M22.13,14.11s-.22.09-.22.41h.45c0-.32-.23-.41-.23-.41Z"/>
      </g>
      <g>
        <polygon class="cls-2" points="18.51 19.04 18.44 18.44 16.97 18.44 16.9 19.04 18.51 19.04"/>
        <path class="cls-2" d="M18.53,19.19s.06-.03.06-.07c0-.04-.03-.08-.06-.08h-1.65s-.06.03-.06.08.03.07.06.07h1.65Z"/>
        <path class="cls-2" d="M18.49,18.3s.06-.03.06-.07-.03-.07-.06-.07h-1.58s-.06.03-.06.07.03.07.06.07h1.58Z"/>
        <path class="cls-2" d="M18.46,18.44s.06-.03.06-.07-.03-.07-.06-.07h-1.51s-.06.03-.06.07.03.07.06.07h1.51Z"/>
        <path class="cls-2" d="M17.43,17.27h0v.19s.03.05.05.05h.43s.05-.02.05-.05v-.2h-.12v.09h-.09v-.08h-.12s0,.08,0,.08h-.09v-.08h-.12Z"/>
        <polygon class="cls-2" points="17.88 17.52 17.52 17.51 17.49 18.17 17.91 18.17 17.88 17.52"/>
        <polygon class="cls-2" points="18.03 17.83 18.02 18.17 18.42 18.17 18.41 17.83 18.03 17.83"/>
        <path class="cls-2" d="M17.95,17.58h0v.19s.03.05.05.05h.42s.05-.02.05-.05v-.2h-.12v.09h-.08v-.09h-.12s0,.09,0,.09h-.08v-.08h-.12Z"/>
        <path class="cls-2" d="M16.92,17.58v.19s.03.05.05.05h.42s.05-.02.05-.05v-.2h-.12v.09h-.09v-.09h-.12v.09h-.09v-.08h-.11Z"/>
        <polygon class="cls-2" points="16.98 18.17 17.38 18.17 17.37 17.83 16.99 17.83 16.98 18.17"/>
        <path class="cls-10" d="M17.66,17.73v.15h.08v-.15c0-.06-.09-.06-.08,0Z"/>
        <path class="cls-10" d="M18.18,17.95v.12h.08v-.12c0-.06-.08-.06-.08,0Z"/>
        <path class="cls-10" d="M17.14,17.95v.12h.08v-.12c0-.06-.08-.06-.08,0Z"/>
        <path class="cls-2" d="M17.7,18.44s-.39.08-.4.59h.8c0-.48-.39-.59-.4-.59Z"/>
        <path class="cls-2" d="M17.7,18.62s-.22.09-.22.41h.45c0-.32-.23-.41-.23-.41Z"/>
      </g>
      <g>
        <polygon class="cls-2" points="19.88 22.89 19.4 22.52 18.37 23.56 18.75 24.03 19.88 22.89"/>
        <path class="cls-2" d="M20,22.99s.02-.07,0-.1c-.03-.03-.07-.04-.1-.01l-1.17,1.17s-.02.07,0,.1c.03.03.07.03.1,0l1.17-1.17Z"/>
        <path class="cls-2" d="M19.35,22.38s.02-.06,0-.09c-.03-.03-.07-.03-.09,0l-1.12,1.12s-.02.06,0,.09c.03.03.07.03.09,0l1.12-1.12Z"/>
        <path class="cls-2" d="M19.42,22.5s.02-.06,0-.09c-.03-.03-.07-.03-.09,0l-1.07,1.07s-.02.06,0,.09c.03.03.07.03.09,0l1.07-1.07Z"/>
        <path class="cls-2" d="M17.87,22.41h0l.14.14s.05.02.07,0l.3-.3s.03-.05,0-.07l-.14-.14-.09.09.06.06-.06.06-.06-.06-.09.09.06.06-.06.06-.06-.06-.08.08Z"/>
        <polygon class="cls-2" points="18.36 22.26 18.1 22.52 18.55 23 18.84 22.7 18.36 22.26"/>
        <polygon class="cls-2" points="18.69 22.38 18.92 22.63 19.2 22.34 18.95 22.11 18.69 22.38"/>
        <path class="cls-2" d="M18.46,22.26h0l.13.13s.06.02.08,0l.3-.3s.02-.05,0-.07l-.14-.14-.08.09.06.06-.06.06-.06-.06-.08.08.06.06-.06.06-.06-.06-.08.08Z"/>
        <path class="cls-2" d="M17.73,22.99l.14.13s.05.02.08,0l.3-.3s.02-.05,0-.07l-.14-.14-.09.09.06.06-.06.06-.06-.06-.08.08.06.06-.06.06-.06-.06-.08.08Z"/>
        <polygon class="cls-2" points="18.19 23.36 18.47 23.07 18.22 22.84 17.95 23.11 18.19 23.36"/>
        <path class="cls-10" d="M18.36,22.57l.11.11.06-.06-.11-.11s-.11.02-.06.06Z"/>
        <path class="cls-10" d="M18.88,22.36l.08.08.06-.06-.08-.08s-.1.02-.05.06Z"/>
        <path class="cls-10" d="M18.15,23.1l.08.08.06-.06-.08-.08s-.1.02-.06.06Z"/>
        <path class="cls-2" d="M18.89,23.05s-.22.34.14.7l.56-.56c-.35-.33-.7-.14-.7-.14Z"/>
        <path class="cls-2" d="M19.01,23.18s-.09.22.14.45l.32-.32c-.23-.23-.46-.13-.46-.13Z"/>
      </g>
      <g>
        <polygon class="cls-2" points="25.76 14.52 25.83 13.92 27.29 13.92 27.36 14.52 25.76 14.52"/>
        <path class="cls-2" d="M25.74,14.67s-.06-.03-.06-.07c0-.04.03-.08.06-.08h1.65s.06.03.06.08c0,.04-.03.07-.06.07h-1.65Z"/>
        <path class="cls-2" d="M25.77,13.79s-.06-.03-.06-.07.03-.07.06-.07h1.58s.06.03.06.07-.03.07-.06.07h-1.58Z"/>
        <path class="cls-2" d="M25.81,13.92s-.06-.03-.06-.07.03-.07.06-.07h1.51s.06.03.06.07-.03.07-.06.07h-1.51Z"/>
        <path class="cls-2" d="M26.83,12.76h0v.19s-.03.05-.05.05h-.43s-.05-.02-.05-.05v-.2h.12v.09h.09v-.08h.12s0,.08,0,.08h.09v-.08h.12Z"/>
        <polygon class="cls-2" points="26.38 13 26.74 13 26.77 13.65 26.35 13.65 26.38 13"/>
        <polygon class="cls-2" points="26.24 13.31 26.25 13.65 25.84 13.65 25.86 13.31 26.24 13.31"/>
        <path class="cls-2" d="M26.31,13.07h0v.19s-.03.05-.05.05h-.42s-.05-.02-.05-.05v-.2h.12v.09h.08v-.09h.12s0,.09,0,.09h.08v-.08h.12Z"/>
        <path class="cls-2" d="M27.34,13.07v.19s-.03.05-.05.05h-.42s-.05-.02-.05-.05v-.2h.12v.09h.09v-.09h.12v.09h.09v-.08h.11Z"/>
        <polygon class="cls-2" points="27.28 13.65 26.88 13.65 26.89 13.31 27.27 13.31 27.28 13.65"/>
        <path class="cls-10" d="M26.6,13.21v.15h-.08v-.15c0-.06.09-.06.08,0Z"/>
        <path class="cls-10" d="M26.09,13.44v.12h-.08v-.12c0-.06.08-.06.08,0Z"/>
        <path class="cls-10" d="M27.12,13.44v.12h-.08v-.12c0-.06.08-.06.08,0Z"/>
        <path class="cls-2" d="M26.57,13.93s.39.08.4.59h-.8c0-.48.39-.59.4-.59Z"/>
        <path class="cls-2" d="M26.57,14.11s.22.09.22.41h-.45c0-.32.23-.41.23-.41Z"/>
      </g>
      <g>
        <polygon class="cls-2" points="25.75 19.04 25.82 18.44 27.29 18.44 27.36 19.04 25.75 19.04"/>
        <path class="cls-2" d="M25.73,19.19s-.06-.03-.06-.07c0-.04.03-.08.06-.08h1.65s.06.03.06.08-.03.07-.06.07h-1.65Z"/>
        <path class="cls-2" d="M25.76,18.3s-.06-.03-.06-.07.03-.07.06-.07h1.58s.06.03.06.07-.03.07-.06.07h-1.58Z"/>
        <path class="cls-2" d="M25.8,18.44s-.06-.03-.06-.07.03-.07.06-.07h1.51s.06.03.06.07-.03.07-.06.07h-1.51Z"/>
        <path class="cls-2" d="M26.83,17.27h0v.19s-.03.05-.05.05h-.43s-.05-.02-.05-.05v-.2h.12v.09h.09v-.08h.12s0,.08,0,.08h.09v-.08h.12Z"/>
        <polygon class="cls-2" points="26.38 17.52 26.74 17.51 26.77 18.17 26.35 18.17 26.38 17.52"/>
        <polygon class="cls-2" points="26.23 17.83 26.24 18.17 25.84 18.17 25.85 17.83 26.23 17.83"/>
        <path class="cls-2" d="M26.3,17.58h0v.19s-.03.05-.05.05h-.42s-.05-.02-.05-.05v-.2h.12v.09h.08v-.09h.12s0,.09,0,.09h.08v-.08h.12Z"/>
        <path class="cls-2" d="M27.34,17.58v.19s-.03.05-.05.05h-.42s-.05-.02-.05-.05v-.2h.12v.09h.09v-.09h.12v.09h.09v-.08h.11Z"/>
        <polygon class="cls-2" points="27.28 18.17 26.87 18.17 26.89 17.83 27.26 17.83 27.28 18.17"/>
        <path class="cls-10" d="M26.6,17.73v.15h-.08v-.15c0-.06.09-.06.08,0Z"/>
        <path class="cls-10" d="M26.08,17.95v.12h-.08v-.12c0-.06.08-.06.08,0Z"/>
        <path class="cls-10" d="M27.12,17.95v.12h-.08v-.12c0-.06.08-.06.08,0Z"/>
        <path class="cls-2" d="M26.56,18.44s.39.08.4.59h-.8c0-.48.39-.59.4-.59Z"/>
        <path class="cls-2" d="M26.56,18.62s.22.09.22.41h-.45c0-.32.23-.41.23-.41Z"/>
      </g>
      <g>
        <polygon class="cls-2" points="24.38 22.89 24.85 22.52 25.89 23.56 25.51 24.03 24.38 22.89"/>
        <path class="cls-2" d="M24.26,22.99s-.02-.07,0-.1c.03-.03.08-.04.1-.01l1.17,1.17s.02.07,0,.1c-.03.03-.07.03-.1,0l-1.17-1.17Z"/>
        <path class="cls-2" d="M24.91,22.38s-.02-.06,0-.09c.03-.03.07-.03.09,0l1.12,1.12s.02.06,0,.09c-.03.03-.07.03-.09,0l-1.12-1.12Z"/>
        <path class="cls-2" d="M24.84,22.5s-.02-.06,0-.09c.03-.03.07-.03.09,0l1.07,1.07s.02.06,0,.09c-.03.03-.07.03-.09,0l-1.07-1.07Z"/>
        <path class="cls-2" d="M26.39,22.41h0l-.14.14s-.05.02-.07,0l-.3-.3s-.02-.05,0-.07l.14-.14.09.09-.06.06.06.06.06-.06.09.09-.06.06.06.06.06-.06.08.08Z"/>
        <polygon class="cls-2" points="25.9 22.26 26.15 22.52 25.71 23 25.42 22.7 25.9 22.26"/>
        <polygon class="cls-2" points="25.58 22.38 25.34 22.63 25.06 22.34 25.31 22.11 25.58 22.38"/>
        <path class="cls-2" d="M25.8,22.26h0l-.13.13s-.05.02-.08,0l-.3-.3s-.02-.05,0-.07l.14-.14.08.09-.06.06.06.06.06-.06.08.08-.06.06.06.06.06-.06.08.08Z"/>
        <path class="cls-2" d="M26.53,22.99l-.14.13s-.05.02-.08,0l-.3-.3s-.02-.05,0-.07l.14-.14.09.09-.06.06.06.06.06-.06.08.08-.06.06.06.06.06-.06.08.08Z"/>
        <polygon class="cls-2" points="26.07 23.36 25.79 23.07 26.04 22.84 26.3 23.11 26.07 23.36"/>
        <path class="cls-10" d="M25.9,22.57l-.11.11-.06-.06.11-.11s.11.02.06.06Z"/>
        <path class="cls-10" d="M25.38,22.36l-.08.08-.06-.06.08-.08s.1.02.06.06Z"/>
        <path class="cls-10" d="M26.11,23.1l-.08.08-.06-.06.08-.08s.1.02.06.06Z"/>
        <path class="cls-2" d="M25.37,23.05s.22.34-.14.7l-.56-.56c.35-.33.7-.14.7-.14Z"/>
        <path class="cls-2" d="M25.24,23.18s.09.22-.14.45l-.32-.32c.23-.23.46-.13.46-.13Z"/>
      </g>
    </g>
  </g>
</svg>