<?xml version="1.0" encoding="UTF-8"?>
<svg id="Capa_1" data-name="Capa 1" xmlns="http://www.w3.org/2000/svg" viewBox="0 0 56 38">
  <defs>
    <style>
      .cls-1 {
        fill: none;
      }

      .cls-2 {
        fill: #e41b18;
      }

      .cls-3 {
        fill: #fff;
      }

      .cls-4 {
        fill: #0ba538;
      }
    </style>
  </defs>
  <g>
    <rect class="cls-3" x="-1.25" y="-.5" width="58.5" height="39"/>
    <rect class="cls-2" x="-1.25" y="25.5" width="58.5" height="13"/>
    <rect class="cls-4" x="-1.25" y="-.5" width="58.5" height="13.01"/>
    <path class="cls-3" d="M31.07,11.77h-1.62v-.65h-.97v.32h.65v.32h-.97v-.97h1.29v-.65h.32v1.29h.32v-1.29h.32v1.29h.32v-1.29h.32v1.62ZM27.84,11.77h-1.62v-.65h-.97v.65h-.32v-.97h1.62v.65h.97v-.32h-.65v-.32h.97v.97ZM25.9,11.77h-.32v-.32h.32v.32ZM29.13,10.47h-4.2v-.32h4.2v.32Z"/>
    <path class="cls-3" d="M31.1,12.51h-2.97v-.39h2.97v.39ZM27.87,12.51h-2.97v-.39h2.97v.39Z"/>
    <path class="cls-3" d="M31.07,27.86h-1.62v-.65h-.97v.32h.65v.32h-.97v-.97h1.29v-.65h.32v1.29h.32v-1.29h.32v1.29h.32v-1.29h.32v1.62ZM27.84,27.86h-1.61v-.65h-.97v.65h-.32v-.97h1.62v.65h.97v-.32h-.65v-.32h.97v.97ZM25.9,27.86h-.32v-.32h.32v.32ZM29.13,26.57h-4.2v-.32h4.2v.32Z"/>
    <path class="cls-3" d="M31.1,25.89h-2.97v-.39h2.97v.39ZM27.87,25.89h-2.97v-.39h2.97v.39Z"/>
    <path class="cls-3" d="M37.53,11.77h-1.61v-.65h-.97v.32h.65v.32h-.97v-.97h1.29v-.65h.32v1.29h.32v-1.29h.32v1.29h.32v-1.29h.32v1.62ZM34.3,11.77h-1.62v-.65h-.97v.65h-.32v-.97h1.61v.65h.97v-.32h-.64v-.32h.97v.97ZM32.36,11.77h-.32v-.32h.32v.32ZM35.59,10.47h-4.2v-.32h4.2v.32Z"/>
    <path class="cls-3" d="M37.56,12.51h-2.97v-.39h2.97v.39ZM34.33,12.51h-2.97v-.39h2.97v.39Z"/>
    <path class="cls-3" d="M37.53,27.86h-1.61v-.65h-.97v.32h.65v.32h-.97v-.97h1.29v-.65h.32v1.29h.32v-1.29h.32v1.29h.32v-1.29h.32v1.62ZM34.3,27.86h-1.62v-.65h-.97v.65h-.32v-.97h1.62v.65h.97v-.32h-.64v-.32h.97v.97ZM32.36,27.86h-.32v-.32h.32v.32ZM35.6,26.57h-4.2v-.32h4.2v.32Z"/>
    <path class="cls-3" d="M37.57,25.89h-2.97v-.39h2.97v.39ZM34.33,25.89h-2.97v-.39h2.97v.39Z"/>
    <path class="cls-3" d="M18.14,11.77h-1.62v-.65h-.97v.32h.65v.32h-.97v-.97h1.29v-.65h.32v1.29h.32v-1.29h.32v1.29h.32v-1.29h.32v1.62ZM14.91,11.77h-1.62v-.65h-.97v.65h-.32v-.97h1.62v.65h.97v-.32h-.65v-.32h.97v.97ZM12.97,11.77h-.32v-.32h.32v.32ZM16.2,10.47h-4.2v-.32h4.2v.32Z"/>
    <path class="cls-3" d="M18.17,12.51h-2.97v-.39h2.97v.39ZM14.94,12.51h-2.97v-.39h2.97v.39Z"/>
    <path class="cls-3" d="M18.14,27.86h-1.62v-.65h-.97v.32h.64v.32h-.97v-.97h1.29v-.65h.32v1.29h.32v-1.29h.32v1.29h.32v-1.29h.32v1.62ZM14.91,27.86h-1.62v-.65h-.97v.65h-.32v-.97h1.62v.65h.97v-.32h-.65v-.32h.97v.97ZM12.97,27.86h-.32v-.32h.32v.32ZM16.2,26.57h-4.2v-.32h4.2v.32Z"/>
    <path class="cls-3" d="M18.17,25.89h-2.97v-.39h2.97v.39ZM14.94,25.89h-2.97v-.39h2.97v.39Z"/>
    <path class="cls-3" d="M24.6,11.77h-1.62v-.65h-.97v.32h.65v.32h-.97v-.97h1.29v-.65h.32v1.29h.32v-1.29h.32v1.29h.32v-1.29h.32v1.62ZM21.37,11.77h-1.62v-.65h-.97v.65h-.32v-.97h1.62v.65h.97v-.32h-.65v-.32h.97v.97ZM19.43,11.77h-.32v-.32h.32v.32ZM22.66,10.47h-4.2v-.32h4.2v.32Z"/>
    <path class="cls-3" d="M24.63,12.51h-2.97v-.39h2.97v.39ZM21.4,12.51h-2.97v-.39h2.97v.39Z"/>
    <path class="cls-3" d="M24.61,27.86h-1.62v-.65h-.97v.32h.65v.32h-.97v-.97h1.29v-.65h.32v1.29h.32v-1.29h.32v1.29h.32v-1.29h.32v1.62ZM21.38,27.86h-1.62v-.65h-.97v.65h-.32v-.97h1.62v.65h.97v-.32h-.65v-.32h.97v.97ZM19.44,27.86h-.32v-.32h.32v.32ZM22.67,26.57h-4.2v-.32h4.2v.32Z"/>
    <path class="cls-3" d="M24.64,25.89h-2.97v-.39h2.97v.39ZM21.41,25.89h-2.97v-.39h2.97v.39Z"/>
    <path class="cls-3" d="M56.93,11.77h-1.62v-.65h-.97v.32h.65v.32h-.97v-.97h1.29v-.65h.32v1.29h.32v-1.29h.32v1.29h.32v-1.29h.32v1.62ZM53.69,11.77h-1.61v-.65h-.97v.65h-.32v-.97h1.62v.65h.97v-.32h-.65v-.32h.97v.97ZM51.75,11.77h-.32v-.32h.32v.32ZM54.99,10.47h-4.2v-.32h4.2v.32Z"/>
    <path class="cls-3" d="M56.96,12.51h-2.97v-.39h2.97v.39ZM53.73,12.51h-2.97v-.39h2.97v.39Z"/>
    <path class="cls-3" d="M56.93,27.86h-1.62v-.65h-.97v.32h.65v.32h-.97v-.97h1.29v-.65h.32v1.29h.32v-1.29h.32v1.29h.32v-1.29h.32v1.62ZM53.69,27.86h-1.62v-.65h-.97v.65h-.32v-.97h1.62v.65h.97v-.32h-.65v-.32h.97v.97ZM51.76,27.86h-.32v-.32h.32v.32ZM54.99,26.57h-4.2v-.32h4.2v.32Z"/>
    <path class="cls-3" d="M56.96,25.89h-2.97v-.39h2.97v.39ZM53.73,25.89h-2.97v-.39h2.97v.39Z"/>
    <path class="cls-3" d="M44,11.77h-1.62v-.65h-.97v.32h.64v.32h-.97v-.97h1.29v-.65h.32v1.29h.32v-1.29h.32v1.29h.32v-1.29h.32v1.62ZM40.76,11.77h-1.62v-.65h-.97v.65h-.32v-.97h1.62v.65h.97v-.32h-.65v-.32h.97v.97ZM38.83,11.77h-.32v-.32s.32,0,.32,0v.32ZM42.06,10.47h-4.2v-.32h4.2v.32Z"/>
    <path class="cls-3" d="M44.03,12.51h-2.97v-.39h2.97v.39ZM40.8,12.51h-2.97v-.39h2.97v.39Z"/>
    <path class="cls-3" d="M44,27.86h-1.62v-.65h-.97v.32h.65v.32h-.97v-.97h1.29v-.65h.32v1.29h.32v-1.29h.32v1.29h.32v-1.29h.32v1.62ZM40.77,27.86h-1.61v-.65h-.97v.65h-.32v-.97h1.62v.65h.97v-.32h-.65v-.32h.97v.97ZM38.83,27.86h-.32v-.32s.32,0,.32,0v.32ZM42.06,26.57h-4.2v-.32h4.2v.32Z"/>
    <path class="cls-3" d="M44.03,25.89h-2.97v-.39h2.97v.39ZM40.8,25.89h-2.97v-.39h2.97v.39Z"/>
    <path class="cls-3" d="M50.46,11.77h-1.62v-.65h-.97v.32h.65v.32h-.97v-.97h1.29v-.65h.32v1.29h.32v-1.29h.32v1.29h.32v-1.29h.32v1.62ZM47.23,11.77h-1.62v-.65h-.97v.65h-.32v-.97h1.62v.65h.97v-.32h-.65v-.32h.97v.97ZM45.29,11.77h-.32v-.32h.32v.32ZM48.52,10.47h-4.2v-.32h4.2v.32Z"/>
    <path class="cls-3" d="M50.49,12.51h-2.97v-.39h2.97v.39ZM47.26,12.51h-2.97v-.39h2.97v.39Z"/>
    <path class="cls-3" d="M50.46,27.86h-1.62v-.65h-.97v.32h.65v.32h-.97v-.97h1.29v-.65h.32v1.29h.32v-1.29h.32v1.29h.32v-1.29h.32v1.62ZM47.23,27.86h-1.62v-.65h-.97v.65h-.32v-.97h1.62v.65h.97v-.32h-.65v-.32h.97v.97ZM45.29,27.86h-.32v-.32h.32v.32ZM48.52,26.57h-4.2v-.32h4.2v.32Z"/>
    <path class="cls-3" d="M50.49,25.89h-2.97v-.39h2.97v.39ZM47.26,25.89h-2.97v-.39h2.97v.39Z"/>
    <path class="cls-3" d="M11.67,11.77h-1.62v-.65h-.97v.32h.65v.32h-.97v-.97h1.29v-.65h.32v1.29h.32v-1.29h.32v1.29h.32v-1.29h.32v1.62ZM8.44,11.77h-1.62v-.65h-.97v.65h-.32v-.97h1.62v.65h.97v-.32h-.65v-.32h.97v.97ZM6.5,11.77h-.32v-.32h.32v.32ZM9.73,10.47h-4.2v-.32h4.2v.32Z"/>
    <path class="cls-3" d="M11.71,12.51h-2.97v-.39h2.97v.39ZM8.47,12.51h-2.97v-.39h2.97v.39Z"/>
    <path class="cls-3" d="M11.68,27.86h-1.61v-.65h-.97v.32h.65v.32h-.97v-.97h1.29v-.65h.32v1.29h.32v-1.29h.32v1.29h.32v-1.29h.32v1.62ZM8.45,27.86h-1.62v-.65h-.97v.65h-.32v-.97h1.62v.65h.97v-.32h-.64v-.32h.97v.97ZM6.51,27.86h-.32v-.32h.32v.32ZM9.74,26.57h-4.2v-.32h4.2v.32Z"/>
    <path class="cls-3" d="M11.71,25.89h-2.97v-.39h2.97v.39ZM8.48,25.89h-2.97v-.39h2.97v.39Z"/>
    <path class="cls-3" d="M5.21,11.77h-1.62v-.65h-.97v.32h.65v.32h-.97v-.97h1.29v-.65h.32v1.29h.32v-1.29h.32v1.29h.32v-1.29h.32v1.62ZM1.98,11.77H.36v-.65h-.97v.65h-.32v-.97H.68v.65h.97v-.32h-.65v-.32h.97v.97ZM.04,11.77h-.32v-.32H.04v.32ZM3.27,10.47H-.93v-.32H3.27v.32Z"/>
    <path class="cls-3" d="M5.24,12.51h-2.97v-.39h2.97v.39ZM2.01,12.51H-.96v-.39h2.97v.39Z"/>
    <path class="cls-3" d="M5.22,27.86h-1.62v-.65h-.97v.32h.64v.32h-.97v-.97h1.29v-.65h.32v1.29h.32v-1.29h.32v1.29h.32v-1.29h.32v1.62ZM1.98,27.86H.37v-.65h-.97v.65h-.32v-.97H.69v.65h.97v-.32h-.65v-.32h.97v.97ZM.04,27.86h-.32v-.32H.04v.32ZM3.27,26.57H-.93v-.32H3.27v.32Z"/>
    <path class="cls-3" d="M5.25,25.89h-2.97v-.39h2.97v.39ZM2.02,25.89H-.96v-.39h2.97v.39Z"/>
    <path class="cls-2" d="M29.99,15.52s3.53,2.76.93,6.72c2.44-1.49,2.65-5.6-.93-6.72Z"/>
    <path class="cls-2" d="M28,15.12c-.56.63-1.53,0-1.19-.69.58,1.04,1.19.2,1.19.2,0,0,.62.84,1.19-.2.33.69-.63,1.32-1.19.69Z"/>
    <path class="cls-2" d="M28,23.72l-.4-.53s-.95.32-2.2-.12c1.02,0,1.6-.18,1.81-.29,0,0-2.32-1.25-2.28-3.8.13-2.58,1.51-3.36,1.51-3.36,0,0-2.44,3.56,1.15,6.53l-.16-3.68v-2.7c.2-.05.58-.48.58-.48,0,0,.37.43.58.48v2.7l-.16,3.68c3.59-2.97,1.15-6.53,1.15-6.53,0,0,1.37.78,1.51,3.36.05,2.55-2.28,3.8-2.28,3.8.21.11.78.29,1.81.29-1.25.44-2.2.12-2.2.12l-.4.53Z"/>
    <path class="cls-2" d="M26.01,15.52s-3.53,2.76-.93,6.72c-2.44-1.49-2.65-5.6.93-6.72Z"/>
    <rect class="cls-1" x="-1.25" y="-.5" width="58.5" height="39"/>
  </g>
  <rect class="cls-1" x="0" width="56" height="38" rx="3" ry="3"/>
</svg>