<?xml version="1.0" encoding="UTF-8"?>
<svg id="Capa_1" data-name="Capa 1" xmlns="http://www.w3.org/2000/svg" viewBox="0 0 56 38">
  <defs>
    <style>
      .cls-1 {
        fill: #fcbe0e;
      }

      .cls-2 {
        fill: #e00814;
      }

      .cls-3 {
        fill: #fff;
      }

      .cls-4 {
        fill: #274496;
      }

      .cls-5 {
        fill: #000100;
      }

      .cls-6 {
        fill: #008d47;
      }
    </style>
  </defs>
  <rect class="cls-3" x="-1.25" y="-.5" width="58.5" height="39"/>
  <polygon class="cls-5" points="-1.25 7.31 -1.25 30.69 16.28 19 -1.25 7.31"/>
  <polygon class="cls-1" points="-1.25 4.19 -1.25 7.31 16.28 19 -1.25 30.69 -1.25 33.81 20.97 19 -1.25 4.19"/>
  <polygon class="cls-2" points="10.47 -.5 29.97 12.5 57.25 12.5 57.25 -.5 10.47 -.5"/>
  <polygon class="cls-4" points="10.47 38.5 57.25 38.5 57.25 25.5 29.97 25.5 10.47 38.5"/>
  <polygon class="cls-6" points="29.18 15.1 5.78 -.5 -1.25 -.5 -1.25 4.19 20.97 19 -1.25 33.81 -1.25 38.5 5.78 38.5 29.18 22.9 57.25 22.9 57.25 15.1 29.18 15.1"/>
</svg>