<?xml version="1.0" encoding="UTF-8"?>
<svg id="Capa_1" data-name="Capa 1" xmlns="http://www.w3.org/2000/svg" viewBox="0 0 56 38">
  <defs>
    <style>
      .cls-1 {
        fill: #fff;
      }

      .cls-2 {
        fill: #e40428;
      }
    </style>
  </defs>
  <rect class="cls-2" x="-1.25" y="-.5" width="58.5" height="39"/>
  <path class="cls-1" d="M22.09,26.8c-4.31,0-7.8-3.49-7.8-7.8s3.49-7.8,7.8-7.8c2.3,0,4.37,1,5.8,2.58-1.73-2.72-4.77-4.53-8.24-4.53-5.38,0-9.75,4.37-9.75,9.75s4.37,9.75,9.75,9.75c3.47,0,6.51-1.81,8.24-4.53-1.43,1.59-3.5,2.58-5.8,2.58Z"/>
  <polygon class="cls-1" points="34.11 19 36.19 16.13 32.83 17.23 30.74 14.36 30.74 17.91 27.37 19 30.74 20.1 30.74 23.64 32.83 20.77 36.19 21.87 34.11 19"/>
</svg>