<?xml version="1.0" encoding="UTF-8"?>
<svg id="Capa_1" data-name="Capa 1" xmlns="http://www.w3.org/2000/svg" viewBox="0 0 56 38">
  <defs>
    <style>
      .cls-1 {
        fill: #e41f1a;
      }

      .cls-2 {
        fill: #fff;
      }
    </style>
  </defs>
  <rect class="cls-1" x="-1.25" y="-.5" width="58.5" height="39"/>
  <path class="cls-2" d="M28,9.25c5.42,0,9.81,4.37,9.81,9.75s-4.39,9.75-9.81,9.75-9.81-4.36-9.81-9.75,4.39-9.75,9.81-9.75Z"/>
  <path class="cls-1" d="M24.08,19c0-3.23,2.64-5.85,5.89-5.85,1.54,0,2.94.59,3.99,1.55-1.34-1.82-3.5-3.01-5.95-3.01-4.06,0-7.36,3.27-7.36,7.31s3.29,7.31,7.36,7.31c2.44,0,4.61-1.19,5.95-3.01-1.05.96-2.45,1.55-3.99,1.55-3.25,0-5.89-2.62-5.89-5.85Z"/>
  <polygon class="cls-1" points="31.65 19 33.53 16.42 30.48 17.41 28.6 14.83 28.6 18.02 25.55 19 28.6 19.99 28.6 23.17 30.48 20.6 33.53 21.58 31.65 19"/>
</svg>