<?xml version="1.0" encoding="UTF-8"?>
<svg id="Capa_1" data-name="Capa 1" xmlns="http://www.w3.org/2000/svg" viewBox="0 0 56 38">
  <defs>
    <style>
      .cls-1 {
        fill: none;
      }

      .cls-2 {
        fill: #2c4c9c;
      }

      .cls-3 {
        stroke: #ac6e2a;
        stroke-miterlimit: 20;
        stroke-width: .25px;
      }

      .cls-3, .cls-4 {
        fill: #ffd229;
      }

      .cls-5 {
        fill: #fff;
      }

      .cls-6 {
        fill: #ac6e2a;
      }
    </style>
  </defs>
  <g>
    <rect class="cls-5" x="-1.25" y="-.57" width="58.5" height="39"/>
    <rect class="cls-2" x="20.42" y="3.77" width="36.83" height="4.33"/>
    <rect class="cls-2" x="20.42" y="12.43" width="36.83" height="4.33"/>
    <rect class="cls-2" x="-1.25" y="21.1" width="58.5" height="4.33"/>
    <rect class="cls-2" x="-1.25" y="29.77" width="58.5" height="4.33"/>
    <rect class="cls-1" x="-1.25" y="-.57" width="58.5" height="39"/>
  </g>
  <g>
    <path class="cls-6" d="M14.61,11.57c-.44-.12-.96-.26-1.58-.83l3.7-.67-3.88-.71c1.11-.48,1.49-.98,1.76-1.34.28-.37.44-.6,1.23-.59h.28s-.25-.12-.25-.12c0,0,0,0,0,0h0c-.86-.43-1.24-.21-1.74.08-.39.23-.86.49-1.7.53l2.14-3.09-3.24,2.24c.45-1.13.36-1.74.29-2.19-.07-.46-.11-.74.45-1.28l.2-.19-.26.09c-.92.3-1.03.74-1.18,1.29-.12.44-.26.96-.83,1.58l-.67-3.7-.71,3.88c-.48-1.11-.98-1.49-1.34-1.76-.37-.28-.6-.44-.59-1.23v-.27s-.12.25-.12.25c0,0,0,0,0,0h0c-.43.86-.21,1.24.08,1.74.23.39.49.86.53,1.7l-3.09-2.14,2.25,3.24c-1.13-.45-1.74-.36-2.19-.29-.46.07-.74.11-1.28-.45l-.19-.2.09.26c.3.92.74,1.03,1.29,1.18.44.12.96.26,1.58.83l-3.7.67,3.88.71c-1.11.48-1.49.98-1.76,1.34-.28.37-.44.61-1.23.59h-.28s.25.12.25.12c.35.18.62.24.85.24.34,0,.6-.15.89-.32.39-.23.86-.49,1.7-.53l-2.14,3.1,3.24-2.25c-.45,1.13-.36,1.74-.29,2.19.07.46.11.74-.45,1.29l-.2.19.26-.09c.92-.3,1.03-.73,1.18-1.29.11-.44.26-.96.83-1.58l.67,3.7.71-3.88c.48,1.11.98,1.49,1.34,1.76.37.28.6.44.59,1.23v.28s.12-.25.12-.25c.44-.86.21-1.25-.08-1.74-.23-.39-.49-.86-.53-1.7l3.09,2.14-2.24-3.24c1.13.45,1.74.36,2.19.29.46-.07.74-.11,1.28.45l.19.2-.09-.26c-.3-.92-.74-1.03-1.29-1.18Z"/>
    <g>
      <path class="cls-4" d="M7.53,15.05c-.08.51-.14.92-.41,1.24.38-.25.47-.56.57-.96.12-.45.27-1.02.92-1.71l-.22-1.21c-.63,1.1-.77,1.95-.87,2.63Z"/>
      <path class="cls-4" d="M7.4,15.03c.1-.65.23-1.52.84-2.6l-.75.52h0s-.03.06-.03.06c-.48,1.17-.39,1.78-.33,2.23.05.35.09.62-.14.98.25-.29.32-.68.39-1.19Z"/>
      <path class="cls-4" d="M9.38,12.42v4l.75-4.15c-.24.09-.49.14-.75.15Z"/>
      <path class="cls-4" d="M9.17,12.41s-.06,0-.08,0c-.21-.02-.4-.06-.59-.13l.75,4.15v-4h0s-.06,0-.08-.01Z"/>
      <path class="cls-4" d="M7.01,11.08c-1.22.33-1.92.84-2.48,1.25-.42.31-.76.55-1.18.59.45.1.74-.06,1.1-.27.4-.23.91-.53,1.86-.55l.7-1.01Z"/>
      <path class="cls-4" d="M6.88,10.98l-.89-.16h0s-.06.03-.06.03c-1.17.48-1.54.98-1.81,1.35-.21.28-.38.5-.79.59.39-.03.7-.26,1.12-.57.52-.39,1.24-.91,2.43-1.24Z"/>
      <path class="cls-4" d="M7.61,11.69h0s-.03-.05-.05-.07c-.02-.02-.03-.04-.05-.06-.13-.16-.24-.32-.32-.51l-2.4,3.47,2.83-2.83Z"/>
      <path class="cls-4" d="M7.7,11.78l-2.83,2.83,3.46-2.4c-.24-.11-.45-.25-.64-.43Z"/>
      <path class="cls-4" d="M4.06,8.45c.45.12,1.02.27,1.71.92l1.21-.22c-1.1-.63-1.95-.77-2.63-.87-.51-.08-.92-.14-1.24-.41.25.38.56.47.96.57Z"/>
      <path class="cls-4" d="M6.96,8.99l-.52-.75h0s-.06-.02-.06-.02c-1.17-.48-1.78-.39-2.23-.33-.35.05-.62.09-.98-.14.29.25.68.32,1.19.39.65.1,1.52.23,2.6.84Z"/>
      <path class="cls-4" d="M6.97,10.01h0s0-.06,0-.08c0-.03,0-.06,0-.08.02-.2.06-.4.13-.59l-4.15.76h4Z"/>
      <path class="cls-4" d="M6.97,10.14H2.97l4.15.75c-.09-.24-.14-.49-.15-.75Z"/>
      <path class="cls-4" d="M8.41,7.64l.16-.89h0s-.03-.06-.03-.06c-.48-1.17-.98-1.54-1.35-1.81-.28-.21-.5-.38-.59-.79.03.39.26.7.57,1.12.39.52.91,1.24,1.25,2.43Z"/>
      <path class="cls-4" d="M7.3,7.06l1.01.7c-.33-1.22-.84-1.92-1.25-2.48-.31-.42-.55-.75-.59-1.16-.09.44.07.73.27,1.08.23.4.53.91.55,1.86Z"/>
      <path class="cls-4" d="M7.7,8.37h0s.04-.03.06-.05c.02-.02.04-.03.06-.05.15-.13.32-.24.51-.32l-3.46-2.4,2.83,2.83Z"/>
      <path class="cls-4" d="M7.61,8.46l-2.83-2.83,2.4,3.47c.11-.24.25-.45.43-.64Z"/>
      <path class="cls-4" d="M11.11,5.09c.08-.51.14-.92.41-1.24-.38.25-.47.56-.57.96-.12.45-.27,1.02-.92,1.71l.22,1.21c.64-1.1.77-1.95.87-2.64Z"/>
      <path class="cls-4" d="M11.24,5.11c-.1.65-.23,1.52-.84,2.6l.75-.52h0s.02-.06.02-.06c.48-1.17.39-1.78.33-2.23-.05-.34-.09-.62.14-.98-.25.29-.32.68-.39,1.19Z"/>
      <path class="cls-4" d="M9.47,7.73s.06,0,.08,0c.21.02.4.06.59.13l-.75-4.15v4h0s.06,0,.08,0Z"/>
      <path class="cls-4" d="M9.25,7.73V3.72l-.75,4.15c.24-.09.49-.14.75-.15Z"/>
      <path class="cls-4" d="M11.63,9.07c1.22-.33,1.92-.84,2.48-1.25.42-.31.75-.55,1.16-.59-.44-.09-.73.07-1.08.27-.4.23-.91.53-1.86.55l-.7,1.01Z"/>
      <path class="cls-4" d="M11.75,9.16l.89.16h0s.06-.03.06-.03c1.17-.48,1.54-.98,1.81-1.35.21-.28.38-.5.79-.59-.39.03-.7.26-1.12.57-.52.39-1.24.91-2.43,1.24Z"/>
      <path class="cls-4" d="M11.68,11.15l.52.75h0s.06.02.06.02c1.17.48,1.78.39,2.23.33.34-.05.62-.09.98.14-.29-.25-.68-.32-1.19-.39-.64-.1-1.52-.23-2.6-.84Z"/>
      <path class="cls-4" d="M14.58,11.7c-.45-.12-1.02-.27-1.71-.92l-1.21.22c1.1.64,1.95.77,2.64.87.51.08.92.14,1.24.41-.25-.38-.56-.47-.96-.57Z"/>
      <path class="cls-4" d="M10.22,12.5s0-.02,0-.03l-.17.93h.01s0,0,0,0l.02.06c.48,1.17.98,1.54,1.35,1.81.28.21.5.38.6.79-.03-.38-.26-.7-.57-1.12-.39-.52-.91-1.24-1.25-2.43Z"/>
      <path class="cls-4" d="M11.34,13.08l-1.01-.7c.33,1.23.84,1.92,1.25,2.48.31.42.55.75.59,1.16.09-.44-.07-.73-.27-1.08-.23-.4-.53-.91-.55-1.86Z"/>
      <path class="cls-4" d="M10.93,8.37l2.83-2.83-3.47,2.4c.24.11.45.25.64.43Z"/>
      <path class="cls-4" d="M11.02,8.46h0,0s.03.05.05.07c.02.02.03.04.05.06.13.16.24.32.32.51l2.4-3.47-2.83,2.83Z"/>
      <path class="cls-4" d="M11.67,10.01h4l-4.15-.76c.09.24.14.49.15.76Z"/>
      <path class="cls-4" d="M11.67,10.14h0s0,.06,0,.08c0,.03,0,.06,0,.08-.02.2-.06.4-.13.59l4.15-.76h-4Z"/>
      <path class="cls-4" d="M11.02,11.69l2.83,2.83-2.4-3.47c-.11.24-.25.45-.43.64Z"/>
      <path class="cls-4" d="M10.93,11.78h0s-.04.03-.06.05c-.02.02-.04.03-.06.05-.16.13-.32.24-.51.32l3.46,2.4-2.83-2.83Z"/>
    </g>
    <path class="cls-3" d="M9.32,12.43c1.3,0,2.35-1.05,2.35-2.35s-1.05-2.35-2.35-2.35-2.35,1.06-2.35,2.35,1.05,2.35,2.35,2.35Z"/>
    <path class="cls-6" d="M10.28,9c.53,0,.62.3.77.13-.19-.19-.69-.36-.86-.34-.17.02-.71.41-.62.47.09.06.17-.26.71-.26Z"/>
    <path class="cls-6" d="M10.3,9.73c.15,0,.28-.28.13-.41l-.43-.02c-.13.17.15.43.3.43Z"/>
    <path class="cls-6" d="M10.92,9.54c-.13-.06-.28-.32-.62-.32s-.56.04-.58.3v.02q.23-.21.58-.21c.34,0,.47.21.62.21Z"/>
    <path class="cls-6" d="M9.79,9.58c-.06.09.26.21.49.21s.6-.36.45-.26c-.15.11-.28.17-.51.17s-.34-.26-.43-.13Z"/>
    <path class="cls-6" d="M10.2,10.76s-.06-.17-.24-.19c-.17-.02-.11-.3-.3-.34,0,.09.06.06.09.19,0,.11-.19.11-.24,0,.04.17-.09.17-.19.17v.13c.15,0,.19-.11.36-.11s.41.06.51.15Z"/>
    <path class="cls-6" d="M9.21,11.33l.11.17c.53,0,.45-.1,1.13-.39h0c-.23.09-.3.1-.42.09-.2.07-.37.13-.7.13h-.11Z"/>
    <path class="cls-6" d="M9.66,10.95c-.17,0-.21.04-.34.04l-.11.17h.11c.42,0,.58.03.7.04.1-.03.21-.06.34-.09-.24,0-.56-.17-.71-.17Z"/>
    <path class="cls-6" d="M10.52,9.71c.28-.15.11-.36,0-.41.04.04.21.26,0,.41Z"/>
    <path class="cls-6" d="M10.44,11.11c.05.06.06.08.11.18-.02-.15-.06-.21-.23-.34.05.08.09.12.11.16.01,0,.02,0,.04,0-.01,0-.02,0-.03.01Z"/>
    <path class="cls-6" d="M8.36,9c.53,0,.62.32.71.26.09-.06-.45-.45-.62-.47-.17-.02-.66.15-.85.34.15.17.24-.13.77-.13Z"/>
    <path class="cls-6" d="M8.33,9.73c.15,0,.43-.26.3-.43l-.43.02c-.15.13-.02.41.13.41Z"/>
    <path class="cls-6" d="M8.91,9.54v-.02c-.02-.26-.24-.3-.58-.3s-.49.26-.62.32c.15,0,.28-.21.62-.21s.34,0,.58.21Z"/>
    <path class="cls-6" d="M8.42,9.71c-.24,0-.36-.06-.51-.17-.15-.11.21.26.45.26s.56-.13.49-.21c-.09-.13-.19.13-.43.13Z"/>
    <path class="cls-6" d="M8.95,10.61c.17,0,.21.11.36.11v-.13c-.11,0-.24,0-.19-.17-.04.11-.24.11-.24,0,.02-.13.09-.11.09-.19-.19.04-.13.32-.3.34-.17.02-.26.21-.24.19.11-.09.34-.15.51-.15Z"/>
    <path class="cls-6" d="M9.32,11.16h.11l-.11-.17c-.13,0-.17-.04-.34-.04-.15,0-.47.17-.71.17.14.02.25.05.34.09.12,0,.29-.04.7-.04Z"/>
    <path class="cls-6" d="M8.19,11.11h0c.67.29.6.39,1.12.39l.11-.17h-.11c-.33,0-.5-.07-.7-.13-.12,0-.2,0-.42-.09Z"/>
    <path class="cls-6" d="M8.19,11.11s-.02,0-.03-.01c.01,0,.02,0,.03,0,.02-.03.06-.08.11-.16-.17.13-.21.19-.24.34.06-.1.07-.11.12-.18Z"/>
    <path class="cls-6" d="M8.12,9.71c-.21-.15-.04-.36,0-.41-.11.04-.28.26,0,.41Z"/>
    <path class="cls-6" d="M9.32,11.76c.38,0,.11-.06,0-.06s-.38.06,0,.06Z"/>
  </g>
</svg>