<?xml version="1.0" encoding="UTF-8"?>
<svg id="Capa_1" data-name="Capa 1" xmlns="http://www.w3.org/2000/svg" viewBox="0 0 56 38">
  <defs>
    <style>
      .cls-1 {
        fill: #fff;
      }

      .cls-2 {
        fill: #40ab3a;
      }

      .cls-3 {
        fill: #0ea6db;
      }

      .cls-4 {
        fill: #e41923;
      }
    </style>
  </defs>
  <g>
    <rect class="cls-2" x="-1.25" y="-.5" width="58.5" height="39"/>
    <rect class="cls-3" x="-1.25" y="-.5" width="58.5" height="12.48"/>
    <rect class="cls-4" x="-1.25" y="11.98" width="58.5" height="14.04"/>
    <rect class="cls-1" x="-1.25" y="12.76" width="58.5" height="12.48"/>
  </g>
  <g>
    <path class="cls-1" d="M10.92,6.68c0-1.85,1.35-3.39,3.12-3.69-.2-.03-.41-.06-.62-.06-2.07,0-3.74,1.68-3.74,3.74s1.68,3.74,3.74,3.74c.21,0,.42-.02.62-.06-1.77-.3-3.12-1.83-3.12-3.69Z"/>
    <polygon class="cls-1" points="15.83 9.44 15.66 8.92 15.49 9.44 14.95 9.44 15.39 9.76 15.22 10.28 15.66 9.96 16.1 10.28 15.93 9.76 16.37 9.44 15.83 9.44"/>
    <polygon class="cls-1" points="18.82 9.44 18.65 8.92 18.48 9.44 17.94 9.44 18.38 9.76 18.21 10.28 18.65 9.96 19.09 10.28 18.92 9.76 19.36 9.44 18.82 9.44"/>
    <polygon class="cls-1" points="21.81 9.44 21.65 8.92 21.48 9.44 20.93 9.44 21.37 9.76 21.21 10.28 21.65 9.96 22.09 10.28 21.92 9.76 22.36 9.44 21.81 9.44"/>
    <polygon class="cls-1" points="24.81 9.44 24.64 8.92 24.47 9.44 23.93 9.44 24.37 9.76 24.2 10.28 24.64 9.96 25.08 10.28 24.91 9.76 25.35 9.44 24.81 9.44"/>
    <polygon class="cls-1" points="27.8 9.44 27.63 8.92 27.46 9.44 26.92 9.44 27.36 9.76 27.19 10.28 27.63 9.96 28.07 10.28 27.9 9.76 28.34 9.44 27.8 9.44"/>
    <polygon class="cls-1" points="18.65 5.93 18.48 6.45 17.94 6.45 18.38 6.77 18.21 7.28 18.65 6.97 19.09 7.28 18.92 6.77 19.36 6.45 18.82 6.45 18.65 5.93"/>
    <polygon class="cls-1" points="21.65 5.93 21.48 6.45 20.93 6.45 21.37 6.77 21.21 7.28 21.65 6.97 22.09 7.28 21.92 6.77 22.36 6.45 21.81 6.45 21.65 5.93"/>
    <polygon class="cls-1" points="24.64 5.93 24.47 6.45 23.93 6.45 24.37 6.77 24.2 7.28 24.64 6.97 25.08 7.28 24.91 6.77 25.35 6.45 24.81 6.45 24.64 5.93"/>
    <polygon class="cls-1" points="27.63 5.93 27.46 6.45 26.92 6.45 27.36 6.77 27.19 7.28 27.63 6.97 28.07 7.28 27.9 6.77 28.34 6.45 27.8 6.45 27.63 5.93"/>
    <polygon class="cls-1" points="21.65 2.94 21.48 3.45 20.93 3.45 21.37 3.77 21.21 4.29 21.65 3.97 22.09 4.29 21.92 3.77 22.36 3.45 21.81 3.45 21.65 2.94"/>
    <polygon class="cls-1" points="24.64 2.94 24.47 3.45 23.93 3.45 24.37 3.77 24.2 4.29 24.64 3.97 25.08 4.29 24.91 3.77 25.35 3.45 24.81 3.45 24.64 2.94"/>
    <polygon class="cls-1" points="27.36 3.77 27.19 4.29 27.63 3.97 28.07 4.29 27.9 3.77 28.34 3.45 27.8 3.45 27.63 2.94 27.46 3.45 26.92 3.45 27.36 3.77"/>
  </g>
</svg>